<?xml version="1.0" encoding="utf-8"?>
<!-- Generator: Adobe Illustrator 24.1.0, SVG Export Plug-In . SVG Version: 6.00 Build 0)  -->
<svg version="1.1" id="Layer_1" xmlns="http://www.w3.org/2000/svg" xmlns:xlink="http://www.w3.org/1999/xlink" x="0px" y="0px"
	 viewBox="0 0 462.1 388.6" style="enable-background:new 0 0 462.1 388.6;" xml:space="preserve">
<style type="text/css">
	.st0{fill:#165787;}
	.st1{fill:none;stroke:#FFFFFF;stroke-width:1.2258;stroke-miterlimit:10;}
	.st2{fill:#5F67B2;}
	.st3{fill:none;stroke:#FFFFFF;stroke-width:0.9477;stroke-miterlimit:10;}
	.st4{fill:none;stroke:#FFFFFF;stroke-width:0.9906;stroke-miterlimit:10;}
	.st5{fill:url(#SVGID_1_);}
	.st6{fill:none;stroke:#94C3FF;stroke-width:0.9256;stroke-miterlimit:10;}
	.st7{fill:#A6D0F4;}
	.st8{fill:url(#SVGID_2_);}
	.st9{fill:#CBDCEB;}
	.st10{fill:#BDC5CB;}
	.st11{fill:#FFFFFF;}
	.st12{fill:#EAF1F7;}
	.st13{fill:#4385FF;}
	.st14{fill:#94C3FF;}
	.st15{opacity:0.53;}
	.st16{enable-background:new    ;}
	.st17{fill:#1869F8;}
	.st18{fill:#0D3885;}
	.st19{fill:#C7DAFC;}
	.st20{fill:#B2CCFC;}
	.st21{fill:#5A94FD;}
	.st22{fill:#FF8E54;}
	.st23{fill:#FF5F4D;}
	.st24{fill:#F9FBFC;}
	.st25{fill:#253C72;}
	.st26{fill:#252F4C;}
	.st27{fill:#171E26;}
	.st28{fill:#1F2F3F;}
	.st29{fill:#25437F;}
	.st30{fill:#0050F0;}
</style>
<g id="BACKGROUND">
</g>
<g id="OBJECTS">
	<g>
		<g>
			<path class="st0" d="M166.2,242.3c0,0-53.8-24.1-98.6-20.6c-40.4,3.2-46.9,9-66.8,6.5c5.2,12.8,27,55.2,72,70.5
				c45,15.3,88.6,7.7,105.2-5.1C194.8,280.9,176.6,247.6,166.2,242.3z"/>
			<path class="st1" d="M18.1,236.6c0,0,77,33.7,146.3,26.9"/>
			<line class="st1" x1="36.3" y1="263.5" x2="64" y2="252.4"/>
			<path class="st1" d="M81.3,237.8c0,0.7,13.8,21.4,13.8,21.4"/>
		</g>
		<g>
			<path class="st2" d="M261.5,246c0,0,16.6-42.5,42.9-64.9c23.9-20.2,30.6-20.6,40.2-32.8c4.1,9.9,15.2,45-1.1,77.8
				C327.2,259,299,278.5,283,280.6C266.7,282.6,258.5,254.4,261.5,246z"/>
			<path class="st3" d="M339.7,162.2c0,0-24,60.4-65.7,94.4"/>
			<line class="st3" x1="344.3" y1="186.9" x2="323.1" y2="195.9"/>
			<path class="st3" d="M305.6,197.3c0.4,0.4,4.1,19.2,4.1,19.2"/>
		</g>
		<g>
			<path class="st2" d="M194.8,256.5c0,0-12.8-69.3-57.7-101.4s-75.8-32-102.7-48.7c0,0-2.6,26.9,15.3,68s39.8,74.4,80.9,92.5
				C171.7,284.7,194.8,256.5,194.8,256.5z"/>
			<path class="st1" d="M46,121.7c0,0,74.4,88.6,120.6,128.4"/>
			<line class="st1" x1="55.6" y1="166.1" x2="87" y2="169.8"/>
			<line class="st1" x1="117.8" y1="157.7" x2="109.4" y2="193"/>
			<line class="st1" x1="100.5" y1="227" x2="139.6" y2="225"/>
		</g>
		<g>
			<path class="st0" d="M285,271.8c0,0,27.4-49.9,70-63.1s66.3-5.4,91.1-11.3c0,0-4.9,21.3-29.1,48.2s-49.5,47-85.5,50.3
				C295.5,299.3,285,271.8,285,271.8z"/>
			<path class="st4" d="M433.4,206.3c0,0-79.7,49-125.2,67.7"/>
			<line class="st4" x1="414.7" y1="237.8" x2="389.6" y2="232.8"/>
			<line class="st4" x1="369.2" y1="215.7" x2="366.6" y2="244.8"/>
			<line class="st4" x1="364.8" y1="273.1" x2="335.3" y2="261.7"/>
		</g>
		<g>
			<g>
				
					<linearGradient id="SVGID_1_" gradientUnits="userSpaceOnUse" x1="140.7375" y1="659.8248" x2="334.2001" y2="659.8248" gradientTransform="matrix(1 0 0 1 0 -331.1248)">
					<stop  offset="0" style="stop-color:#FFFFFF"/>
					<stop  offset="1" style="stop-color:#CBDCEB"/>
				</linearGradient>
				<path class="st5" d="M323.8,314.8c13.4,7.7,13.4,20.2,0.1,28L261.7,379c-13.3,7.7-35,7.7-48.2,0l-62.7-36.3
					c-13.4-7.7-13.4-20.2-0.1-28l62.4-36.3c13.3-7.7,35-7.7,48.2,0L323.8,314.8z"/>
			</g>
			<g>
				<g>
					<path class="st6" d="M323.8,298.1c13.4,7.7,13.4,20.2,0.1,28l-62.2,36.2c-13.3,7.7-35,7.7-48.2,0L150.7,326
						c-13.4-7.7-13.4-20.2-0.1-28l62.4-36.3c13.3-7.7,35-7.7,48.2,0L323.8,298.1z"/>
				</g>
				<g>
					<path class="st7" d="M346.1,275.7l-78.2,45.4c-16.7,9.7-43.7,9.7-60.5,0l-78.8-45.4c-8.4-4.9-12.7-11.3-12.7-17.7v9
						c0,6.3,4.1,12.8,12.7,17.7l78.8,45.4c16.8,9.7,43.9,9.7,60.5,0l78.2-45.4c8.3-4.9,12.4-11.1,12.4-17.4v-9
						C358.6,264.6,354.4,271,346.1,275.7z"/>
					
						<linearGradient id="SVGID_2_" gradientUnits="userSpaceOnUse" x1="214.6545" y1="527.0059" x2="297.9945" y2="756.675" gradientTransform="matrix(1 0 0 1 0 -331.1248)">
						<stop  offset="0" style="stop-color:#FFFFFF"/>
						<stop  offset="1" style="stop-color:#CBDCEB"/>
					</linearGradient>
					<path class="st8" d="M345.9,240.6c16.8,9.7,16.8,25.3,0.2,35.1l-78.2,45.4c-16.7,9.7-43.7,9.7-60.5,0l-78.8-45.4
						c-16.8-9.7-16.8-25.3-0.2-35.1l78.2-45.4c16.7-9.7,43.7-9.7,60.5,0L345.9,240.6z"/>
				</g>
			</g>
		</g>
		<g>
			<g>
				<g>
					<polygon class="st9" points="99.2,66.2 99.6,212.6 183,164.5 182.7,17.9 					"/>
				</g>
				<g>
					<g>
						<polygon class="st10" points="110.2,72.3 107.2,70.6 107.6,217.1 110.5,218.7 						"/>
					</g>
					<g>
						<polygon class="st11" points="193.6,24.2 190.7,22.4 107.2,70.6 110.2,72.3 						"/>
					</g>
					<g>
						<polygon class="st12" points="110.2,72.3 110.5,218.7 194,170.6 193.6,24.2 						"/>
					</g>
				</g>
			</g>
			<g>
				<g>
					<polygon class="st7" points="175.8,55.5 175.8,57.7 127.2,85.7 127.2,83.6 					"/>
				</g>
				<g>
					<polygon class="st7" points="154.8,76 154.8,78.1 127.2,94.1 127.2,92 					"/>
				</g>
				<g>
					<polygon class="st7" points="171.9,107.4 171.9,109.4 127.3,135.1 127.3,133.1 					"/>
				</g>
				<g>
					<polygon class="st7" points="154.9,107.8 154.9,109.9 127.3,125.9 127.3,123.8 					"/>
				</g>
				<g>
					<polygon class="st7" points="162.2,95.2 162.2,97.4 127.3,117.5 127.3,115.4 					"/>
				</g>
				<g>
					<polygon class="st7" points="139.9,94 139.9,96 127.3,103.3 127.3,101.3 					"/>
				</g>
			</g>
			<g>
				<g>
					<path class="st13" d="M140.7,141.5c7.8-4.5,15.1-3.3,18.2,3.8c3.8,8.8-0.5,23.6-9.6,34l-2.1-4.9c6.2-7.2,9-17.4,6.5-23.5
						c-2.2-5-7.3-5.7-12.8-2.7c-1.3,0.7-2.7,1.8-4,3l-2.1-4.9C136.6,144.1,138.7,142.6,140.7,141.5z"/>
				</g>
				<g>
					<path class="st14" d="M134.7,146.1l2.1,4.9c-0.4,0.4-0.6,0.6-1,1c-7.1,7.2-10.5,18.4-7.7,24.9c0.1,0.2,0.2,0.5,0.4,0.7
						c0,0.1,0.1,0.1,0.1,0.2c2.1,3.5,6,4.5,10.2,2.7c0.7-0.2,1.3-0.6,2.1-1c0.2-0.1,0.4-0.2,0.6-0.4c0.4-0.2,0.6-0.4,0.9-0.6
						l0.1-0.1c0.6-0.4,1.1-0.9,1.7-1.3c0.1,0,0.1-0.1,0.2-0.1c0.2-0.1,0.4-0.4,0.6-0.6c0.1-0.1,0.1-0.1,0.2-0.2
						c0.2-0.2,0.5-0.5,0.9-0.7c0.4-0.5,0.9-0.9,1.2-1.3l2.1,4.9c-0.4,0.5-0.9,0.9-1.2,1.3c-0.4,0.4-0.7,0.7-1.1,1.1
						c-0.1,0.1-0.2,0.2-0.4,0.2c-0.2,0.2-0.6,0.5-0.9,0.7c-0.1,0.1-0.2,0.1-0.2,0.2c-0.7,0.6-1.6,1.3-2.3,1.8
						c-0.1,0-0.1,0.1-0.2,0.1c-0.4,0.2-0.7,0.5-1.1,0.7l-0.1,0.1c-0.2,0.1-0.5,0.2-0.7,0.5c-0.6,0.4-1.2,0.6-1.7,1
						c-0.5,0.2-0.9,0.4-1.2,0.5c-6.6,2.6-12.4,1-15.1-5.1c-3.9-9.3,1-25,10.8-35.2C133.9,146.7,134.3,146.5,134.7,146.1z"/>
				</g>
			</g>
			<g>
				<g>
					<path class="st14" d="M180.2,147.4v1.1c0,0.6,0.7,1,1.2,0.7l5-2.9c0.2-0.1,0.4-0.4,0.4-0.7v-1.1c0-0.6-0.7-1-1.2-0.7l-5,2.9
						C180.3,146.8,180.2,147.1,180.2,147.4z"/>
				</g>
				<g>
					<path class="st14" d="M164.3,161.8v1.1c0,0.6,0.7,1,1.2,0.7l21-12.1c0.2-0.1,0.4-0.4,0.4-0.7v-1.1c0-0.6-0.7-1-1.2-0.7
						l-21,12.1C164.5,161.2,164.3,161.4,164.3,161.8z"/>
				</g>
				<g class="st15">
					<path class="st14" d="M172.9,167.4v1.1c0,0.6,0.7,1,1.2,0.7l12.3-7.1c0.2-0.1,0.4-0.4,0.4-0.7v-1.1c0-0.6-0.7-1-1.2-0.7
						l-12.3,7.1C173.1,166.9,172.9,167.2,172.9,167.4z"/>
				</g>
				<g>
					<path class="st14" d="M167.5,165.2v1.1c0,0.6,0.7,1,1.2,0.7l17.7-10.1c0.2-0.1,0.4-0.4,0.4-0.7v-1.1c0-0.6-0.7-1-1.2-0.7
						l-17.7,10.1C167.7,164.6,167.5,165,167.5,165.2z"/>
				</g>
			</g>
		</g>
		<g>
			<g class="st16">
				<g>
					<g class="st16">
						<path class="st17" d="M453.5,141.8l-6.9-4c0,0,0,0,0.1,0L453.5,141.8L453.5,141.8"/>
						<path class="st17" d="M453.5,141.8l-6.9-4c0.4-0.1,0.6-0.2,0.9-0.4l6.9,4C454.1,141.6,453.8,141.7,453.5,141.8"/>
						<path class="st17" d="M454.4,141.6l-6.9-4c0.2-0.1,0.5-0.1,0.7-0.1l6.9,4C454.8,141.5,454.5,141.5,454.4,141.6"/>
						<path class="st17" d="M455,141.3l-6.9-4c0.2,0,0.4,0,0.6,0l6.9,4C455.4,141.3,455.3,141.3,455,141.3"/>
						<path class="st17" d="M455.6,141.3l-6.9-4c0.1,0,0.4,0,0.5,0l6.9,4C456,141.3,455.8,141.3,455.6,141.3"/>
						<path class="st17" d="M456.1,141.3l-6.9-4c0.1,0,0.4,0,0.5,0l6.9,4C456.5,141.3,456.4,141.3,456.1,141.3"/>
						<path class="st17" d="M456.6,141.3l-6.9-4c0.1,0,0.2,0,0.5,0.1l6.9,4C456.9,141.5,456.7,141.5,456.6,141.3"/>
						<path class="st17" d="M457.1,141.5l-6.9-4c0.1,0,0.2,0.1,0.4,0.1l6.9,4C457.3,141.6,457.2,141.6,457.1,141.5"/>
						<path class="st17" d="M457.5,141.6l-6.9-4c0.1,0,0.2,0.1,0.4,0.2l6.9,4C457.7,141.7,457.6,141.7,457.5,141.6"/>
						<path class="st17" d="M457.8,141.8l-6.9-4l0,0L457.8,141.8L457.8,141.8"/>
					</g>
				</g>
				<g>
					<g class="st16">
						<path class="st17" d="M444.3,135.5l-6.9-4c0.4-0.1,0.7-0.2,1.1-0.4l6.9,4C445,135.3,444.7,135.4,444.3,135.5"/>
						<path class="st17" d="M445.4,135.1l-6.9-4c0.4-0.1,0.6-0.1,1-0.2l6.9,4C446,135,445.7,135.1,445.4,135.1"/>
						<path class="st17" d="M446.3,135l-6.9-4c0.2,0,0.5-0.1,0.9-0.1l6.9,4C446.9,134.9,446.6,134.9,446.3,135"/>
						<path class="st17" d="M447.1,134.9l-6.9-4c0.2,0,0.5,0,0.7,0l6.9,4C447.6,134.9,447.4,134.9,447.1,134.9"/>
						<path class="st17" d="M447.8,134.9l-6.9-4c0.2,0,0.5,0,0.6,0.1l6.9,4C448.3,135,448.1,134.9,447.8,134.9"/>
						<path class="st17" d="M448.5,135l-6.9-4c0.2,0,0.4,0.1,0.6,0.1l6.9,4C448.9,135.1,448.7,135,448.5,135"/>
						<path class="st17" d="M449.1,135.1l-6.9-4c0.2,0,0.4,0.1,0.6,0.2l6.9,4C449.6,135.3,449.3,135.1,449.1,135.1"/>
						<path class="st17" d="M449.7,135.4l-6.9-4c0.2,0.1,0.4,0.1,0.5,0.2l6.9,4C450,135.5,449.9,135.4,449.7,135.4"/>
						<path class="st17" d="M450.2,135.6l-6.9-4l0,0L450.2,135.6C450.3,135.6,450.3,135.6,450.2,135.6"/>
					</g>
				</g>
				<g>
					<g class="st16">
						<path class="st17" d="M429.1,129.2l-6.9-4c0.7-0.4,1.5-0.7,2.2-1.1l6.9,4C430.5,128.4,429.8,128.8,429.1,129.2"/>
						<path class="st17" d="M431.3,128.1l-6.9-4c0.6-0.2,1.2-0.5,1.7-0.6l6.9,4C432.5,127.7,431.9,127.8,431.3,128.1"/>
						<path class="st17" d="M433.1,127.5l-6.9-4c0.5-0.1,0.9-0.2,1.3-0.2l6.9,4C434,127.3,433.5,127.3,433.1,127.5"/>
						<path class="st17" d="M434.4,127.2l-6.9-4c0.4,0,0.7-0.1,1.1-0.1l6.9,4C435.2,127.1,434.8,127.1,434.4,127.2"/>
						<path class="st17" d="M435.5,127.1l-6.9-4c0.4,0,0.7,0,1,0l6.9,4C436.3,127.1,435.9,127.1,435.5,127.1"/>
						<path class="st17" d="M436.5,127.1l-6.9-4c0.4,0,0.6,0,1,0.1l6.9,4C437.1,127.2,436.9,127.1,436.5,127.1"/>
						<path class="st17" d="M437.5,127.2l-6.9-4c0.2,0,0.6,0.1,0.9,0.2l6.9,4C438.1,127.3,437.7,127.2,437.5,127.2"/>
						<path class="st17" d="M438.3,127.5l-6.9-4c0.2,0.1,0.5,0.1,0.9,0.2l6.9,4C438.8,127.6,438.6,127.5,438.3,127.5"/>
						<path class="st17" d="M439.1,127.7l-6.9-4c0.2,0.1,0.5,0.2,0.7,0.4l6.9,4C439.7,127.9,439.4,127.8,439.1,127.7"/>
						<path class="st17" d="M439.9,128.1l-6.9-4c0,0,0,0,0.1,0L439.9,128.1L439.9,128.1"/>
					</g>
				</g>
				<g>
					<g class="st16">
						<path class="st17" d="M414.7,149.4l-6.9-4c0-0.2,0.1-0.5,0.2-0.7l6.9,4C414.8,148.9,414.8,149.1,414.7,149.4"/>
						<path class="st17" d="M415,148.7l-6.9-4c0.1-0.5,0.2-1.1,0.5-1.6l6.9,4C415.2,147.6,415.1,148.2,415,148.7"/>
						<path class="st17" d="M415.4,147.1l-6.9-4c0.1-0.5,0.4-1,0.5-1.5l6.9,4C415.8,146.1,415.6,146.6,415.4,147.1"/>
						<path class="st17" d="M415.9,145.6l-6.9-4c0.1-0.5,0.4-0.9,0.6-1.3l6.9,4C416.3,144.8,416.2,145.1,415.9,145.6"/>
						<path class="st17" d="M416.5,144.3l-6.9-4c0.2-0.5,0.4-0.9,0.6-1.3l6.9,4C416.9,143.4,416.7,143.8,416.5,144.3"/>
						<path class="st17" d="M417.1,142.9l-6.9-4c0.2-0.5,0.5-0.9,0.6-1.3l6.9,4C417.5,142.1,417.3,142.6,417.1,142.9"/>
						<path class="st17" d="M417.8,141.7l-6.9-4c0.2-0.5,0.5-0.9,0.7-1.3l6.9,4C418.2,140.7,418,141.2,417.8,141.7"/>
						<path class="st17" d="M418.5,140.4l-6.9-4c0.2-0.5,0.5-0.9,0.7-1.3l6.9,4C419,139.5,418.7,139.9,418.5,140.4"/>
						<path class="st17" d="M419.2,139l-6.9-4c0.2-0.5,0.6-0.9,0.9-1.3l6.9,4C419.8,138.2,419.6,138.7,419.2,139"/>
						<path class="st17" d="M420.2,137.8l-6.9-4c0.4-0.5,0.6-1,1-1.3l6.9,4C420.8,136.8,420.4,137.3,420.2,137.8"/>
						<path class="st17" d="M421.2,136.3l-6.9-4c0.4-0.5,0.9-1,1.2-1.5l6.9,4C422,135.4,421.5,135.9,421.2,136.3"/>
						<path class="st17" d="M422.4,134.9l-6.9-4c0.5-0.6,1.1-1.2,1.7-1.8l6.9,4C423.5,133.7,422.9,134.3,422.4,134.9"/>
						<path class="st17" d="M424.1,133.2l-6.9-4c1.6-1.6,3.3-2.9,5.1-3.9l6.9,4C427.4,130.3,425.7,131.6,424.1,133.2"/>
					</g>
				</g>
				<g>
					<polygon class="st18" points="395.6,175.2 388.5,171.2 389.6,170.6 396.6,174.6 					"/>
				</g>
				<g>
					<g class="st16">
						<path class="st18" d="M390,193.6l-6.9-4c-1.3-0.9-2.3-2.6-2.3-5c0-0.5,0-1,0.1-1.6l6.9,4c-0.1,0.5-0.1,1-0.1,1.6
							C387.8,191,388.6,192.9,390,193.6"/>
						<path class="st18" d="M387.9,187.1l-6.9-4c0-0.4,0.1-0.7,0.2-1.1l6.9,4C387.9,186.4,387.9,186.8,387.9,187.1"/>
						<path class="st18" d="M388,186l-6.9-4c0.1-0.2,0.1-0.6,0.2-0.9l6.9,4C388.2,185.4,388.2,185.7,388,186"/>
						<path class="st18" d="M388.3,185.2l-6.9-4c0.1-0.2,0.1-0.5,0.2-0.9l6.9,4C388.4,184.6,388.4,184.8,388.3,185.2"/>
						<path class="st18" d="M388.5,184.3l-6.9-4c0.1-0.2,0.1-0.5,0.2-0.7l6.9,4C388.6,183.9,388.6,184.1,388.5,184.3"/>
						<path class="st18" d="M388.8,183.6l-6.9-4c0.1-0.2,0.2-0.5,0.2-0.7l6.9,4C389,183.1,388.9,183.4,388.8,183.6"/>
						<path class="st18" d="M389,182.9l-6.9-4c0.1-0.2,0.2-0.5,0.4-0.7l6.9,4C389.3,182.5,389.1,182.6,389,182.9"/>
						<path class="st18" d="M389.4,182.3l-6.9-4c0.1-0.2,0.2-0.5,0.4-0.6l6.9,4C389.6,181.8,389.5,182,389.4,182.3"/>
						<path class="st18" d="M389.7,181.5l-6.9-4c0.1-0.2,0.2-0.5,0.4-0.6l6.9,4C390,181.2,389.9,181.3,389.7,181.5"/>
						<path class="st18" d="M390.1,180.9l-6.9-4c0.1-0.2,0.2-0.5,0.4-0.6l6.9,4C390.3,180.4,390.2,180.7,390.1,180.9"/>
						<path class="st18" d="M390.5,180.3l-6.9-4c0.1-0.2,0.2-0.5,0.5-0.7l6.9,4C390.7,179.8,390.6,180.1,390.5,180.3"/>
						<path class="st18" d="M391,179.6l-6.9-4c0.1-0.2,0.4-0.5,0.5-0.7l6.9,4C391.3,179.1,391.1,179.3,391,179.6"/>
						<path class="st18" d="M391.4,178.9l-6.9-4c0.2-0.2,0.4-0.5,0.6-0.7l6.9,4C391.8,178.4,391.7,178.6,391.4,178.9"/>
						<path class="st18" d="M392.1,178.1l-6.9-4c0.2-0.4,0.6-0.6,0.9-0.9l6.9,4C392.7,177.5,392.3,177.8,392.1,178.1"/>
						<path class="st18" d="M392.9,177.2l-6.9-4c0.9-0.9,1.7-1.5,2.6-2.1l6.9,4C394.6,175.7,393.8,176.4,392.9,177.2"/>
					</g>
				</g>
				<g>
					<g class="st16">
						<path class="st18" d="M396.6,174.6l-6.9-4c0-0.5-0.1-1-0.1-1.5c0-0.9,0-1.7,0.1-2.4l6.9,4c-0.1,0.9-0.1,1.7-0.1,2.4
							C396.6,173.6,396.6,174.1,396.6,174.6"/>
						<path class="st18" d="M396.7,170.6l-6.9-4c0.1-0.6,0.1-1.2,0.2-1.8l6.9,4C396.8,169.5,396.8,170.1,396.7,170.6"/>
						<path class="st18" d="M397,168.9l-6.9-4c0.1-0.5,0.2-1,0.4-1.5l6.9,4C397.2,167.9,397,168.4,397,168.9"/>
						<path class="st18" d="M397.3,167.4l-6.9-4c0.1-0.5,0.2-0.9,0.4-1.3l6.9,4C397.7,166.6,397.4,166.9,397.3,167.4"/>
						<path class="st18" d="M397.8,166.1l-6.9-4c0.1-0.4,0.2-0.9,0.5-1.2l6.9,4C398,165.3,397.9,165.7,397.8,166.1"/>
						<path class="st18" d="M398.1,164.9l-6.9-4c0.1-0.4,0.2-0.7,0.5-1.1l6.9,4C398.5,164.1,398.3,164.5,398.1,164.9"/>
						<path class="st18" d="M398.6,163.8l-6.9-4c0.1-0.4,0.4-0.7,0.5-1.1l6.9,4C399,163,398.8,163.4,398.6,163.8"/>
						<path class="st18" d="M399.1,162.7l-6.9-4c0.1-0.4,0.4-0.7,0.6-1.1l6.9,4C399.5,161.9,399.4,162.3,399.1,162.7"/>
						<path class="st18" d="M399.7,161.6l-6.9-4c0.2-0.4,0.4-0.7,0.6-1.1l6.9,4C400.1,160.8,399.9,161.2,399.7,161.6"/>
						<path class="st18" d="M400.3,160.5l-6.9-4c0.2-0.4,0.5-0.7,0.6-1.1l6.9,4C400.7,159.7,400.5,160.1,400.3,160.5"/>
						<path class="st18" d="M400.9,159.4l-6.9-4c0.2-0.4,0.5-0.7,0.7-1.1l6.9,4C401.4,158.6,401.2,159,400.9,159.4"/>
						<path class="st18" d="M401.7,158.3l-6.9-4c0.2-0.4,0.6-0.7,0.9-1.1l6.9,4C402.3,157.5,401.9,157.9,401.7,158.3"/>
						<path class="st18" d="M402.5,157.2l-6.9-4c0.4-0.5,0.7-0.9,1-1.2l6.9,4C403.3,156.3,402.9,156.7,402.5,157.2"/>
						<path class="st18" d="M403.6,155.8l-6.9-4c0.5-0.5,1-1,1.3-1.5l6.9,4C404.5,154.9,404,155.4,403.6,155.8"/>
						<path class="st18" d="M405,154.4l-6.9-4c1.3-1.3,2.8-2.4,4.3-3.3c0.6-0.4,1.2-0.6,1.8-0.9l6.9,4c-0.6,0.2-1.2,0.5-1.8,0.9
							C407.8,151.9,406.3,153,405,154.4"/>
						<path class="st18" d="M411.1,150.2l-6.9-4c0.5-0.2,1-0.4,1.5-0.5l6.9,4C412,149.9,411.5,150,411.1,150.2"/>
						<path class="st18" d="M412.5,149.6l-6.9-4c0.4-0.1,0.7-0.1,1.1-0.2l6.9,4C413.3,149.5,412.9,149.6,412.5,149.6"/>
						<path class="st18" d="M413.6,149.4l-6.9-4c0.4,0,0.6-0.1,1-0.1l6.9,4C414.3,149.4,414,149.4,413.6,149.4"/>
						<path class="st18" d="M414.6,149.4l-6.9-4h0.1l6.9,4C414.7,149.4,414.7,149.4,414.6,149.4"/>
					</g>
				</g>
				<g>
					<path class="st19" d="M429.1,129.2c7.7-4.5,14.1-1.6,15.1,6.3c3.7-1.5,6.9-0.5,8.4,2.9c0.5,1,0.6,2.2,0.7,3.4
						c3.8-1.6,6.8,0.4,6.8,5c0,5-3.4,11-7.8,13.4l-56.8,32.9c-4.3,2.4-7.8,0.5-7.8-4.5s3.4-11,7.8-13.4l1.1-0.6c0-0.5-0.1-1-0.1-1.5
						c0-8,5.7-17.9,12.7-22c1.9-1.1,3.9-1.7,5.5-1.7C416.8,141.2,422.4,133.1,429.1,129.2z"/>
				</g>
			</g>
			<g>
				<path class="st11" d="M430.2,140.6l9.1,8.9c0.2,0.2,0.1,0.5-0.1,0.7l-4.3,2.4c-0.1,0.1-0.2,0.2-0.2,0.4v12.2l-10,5.8v-11.7
					c0-0.4-0.4-0.5-0.6-0.4l-3.2,1.8c-0.4,0.2-0.7-0.1-0.6-0.6l9.1-19.5C429.7,140.5,430.1,140.4,430.2,140.6z"/>
			</g>
		</g>
		<g>
			<g>
				<path class="st20" d="M242.1,11c-1.8-1.1-3.3-0.2-3.3,1.9l-0.2,95.5c0,2.1,1.5,4.6,3.3,5.7L348,175.5c1.8,1.1,3.3,0.2,3.3-1.9
					l0.2-95.6c0-2.1-1.5-4.6-3.3-5.7L242.1,11z"/>
			</g>
			<path class="st18" d="M241.6,10.8c-0.1,0-0.1,0-0.2-0.1h-0.1h-0.1H241h-0.1c-0.1,0-0.1,0-0.2,0l0,0c-0.1,0-0.1,0-0.2,0l0,0
				c-0.1,0-0.1,0-0.1,0l0,0c-0.1,0-0.1,0.1-0.2,0.1l6.3-3.7l0,0c0,0,0.1,0,0.1-0.1l0,0l0,0c0,0,0,0,0.1,0h0.1l0,0l0,0
				c0.1,0,0.1,0,0.2,0l0,0l0,0h0.1l0,0h0.1h0.1c0,0,0,0,0.1,0h0.1c0,0,0,0,0.1,0c0,0,0,0,0.1,0s0.1,0,0.2,0.1c0,0,0,0,0.1,0l0,0
				c0.1,0,0.2,0.1,0.4,0.2l106.1,61.3c0.2,0.1,0.4,0.2,0.6,0.5c0.1,0,0.1,0.1,0.2,0.1c0.1,0.1,0.2,0.1,0.2,0.2l0.1,0.1l0.1,0.1
				l0.1,0.1c0.1,0.1,0.1,0.2,0.2,0.4c0,0,0,0.1,0.1,0.1c0,0,0,0,0,0.1c0,0,0,0.1,0.1,0.1c0.1,0.1,0.1,0.2,0.2,0.2
				c0,0.1,0.1,0.2,0.1,0.2l0,0l0,0c0,0.1,0.1,0.1,0.1,0.2s0.1,0.2,0.1,0.2c0,0.1,0.1,0.1,0.1,0.2l0,0l0,0c0,0.1,0.1,0.2,0.1,0.2
				c0,0.1,0.1,0.2,0.1,0.4v0.1c0,0,0,0,0,0.1v0.1c0,0.1,0.1,0.2,0.1,0.4c0,0.1,0,0.1,0,0.2V73v0.1c0,0.2,0,0.5,0,0.6l-0.2,95.6
				c0,1.1-0.4,1.8-1,2.1l-6.3,3.7c0.6-0.4,1-1.1,1-2.1l0.2-95.6c0-0.2,0-0.5-0.1-0.7V77c0-0.2-0.1-0.5-0.1-0.7c0,0,0,0,0-0.1
				c-0.1-0.2-0.1-0.5-0.2-0.7l0,0c-0.1-0.2-0.2-0.5-0.4-0.7l0,0c-0.1-0.2-0.2-0.5-0.5-0.7c0,0,0,0,0-0.1c-0.1-0.2-0.4-0.4-0.5-0.6
				l-0.1-0.1c-0.1-0.1-0.2-0.2-0.4-0.4c-0.1,0-0.1-0.1-0.2-0.1c-0.2-0.1-0.4-0.4-0.6-0.5L242.1,11c-0.1-0.1-0.2-0.1-0.4-0.2
				C241.6,10.8,241.6,10.8,241.6,10.8z"/>
			<g>
				<g class="st16">
					<g>
						<path class="st21" d="M242,5.8c-1.8-1.1-3.3-0.2-3.3,1.9v6.6l112.7,65.1v-6.6c0-2.1-1.5-4.6-3.3-5.7L242,5.8z"/>
					</g>
					<path class="st17" d="M357.7,68.4L357.7,68.4c0-0.1,0-0.2,0-0.2c0-0.1,0-0.1,0-0.2s0-0.2-0.1-0.4v-0.1c0,0,0,0,0-0.1v-0.1
						c0-0.1-0.1-0.2-0.1-0.4c0-0.1-0.1-0.2-0.1-0.2l0,0l0,0c0-0.1-0.1-0.1-0.1-0.2s-0.1-0.2-0.1-0.2c0-0.1-0.1-0.1-0.1-0.2l0,0l0,0
						c0-0.1-0.1-0.2-0.1-0.2c-0.1-0.1-0.1-0.2-0.2-0.2c0,0,0-0.1-0.1-0.1c0,0,0,0,0-0.1c0,0,0-0.1-0.1-0.1c-0.1-0.1-0.1-0.2-0.2-0.4
						l-0.1-0.1l-0.1-0.1l-0.1-0.1c-0.1-0.1-0.2-0.1-0.2-0.2c-0.1,0-0.1-0.1-0.2-0.1c-0.2-0.1-0.4-0.4-0.6-0.5L248.3,2.1
						c-0.1-0.1-0.4-0.1-0.5-0.2h-0.1h-0.1h-0.1c-0.1,0-0.2,0-0.2-0.1h-0.1l0,0c0,0,0,0-0.1,0s-0.1,0-0.2,0c-0.1,0-0.1,0-0.2,0l0,0
						l0,0h-0.1c0,0-0.1,0-0.1,0.1c0,0-0.1,0-0.1,0.1l0,0l-6.3,3.7c0.1-0.1,0.4-0.1,0.5-0.1l0,0c0.1,0,0.4,0,0.5,0l0,0
						c0.1,0,0.4,0,0.5,0.1h0.1c0.2,0.1,0.4,0.1,0.6,0.2l106.1,61.3c0.2,0.1,0.4,0.2,0.6,0.5c0.1,0,0.1,0.1,0.2,0.1
						c0.1,0.1,0.2,0.2,0.4,0.4l0.1,0.1c0.1,0.2,0.4,0.4,0.5,0.6c0,0,0,0,0,0.1c0.1,0.2,0.4,0.5,0.5,0.7l0,0c0.1,0.2,0.2,0.5,0.4,0.7
						l0,0c0.1,0.2,0.2,0.5,0.2,0.7c0,0,0,0,0,0.1c0.1,0.2,0.1,0.5,0.1,0.7V72c0,0.2,0.1,0.5,0.1,0.7v6.6l6.3-3.7V69
						C357.7,68.9,357.7,68.6,357.7,68.4z"/>
				</g>
			</g>
			<g>
				<g>
					<path class="st11" d="M328.7,59c-1.1-0.6-2.1-0.1-2.1,1.2s1,2.9,2.1,3.5c1.1,0.6,2.1,0.1,2.1-1.2S329.9,59.6,328.7,59z"/>
				</g>
				<g>
					<path class="st11" d="M335.9,63.1c-1.1-0.6-2.1-0.1-2.1,1.2c0,1.3,1,2.9,2.1,3.5s2.1,0.1,2.1-1.2S337,63.7,335.9,63.1z"/>
				</g>
				<g>
					<path class="st11" d="M343,67.2c-1.1-0.6-2.1-0.1-2.1,1.2c0,1.3,1,2.9,2.1,3.5s2.1,0.1,2.1-1.2C345,69.5,344.2,67.9,343,67.2z"
						/>
				</g>
			</g>
			<g>
				<g>
					<polygon class="st11" points="260,49.1 260,51.9 251.7,47.1 251.7,44.1 					"/>
				</g>
				<g class="st16">
					<g>
						<polygon class="st11" points="310.4,132.2 310.4,135 280.7,117.6 280.7,114.8 						"/>
					</g>
					<g>
						<polygon class="st11" points="319.2,117.3 319.2,120.1 280.7,97.5 280.7,94.7 						"/>
					</g>
					<g>
						<polygon class="st11" points="336.4,120.8 336.4,123.6 280.7,90.8 280.7,88 						"/>
					</g>
					<g>
						<polygon class="st11" points="319.6,131 319.6,133.8 265.5,101.9 265.5,99.1 						"/>
					</g>
					<g>
						<polygon class="st11" points="286.3,104.7 286.4,107.5 265.5,95.2 265.5,92.4 						"/>
					</g>
					<g>
						<polygon class="st11" points="336.4,107.4 336.4,110.2 280.7,77.4 280.7,74.6 						"/>
					</g>
					<g>
						<polygon class="st11" points="275.7,91.8 275.7,94.6 265.5,88.5 265.5,85.7 						"/>
					</g>
					<g>
						<polygon class="st11" points="333.2,98.8 333.2,101.6 280.7,70.7 280.6,67.9 						"/>
					</g>
					<g>
						<polygon class="st11" points="327.5,108.8 327.6,111.6 265.4,75.2 265.4,72.3 						"/>
					</g>
					<g>
						<polygon class="st11" points="275.7,71.7 275.7,74.5 265.4,68.5 265.4,65.6 						"/>
					</g>
					<g>
						<polygon class="st11" points="275.7,65 275.7,67.8 265.4,61.8 265.4,58.9 						"/>
					</g>
					<g>
						<polygon class="st11" points="327.5,88.7 327.5,91.6 265.4,55.1 265.4,52.2 						"/>
					</g>
					<g>
						<polygon class="st11" points="315.1,73.7 315.1,76.5 251.7,39.3 251.7,36.5 						"/>
					</g>
				</g>
				<g>
					<polygon class="st11" points="340.4,88.6 340.5,91.5 336.7,89.3 336.7,86.4 					"/>
				</g>
				<g>
					<polygon class="st11" points="260.1,69.2 260.1,72 251.7,67.2 251.7,64.2 					"/>
				</g>
				<g>
					<polygon class="st11" points="275.7,85.1 275.7,87.9 265.5,81.8 265.5,79 					"/>
				</g>
				<g>
					<polygon class="st11" points="275.7,111.9 275.7,114.7 265.5,108.6 265.5,105.8 					"/>
				</g>
			</g>
		</g>
		<g>
			<g>
				<path class="st22" d="M247.2,87c-1.1-3.9-5-7.3-10.7-7.1c-5.5,0.2-9.5,2.7-10.8,6.8c-0.9,2.4-0.6,6.7,0.9,9.7
					c0.7,1.5,2.1,2.9,3.8,4l-1.6,5.7c1.5,1.7,7.4,3.8,11.6,3.5c0,0,0.5-1.9,1.1-4.1c2.8,0.7,4.9-1.5,5.8-4.6
					C247.9,98.8,248.2,90.1,247.2,87z"/>
				<path class="st23" d="M247.2,87c-1.1-3.9-5-7.3-10.7-7.1c-0.1,0-0.2,0-0.2,0l-10.8,7.8c-0.5,2.4-0.1,6.1,1.1,8.8
					c0.7,1.5,2.1,2.9,3.8,4l-1.6,5.7c1.5,1.7,7.4,3.8,11.6,3.5c0,0,0.5-1.9,1.1-4.1c1,0.2,1.9,0.1,2.7-0.2c-0.9-0.4-1.5-1.2-2.1-2.3
					c-1-1.8,2.4-3,2.6-5c0.1-1.8-1-5.1,1.2-6.7c1.1-0.7,1.6-2.2,1.8-3.3C247.5,87.7,247.3,87.3,247.2,87z"/>
				<g>
					<g>
						<ellipse class="st9" cx="238.1" cy="256.7" rx="46.9" ry="29.8"/>
						<path class="st22" d="M259.4,103.8l2.1-1.6l2.6-5.5c0,0,1.5-0.6,1.8-0.7c0.4-0.1,3,0.5,3,0.5s1.3-1.6,1.7-1.8
							c0.4-0.2,1.8-1.8,2.3-1.5c0.6,0.4,0.5,1,0.1,1.5s-1.6,1.7-1.6,1.7l-1.3,3.2l0.1,1.2c0,0,0.7,0,1,0.7c0.2,0.7,0.2,1.5-0.6,1.7
							c-0.9,0.2-1.6,0.6-1.6,0.6s-1.7,1.2-2.6,1.6c-1,0.4-2.1,0.6-2.1,0.6l-0.6,1.5L259.4,103.8z"/>
						<path class="st23" d="M271.3,101.6C271.2,101.5,271.2,101.5,271.3,101.6c-0.5,0-1.1,0-1.5,0.1c-0.6,0.2-1.6,1.6-1.9,1.9
							c-0.4,0.2-2.7,1.3-3.7,0.4c-0.7-0.7-2.4-1.1-3.3-1.2l-1.5,1.1l4.5,3.5l0.6-1.5c0,0,1.1-0.2,2.1-0.6s2.6-1.6,2.6-1.6
							s0.7-0.4,1.6-0.6C271.6,103,271.6,102.4,271.3,101.6z"/>
						<g>
							<path class="st24" d="M257.2,104.8l2.6-2.1c0,0,4.3,1,4.8,4.5l-2.1,2.2L257.2,104.8z"/>
							<path class="st25" d="M243.6,116l13.8-12.8c0,0,6.2,0.4,6.9,5.5l-13.8,15.8C250.4,124.7,243.6,123.2,243.6,116z"/>
							<path class="st26" d="M250.4,124.7l13.8-15.8c-0.2-1.5-0.9-2.4-1.6-3.3c-4.6,6.6-13.2,13.8-13.2,13.8l-1.1,4.6
								C249.5,124.4,250.4,124.7,250.4,124.7z"/>
						</g>
						<g>
							<path class="st27" d="M217.5,250.7l-0.4,5.7c-0.1,1,0.5,1.8,1.3,2.2c0.7,0.4,1.9,0.6,3.4,0.4c3.3-0.5,4.9-2.3,5.4-3.3
								c0.5-1,7.1-5.6,6.3-7.9c-1.2-2.3-3.5,0-5.8,0S220.5,246.6,217.5,250.7z"/>
							<path class="st27" d="M219,162.4c0,0-1.6,38.9-0.7,51c0,0-3,30.5-1.6,37.6c0,0,5.4,3.8,9.9,0.7c1.1-0.4,1.1-1.9,1.1-1.9
								s3-28.5,3.8-37.3c0.7-8.8,6.8-35.1,5.7-40.7C236.1,166.3,228.9,158.3,219,162.4z"/>
							<path class="st27" d="M243.6,258.8c0,0-2.1,6.5-0.6,8c1.5,1.6,3.4,1.9,4.9,1.5c1.3-0.5,2.7-1.1,2.7-1.1l0.5-1.3l0.5,0.9
								c0,0,0.7-0.1,1.8-0.7c1-0.6,3.9-1.7,5.1-2.4c1.2-0.7,3.4-2.1,3.5-3.8c0.1-1.7-5.7-1.1-7.3-1c-1.6,0.1-2.6-0.6-3.2-0.6
								s-6.7,0.7-6.7,0.7"/>
							<path class="st28" d="M253.2,161.7c0,0,1.6,5.8,1.6,17.4c0,11.7-1,41.2-1,41.2s-0.5,30-1,37.5c0,0-3.5,4.6-9.6,1
								c-3-3.5-2.1-6.1-2.1-6.1s-4-18.3-2.6-35.1c0,0-5.6-34-6.6-38.1c-1-4-18.8-5.8-11.8-25.6L253.2,161.7z"/>
							<path class="st29" d="M243.6,179.7c0,0,8.2,3.5,7.2,15.3s-3,19.5-2.1,26.6c1,7.2,2.6,11.2,1.6,20c-0.9,7.1-3.7,13.8-1.5,18.5
								c2.6-0.5,4-2.3,4-2.3c0.5-7.7,1-37.5,1-37.5s1-29.5,1-41.2c0-5-0.2-9-0.6-11.8l-12.7,5.7L243.6,179.7z"/>
						</g>
						<path class="st29" d="M256.7,124.3c0.1-2.6-1.1-4.9-3.2-6.3c-4.6-3-11-7.1-15.1-9.1c-5.1-2.7-10.4-5.5-13.2-5.7
							c-7.8-0.7-12.5,6.6-11.8,16.2c0.5,5.8,1.9,12.3,4.1,19c0.9,2.8,1.5,7.9,1.7,12.5c0,2.2-0.2,4.8-0.9,6.2
							c-1.2,3-2.6,15.2-2.6,15.2s8.6,8.9,19.9,9.6c11.2,0.7,15.5-1.6,15.5-1.6l0.7-5.1l1.6,4.6c0,0,2.1-0.7,2.3-2.8
							c0.2-1.8-1.8-17.5-2.2-20.6c0.6-6.3,1.9-15.6,2.3-19.9C256.2,132.6,256.6,128.2,256.7,124.3z"/>
						<path class="st24" d="M228.9,103.1c0,0,3.7,3.2,12.4,4.4l1.3,3.2c0,0-3.3,0.9-7.7,0.4c-4.3-0.5-7.9-3.9-8.3-4.8
							c-0.4-0.7-0.4-0.7-0.4-0.7L228.9,103.1z"/>
					</g>
				</g>
				<path class="st29" d="M223.8,86.6c0,0,0-5.8,6.3-7.7c6.3-1.8,7.2-1,8.9-2.3c1.8-1.2,4.1-1.6,7.4-0.5c3.3,1,3.8,4.4,2.8,7.4
					s-1.6,4.9-4.1,6.1c-2.6,1.2-2.1,4.4-2.1,4.4s0.5,3.3-1.2,4.6l-1.6-3.8c0,0-1.2,4.4-2.6,5.8c-1.2,1.6-4.1,2.3-6.9,2.3
					c-2.8,0-6.3-6.9-7.4-9.3c-1-2.3,1-4.4,1-4.4S223.3,88.5,223.8,86.6z"/>
				<path class="st26" d="M246.6,124.5c-2.6-6.1-11.8-4.6-24-9.3c-5.8-2.2-6.7-5.6-6-8.5c-2.3,2.9-3.4,7.3-3,12.4
					c0.5,5.8,1.9,12.3,4.1,19c0.9,2.8,1.5,7.9,1.7,12.5c0,2.2-0.2,4.8-0.9,6.2c-1.2,3-2.6,15.2-2.6,15.2s8.6,8.9,19.9,9.6
					c6.2,0.4,10.4-0.1,12.7-0.6c1.8-12.8-6.1-19.1-8-24.9C238.4,150.1,249.2,130.6,246.6,124.5z"/>
				<path class="st26" d="M244.4,78.5c-1.2-2.2-3.4-2.2-5.2-1.8l0,0c-1.8,1.2-2.6,0.5-8.9,2.3c-6.3,1.8-6.3,7.7-6.3,7.7
					c-0.5,1.8,0.7,2.8,0.7,2.8s-2.1,2.1-1,4.4c0.7,1.6,2.6,5.2,4.5,7.4c3.9-0.7,5.7-3.9,5-6.1c-1-3,2.4-0.4,3.4-2.3
					c1.1-1.9-3.4-3.4,1-7.6C242,81.2,246.4,82.3,244.4,78.5z"/>
			</g>
			<g>
				<g>
					<path class="st22" d="M293.7,146.2l2.2-0.5c0,0,3.5-2.8,4.1-3c0.5-0.1,4.9-3.4,5.2-2.7c0.4,0.7-0.1,1.5-0.7,1.8
						c-0.6,0.4-1.8,1-1.8,1l-1.1,1.6c0,0,0.7,1.1,0.7,1.7s0,1.6,0,1.6s0.5,1.1-0.1,2.2c-0.6,1.1-1.9,1.7-2.9,1.7
						c-0.9-0.1-2.9-0.2-2.9-0.2l-1.3,0.2L293.7,146.2z"/>
					<path class="st23" d="M302.2,150c0.4-0.6,0.4-1.2,0.2-1.6c-0.5,0.6-1.3,1.3-1.8,1.3c-1,0.1-2.3,1-3.2-0.4
						c-0.9-1.5-2.7-2.6-2.7-2.6l-0.9-0.1l1.1,5l1.3-0.2c0,0,2.1,0.1,2.9,0.2C300.2,151.7,301.5,151.1,302.2,150z"/>
				</g>
				<g>
					<path class="st9" d="M291.6,145.8l2.7-0.5c0,0,1.9,1.2,2.2,3.9c0,2.4-0.9,3.3-0.9,3.3l-2.2,0.4L291.6,145.8z"/>
					<g>
						<path class="st29" d="M253.3,118.2c0,0,2.8,0.5,4.9,5.2c2.1,4.8,9.1,21.1,10.8,22.4c1.7,1.3,22.7-1.1,22.7-1.1
							s4.1,2.7,3.2,6.1c-1,3-2.3,2.8-2.3,2.8s-20.6,4.8-24.6,5.1c-4.1,0.4-5.8-1.3-6.8-1.9s-9.4-16.9-11.2-19.6
							c-1.7-2.7-6.3-12.2-2.9-15.6C250.3,118.2,253.3,118.2,253.3,118.2z"/>
						<path class="st26" d="M292.4,153.6c0,0,1.3,0.4,2.3-2.8c0.2-0.7,0.1-1.3,0-2.1c-2.4,0.7-5.7,1.7-9.3,2.4
							c-6.5,1.5-14.7,3-20.6,1c-5.8-1.9-11.8-16.2-14-24c-1.1-4-0.7-7.3-0.1-9.5c-1.1,0.5-2.6,1.2-4,2.8c-3.4,3.4,1.2,12.9,2.9,15.6
							s10.1,19,11.2,19.6c1,0.6,2.8,2.3,6.8,1.9C271.9,158.4,292.4,153.6,292.4,153.6z"/>
					</g>
				</g>
			</g>
		</g>
		<g>
			<g>
				<g class="st16">
					<g>
						<polygon class="st30" points="377.9,347.1 386.9,341.9 389,340.6 380,345.9 						"/>
					</g>
					<g>
						<polygon class="st18" points="395.5,362.2 404.5,356.8 404.5,360.2 395.3,365.5 						"/>
					</g>
					<g>
						<polygon class="st18" points="375.7,331.4 384.7,326.1 387.7,327.8 378.7,333.1 						"/>
					</g>
					<g>
						<g class="st16">
							<path class="st18" d="M386.2,335l9-5.2c-0.6,0.4-1.1,0.9-1.5,1.3l-9,5.2C385.1,335.8,385.6,335.4,386.2,335"/>
							<path class="st18" d="M384.7,336.4l9-5.2c-0.1,0.1-0.2,0.4-0.2,0.6l-9,5.2C384.6,336.7,384.6,336.6,384.7,336.4"/>
							<path class="st18" d="M384.5,337l9-5.2c-0.1,0.1-0.1,0.4-0.2,0.5l-9,5.2C384.4,337.2,384.4,337.1,384.5,337"/>
							<path class="st18" d="M384.3,337.5l9-5.2c0,0.1-0.1,0.2-0.1,0.5l-9,5.2C384.1,337.7,384.3,337.6,384.3,337.5"/>
							<path class="st18" d="M384.1,337.8l9-5.2c0,0.1-0.1,0.2-0.1,0.4l-9,5.2C384,338.1,384.1,338,384.1,337.8"/>
							<path class="st18" d="M384,338.3l9-5.2c0,0.1,0,0.2-0.1,0.4l-9,5.2C384,338.6,384,338.4,384,338.3"/>
							<path class="st18" d="M383.9,338.7l9-5.2c0,0.1,0,0.2,0,0.4l-9,5.2C383.9,338.9,383.9,338.8,383.9,338.7"/>
							<path class="st18" d="M383.9,339.1l9-5.2c0,0.1,0,0.2,0,0.4l-9,5.2C383.9,339.3,383.9,339.2,383.9,339.1"/>
							<path class="st18" d="M383.9,339.4l9-5.2c0,0.1,0,0.2,0,0.4l-9,5.2C383.9,339.7,383.9,339.5,383.9,339.4"/>
							<path class="st18" d="M383.8,339.8l9-5.2c0,0.1,0,0.2,0,0.4l-9,5.2C383.8,340,383.8,339.9,383.8,339.8"/>
							<path class="st18" d="M383.8,340.1l9-5.2l0,0c0,0.1,0,0.2,0,0.4l-9,5.2C383.8,340.5,383.8,340.4,383.8,340.1
								C383.8,340.3,383.8,340.3,383.8,340.1"/>
							<path class="st18" d="M383.8,340.6l9-5.2c0,0.1,0,0.2,0,0.4l-9,5.2C383.9,340.9,383.8,340.8,383.8,340.6"/>
							<path class="st18" d="M383.9,341l9-5.2c0,0.1,0,0.2,0,0.4l-9,5.2C383.9,341.2,383.9,341.1,383.9,341"/>
							<path class="st18" d="M383.9,341.4l9-5.2c0,0.1,0,0.2,0,0.4l-9,5.2C383.9,341.6,383.9,341.5,383.9,341.4"/>
							<path class="st18" d="M383.9,341.7l9-5.2c0,0.1,0,0.2,0,0.4l-9,5.2C384,342,383.9,341.9,383.9,341.7"/>
							<path class="st18" d="M384,342.2l9-5.2c0,0.1,0,0.2,0.1,0.4l-9,5.2C384,342.5,384,342.3,384,342.2"/>
							<path class="st18" d="M384,342.6l9-5.2c0,0.1,0,0.2,0.1,0.4l-9,5.2C384.1,342.8,384.1,342.7,384,342.6"/>
							<path class="st18" d="M384.1,342.9l9-5.2c0,0.1,0.1,0.2,0.1,0.5l-9,5.2C384.3,343.3,384.1,343.2,384.1,342.9"/>
							<path class="st18" d="M384.3,343.4l9-5.2c0,0.1,0.1,0.2,0.1,0.5l-9,5.2C384.3,343.7,384.3,343.6,384.3,343.4"/>
							<path class="st18" d="M384.4,343.9l9-5.2c0,0.1,0.1,0.2,0.1,0.5l-9,5.2C384.4,344.2,384.4,344,384.4,343.9"/>
							<path class="st18" d="M384.5,344.3l9-5.2c0,0.1,0.1,0.2,0.1,0.4l-9,5.2C384.6,344.5,384.5,344.4,384.5,344.3"/>
							<path class="st18" d="M384.6,344.8l9-5.2c0,0.1,0.1,0.2,0.1,0.4l-9,5.2C384.7,345,384.6,344.9,384.6,344.8"/>
							<path class="st18" d="M384.7,345.1l9-5.2c0,0.1,0.1,0.2,0.1,0.4l-9,5.2C384.9,345.4,384.7,345.3,384.7,345.1"/>
							<path class="st18" d="M384.9,345.5l9-5.2c0,0.1,0.1,0.2,0.1,0.4l-9,5.2C385,345.8,385,345.6,384.9,345.5"/>
							<path class="st18" d="M385.1,345.9l9-5.2c0,0.1,0.1,0.2,0.1,0.4l-9,5.2C385.1,346.1,385.1,346,385.1,345.9"/>
							<path class="st18" d="M385.2,346.4l9-5.2c0,0.1,0.1,0.2,0.1,0.4l-9,5.2C385.4,346.6,385.2,346.5,385.2,346.4"/>
							<path class="st18" d="M385.4,346.7l9-5.2c0.1,0.1,0.1,0.2,0.2,0.4l-9,5.2C385.5,347,385.5,346.8,385.4,346.7"/>
							<path class="st18" d="M385.6,347.1l9-5.2c0.1,0.1,0.1,0.4,0.2,0.5l-9,5.2C385.7,347.5,385.7,347.2,385.6,347.1"/>
							<path class="st18" d="M385.8,347.6l9-5.2c0.1,0.2,0.2,0.4,0.4,0.6c0,0,0,0,0,0.1l-9,5.2c0,0,0,0,0-0.1
								C386.1,347.9,386,347.8,385.8,347.6"/>
							<path class="st18" d="M386.2,348.3l9-5.2c0.2,0.4,0.5,0.7,0.7,1.1l-9,5.2C386.7,349,386.5,348.7,386.2,348.3"/>
							<path class="st18" d="M386.9,349.4l9-5.2c0.1,0.2,0.4,0.5,0.5,0.6l-9,5.2C387.2,349.8,387.1,349.6,386.9,349.4"/>
							<path class="st18" d="M387.4,350l9-5.2c0.1,0.1,0.2,0.2,0.4,0.5l-9,5.2C387.7,350.4,387.5,350.1,387.4,350"/>
							<path class="st18" d="M387.8,350.5l9-5.2c0.1,0.1,0.2,0.2,0.4,0.4l-9,5.2C387.9,350.7,387.8,350.6,387.8,350.5"/>
							<path class="st18" d="M388,350.9l9-5.2c0.1,0.1,0.2,0.2,0.4,0.4l-9,5.2C388.3,351.1,388.2,351,388,350.9"/>
							<path class="st18" d="M388.4,351.2l9-5.2c0.1,0.1,0.2,0.2,0.4,0.4l-9,5.2C388.5,351.5,388.4,351.4,388.4,351.2"/>
							<path class="st18" d="M388.6,351.6l9-5.2c0.1,0.1,0.2,0.2,0.4,0.4l-9,5.2C388.9,351.8,388.8,351.7,388.6,351.6"/>
							<path class="st18" d="M389,352l9-5.2c0.1,0.1,0.2,0.2,0.4,0.4l-9,5.2C389.3,352.1,389.1,352.1,389,352"/>
							<path class="st18" d="M389.4,352.2l9-5.2c0.1,0.1,0.2,0.2,0.4,0.4l-9,5.2C389.6,352.5,389.5,352.3,389.4,352.2"/>
							<path class="st18" d="M389.7,352.6l9-5.2c0.1,0.1,0.2,0.2,0.4,0.4l-9,5.2C390,352.8,389.9,352.7,389.7,352.6"/>
							<path class="st18" d="M390.1,352.9l9-5.2c0.1,0.1,0.2,0.2,0.4,0.2l-9,5.2C390.3,353.1,390.2,353.1,390.1,352.9"/>
							<path class="st18" d="M390.5,353.2l9-5.2c0.1,0.1,0.2,0.2,0.4,0.2l-9,5.2C390.7,353.4,390.6,353.3,390.5,353.2"/>
							<path class="st18" d="M390.8,353.4l9-5.2c0.1,0.1,0.2,0.1,0.4,0.2l-9,5.2C391,353.7,391,353.5,390.8,353.4"/>
							<path class="st18" d="M391.1,353.7l9-5.2c0.1,0.1,0.2,0.1,0.4,0.2l-9,5.2C391.3,353.9,391.2,353.8,391.1,353.7"/>
							<path class="st18" d="M391.4,353.9l9-5.2c0.1,0.1,0.2,0.1,0.4,0.2l-9,5.2C391.7,354,391.6,354,391.4,353.9"/>
							<path class="st18" d="M391.8,354.2l9-5.2c0,0,0,0,0.1,0s0.1,0.1,0.2,0.1l-9,5.2C392.1,354.3,391.9,354.3,391.8,354.2
								L391.8,354.2"/>
							<path class="st18" d="M392.2,354.3l9-5.2c0.1,0,0.2,0.1,0.4,0.1l-9,5.2C392.3,354.4,392.3,354.4,392.2,354.3"/>
							<path class="st18" d="M392.4,354.5l9-5.2c0.1,0,0.2,0.1,0.4,0.1l-9,5.2C392.7,354.6,392.5,354.5,392.4,354.5"/>
							<path class="st18" d="M392.8,354.6l9-5.2c0.1,0,0.2,0.1,0.4,0.1l-9,5.2C393,354.8,392.9,354.8,392.8,354.6"/>
							<path class="st18" d="M393.2,354.8l9-5.2c0.1,0,0.2,0.1,0.4,0.1l-9,5.2C393.3,354.9,393.3,354.9,393.2,354.8"/>
							<path class="st18" d="M393.4,354.9l9-5.2c0.1,0,0.2,0.1,0.4,0.1l-9,5.2C393.6,355,393.5,355,393.4,354.9"/>
							<path class="st18" d="M393.8,355l9-5.2c0.1,0,0.2,0.1,0.4,0.1l-9,5.2C394,355.1,393.9,355,393.8,355"/>
							<path class="st18" d="M394.1,355.1l9-5.2c0.1,0,0.2,0,0.4,0.1l-9,5.2C394.4,355.1,394.2,355.1,394.1,355.1"/>
							<path class="st18" d="M394.5,355.3l9-5.2c0.1,0,0.2,0,0.4,0l-9,5.2C394.6,355.3,394.6,355.3,394.5,355.3"/>
							<path class="st18" d="M394.7,355.3l9-5.2c0.1,0,0.2,0,0.4,0l-9,5.2C395,355.3,394.9,355.3,394.7,355.3"/>
							<path class="st18" d="M395.1,355.3l9-5.2c0.1,0,0.2,0,0.4,0l-9,5.2C395.5,355.3,395.2,355.3,395.1,355.3"/>
							<path class="st18" d="M395.6,355.3l9-5.2c0.1,0,0.2,0,0.4,0l-9,5.2C395.8,355.3,395.7,355.3,395.6,355.3"/>
							<path class="st18" d="M396,355.3l9-5.2c0.1,0,0.4,0,0.5-0.1l-9,5.2C396.3,355.3,396.1,355.3,396,355.3"/>
							<path class="st18" d="M396.4,355.3l9-5.2c0.2,0,0.4-0.1,0.6-0.1l-9,5.2C396.8,355.1,396.6,355.1,396.4,355.3"/>
							<path class="st18" d="M396.9,355l9-5.2c0.2-0.1,0.5-0.1,0.6-0.2l-9,5.2C397.4,354.9,397.2,355,396.9,355"/>
						</g>
					</g>
					<g>
						<polygon class="st18" points="403.7,359.6 412.9,354.4 415,357.9 405.8,363.2 						"/>
					</g>
					<g>
						<polygon class="st18" points="383,323.6 392.1,318.3 394.1,321.9 385,327.1 						"/>
					</g>
					<g>
						<polygon class="st30" points="377.9,326.4 387.1,321.1 392.1,318.3 383,323.6 						"/>
					</g>
					<g>
						<g class="st16">
							<path class="st30" d="M405.2,356.6l9-5.2c0,0.1,0,0.1-0.1,0.2l-9,5.2C405.2,356.7,405.2,356.6,405.2,356.6"/>
							<path class="st30" d="M405.1,356.8l9-5.2c-0.1,0.2-0.1,0.5-0.2,0.7l-9,5.2C405,357.3,405.1,357.1,405.1,356.8"/>
							<path class="st30" d="M404.8,357.6l9-5.2c-0.1,0.2-0.2,0.5-0.4,0.9l-9,5.2C404.7,358.1,404.7,357.8,404.8,357.6"/>
							<path class="st30" d="M404.6,358.3l9-5.2c-0.1,0.4-0.4,0.6-0.5,1l-9,5.2C404.2,358.9,404.4,358.7,404.6,358.3"/>
							<path class="st30" d="M404,359.3l9-5.2c-0.1,0.1-0.1,0.2-0.2,0.4l-9,5.2C403.9,359.5,404,359.4,404,359.3"/>
						</g>
					</g>
					<g>
						<g class="st16">
							<polyline class="st30" points="385,327.1 394.1,321.9 394.1,321.9 385.1,327.1 385,327.1 							"/>
							<path class="st30" d="M385.1,327.1l9-5.2c0.2,0,0.5,0,0.7,0l-9,5.2C385.5,327.1,385.2,327.1,385.1,327.1"/>
							<path class="st30" d="M385.7,327.1l9-5.2c0.2,0,0.5,0,0.6,0l-9,5.2C386.2,327.1,386,327.1,385.7,327.1"/>
							<path class="st30" d="M386.5,327.1l9-5.2c0.2,0,0.4,0,0.6,0.1l-9,5.2C386.8,327.2,386.6,327.1,386.5,327.1"/>
							<path class="st30" d="M387.1,327.2l9-5.2c0.2,0,0.4,0,0.6,0.1l-9,5.2C387.4,327.2,387.2,327.2,387.1,327.2"/>
							<path class="st30" d="M387.5,327.4l9-5.2c0.2,0,0.4,0.1,0.6,0.1l-9,5.2C388,327.4,387.8,327.4,387.5,327.4"/>
							<path class="st30" d="M388.2,327.5l9-5.2c0.1,0,0.1,0,0.2,0.1l-9,5.2C388.4,327.5,388.3,327.5,388.2,327.5"/>
						</g>
					</g>
					<g>
						<g class="st16">
							<path class="st30" d="M403.9,343.8l9-5.2l0,0L403.9,343.8L403.9,343.8"/>
							<path class="st30" d="M403.9,343.8l9-5.2c0.1,0.2,0.1,0.5,0.2,0.6l-9,5.2C404,344.3,404,344,403.9,343.8"/>
							<path class="st30" d="M404.1,344.4l9-5.2c0.1,0.2,0.1,0.5,0.2,0.7l-9,5.2C404.2,344.9,404.1,344.7,404.1,344.4"/>
							<path class="st30" d="M404.4,345.1l9-5.2c0.1,0.2,0.1,0.5,0.2,0.7l-9,5.2C404.5,345.6,404.4,345.4,404.4,345.1"/>
							<path class="st30" d="M404.6,345.9l9-5.2c0.1,0.2,0.1,0.5,0.2,0.7l-9,5.2C404.7,346.4,404.6,346.1,404.6,345.9"/>
							<path class="st30" d="M404.7,346.6l9-5.2c0.1,0.2,0.1,0.5,0.2,0.7l-9,5.2C404.8,347.1,404.8,346.8,404.7,346.6"/>
							<path class="st30" d="M405,347.3l9-5.2c0.1,0.2,0.1,0.5,0.1,0.7l-9,5.2C405.1,347.8,405,347.6,405,347.3"/>
							<path class="st30" d="M405.1,348.1l9-5.2c0,0.1,0,0.2,0.1,0.4l-9,5.2C405.2,348.3,405.2,348.2,405.1,348.1"/>
						</g>
					</g>
					<g>
						<g class="st16">
							<path class="st30" d="M395.5,331.6l9-5.2l0.1,0.1l-9,5.2C395.6,331.7,395.6,331.6,395.5,331.6"/>
							<path class="st30" d="M395.7,331.7l9-5.2c0.2,0.2,0.4,0.4,0.6,0.6l-9,5.2C396.1,332.1,395.8,332,395.7,331.7"/>
							<path class="st30" d="M396.3,332.4l9-5.2c0.2,0.2,0.4,0.4,0.6,0.6l-9,5.2C396.7,332.7,396.4,332.5,396.3,332.4"/>
							<path class="st30" d="M396.9,333l9-5.2c0.2,0.2,0.4,0.4,0.6,0.6l-9,5.2C397.3,333.3,397,333.1,396.9,333"/>
							<path class="st30" d="M397.4,333.4l9-5.2c0.1,0.2,0.4,0.4,0.5,0.6l-9,5.2C397.8,333.9,397.7,333.7,397.4,333.4"/>
							<path class="st30" d="M398,334.1l9-5.2c0.1,0.2,0.4,0.4,0.5,0.6l-9,5.2C398.3,334.4,398.1,334.3,398,334.1"/>
							<path class="st30" d="M398.5,334.7l9-5.2c0.1,0.1,0.2,0.2,0.4,0.5l-9,5.2C398.8,334.9,398.6,334.8,398.5,334.7"/>
						</g>
					</g>
					<g>
						<polygon class="st30" points="408.1,350.1 417.1,344.9 417.1,352.9 408.1,358.3 						"/>
					</g>
					<g>
						<polygon class="st18" points="405.2,348.4 414.2,343.2 417.1,344.9 408.1,350.1 						"/>
					</g>
					<g>
						<polygon class="st30" points="388.4,324.1 397.4,318.8 404.6,323 395.5,328.2 						"/>
					</g>
					<g>
						<polygon class="st18" points="395.5,328.2 404.6,323 404.5,326.4 395.5,331.6 						"/>
					</g>
					<g>
						<polygon class="st30" points="400.9,333.9 410,328.7 415,337.3 405.9,342.6 						"/>
					</g>
					<g>
						<polygon class="st30" points="398.9,335.2 407.9,329.9 410,328.7 400.9,333.9 						"/>
					</g>
					<g>
						<path class="st19" d="M408.1,358.3l-2.9-1.7c-0.4,1.2-0.7,2.2-1.5,3l2.1,3.5l-5,2.8l-2.1-3.5c-1.1,0.1-2.2,0-3.4-0.4v3.4
							l-7.1-4.1v-3.4c-1.2-1.1-2.3-2.2-3.4-3.5l-2.1,1.2l-5-8.6l2.1-1.2c-0.6-1.6-1.1-3.2-1.3-4.6l-2.9-1.7v-8.2l2.9,1.7
							c0.4-1.2,0.9-2.2,1.5-3l-2.1-3.5l5-2.9l2.1,3.5c1.1-0.1,2.2,0,3.4,0.4v-3.4l7.1,4.1v3.4c1.2,1.1,2.3,2.2,3.4,3.5l2.1-1.2
							l5,8.6l-2.1,1.2c0.6,1.6,1.1,3.2,1.3,4.6l2.9,1.7V358.3z M397.7,354.8c1.5-0.9,2.4-2.8,2.4-5.2s-0.9-5.4-2.3-7.9
							c-1.5-2.7-3.5-4.8-5.7-6.1c-2.2-1.2-4.3-1.5-5.7-0.6c-1.5,0.9-2.4,2.8-2.4,5.2c0,2.4,0.9,5.4,2.3,7.9c1.5,2.7,3.5,4.8,5.7,6.1
							C394,355.5,396.1,355.6,397.7,354.8"/>
					</g>
				</g>
			</g>
			<g>
				<g class="st16">
					<g>
						<polygon class="st30" points="373.9,303.7 379.3,300.6 380.5,299.8 375.1,303 						"/>
					</g>
					<g>
						<polygon class="st18" points="384.3,312.6 389.6,309.4 389.6,311.5 384.3,314.6 						"/>
					</g>
					<g>
						<polygon class="st18" points="372.6,294.3 377.9,291.3 379.6,292.3 374.3,295.4 						"/>
					</g>
					<g>
						<g class="st16">
							<path class="st18" d="M378.8,296.5l5.4-3c-0.4,0.2-0.6,0.5-0.9,0.9l-5.4,3C378.2,297,378.4,296.8,378.8,296.5"/>
							<path class="st18" d="M377.9,297.4l5.4-3c-0.1,0.1-0.1,0.2-0.1,0.4l-5.4,3C377.8,297.6,377.9,297.5,377.9,297.4"/>
							<path class="st18" d="M377.8,297.8l5.4-3c0,0.1-0.1,0.1-0.1,0.2l-5.4,3C377.7,297.9,377.7,297.8,377.8,297.8"/>
							<path class="st18" d="M377.7,298l5.4-3c0,0.1,0,0.1-0.1,0.2l-5.4,3C377.6,298.1,377.7,298.1,377.7,298"/>
							<path class="st18" d="M377.6,298.2l5.4-3c0,0.1,0,0.1-0.1,0.2l-5.4,3C377.6,298.4,377.6,298.4,377.6,298.2"/>
							<path class="st18" d="M377.6,298.5l5.4-3c0,0.1,0,0.1,0,0.2l-5.4,3C377.4,298.6,377.4,298.6,377.6,298.5"/>
							<path class="st18" d="M377.4,298.7l5.4-3c0,0.1,0,0.1,0,0.2l-5.4,3C377.4,298.9,377.4,298.7,377.4,298.7"/>
							<path class="st18" d="M377.4,299l5.4-3c0,0.1,0,0.1,0,0.2l-5.4,3C377.4,299.1,377.4,299,377.4,299"/>
							<path class="st18" d="M377.4,299.2l5.4-3c0,0.1,0,0.1,0,0.2l-5.4,3C377.4,299.3,377.4,299.2,377.4,299.2"/>
							<path class="st18" d="M377.4,299.3l5.4-3c0,0.1,0,0.1,0,0.2l-5.4,3C377.4,299.6,377.4,299.5,377.4,299.3"/>
							<path class="st18" d="M377.4,299.6l5.4-3l0,0c0,0.1,0,0.1,0,0.2l-5.4,3C377.4,299.8,377.4,299.7,377.4,299.6L377.4,299.6"/>
							<path class="st18" d="M377.4,299.8l5.4-3c0,0.1,0,0.1,0,0.2l-5.4,3C377.4,299.9,377.4,299.9,377.4,299.8"/>
							<path class="st18" d="M377.4,300.1l5.4-3c0,0.1,0,0.1,0,0.2l-5.4,3C377.4,300.2,377.4,300.2,377.4,300.1"/>
							<path class="st18" d="M377.4,300.3l5.4-3c0,0.1,0,0.1,0,0.2l-5.4,3C377.4,300.4,377.4,300.4,377.4,300.3"/>
							<path class="st18" d="M377.4,300.6l5.4-3c0,0.1,0,0.1,0,0.2l-5.4,3C377.4,300.7,377.4,300.6,377.4,300.6"/>
							<path class="st18" d="M377.4,300.8l5.4-3c0,0.1,0,0.1,0,0.2l-5.4,3C377.6,300.9,377.4,300.8,377.4,300.8"/>
							<path class="st18" d="M377.6,301l5.4-3c0,0.1,0,0.1,0,0.2l-5.4,3C377.6,301.2,377.6,301.2,377.6,301"/>
							<path class="st18" d="M377.6,301.3l5.4-3c0,0.1,0,0.1,0,0.2l-5.4,3C377.6,301.4,377.6,301.4,377.6,301.3"/>
							<path class="st18" d="M377.7,301.5l5.4-3c0,0.1,0,0.1,0.1,0.2l-5.4,3C377.7,301.7,377.7,301.7,377.7,301.5"/>
							<path class="st18" d="M377.7,301.8l5.4-3c0,0.1,0,0.1,0.1,0.2l-5.4,3C377.8,301.9,377.7,301.9,377.7,301.8"/>
							<path class="st18" d="M377.8,302l5.4-3c0,0.1,0,0.1,0.1,0.2l-5.4,3C377.8,302.3,377.8,302.1,377.8,302"/>
							<path class="st18" d="M377.8,302.3l5.4-3c0,0.1,0,0.1,0.1,0.2l-5.4,3C377.9,302.5,377.9,302.4,377.8,302.3"/>
							<path class="st18" d="M377.9,302.5l5.4-3c0,0.1,0,0.1,0.1,0.2l-5.4,3C378,302.6,377.9,302.6,377.9,302.5"/>
							<path class="st18" d="M378,302.7l5.4-3c0,0.1,0,0.1,0.1,0.2l-5.4,3C378,302.9,378,302.9,378,302.7"/>
							<path class="st18" d="M378.2,303l5.4-3c0,0.1,0.1,0.1,0.1,0.2l-5.4,3C378.2,303.1,378.2,303.1,378.2,303"/>
							<path class="st18" d="M378.2,303.2l5.4-3c0,0.1,0.1,0.1,0.1,0.2l-5.4,3C378.3,303.4,378.3,303.4,378.2,303.2"/>
							<path class="st18" d="M378.3,303.5l5.4-3c0,0.1,0.1,0.1,0.1,0.2l-5.4,3C378.4,303.6,378.4,303.5,378.3,303.5"/>
							<path class="st18" d="M378.4,303.7l5.4-3c0,0.1,0.1,0.2,0.1,0.2l-5.4,3C378.5,303.8,378.5,303.8,378.4,303.7"/>
							<path class="st18" d="M378.5,304l5.4-3c0.1,0.1,0.1,0.2,0.2,0.4l0,0l-5.4,3l0,0C378.7,304.2,378.7,304.1,378.5,304"/>
							<path class="st18" d="M378.8,304.3l5.4-3c0.1,0.2,0.2,0.5,0.4,0.6l-5.4,3C379,304.8,378.9,304.6,378.8,304.3"/>
							<path class="st18" d="M379.3,305.1l5.4-3c0.1,0.1,0.1,0.2,0.2,0.4l-5.4,3C379.4,305.3,379.3,305.2,379.3,305.1"/>
							<path class="st18" d="M379.5,305.4l5.4-3c0.1,0.1,0.1,0.1,0.2,0.2l-5.4,3C379.6,305.6,379.5,305.6,379.5,305.4"/>
							<path class="st18" d="M379.8,305.7l5.4-3c0,0.1,0.1,0.1,0.2,0.2l-5.4,3C379.9,305.8,379.8,305.8,379.8,305.7"/>
							<path class="st18" d="M379.9,305.9l5.4-3c0,0.1,0.1,0.1,0.1,0.2l-5.4,3C380,306,380,306,379.9,305.9"/>
							<path class="st18" d="M380.1,306.2l5.4-3c0.1,0.1,0.1,0.1,0.2,0.2l-5.4,3C380.2,306.3,380.1,306.2,380.1,306.2"/>
							<path class="st18" d="M380.2,306.3l5.4-3c0.1,0.1,0.1,0.1,0.2,0.2l-5.4,3C380.4,306.5,380.4,306.4,380.2,306.3"/>
							<path class="st18" d="M380.5,306.5l5.4-3c0.1,0.1,0.1,0.1,0.2,0.2l-5.4,3C380.6,306.6,380.5,306.6,380.5,306.5"/>
							<path class="st18" d="M380.6,306.8l5.4-3c0.1,0.1,0.1,0.1,0.2,0.2l-5.4,3C380.7,306.9,380.7,306.8,380.6,306.8"/>
							<path class="st18" d="M380.8,306.9l5.4-3c0.1,0.1,0.1,0.1,0.2,0.2l-5.4,3C381,307,381,307,380.8,306.9"/>
							<path class="st18" d="M381.1,307.1l5.4-3c0.1,0,0.1,0.1,0.2,0.1l-5.4,3C381.2,307.3,381.1,307.1,381.1,307.1"/>
							<path class="st18" d="M381.3,307.3l5.4-3c0.1,0,0.1,0.1,0.2,0.1l-5.4,3C381.5,307.4,381.3,307.4,381.3,307.3"/>
							<path class="st18" d="M381.5,307.5l5.4-3c0.1,0,0.1,0.1,0.2,0.1l-5.4,3C381.6,307.5,381.6,307.5,381.5,307.5"/>
							<path class="st18" d="M381.7,307.6l5.4-3c0.1,0,0.1,0.1,0.2,0.1l-5.4,3C381.8,307.7,381.8,307.6,381.7,307.6"/>
							<path class="st18" d="M381.9,307.7l5.4-3c0.1,0,0.1,0.1,0.2,0.1l-5.4,3C382.1,307.9,381.9,307.7,381.9,307.7"/>
							<path class="st18" d="M382.1,307.9l5.4-3l0,0c0,0,0.1,0,0.1,0.1l-5.4,3C382.2,308,382.2,307.9,382.1,307.9
								C382.2,307.9,382.1,307.9,382.1,307.9"/>
							<path class="st18" d="M382.3,308l5.4-3c0.1,0,0.1,0.1,0.2,0.1l-5.4,3C382.4,308,382.3,308,382.3,308"/>
							<path class="st18" d="M382.4,308.1l5.4-3c0.1,0,0.1,0.1,0.2,0.1l-5.4,3C382.7,308.1,382.6,308.1,382.4,308.1"/>
							<path class="st18" d="M382.7,308.1l5.4-3c0.1,0,0.1,0,0.2,0.1l-5.4,3C382.8,308.2,382.8,308.2,382.7,308.1"/>
							<path class="st18" d="M382.9,308.2l5.4-3c0.1,0,0.1,0,0.2,0.1l-5.4,3C383,308.4,382.9,308.2,382.9,308.2"/>
							<path class="st18" d="M383,308.4l5.4-3c0.1,0,0.1,0,0.2,0.1l-5.4,3C383.2,308.4,383.2,308.4,383,308.4"/>
							<path class="st18" d="M383.3,308.4l5.4-3c0.1,0,0.1,0,0.2,0l-5.4,3C383.4,308.5,383.3,308.4,383.3,308.4"/>
							<path class="st18" d="M383.4,308.5l5.4-3c0.1,0,0.1,0,0.2,0l-5.4,3C383.6,308.5,383.5,308.5,383.4,308.5"/>
							<path class="st18" d="M383.6,308.5l5.4-3c0.1,0,0.1,0,0.2,0l-5.4,3C383.8,308.5,383.8,308.5,383.6,308.5"/>
							<path class="st18" d="M383.9,308.5l5.4-3c0.1,0,0.1,0,0.2,0l-5.4,3C384,308.5,383.9,308.5,383.9,308.5"/>
							<path class="st18" d="M384.1,308.5l5.4-3c0.1,0,0.1,0,0.2,0l-5.4,3C384.3,308.6,384.1,308.6,384.1,308.5"/>
							<path class="st18" d="M384.3,308.6l5.4-3c0.1,0,0.1,0,0.2,0l-5.4,3C384.5,308.6,384.4,308.6,384.3,308.6"/>
							<path class="st18" d="M384.5,308.5l5.4-3c0.1,0,0.2,0,0.2,0l-5.4,3C384.7,308.5,384.6,308.5,384.5,308.5"/>
							<path class="st18" d="M384.9,308.5l5.4-3c0.1,0,0.2,0,0.4-0.1l-5.4,3C385,308.5,385,308.5,384.9,308.5"/>
							<path class="st18" d="M385.1,308.4l5.4-3c0.1,0,0.2-0.1,0.4-0.1l-5.4,3C385.4,308.4,385.2,308.4,385.1,308.4"/>
						</g>
					</g>
					<g>
						<polygon class="st18" points="389.1,311 394.5,308 395.7,310.1 390.3,313.2 						"/>
					</g>
					<g>
						<polygon class="st18" points="376.8,289.8 382.2,286.7 383.4,288.9 378.2,291.9 						"/>
					</g>
					<g>
						<polygon class="st30" points="373.9,291.5 379.3,288.4 382.2,286.7 376.8,289.8 						"/>
					</g>
					<g>
						<g class="st16">
							<path class="st30" d="M390,309.3l5.4-3v0.1l-5.4,3C390,309.3,390,309.3,390,309.3"/>
							<path class="st30" d="M390,309.4l5.4-3c0,0.1-0.1,0.2-0.1,0.5l-5.4,3C389.9,309.7,390,309.6,390,309.4"/>
							<path class="st30" d="M389.9,309.8l5.4-3c0,0.1-0.1,0.4-0.2,0.5l-5.4,3C389.7,310.2,389.7,310.1,389.9,309.8"/>
							<path class="st30" d="M389.6,310.3l5.4-3c-0.1,0.2-0.2,0.4-0.2,0.5l-5.4,3C389.5,310.7,389.5,310.5,389.6,310.3"/>
							<path class="st30" d="M389.4,310.9l5.4-3c0,0.1-0.1,0.1-0.1,0.2l-5.4,3C389.3,311,389.3,310.9,389.4,310.9"/>
						</g>
					</g>
					<g>
						<g class="st16">
							<polyline class="st30" points="378.2,291.9 383.4,288.9 383.4,288.9 378.2,291.9 378.2,291.9 							"/>
							<path class="st30" d="M378.2,291.9l5.4-3c0.1,0,0.2,0,0.4,0l-5.4,3C378.4,291.9,378.3,291.9,378.2,291.9"/>
							<path class="st30" d="M378.5,291.9l5.4-3c0.1,0,0.2,0,0.4,0l-5.4,3C378.8,291.9,378.7,291.9,378.5,291.9"/>
							<path class="st30" d="M378.9,291.9l5.4-3c0.1,0,0.2,0,0.4,0l-5.4,3C379.1,291.9,379,291.9,378.9,291.9"/>
							<path class="st30" d="M379.3,291.9l5.4-3c0.1,0,0.2,0,0.4,0l-5.4,3C379.5,292,379.4,291.9,379.3,291.9"/>
							<path class="st30" d="M379.6,292l5.4-3c0.1,0,0.2,0,0.4,0.1l-5.4,3C379.9,292,379.8,292,379.6,292"/>
							<path class="st30" d="M380,292l5.4-3h0.1l-5.4,3C380,292.2,380,292,380,292"/>
						</g>
					</g>
					<g>
						<g class="st16">
							<path class="st30" d="M389.3,301.8l5.4-3l0,0L389.3,301.8L389.3,301.8"/>
							<path class="st30" d="M389.3,301.8l5.4-3c0,0.1,0.1,0.2,0.1,0.4l-5.4,3C389.4,302,389.3,301.9,389.3,301.8"/>
							<path class="st30" d="M389.4,302.1l5.4-3c0,0.1,0.1,0.2,0.1,0.4l-5.4,3C389.5,302.4,389.4,302.3,389.4,302.1"/>
							<path class="st30" d="M389.5,302.5l5.4-3c0,0.1,0.1,0.2,0.1,0.4l-5.4,3C389.6,302.7,389.5,302.6,389.5,302.5"/>
							<path class="st30" d="M389.6,303l5.4-3c0,0.1,0.1,0.2,0.1,0.5l-5.4,3C389.7,303.2,389.6,303.1,389.6,303"/>
							<path class="st30" d="M389.7,303.4l5.4-3c0,0.1,0.1,0.2,0.1,0.5l-5.4,3C389.9,303.7,389.7,303.5,389.7,303.4"/>
							<path class="st30" d="M389.9,303.8l5.4-3c0,0.1,0.1,0.2,0.1,0.5l-5.4,3C390,304.1,389.9,304,389.9,303.8"/>
							<path class="st30" d="M390,304.2l5.4-3c0,0.1,0,0.1,0,0.2l-5.4,3C390,304.5,390,304.3,390,304.2"/>
						</g>
					</g>
					<g>
						<g class="st16">
							<path class="st30" d="M384.3,294.5l5.4-3c0,0,0.1,0,0.1,0.1L384.3,294.5C384.4,294.6,384.3,294.6,384.3,294.5"/>
							<path class="st30" d="M384.4,294.6l5.4-3c0.1,0.1,0.2,0.2,0.4,0.4l-5.4,3C384.6,294.8,384.5,294.7,384.4,294.6"/>
							<path class="st30" d="M384.7,295l5.4-3c0.1,0.1,0.2,0.2,0.4,0.4l-5.4,3C385,295.2,384.9,295.1,384.7,295"/>
							<path class="st30" d="M385.1,295.3l5.4-3c0.1,0.1,0.2,0.2,0.4,0.4l-5.4,3C385.4,295.6,385.2,295.4,385.1,295.3"/>
							<path class="st30" d="M385.5,295.7l5.4-3c0.1,0.1,0.2,0.2,0.4,0.4l-5.4,3C385.6,295.9,385.5,295.8,385.5,295.7"/>
							<path class="st30" d="M385.7,296l5.4-3c0.1,0.1,0.2,0.2,0.2,0.4l-5.4,3C386,296.2,385.8,296.2,385.7,296"/>
							<path class="st30" d="M386.1,296.3l5.4-3c0.1,0.1,0.1,0.1,0.2,0.2l-5.4,3C386.2,296.5,386.1,296.4,386.1,296.3"/>
						</g>
					</g>
					<g>
						<polygon class="st30" points="391.8,305.4 397,302.4 397,307.1 391.7,310.3 						"/>
					</g>
					<g>
						<polygon class="st18" points="390,304.5 395.3,301.4 397,302.4 391.8,305.4 						"/>
					</g>
					<g>
						<polygon class="st30" points="380.1,290.1 385.5,287 389.6,289.5 384.3,292.5 						"/>
					</g>
					<g>
						<polygon class="st18" points="384.3,292.5 389.6,289.5 389.6,291.4 384.3,294.5 						"/>
					</g>
					<g>
						<polygon class="st30" points="387.5,295.9 392.8,292.8 395.8,297.9 390.5,301 						"/>
					</g>
					<g>
						<polygon class="st30" points="386.2,296.7 391.6,293.5 392.8,292.8 387.5,295.9 						"/>
					</g>
					<g>
						<path class="st19" d="M391.7,310.3l-1.7-1c-0.2,0.7-0.5,1.3-0.9,1.8l1.2,2.1l-2.9,1.7l-1.2-2.1c-0.6,0-1.3,0-1.9-0.2v1.9
							l-4.1-2.4v-1.9c-0.7-0.6-1.3-1.3-1.9-2.1l-1.2,0.7l-2.9-5.1l1.2-0.7c-0.4-1-0.6-1.8-0.9-2.8l-1.7-1v-4.8l1.7,1
							c0.2-0.7,0.5-1.3,0.9-1.8l-1.2-2.1l2.9-1.7l1.2,2.1c0.6,0,1.3,0,1.9,0.2v-1.9l4.1,2.4v1.9c0.7,0.6,1.3,1.3,1.9,2.1l1.2-0.7
							l2.9,5.1l-1.2,0.7c0.4,1,0.6,1.8,0.9,2.8l1.7,1V310.3z M385.5,308.2c0.9-0.5,1.5-1.6,1.5-3c0-1.5-0.5-3.2-1.3-4.8
							c-0.9-1.6-2.1-2.8-3.4-3.5c-1.2-0.7-2.4-0.9-3.4-0.4c-0.9,0.5-1.5,1.6-1.5,3c0,1.5,0.5,3.2,1.3,4.8c0.9,1.6,2.1,2.8,3.4,3.5
							C383.4,308.6,384.6,308.7,385.5,308.2"/>
					</g>
				</g>
			</g>
		</g>
	</g>
</g>
</svg>
