<svg xmlns="http://www.w3.org/2000/svg" xmlns:xlink="http://www.w3.org/1999/xlink" viewBox="0 0 360.96 317.24"><defs><style>.cls-1{fill:none;}.cls-2{isolation:isolate;}.cls-16,.cls-17,.cls-19,.cls-3,.cls-34,.cls-35,.cls-36,.cls-38,.cls-39{opacity:0.5;}.cls-3{mix-blend-mode:lighten;fill:url(#Ѕезым_нный_градиент_211);}.cls-4,.cls-5,.cls-6,.cls-7,.cls-8{fill:#42e8e0;}.cls-4{opacity:0.5;}.cls-5{opacity:0.75;}.cls-6{opacity:0.88;}.cls-7{opacity:0.97;}.cls-9{fill:#24126a;}.cls-10{fill:url(#Ѕезым_нный_градиент_24);}.cls-11{fill:url(#Ѕезым_нный_градиент_24-2);}.cls-12{fill:url(#Ѕезым_нный_градиент_24-3);}.cls-13{fill:url(#Ѕезым_нный_градиент_24-4);}.cls-14{fill:url(#Ѕезым_нный_градиент_24-5);}.cls-15{fill:url(#Ѕезым_нный_градиент_3);}.cls-16{fill:url(#Ѕезым_нный_градиент_254);}.cls-17{fill:url(#Ѕезым_нный_градиент_254-2);}.cls-18{fill:#515151;}.cls-20{fill:url(#Ѕезым_нный_градиент_254-3);}.cls-21,.cls-41{fill:#2d2d2d;}.cls-22{fill:url(#Ѕезым_нный_градиент_254-4);}.cls-23{fill:#160a5b;}.cls-24{fill:#453c9e;}.cls-25{fill:#fcd1c5;}.cls-26{fill:#f0f6ff;}.cls-27{fill:#c4ccd6;}.cls-28{fill:#e2b1a6;}.cls-29{fill:#aa8383;}.cls-30{fill:#936d6d;}.cls-31{fill:#263649;}.cls-32{clip-path:url(#clip-path);}.cls-33{fill:#334659;}.cls-34{fill:url(#Ѕезым_нный_градиент_254-5);}.cls-35{fill:url(#Ѕезым_нный_градиент_254-6);}.cls-36{fill:url(#Ѕезым_нный_градиент_254-7);}.cls-37{fill:#180d5b;opacity:0.3;}.cls-38{fill:url(#Ѕезым_нный_градиент_254-8);}.cls-39{fill:url(#Ѕезым_нный_градиент_254-9);}.cls-40{fill:#4846a5;}.cls-41{opacity:0.63;}.cls-42{fill:url(#Ѕезым_нный_градиент_24-6);}.cls-43{fill:url(#Ѕезым_нный_градиент_3-2);}.cls-44{fill:#fff;}.cls-45{fill:#2842a2;}.cls-46{fill:#adb1f2;}.cls-47{fill:#9198db;}.cls-48{fill:url(#Ѕезым_нный_градиент_3-3);}.cls-49{fill:url(#Ѕезым_нный_градиент_3-4);}.cls-50{fill:url(#Ѕезым_нный_градиент_24-7);}</style><radialGradient id="Ѕезым_нный_градиент_211" cx="-2546.53" cy="-340.09" r="141.01" gradientTransform="matrix(-0.87, 0.5, 0.87, 0.5, -1723.81, 1656.52)" gradientUnits="userSpaceOnUse"><stop offset="0" stop-color="#42e8e0"/><stop offset="0.15" stop-color="#33aeb9"/><stop offset="0.31" stop-color="#267a95"/><stop offset="0.47" stop-color="#1b5078"/><stop offset="0.62" stop-color="#132e61"/><stop offset="0.76" stop-color="#0d1651"/><stop offset="0.89" stop-color="#090847"/><stop offset="1" stop-color="#080344"/></radialGradient><linearGradient id="Ѕезым_нный_градиент_24" x1="221.9" y1="213.96" x2="130.11" y2="236.37" gradientUnits="userSpaceOnUse"><stop offset="0" stop-color="#5761d7"/><stop offset="0.18" stop-color="#5c66d9"/><stop offset="0.39" stop-color="#6a73df"/><stop offset="0.61" stop-color="#8289e8"/><stop offset="0.85" stop-color="#a3a7f5"/><stop offset="1" stop-color="#bcbeff"/></linearGradient><linearGradient id="Ѕезым_нный_градиент_24-2" x1="222.58" y1="205.77" x2="324.2" y2="205.77" xlink:href="#Ѕезым_нный_градиент_24"/><linearGradient id="Ѕезым_нный_градиент_24-3" x1="211.13" y1="203.58" x2="187.37" y2="180.62" xlink:href="#Ѕезым_нный_градиент_24"/><linearGradient id="Ѕезым_нный_градиент_24-4" x1="223.82" y1="226.53" x2="312.06" y2="226.53" xlink:href="#Ѕезым_нный_градиент_24"/><linearGradient id="Ѕезым_нный_градиент_24-5" x1="211.47" y1="236.46" x2="228.1" y2="236.46" xlink:href="#Ѕезым_нный_градиент_24"/><linearGradient id="Ѕезым_нный_градиент_3" x1="216.86" y1="219.95" x2="333.15" y2="219.95" gradientUnits="userSpaceOnUse"><stop offset="0" stop-color="#c0bff6"/><stop offset="0.29" stop-color="#c5c4f7"/><stop offset="0.64" stop-color="#d3d2f9"/><stop offset="1" stop-color="#e9e9fd"/></linearGradient><linearGradient id="Ѕезым_нный_градиент_254" x1="158.81" y1="116.59" x2="202.81" y2="116.59" gradientUnits="userSpaceOnUse"><stop offset="0" stop-color="#42e8e0"/><stop offset="0.15" stop-color="#43e3e0"/><stop offset="0.33" stop-color="#45d5df"/><stop offset="0.52" stop-color="#49bddd"/><stop offset="0.72" stop-color="#4e9cdb"/><stop offset="0.93" stop-color="#5472d8"/><stop offset="1" stop-color="#5761d7"/></linearGradient><linearGradient id="Ѕезым_нный_градиент_254-2" x1="158.81" y1="118.78" x2="202.81" y2="118.78" xlink:href="#Ѕезым_нный_градиент_254"/><linearGradient id="Ѕезым_нный_градиент_254-3" x1="254.73" y1="44.28" x2="212.95" y2="151.78" xlink:href="#Ѕезым_нный_градиент_254"/><linearGradient id="Ѕезым_нный_градиент_254-4" x1="212.05" y1="128.75" x2="278.52" y2="128.75" xlink:href="#Ѕезым_нный_градиент_254"/><clipPath id="clip-path"><path class="cls-1" d="M235.5,170.39l-.85-.49c-3.15-1.82-2.76-5,.89-7.11L261.23,148c3.64-2.11,9.15-2.34,12.31-.51l.85.49c3.16,1.82,2.76,5-.88,7.11l-25.69,14.83C244.17,172,238.66,172.21,235.5,170.39Z"/></clipPath><linearGradient id="Ѕезым_нный_градиент_254-5" x1="27.73" y1="165.79" x2="269.37" y2="165.79" xlink:href="#Ѕезым_нный_градиент_254"/><linearGradient id="Ѕезым_нный_градиент_254-6" x1="27.73" y1="186.39" x2="269.37" y2="186.39" xlink:href="#Ѕезым_нный_градиент_254"/><linearGradient id="Ѕезым_нный_градиент_254-7" x1="27.73" y1="158.26" x2="269.37" y2="158.26" xlink:href="#Ѕезым_нный_градиент_254"/><linearGradient id="Ѕезым_нный_градиент_254-8" x1="232.52" y1="158.92" x2="276.52" y2="158.92" xlink:href="#Ѕезым_нный_градиент_254"/><linearGradient id="Ѕезым_нный_градиент_254-9" x1="232.52" y1="161.1" x2="276.52" y2="161.1" xlink:href="#Ѕезым_нный_градиент_254"/><linearGradient id="Ѕезым_нный_градиент_24-6" x1="67.1" y1="164.25" x2="192.18" y2="164.25" gradientTransform="matrix(-1, 0, 0, 1, 273.33, 0)" xlink:href="#Ѕезым_нный_градиент_24"/><linearGradient id="Ѕезым_нный_градиент_3-2" x1="109.12" y1="160.08" x2="234.27" y2="160.08" gradientTransform="matrix(-1, 0, 0, 1, 273.33, 0)" xlink:href="#Ѕезым_нный_градиент_3"/><linearGradient id="Ѕезым_нный_градиент_3-3" x1="101" y1="150.45" x2="133.04" y2="150.45" gradientTransform="matrix(-1, 0, 0, 1, 273.33, 0)" xlink:href="#Ѕезым_нный_градиент_3"/><linearGradient id="Ѕезым_нный_градиент_3-4" x1="103.51" y1="144.68" x2="192.07" y2="144.68" gradientTransform="matrix(-1, 0, 0, 1, 273.33, 0)" xlink:href="#Ѕезым_нный_градиент_3"/><linearGradient id="Ѕезым_нный_градиент_24-7" x1="103.51" y1="167.39" x2="118.72" y2="167.39" gradientTransform="matrix(-1, 0, 0, 1, 273.33, 0)" xlink:href="#Ѕезым_нный_градиент_24"/></defs><g class="cls-2"><g id="_лой_1" data-name="—лой_1"><ellipse class="cls-3" cx="186.96" cy="213.21" rx="172.69" ry="99.71"/><path class="cls-4" d="M331,137.9V102.47c-.82-12.08-5.6-23.59-13.62-34.11v35.43c8,10.53,12.8,22,13.62,34.11ZM313.31,98.82V63.38a102.59,102.59,0,0,0-9.38-9.24V89.57a102.67,102.67,0,0,1,9.38,9.25Zm-15.19-14V49.42a136,136,0,0,0-12-8.14V76.71a136,136,0,0,1,12,8.14Zm-20-2.23V26.25c32.64,17.32,53,42.08,53,69.48v56.38c0-27.4-20.38-52.17-53-69.49Z"/><path class="cls-4" d="M218.44,55.56V45.38q-3.74-.72-7.55-1.33V54.23q3.81.62,7.55,1.33ZM204.86,43.14v-9c-2.59-.36-5.19-.68-7.82-1v9c2.63.29,5.23.61,7.82,1Zm26.65,5.1V36q-3.58-.89-7.26-1.68V46.56q3.67.8,7.26,1.68ZM190.8,41.57V23.44c-2.65-.23-5.34-.42-8-.58V41c2.7.15,5.39.35,8,.57Zm-29.17-1V22.42q-4.09.06-8.15.24V40.79q4.05-.18,8.15-.24Zm-14.49.59V18.33c-2.67.17-5.33.39-8,.63V41.77c2.63-.25,5.29-.46,8-.63Zm29.22-.44V14.61c-2.45-.08-4.9-.14-7.37-.16h-.88V40.53H169c2.47,0,4.92.08,7.37.17ZM133,42.42V9.79q-3.9.45-7.74,1V43.44q3.84-.55,7.74-1ZM108.65,7A277.28,277.28,0,0,1,169,1.11c28.33.29,54.87,4.65,77.95,12.1V69.58C223.86,62.14,197.32,57.77,169,57.49a277.29,277.29,0,0,0-60.34,5.88V7Z"/><path class="cls-4" d="M12.74,83.46V72.11a68.51,68.51,0,0,0-8,15.13v33.61a68.44,68.44,0,0,1,8-15.12V94.38c1-1.41,2-2.8,3.1-4.17v6.12a90.05,90.05,0,0,1,6.78-7.6V82.61C33.25,71.9,47.42,62.52,64.18,55V44q-4.47,2-8.7,4.21c-1.4.73-2.79,1.47-4.15,2.23A128.63,128.63,0,0,0,23.58,70.74c-.33.31-.65.63-1,1V65.57a91.63,91.63,0,0,0-6.78,7.6v6.12c-1.09,1.38-2.13,2.77-3.1,4.17ZM2.53,83.11C8.94,55.6,35.89,31.9,74.12,17.16V73.53C35.89,88.28,8.94,112,2.53,139.48V83.11Z"/><path class="cls-5" d="M22.62,71.69c.31-.32.63-.64,1-1V81.65A121.55,121.55,0,0,1,43.43,66.09q3.81-2.43,7.9-4.7V50.48c1.36-.76,2.75-1.5,4.15-2.23V59.16Q59.71,57,64.18,55v0C47.42,62.52,33.25,71.9,22.62,82.61V71.69ZM12.74,83.46c1-1.4,2-2.79,3.1-4.17V90.21c-1.09,1.37-2.13,2.76-3.1,4.17V83.46Z"/><path class="cls-6" d="M55.48,48.25q4.23-2.19,8.7-4.21V55q-4.47,2-8.7,4.2V48.25Z"/><path class="cls-6" d="M23.58,70.74A121.59,121.59,0,0,1,43.43,55.17V66.09A121.55,121.55,0,0,0,23.58,81.65V70.74Z"/><path class="cls-7" d="M43.43,55.17q3.81-2.43,7.9-4.69V61.39q-4.09,2.28-7.9,4.7V55.17Z"/><path class="cls-5" d="M4.72,87.24a68.51,68.51,0,0,1,8-15.13V83.46a68.51,68.51,0,0,0-8,15.13V109.5a68.44,68.44,0,0,1,8-15.12v11.35a68.44,68.44,0,0,0-8,15.12V87.24Z"/><path class="cls-6" d="M4.72,98.59a68.51,68.51,0,0,1,8-15.13V94.38a68.44,68.44,0,0,0-8,15.12V98.59Z"/><path class="cls-5" d="M15.84,90.21a90.05,90.05,0,0,1,6.78-7.6v6.12a90.05,90.05,0,0,0-6.78,7.6V90.21Zm0-17a91.63,91.63,0,0,1,6.78-7.6v6.12a91.63,91.63,0,0,0-6.78,7.6V73.17Z"/><path class="cls-6" d="M15.84,79.29a91.63,91.63,0,0,1,6.78-7.6V82.61a90.05,90.05,0,0,0-6.78,7.6V79.29Z"/><path class="cls-5" d="M317.41,68.36c8,10.52,12.8,22,13.62,34.11V137.9c-.82-12.07-5.6-23.58-13.62-34.11V68.36Z"/><path class="cls-8" d="M303.93,54.14a102.59,102.59,0,0,1,9.38,9.24V98.82a102.67,102.67,0,0,0-9.38-9.25V54.14Z"/><path class="cls-5" d="M286.16,41.28a136,136,0,0,1,12,8.14V84.85a136,136,0,0,0-12-8.14V41.28Z"/><path class="cls-5" d="M224.25,34.28q3.67.8,7.26,1.68V48.24q-3.58-.89-7.26-1.68V34.28Z"/><path class="cls-5" d="M210.89,44.05q3.81.62,7.55,1.33V55.56q-3.74-.72-7.55-1.33V44.05Z"/><path class="cls-5" d="M197,33.17c2.63.29,5.23.61,7.82,1v9c-2.59-.35-5.19-.67-7.82-1v-9Z"/><path class="cls-5" d="M182.76,22.86c2.7.16,5.39.35,8,.58V41.57c-2.65-.22-5.34-.42-8-.57V22.86Z"/><path class="cls-5" d="M168.11,14.44H169c2.47,0,4.92.08,7.37.16V40.7c-2.45-.09-4.9-.14-7.37-.17h-.88V14.44Z"/><path class="cls-8" d="M153.48,22.66q4.05-.18,8.15-.24V40.55q-4.09.06-8.15.24V22.66Z"/><path class="cls-5" d="M139.18,19c2.63-.24,5.29-.46,8-.63V41.14c-2.67.17-5.33.38-8,.63V19Z"/><path class="cls-8" d="M125.27,10.8q3.84-.56,7.74-1V42.42q-3.9.46-7.74,1V10.8Z"/><path class="cls-9" d="M220.39,256.67a5.07,5.07,0,1,1-5.07-5.07A5.07,5.07,0,0,1,220.39,256.67Z"/><path class="cls-9" d="M270.29,200.06a5.07,5.07,0,1,1-5.06-5.07A5.07,5.07,0,0,1,270.29,200.06Z"/><circle class="cls-9" cx="276.13" cy="238.75" r="5.07"/><path class="cls-9" d="M171.71,229.2a5.07,5.07,0,1,1-5.07-5.07A5.06,5.06,0,0,1,171.71,229.2Z"/><path class="cls-9" d="M203,195A5.07,5.07,0,1,1,198,189.9,5.06,5.06,0,0,1,203,195Z"/><path class="cls-10" d="M222.51,213.73l-55.7,10.73a5,5,0,0,0-.69.11l0-.37-2.68-.68v3.16h0a1.64,1.64,0,0,0,0,.38c.34,1.23,2.35,2.08,4.5,1.88l55.7-10.73Z"/><path class="cls-11" d="M269.17,194.62l-1.69,1.43a6.36,6.36,0,0,0-5.22.39l-39.68,17.27,5.56,3.21,39.67-17.27a2.23,2.23,0,0,0,1.35-1.88h0Z"/><path class="cls-12" d="M201.72,190.77c-1-1.12-3.35-1.56-5.28-1h0a3.58,3.58,0,0,0-.63.23,2.88,2.88,0,0,0-.35-.45,7.84,7.84,0,0,0-1.16-.83v3.15h0a1.55,1.55,0,0,0,.42,1l25.6,23.38,7-2.06Z"/><path class="cls-13" d="M279.79,233.39l-.94.33-.54,1.13a4.42,4.42,0,0,0-.67-.25l-50.25-20.42-3.57,4,50.26,20.42c1.93.57,4.29.12,5.28-1h0a1.5,1.5,0,0,0,.41-1.05h0Z"/><path class="cls-14" d="M220.34,216.25l-8.25,35.36-.62-.32v3.27h0c.11,1,1.44,1.92,3.3,2.09,2.14.2,4.15-.64,4.49-1.88L228.1,217Z"/><path class="cls-15" d="M277.64,231.45,231,212.51l36.78-16c1.65-.95,1.83-2.39.4-3.21l-.38-.23a6.21,6.21,0,0,0-5.57.23l-36.78,16-23.76-21.69c-1-1.12-3.35-1.56-5.28-1h0c-1.93.57-2.7,1.93-1.71,3.05l23.75,21.68-51.67,9.95c-2.15.2-3.61,1.36-3.27,2.6s2.35,2.08,4.5,1.88l51.66-9.95-8.18,35.06c-.34,1.24,1.12,2.4,3.27,2.6s4.15-.65,4.49-1.89l8.18-35.06,46.62,18.94c1.93.57,4.29.13,5.28-1S279.57,232,277.64,231.45ZM226,212.56l-.87,1-1.89-.17-.3-1.09,1.7-.5Z"/><path class="cls-9" d="M224.43,215.46h0a4.07,4.07,0,0,1-4.07-4.07v-47h8.13v47A4.07,4.07,0,0,1,224.43,215.46Z"/><path class="cls-16" d="M161.79,128.07l-.85-.5c-3.16-1.82-2.76-5,.88-7.1l25.69-14.84c3.65-2.1,9.16-2.33,12.32-.51l.85.49c3.16,1.83,2.76,5-.88,7.11l-25.7,14.84C170.46,129.66,165,129.89,161.79,128.07Z"/><path class="cls-17" d="M202.81,108.44h0a3.79,3.79,0,0,0-2.11-2.84l-.85-.49c-3.16-1.82-8.67-1.59-12.32.51l-25.69,14.84c-1.93,1.11-2.94,2.53-3,3.89h0v4.47h0a3.64,3.64,0,0,0,2.12,3.1l.85.49c3.16,1.82,8.67,1.59,12.31-.51l25.7-14.83c1.87-1.08,2.88-2.45,3-3.77h0Z"/><path class="cls-18" d="M216.18,148.77l-53.81,31c-2.66,1.54-4.83-.09-4.83-3.65h0c0-3.55,2.17-7.68,4.83-9.22L224,131.37v2.43C224,139.57,220.51,146.27,216.18,148.77Z"/><g class="cls-19"><path class="cls-20" d="M220.15,16.16h0c-1.87-1-4.28-.87-6.91.65l-1.61.92c-5.95,3.44-10.77,12.66-10.77,20.59V144.74l14.3-8.25v3.38l-17.15,14-39,26.12,54.76,30.95,31.48-24.23,17.92-15.31L274.38,46.83Z"/></g><path class="cls-21" d="M180,191.82a6.65,6.65,0,0,1,1.42-6.73c2.88-2.88,18-9.25,19.11-9.93s6.54-4.69,6.54-4.69l1.66-3.72s-30.73,3-31.14,3.47-14.39,13-14,13.57,9.64,2.78,9.64,2.78l1.78,2.44Z"/><path class="cls-22" d="M267.75,47.61l-1.61.93c-5.95,3.43-10.77,12.65-10.77,20.58V175.53l-38.49,22.2c-2.67,1.54-4.83,5.67-4.83,9.23h0c0,3.55,2.16,5.18,4.83,3.65l53.81-31c4.33-2.5,7.83-9.2,7.83-15V55.75C278.52,47.82,273.7,44.17,267.75,47.61Z"/><path class="cls-23" d="M165.48,214.87S157.55,220,154.87,223s-8,9.14-5.8,12.06,9.56,4.56,17.49-2.74,5.67-7.74,12.43-11.36,8.61-7.56,7.8-9.81-4.15-6.23-6-5.38S165.48,214.87,165.48,214.87Z"/><path class="cls-23" d="M204,236.23a80,80,0,0,1-4.32,8.34c-1.46,2.08-8.58,14.07-4.86,16.82s10.75,2,16.31-4.05S218,244,219.35,241.53s4.79-8.86,3.17-12.58-2-4.35-2-4.35Z"/><path class="cls-9" d="M175.25,147.05S151.69,170.29,147.83,182a13,13,0,0,0,2.92,11.26c4.56,4.94,14.23,21.11,14.23,21.11s7.21,8.73,16.53,1.75c0,0,4.21-6.73,1.62-11.21s-9.48-18.77-9.48-18.77,15.11-10.4,22.57-13a103.79,103.79,0,0,0,11.43-4.66,35.75,35.75,0,0,1-6.81,13.9c-5.45,6.87-14.59,17.89-11.55,25.57A64.35,64.35,0,0,0,197,222.35c2.86,4.42,5.56,13.64,8,14.59s13.7,2.07,15.53-5.27-3.84-21.59-6.4-26.41c0,0,30.47-35.15,33.37-39S184.68,141.09,175.25,147.05Z"/><path class="cls-23" d="M183.13,204.87c-2.59-4.47-9.48-18.77-9.48-18.77s15.11-10.4,22.57-13a103.79,103.79,0,0,0,11.43-4.66,77.05,77.05,0,0,0,8.13-15.51c-17.18-5-35.84-8.83-40.53-5.86,1.66,4.11,10.42,4.08,10.42,4.08s3.27,8,5.44,9,7.36-.1,7.36-.1-.84,1.31-4.54,4-26.88,21.66-26.88,21.66,1.32.75,7.49,11.91,7,18.51,7,18.51S185.72,209.35,183.13,204.87Z"/><path class="cls-23" d="M235.21,159.38c-13.62-1.3-29.48-1.41-25.91,5.74a22.84,22.84,0,0,0,18.24,12.67c-.08,4.46-18.77,26-18.77,26l4.35,8.47c4.36,8.47,3.81,23.89,3.81,23.89a6.85,6.85,0,0,0,3.55-4.47c1.82-7.33-3.84-21.59-6.4-26.41,0,0,30.47-35.15,33.37-39C248.31,165.1,243.15,162.43,235.21,159.38Z"/><path class="cls-24" d="M151.43,85.09l3.62-2.81s19.53-10.85,26-14.36c3.52-1.9,7.17-5.31,9.78-8a13.61,13.61,0,0,1,9.75-4.15l34.22-.17s4,6.39,5.33,7.65c1,.92,10.27,8.7,16.93,15.11a28.84,28.84,0,0,1,7.76,12.91c3.81,13.44,3.76,40.52,4.33,59.89A60.65,60.65,0,0,1,261,153.3c-5.83,1.24-5.11.45-5.11.45s-8.73,19.64-20.57,21.54-27.81-3.64-30.65-22.24c0,0-23.09-3.46-29.36-6a1,1,0,0,1-.4-1.45c2.79-3.71,13.2-18.07,14.19-27.43,1.15-10.82.8-26.53-.06-30.82,0,0-17.41,6.56-23,7.72,0,0-21.2,23.3-30.06,29.64,0,0,3-4.77-3.06-8Z"/><path class="cls-9" d="M261,153.3c.88-.19,1.68-.37,2.41-.55l-1.23-2.41L230,146.94l-18.76,1L204.82,154a30.13,30.13,0,0,0,1.52,5.51s8,1.15,11.67.36,32.28,3.42,32.33,3.42a65.42,65.42,0,0,0,5.5-9.53C255.81,154,256.16,154.32,261,153.3Z"/><path class="cls-25" d="M217.61,142.08a.28.28,0,0,0-.26-.21c-1.55,0-11.59-.33-15.38-1.64-4.12-1.42-8.48-1.16-8.7-.93s-7.08,3.15-7.48,4.33-1,4.69-.12,6A20.23,20.23,0,0,1,187,151.9l.72.08a21.46,21.46,0,0,0,1.44,2.46,4.12,4.12,0,0,1,.56.92c.43.93,1.19,2.47,1.51,2.51a16.46,16.46,0,0,0,3.11.33c.45-.12.84-1.46.66-2.06a.25.25,0,0,1,.2-.34,29.64,29.64,0,0,1,7.29-.15c4.47.41,10.78-2.51,11.35-2.78a.17.17,0,0,1,.1,0l6.29-.57a.28.28,0,0,0,.25-.36Z"/><path class="cls-26" d="M210,75.72s-5.36,19.75.3,40.05c0,0,20.62-38.46,22.86-44.7s3-10.67.95-12.91-20.71,9.33-20.71,9.33Z"/><path class="cls-27" d="M215.34,106.69s3.92-12,3.24-15.89a46.06,46.06,0,0,0-1.66-6.66l3.54-3.26L222,84.11s7.8-5.72,8.32-6.78c0,0-6.28,4.31-8.25,5a5.91,5.91,0,0,0-2.17-2.07c-1.24-.52-4.31,3.68-4.31,3.68l-.57,7.3-3.08,17,1.07,2.53Z"/><path class="cls-9" d="M211.89,76s-.74,7.76-.1,8.31,3,.58,4.16-.05,4-4,4-4S216.43,74.06,211.89,76Z"/><path class="cls-9" d="M216.1,82.83a22.11,22.11,0,0,1,.08,12.83A108.14,108.14,0,0,0,213.4,110l-3.07,5.74s-3.82-11.24-2.56-22.53c.56-5.07,4.43-9.55,4.43-9.55Z"/><path class="cls-25" d="M200.4,44.23s-1,4.8-.61,5.71,1.56,1.52,1.26,3.39.79,7.47,1.35,9.34c0,0-.41,2,.15,2.61s1.28.59,1.8,1.53.71,5.79,2.67,7.41a7.22,7.22,0,0,0,5.84,1.6,9.49,9.49,0,0,0,2.67-1.36l2.95,1.24s15.33-4.35,14.85-15.12V59.44a12.39,12.39,0,0,0,1.41-2.52c.31-1,2.85-5.48,1.57-7.41,0,0,5.94-23.44-12.38-24.85S202.84,36.08,200.4,44.23Z"/><path class="cls-28" d="M233.33,60.58v-.13a3.36,3.36,0,0,0-2.1-.64c-2.1.37-1.62-4-1.62-4s-.39.79-1.46,6.35-12.62,12.28-12.62,12.28l2.95,1.24S233.81,71.35,233.33,60.58Z"/><path class="cls-29" d="M200.48,34.05c-1.79,3.8-2.65,8.37,1.1,11.44,0,0,3.15.86,9.13-1.92A14,14,0,0,1,221,43.26a2.44,2.44,0,0,1,1.65,2.38L222.54,49a2.12,2.12,0,0,0,1.29,2l2.78,1.19.55,3.24a1.55,1.55,0,0,0,2.06,1.21l.71-.25s.41-7.22,6.37-6.86c0,0,4.82-10.43-.12-20s-18.49-8.86-21.38-7.77c-3.8,1.42-3.27,1.21-5.45,2.56A23.12,23.12,0,0,0,200.48,34.05Z"/><path class="cls-9" d="M249.23,107.61s-2.77,20.45-3.91,26.24l-9,4.73,15.92-1Z"/><path class="cls-30" d="M236.3,49.51a27.16,27.16,0,0,0,2-8.36,21.57,21.57,0,0,1-15.69,4.49L222.54,49a2.12,2.12,0,0,0,1.29,2l2.78,1.19.55,3.24a1.55,1.55,0,0,0,2.06,1.21l.71-.25S230.34,49.15,236.3,49.51Z"/><path class="cls-9" d="M240.26,67.48s-4.74,16.3-5.73,19.44l-3.82-.41.69,5.16-20.56,27.11,22.83-26.21-.91-4.6,3.47.37Z"/><path class="cls-31" d="M220.07,156.06s48.23-1.57,49.46-2.45,1.45-13.28,1.34-20.47c-.08-5,0-24.78-4.33-38.63,3.38,11.73,1.6,53.18.07,55.29s-47.41,3.33-47.41,3.33h0C219.69,154.85,220.07,156.06,220.07,156.06Z"/><path class="cls-25" d="M125.32,117.48s-.19,1.22-2.28,2.41-7.47,3.84-8.33,4.6-4.74,4.16-4.86,4.61-1.27,4.29-1.26,4.53.37,2,.37,2l-1.19,5.68s-1.51,2.2.13,2.8a2.1,2.1,0,0,0,2.61-1.36,27.12,27.12,0,0,0,4.31-2.6c1.82-1.41,9.14-7.3,10.39-6.94s.1,2.47-.5,2.83-4.48,4.16-2.85,6.79,2.68-1.49,3.76-2.32,3.39-4.14,4.81-4.55,4-5.71,4.35-8.09,2-3.9,2.63-4.66-1.3-6.66-1.3-6.66l-7.25-2.26L126.32,116Z"/><g class="cls-32"><path class="cls-33" d="M263,86.39c-1.51-2.39-2.21-.63-4.24,1.35a31.41,31.41,0,0,0-8,12c-3.23,9.51-2.07,33.26-1,36.66,0,0-30.2,5-32.29,4.86s2.59,14.78,2.59,14.78,48.23-1.57,49.46-2.45,1.45-13.28,1.34-20.47C270.77,127,270.88,98.87,263,86.39Z"/><path class="cls-31" d="M220.07,156.06s48.23-1.57,49.46-2.45,1.45-13.28,1.34-20.47c-.08-5,0-24.78-4.33-38.63,3.38,11.73,1.6,53.18.07,55.29s-47.41,3.33-47.41,3.33h0C219.69,154.85,220.07,156.06,220.07,156.06Z"/></g><polygon class="cls-34" points="184.95 235.54 27.73 144.77 112.15 96.03 269.37 186.8 184.95 235.54"/><polygon class="cls-35" points="27.73 137.25 27.73 144.77 184.95 235.54 269.37 186.8 269.37 179.27 184.95 228.01 27.73 137.25"/><polygon class="cls-36" points="184.95 228.01 27.73 137.25 112.15 88.5 269.37 179.27 184.95 228.01"/><path class="cls-37" d="M194.16,157.31s6,2.15,10.66,1.39,26.83-1.21,26.83-1.21l-3.5-2-7.79-5.43-19.3,1.3L193.61,154Z"/><path class="cls-25" d="M217.61,142.08a.28.28,0,0,0-.26-.21c-1.55,0-11.59-.33-15.38-1.64-4.12-1.42-8.48-1.16-8.7-.93s-7.08,3.15-7.48,4.33-1,4.69-.12,6A20.23,20.23,0,0,1,187,151.9l.72.08a21.46,21.46,0,0,0,1.44,2.46,4.12,4.12,0,0,1,.56.92c.43.93,1.19,2.47,1.51,2.51a16.46,16.46,0,0,0,3.11.33c.45-.12.84-1.46.66-2.06a.25.25,0,0,1,.2-.34,29.64,29.64,0,0,1,7.29-.15c4.47.41,10.78-2.51,11.35-2.78a.17.17,0,0,1,.1,0l6.29-.57a.28.28,0,0,0,.25-.36Z"/><path class="cls-38" d="M235.5,170.39l-.85-.49c-3.15-1.82-2.76-5,.89-7.11L261.23,148c3.64-2.11,9.15-2.34,12.31-.51l.85.49c3.16,1.82,2.76,5-.88,7.11l-25.69,14.83C244.17,172,238.66,172.21,235.5,170.39Z"/><path class="cls-39" d="M276.52,150.76h0a3.72,3.72,0,0,0-2.11-2.83l-.85-.49c-3.16-1.83-8.67-1.6-12.31.51l-25.69,14.83c-1.94,1.12-2.95,2.53-3,3.89h0v4.48h0a3.65,3.65,0,0,0,2.12,3.09l.85.49c3.16,1.83,8.67,1.6,12.32-.51l25.69-14.83c1.87-1.08,2.88-2.45,3-3.77h0Z"/><path class="cls-40" d="M263,86.39c-1.51-2.39-2.21-.63-4.24,1.35a31.41,31.41,0,0,0-8,12c-3.23,9.51-2.07,33.26-1,36.66,0,0-30.2,5-32.29,4.86s2.59,14.78,2.59,14.78,48.23-1.57,49.46-2.45,1.45-13.28,1.34-20.47C270.77,127,270.88,98.87,263,86.39Z"/><path class="cls-9" d="M220.07,156.06s48.23-1.57,49.46-2.45,1.45-13.28,1.34-20.47c-.08-5,0-24.78-4.33-38.63,3.38,11.73,1.6,53.18.07,55.29s-47.41,3.33-47.41,3.33h0C219.69,154.85,220.07,156.06,220.07,156.06Z"/><path class="cls-37" d="M133.63,131.37s17.24-13.47,19.71-14.78a17,17,0,0,0,3.5-2.29L151.07,111l-9.76,4L129,127.17l-18.93,13.42v3.11s15.62-6.7,17.37-7.85S133.63,131.37,133.63,131.37Z"/><path class="cls-41" d="M123.35,143.57a34.7,34.7,0,0,1,6-4.38c2.37-1.09,6.14-4,6.6-6.23s4.38-7.15,4.38-7.15l-6.28,3.62-9.1,5.26-15.15,8.79a2.61,2.61,0,0,0,2.85.41c1.91-.65,5.51-2.95,7.19-3.15s4.45-.72,4.45-.72Z"/><path class="cls-25" d="M125.32,117.48s-.19,1.22-2.28,2.41-7.47,3.84-8.33,4.6-4.74,4.16-4.86,4.61-1.27,4.29-1.26,4.53.37,2,.37,2l-1.19,5.68s-1.51,2.2.13,2.8a2.1,2.1,0,0,0,2.61-1.36,27.12,27.12,0,0,0,4.31-2.6c1.82-1.41,9.14-7.3,10.39-6.94s.1,2.47-.5,2.83-4.48,4.16-2.85,6.79,2.68-1.49,3.76-2.32,3.39-4.14,4.81-4.55,4-5.71,4.35-8.09,2-3.9,2.63-4.66-1.3-6.66-1.3-6.66l-7.25-2.26L126.32,116Z"/><path class="cls-40" d="M190.73,77.71s-.27-10.8,1.57-19.09a14.38,14.38,0,0,0-1.44,1.27c-2.61,2.72-6.26,6.13-9.78,8-6.5,3.51-26,14.36-26,14.36l-3.62,2.81c-11.46,9-24.25,28.52-26.11,32.39.89-1.19,3.19-3.16,7.61-.81,6.09,3.24,3.19,8.1,3.19,8.1C145,118.43,166.05,95,166.05,95c5.2-1.09,20.81-6.92,22.76-7.65A25.83,25.83,0,0,0,190.73,77.71Z"/><path class="cls-9" d="M166.05,95c5.55-1.16,23-7.72,23-7.72.79,4,1.15,17.55.31,28.13,5.15-19.23,1.41-37.74,1.41-37.74-1.42,6.78-29,16.14-29,16.14-4.4,6.77-25.3,26.29-25.3,26.29h0a5.45,5.45,0,0,1-.42,4.53C144.85,118.34,166.05,95,166.05,95Z"/><path class="cls-42" d="M81.15,151.31l4.19,2.19,42-24.22a3,3,0,0,1,2.74.11l72.35,41.77c.7-.38,3.85-1.9,3.85-1.9l-1.53,4h0a.93.93,0,0,1-.43.48l-44.19,25.51a3.07,3.07,0,0,1-2.73-.11l-74-42.75a1.42,1.42,0,0,1-.62-.66h0Z"/><path class="cls-43" d="M81.8,152l75.88,43.81a3.14,3.14,0,0,0,2.81.12l45.28-26.15c.72-.41.63-1.14-.2-1.62l-75.88-43.81a3.11,3.11,0,0,0-2.81-.11L81.6,150.38C80.88,150.79,81,151.52,81.8,152Z"/><path class="cls-44" d="M81.8,151.56l75.88,43.81a3.11,3.11,0,0,0,2.81.12l45.28-26.14a.92.92,0,0,0,.44-.49.75.75,0,0,1-.44.92l-45.28,26.15a3.14,3.14,0,0,1-2.81-.12L81.8,152c-.56-.32-.77-.76-.64-1.13A1.3,1.3,0,0,0,81.8,151.56Z"/><path class="cls-45" d="M180.57,186.33v-.83c0-.08,0-.11-.1-.08l-2.94,1.7a.24.24,0,0,0-.11.2v.83c0,.08.05.12.11.08l2.94-1.69A.25.25,0,0,0,180.57,186.33Z"/><path class="cls-45" d="M176.18,188.87V188c0-.08,0-.12-.1-.08l-2.94,1.69a.26.26,0,0,0-.11.2v.84c0,.08.05.11.11.08l2.94-1.7A.23.23,0,0,0,176.18,188.87Z"/><path class="cls-46" d="M180.24,175.73l-63.06-36.41a1.36,1.36,0,0,0-1.35,0l-22.46,13a.49.49,0,0,0,0,.84l63,36.39a1.37,1.37,0,0,0,1.36,0l22.48-13A.48.48,0,0,0,180.24,175.73Z"/><path class="cls-47" d="M180.24,176.57l-.22.13-62.84-36.28a1.36,1.36,0,0,0-1.35,0L93.6,153.28l-.23-.13a.49.49,0,0,1,0-.84l22.46-13a1.36,1.36,0,0,1,1.35,0l63.06,36.41A.48.48,0,0,1,180.24,176.57Z"/><polygon class="cls-9" points="114.13 142.61 172.22 176.15 175.1 175 116.57 141.2 114.13 142.61"/><polygon class="cls-9" points="108.16 146.06 159.54 175.72 161.97 174.31 110.59 144.65 108.16 146.06"/><polygon class="cls-9" points="104.27 148.3 164.76 183.23 167.2 181.82 106.71 146.9 104.27 148.3"/><polygon class="cls-9" points="100.38 150.55 160.87 185.47 163.31 184.07 102.82 149.14 100.38 150.55"/><polygon class="cls-9" points="96.49 152.79 156.99 187.72 159.42 186.31 98.93 151.39 96.49 152.79"/><polygon class="cls-9" points="172.22 176.15 174.65 177.55 177.09 176.15 174.65 174.74 172.22 176.15"/><polygon class="cls-9" points="156.58 174.02 168.68 181 171.12 179.59 158.93 172.56 156.58 174.02"/><path class="cls-48" d="M157.79,159.41l-17-9.82a.73.73,0,0,1,0-1.38l11.63-6.72a2.67,2.67,0,0,1,2.4,0l17,9.82a.74.74,0,0,1,0,1.39l-11.63,6.71A2.63,2.63,0,0,1,157.79,159.41Z"/><path class="cls-47" d="M171.83,151.88l-17-9.82a2.67,2.67,0,0,0-2.4,0l-11.63,6.71a1.1,1.1,0,0,0-.42.41c-.17-.33,0-.71.42-1l11.63-6.72a2.67,2.67,0,0,1,2.4,0l17,9.82c.46.26.59.64.42,1A1.1,1.1,0,0,0,171.83,151.88Z"/><path class="cls-49" d="M81.27,150.19l9.6-56.91L90.1,93l1.15-.66h0a.85.85,0,0,1,.9.06l76.66,44.27a2.16,2.16,0,0,1,1,1.94l-9.67,57.37a.71.71,0,0,1-.41.58h0l-1.13.66-.2-1.06.07,0-76.2-44A2.16,2.16,0,0,1,81.27,150.19Z"/><path class="cls-50" d="M168.38,138.17l1.26-.55a1.82,1.82,0,0,1,.17.94l-9.67,57.37a.71.71,0,0,1-.41.58h0l-1.13.66-.2-1.06.07,0-3.86-2.23Z"/><path class="cls-24" d="M81.07,152.82l76.66,44.27c.59.34,1.1.14,1.2-.47l9.67-57.37a2.15,2.15,0,0,0-1-1.94L90.94,93c-.59-.34-1.1-.14-1.2.47l-9.67,57.37A2.16,2.16,0,0,0,81.07,152.82Z"/><path class="cls-4" d="M53.47,213v-9.52q2.87,1.53,5.85,3V216c-2-1-3.94-2-5.85-3Zm-18.76-11.9V183.52c1.59,1.19,3.22,2.37,4.9,3.51v17.56q-2.52-1.72-4.9-3.52Zm8.94,6.18v-20.7q2.64,1.66,5.4,3.26v20.7q-2.76-1.59-5.4-3.26Zm-24-19.77v-23q1.83,2,3.82,4v23q-2-2-3.82-4Zm7,7V169.59q2.1,1.91,4.37,3.74v24.89q-2.27-1.84-4.37-3.75Zm-17.93-22v-27q1.21,2.19,2.61,4.33v27q-1.4-2.14-2.61-4.33Zm4.9,7.67V145q1.53,2.1,3.22,4.16v35.1q-1.7-2.06-3.22-4.16ZM5,164.49V124.85c.59,1.52,1.24,3,2,4.5V169q-1.08-2.22-2-4.5Zm66.34,8.8c-37.72-15.19-63.78-39.2-69.23-66.7V163c5.45,27.5,31.51,51.5,69.23,66.7V173.29Z"/><path class="cls-4" d="M182,235.92V223.2q9.74-.54,19.12-1.7v12.72q-9.37,1.16-19.12,1.7Zm-30.5.05V212.8q5.84.28,11.78.35,4.07,0,8.08,0V236.3q-4,.07-8.08,0-5.94-.06-11.78-.36Zm-29.4-3V197.5q9.22,1.45,18.86,2.31v35.43q-9.63-.84-18.86-2.31Zm89.07-.15V195.36q9.15-1.49,17.86-3.55v37.42q-8.7,2.06-17.86,3.55ZM244,179.24c-24,7.4-51.59,11.47-80.79,11.18a274.08,274.08,0,0,1-57.66-6.56v56.38a275.4,275.4,0,0,0,57.66,6.56c29.2.29,56.76-3.79,80.79-11.18V179.24Z"/><path class="cls-4" d="M284.52,195.37V184.45c26.31-15.53,43.43-36.25,46.23-59.29v10.92c-2.8,23-19.92,43.75-46.23,59.29Zm46.61-41.58V97.42c-.84,27.57-22.15,52.19-55.48,69.16V223c33.33-17,54.64-41.58,55.48-69.16Z"/><path class="cls-5" d="M330.75,125.16c-2.8,23-19.92,43.76-46.23,59.29v10.92c26.31-15.54,43.43-36.25,46.23-59.29V125.16Z"/><path class="cls-8" d="M140.91,199.81q-9.63-.84-18.86-2.31v35.43q9.22,1.47,18.86,2.31V199.81Z"/><path class="cls-8" d="M201.07,221.5q-9.37,1.16-19.12,1.7v12.72q9.74-.54,19.12-1.7V221.5Z"/><path class="cls-8" d="M229,191.81q-8.7,2.06-17.86,3.55v37.42q9.15-1.49,17.86-3.55V191.81Z"/><path class="cls-5" d="M171.31,213.12q-4,.07-8.08,0-5.94-.06-11.78-.35V236q5.84.3,11.78.36,4.07,0,8.08,0V213.12Z"/><path class="cls-8" d="M7,129.35c-.72-1.49-1.37-3-2-4.5v39.64q.89,2.28,2,4.5V129.35Z"/><path class="cls-8" d="M11.38,149.81q-1.4-2.15-2.61-4.33v27q1.21,2.19,2.61,4.33v-27Z"/><path class="cls-5" d="M16.89,149.19q-1.7-2.06-3.22-4.16v35.1q1.53,2.1,3.22,4.16v-35.1Z"/><path class="cls-8" d="M23.48,168.47q-2-2-3.82-4v23q1.83,2,3.82,4v-23Z"/><path class="cls-5" d="M31.07,173.33q-2.27-1.83-4.37-3.74v24.88q2.1,1.91,4.37,3.75V173.33Z"/><path class="cls-5" d="M39.61,187c-1.68-1.14-3.31-2.32-4.9-3.51v17.55q2.38,1.8,4.9,3.52V187Z"/><path class="cls-5" d="M49.05,189.81q-2.76-1.59-5.4-3.26v20.7q2.64,1.67,5.4,3.26v-20.7Z"/><path class="cls-5" d="M59.32,206.44q-3-1.45-5.85-3V213c1.91,1,3.86,2,5.85,3v-9.52Z"/></g></g></svg>