<?xml version="1.0" encoding="utf-8"?>
<!-- Generator: Adobe Illustrator 24.1.0, SVG Export Plug-In . SVG Version: 6.00 Build 0)  -->
<svg version="1.1" id="Layer_1" xmlns="http://www.w3.org/2000/svg" xmlns:xlink="http://www.w3.org/1999/xlink" x="0px" y="0px"
	 viewBox="0 0 216 216" style="enable-background:new 0 0 216 216;" xml:space="preserve">
<style type="text/css">
	.st0{fill:url(#SVGID_1_);}
	.st1{fill:#BDD0FB;}
	.st2{fill:#FFFFFF;}
	.st3{fill:#91B3FA;}
	.st4{fill:url(#SVGID_2_);}
	.st5{fill:#FCFCFC;}
	.st6{fill:url(#SVGID_3_);}
	.st7{opacity:0.3;}
	.st8{fill:url(#SVGID_4_);}
	.st9{fill:url(#SVGID_5_);}
	.st10{fill:url(#SVGID_6_);}
	.st11{fill:url(#SVGID_7_);}
	.st12{fill:url(#SVGID_8_);}
	.st13{fill:url(#SVGID_9_);}
	.st14{fill:url(#SVGID_10_);}
	.st15{fill:url(#SVGID_11_);}
	.st16{fill:url(#SVGID_12_);}
	.st17{fill:url(#SVGID_13_);}
	.st18{fill:url(#SVGID_14_);}
	.st19{fill:url(#SVGID_15_);}
	.st20{fill:url(#SVGID_16_);}
	.st21{fill:url(#SVGID_17_);}
	.st22{fill:url(#SVGID_18_);}
	.st23{fill:url(#SVGID_19_);}
	.st24{fill:url(#SVGID_20_);}
	.st25{fill:url(#SVGID_21_);}
	.st26{fill:url(#SVGID_22_);}
	.st27{fill:url(#SVGID_23_);}
	.st28{opacity:0.58;fill:#FFFFFF;}
	.st29{fill:url(#SVGID_24_);}
	.st30{fill:url(#SVGID_25_);}
	.st31{fill:url(#SVGID_26_);}
	.st32{fill:url(#SVGID_27_);}
	.st33{fill:url(#SVGID_28_);}
	.st34{fill:url(#SVGID_29_);}
	.st35{fill:url(#SVGID_30_);}
	.st36{fill:url(#SVGID_31_);}
	.st37{fill:url(#SVGID_32_);}
	.st38{fill:url(#SVGID_33_);}
	.st39{fill:url(#SVGID_34_);}
	.st40{fill:url(#SVGID_35_);}
	.st41{fill:url(#SVGID_36_);}
	.st42{fill:url(#SVGID_37_);}
	.st43{fill:url(#SVGID_38_);}
	.st44{fill:url(#SVGID_39_);}
	.st45{fill:url(#SVGID_40_);}
	.st46{fill:url(#SVGID_41_);}
	.st47{fill:url(#SVGID_42_);}
	.st48{fill:url(#SVGID_43_);}
	.st49{fill:url(#SVGID_44_);}
	.st50{fill:url(#SVGID_45_);}
	.st51{fill:url(#SVGID_46_);}
	.st52{fill:url(#SVGID_47_);}
	.st53{fill:url(#SVGID_48_);}
</style>
<linearGradient id="SVGID_1_" gradientUnits="userSpaceOnUse" x1="-4.847607e-09" y1="108" x2="216" y2="108">
	<stop  offset="0" style="stop-color:#DAE3FE"/>
	<stop  offset="1" style="stop-color:#E9EFFD"/>
</linearGradient>
<rect x="0" class="st0" width="216" height="216"/>
<g>
	<g>
		<path class="st1" d="M45.3,40.6c-0.1-0.5,0.6-0.9,1.1-0.5c4.7,3.8,15.8,15.1,13,34.8c-3.5,24.8,2.5,33.8,9.9,39.3
			c0,0-10.2-2.6-16.6-11.8C36.9,80,47.5,50.1,45.3,40.6z"/>
		<path class="st2" d="M48.9,48.4c0.6,2.8,1.1,5.5,1.5,8.3c0.4,2.8,0.7,5.6,1,8.4c0.2,2.8,0.4,5.6,0.4,8.4c0,2.8-0.1,5.6-0.2,8.4
			c-0.1,2.8-0.2,5.6,0,8.5c0.2,2.8,0.8,5.7,2,8.4c0.3,0.7,0.6,1.3,1,2c0.3,0.6,0.7,1.3,1.1,1.9c0.8,1.3,1.7,2.5,2.6,3.6
			c2,2.3,4.3,4.3,6.9,6.1c0.3,0.2,0.7,0.1,0.9-0.1c0.2-0.2,0.2-0.6-0.1-0.7l0,0c-0.6-0.4-1.2-0.9-1.8-1.3c-0.3-0.2-0.6-0.5-0.9-0.7
			c-0.3-0.2-0.6-0.5-0.8-0.7c-1.1-1-2.1-2-3.1-3.2c-1.9-2.2-3.4-4.7-4.5-7.2c-0.6-1.3-1-2.6-1.3-3.9c-0.3-1.3-0.5-2.7-0.6-4.1
			c-0.2-2.8-0.1-5.6,0-8.4c0.1-2.8,0.1-5.6,0.1-8.4c0-1.4-0.1-2.8-0.2-4.2c0-0.7-0.1-1.4-0.2-2.1c-0.1-0.7-0.1-1.4-0.2-2.1
			c-0.3-2.8-0.7-5.6-1.2-8.4c-0.5-2.8-1.1-5.5-1.8-8.3c0-0.1-0.1-0.1-0.2-0.1C48.9,48.2,48.8,48.3,48.9,48.4z"/>
	</g>
	<g>
		<g>
			<path class="st3" d="M57.4,99.9c-0.6,0.6-1.6,0.4-1.9-0.3c-1.9-4.2-6.2-16.5,0.9-30.7c6-12,8.1-19,8.8-22.3
				c0.2-0.7,1.1-0.8,1.4-0.1C69.7,53.7,78,78,57.4,99.9z"/>
			<path class="st2" d="M56.3,99.5C56.3,99.5,56.3,99.5,56.3,99.5c-0.2,0-0.4-0.1-0.4-0.3c0-0.2,0.4-20.5,8-37.5
				c0.1-0.2,0.3-0.2,0.4-0.2c0.2,0.1,0.2,0.3,0.2,0.4C57,78.8,56.6,99,56.6,99.2C56.6,99.3,56.5,99.5,56.3,99.5z"/>
		</g>
	</g>
	<g>
		<g>
			
				<linearGradient id="SVGID_2_" gradientUnits="userSpaceOnUse" x1="-11.3437" y1="319.9716" x2="101.2597" y2="-60.5493" gradientTransform="matrix(-1 0 0 1 191.0843 0)">
				<stop  offset="0" style="stop-color:#4F52FF"/>
				<stop  offset="1" style="stop-color:#4042E2"/>
			</linearGradient>
			<path class="st4" d="M138.2,68.5c-1.8-3.2-3.2-7.5-0.4-10.6c5.1-5.8,15.4-7.1,18,1.9c1.1,3.7,0.3,6.6-0.9,8.7
				c-1.2,2,0.3,4.4,2.5,4.4h16.4v21.8c0,2-2.2,3.1-3.8,2c-11-7.6-16.7,1.4-16.7,5.4c0,4.5,1.9,15.1,9,14.8c3.2-0.1,5.9-1.2,7.9-2.4
				c1.6-0.9,3.7,0.2,3.7,2.1V137h-16.9c-2,0-3.2,2.2-2.1,3.9c1.3,1.9,2.3,4.7,2.4,8.8c0.1,10.2-15.4,8.3-19.3,5.1
				c-2.8-2.3-2.9-9.6-0.7-14.2c0.8-1.7-0.5-3.6-2.4-3.6h-16.5v-22.3c0-1.6-1.8-2.6-3.2-1.8c-2.8,1.7-7.2,3.8-11.6,4
				c-7.4,0.3-8.3-8-8.7-14.4c-0.3-5.7,10.5-14.8,19.1-9.3c1.4,0.9,4.3,2.3,4.3,0.6V73h17.5C138,73,139.4,70.5,138.2,68.5z"/>
			<path class="st5" d="M147.3,157.7c-0.9,0-1.8-0.1-2.7-0.2c-2.9-0.4-5.6-1.3-7-2.4c-3-2.5-2.9-10.1-0.8-14.6
				c0.3-0.7,0.3-1.4-0.1-2.1c-0.4-0.7-1.1-1.1-1.9-1.1h-16.5c-0.2,0-0.3-0.1-0.3-0.3v-22.3c0-0.6-0.3-1.2-0.9-1.5
				c-0.6-0.3-1.2-0.3-1.8,0c-2.9,1.7-7.3,3.8-11.8,4c-3.4,0.2-5.9-1.5-7.3-4.9c-1.2-2.9-1.5-6.6-1.7-9.9c-0.2-3.1,2.7-7.1,6.8-9.4
				c4.4-2.5,9-2.6,12.7-0.1c1.3,0.8,3,1.6,3.6,1.3c0,0,0.2-0.1,0.2-0.4V73c0-0.2,0.1-0.3,0.3-0.3h17.5c0.9,0,1.8-0.5,2.3-1.3
				c0.5-0.8,0.5-1.8,0-2.6c-2.6-4.5-2.7-8.4-0.3-11c3.1-3.5,8.1-5.4,12.1-4.4c3.1,0.7,5.4,3,6.4,6.5c0.9,3.3,0.6,6.3-1,9
				c-0.5,0.8-0.5,1.8,0,2.6c0.5,0.8,1.3,1.3,2.3,1.3h16.4c0.2,0,0.3,0.1,0.3,0.3v21.8c0,1-0.5,1.9-1.5,2.4c-0.9,0.5-2,0.4-2.9-0.2
				c-5.4-3.8-9.3-3.2-11.5-2c-3.2,1.7-4.7,5.3-4.7,7.2c0,3.5,1.1,9.7,4.2,12.7c1.3,1.2,2.7,1.8,4.4,1.7c2.7-0.1,5.3-0.9,7.7-2.3
				c0.9-0.5,1.9-0.5,2.8,0c0.9,0.5,1.4,1.4,1.4,2.4V137c0,0.2-0.1,0.3-0.3,0.3h-16.9c-0.8,0-1.5,0.4-1.9,1.1
				c-0.4,0.7-0.4,1.6,0.1,2.3c1.6,2.4,2.4,5.4,2.4,8.9c0,3.1-1.4,5.5-4.1,6.8C151.7,157.3,149.6,157.7,147.3,157.7z M118.6,136.7
				h16.2c1,0,1.9,0.5,2.5,1.4c0.5,0.8,0.6,1.8,0.2,2.7c-2.2,4.6-1.9,11.7,0.6,13.8c2.6,2.1,10.3,3.6,14.9,1.3
				c2.5-1.2,3.8-3.3,3.8-6.2c0-3.4-0.8-6.3-2.3-8.6c-0.6-0.9-0.6-2-0.1-2.9c0.5-0.9,1.4-1.5,2.5-1.5h16.6v-20c0-0.8-0.4-1.4-1-1.8
				c-0.7-0.4-1.5-0.4-2.1,0c-2.6,1.5-5.3,2.3-8,2.4c-1.9,0.1-3.5-0.6-4.9-1.9c-3.3-3.1-4.4-9.6-4.4-13.2c0-2.1,1.6-5.9,5.1-7.7
				c2.4-1.2,6.4-1.9,12.2,2.1c0.7,0.5,1.5,0.5,2.2,0.1c0.7-0.4,1.1-1.1,1.1-1.9V73.3h-16c-1.2,0-2.2-0.6-2.8-1.6
				c-0.6-1-0.6-2.2,0-3.3c1.5-2.5,1.8-5.4,0.9-8.5c-1.2-4.2-3.9-5.6-5.9-6c-3.8-0.9-8.5,0.9-11.5,4.2c-1.5,1.7-2.7,4.9,0.4,10.3l0,0
				c0.6,1,0.6,2.3,0,3.3c-0.6,1-1.6,1.6-2.8,1.6h-17.2v20.6c0,0.6-0.3,0.8-0.5,1c-1.2,0.7-4.1-1.2-4.3-1.3c-3.5-2.3-7.9-2.2-12,0.1
				c-3.9,2.2-6.7,6-6.5,8.8c0.2,3.2,0.5,6.9,1.7,9.6c1.3,3.2,3.5,4.6,6.7,4.5c4.3-0.2,8.6-2.2,11.5-3.9c0.8-0.5,1.7-0.5,2.4,0
				c0.8,0.4,1.2,1.2,1.2,2.1V136.7z"/>
		</g>
		<g>
			
				<linearGradient id="SVGID_3_" gradientUnits="userSpaceOnUse" x1="66.4963" y1="242.5275" x2="177.7663" y2="-133.4873" gradientTransform="matrix(-1 0 0 1 191.0843 0)">
				<stop  offset="0" style="stop-color:#4F52FF"/>
				<stop  offset="1" style="stop-color:#4042E2"/>
			</linearGradient>
			<path class="st6" d="M55.9,113.7c-1.9,1.3-4.5,2.5-7.3,2.8c-6.3,0.6-8.9-6.3-9.2-12.4c-0.3-6,5.1-11.7,9.8-11.1
				c2.2,0.3,4.7,1.7,6.7,3.1c1.6,1.1,3.8,0,3.8-1.9V72.6h21.9c1.8,0,3-1.9,2.3-3.5c-1.7-3.7-3.6-9.4-1-11.9
				c4.2-3.8,15.5-3.8,17.4,1.9c1.1,3.2-0.4,7-1.9,9.8c-0.9,1.7,0.3,3.7,2.2,3.7h18.7v20c0,2.1-2.4,3.5-4.2,2.2
				c-8.1-5.7-16.9,0.3-17.7,7.1c-1,7.9,4.1,14.6,9.5,14c2.7-0.3,5.9-1.9,8.3-3.3c1.8-1.1,4,0.2,4,2.3V137H97.7c-2.5,0-4.1-2.6-3-4.8
				c1.3-2.6,6.5-5.9,6.2-8.4c-0.6-5.1-11.9-6.3-18-5.4c-4.6,0.7-2.3,8,0.3,13.8c1,2.2-0.6,4.8-3,4.8H59.6v-21.3
				C59.6,113.7,57.5,112.6,55.9,113.7z"/>
			<path class="st5" d="M119.3,137.3H97.7c-1.3,0-2.4-0.6-3.1-1.7c-0.7-1.1-0.7-2.4-0.2-3.5c0.5-1.1,1.8-2.4,3-3.6
				c1.6-1.6,3.3-3.3,3.2-4.7c-0.1-1-0.7-1.9-1.7-2.6c-2.3-1.7-9.1-3.6-15.9-2.5c-0.9,0.1-1.6,0.6-1.9,1.3c-1.1,2-0.2,6.1,2.5,12.1
				c0.5,1.2,0.4,2.5-0.3,3.5c-0.7,1.1-1.8,1.7-3.1,1.7H59.6c-0.2,0-0.3-0.1-0.3-0.3v-21.3c0-0.8-0.4-1.5-1.1-1.8
				c-0.7-0.4-1.5-0.3-2.2,0.1c-2.5,1.7-5,2.6-7.5,2.9c-2,0.2-3.8-0.3-5.3-1.6c-1.1-1-3.9-4-4.2-11.1c-0.2-3.2,1.3-6.7,3.8-9
				c2-1.8,4.3-2.7,6.4-2.4c1.9,0.3,4.2,1.3,6.8,3.2c0.6,0.5,1.5,0.5,2.2,0.2c0.7-0.4,1.1-1.1,1.1-1.8V72.6c0-0.2,0.1-0.3,0.3-0.3
				h21.9c0.7,0,1.4-0.4,1.8-1c0.4-0.6,0.5-1.4,0.1-2.1c-1.9-4.2-3.6-9.7-0.9-12.2c2.7-2.4,8.1-3.4,12.5-2.3c2.8,0.7,4.7,2.3,5.4,4.3
				c1.1,3.3-0.4,7.3-1.9,10.1c-0.4,0.7-0.3,1.5,0.1,2.1c0.4,0.7,1.1,1.1,1.9,1.1h18.7c0.2,0,0.3,0.1,0.3,0.3v20
				c0,1.1-0.6,2.2-1.6,2.7c-1,0.5-2.1,0.4-3-0.2c-3.4-2.4-7.3-2.9-10.8-1.3c-3.5,1.5-6,4.7-6.4,8.1c-0.5,4.3,0.8,8.7,3.5,11.3
				c1.7,1.7,3.7,2.5,5.7,2.3c2.8-0.3,6-2,8.2-3.3c0.9-0.6,2.1-0.6,3,0c0.9,0.5,1.5,1.5,1.5,2.6V137
				C119.6,137.2,119.4,137.3,119.3,137.3z M87,117.8c4.3,0,9.4,0.8,12.2,2.9c1.2,0.9,1.8,1.9,2,3.1c0.2,1.6-1.6,3.4-3.4,5.2
				c-1.2,1.2-2.3,2.3-2.8,3.4c-0.4,0.9-0.4,2,0.2,2.9c0.6,0.9,1.5,1.4,2.6,1.4h21.2v-21.8c0-0.9-0.4-1.6-1.2-2
				c-0.7-0.4-1.6-0.4-2.4,0c-2.3,1.3-5.6,3-8.4,3.4c-2.2,0.3-4.4-0.6-6.2-2.4c-2.8-2.8-4.2-7.4-3.7-11.9c0.4-3.6,3.1-7,6.7-8.7
				c3.8-1.7,7.9-1.2,11.5,1.4c0.7,0.5,1.6,0.6,2.4,0.2c0.8-0.4,1.3-1.2,1.3-2.1V72.9h-18.4c-1,0-1.9-0.5-2.4-1.4
				c-0.5-0.9-0.5-1.9-0.1-2.8c1.4-2.6,2.9-6.4,1.8-9.6c-0.6-1.8-2.4-3.2-4.9-3.9c-4.2-1.1-9.4-0.2-11.9,2.1c-1.1,1-2.5,3.9,1,11.5
				c0.4,0.9,0.3,1.9-0.2,2.7c-0.5,0.8-1.4,1.3-2.4,1.3H60v21.3c0,1-0.6,2-1.5,2.4c-0.9,0.5-2,0.4-2.8-0.2c-2.5-1.8-4.7-2.8-6.5-3.1
				c-1.9-0.3-4,0.6-5.8,2.2c-2.4,2.2-3.8,5.5-3.6,8.5c0.2,4.7,1.7,8.7,4,10.6c1.3,1.2,3,1.6,4.8,1.5c2.4-0.2,4.8-1.2,7.2-2.8l0,0
				c0.9-0.6,1.9-0.6,2.8-0.2c0.9,0.5,1.4,1.4,1.4,2.4v21h20.1c1,0,2-0.5,2.5-1.4c0.6-0.9,0.6-2,0.2-2.9c-2.8-6.2-3.7-10.5-2.5-12.7
				c0.5-0.9,1.3-1.4,2.4-1.6C84,117.9,85.4,117.8,87,117.8z"/>
		</g>
	</g>
	<g>
		<g>
			<g class="st7">
				<path class="st3" d="M141.5,58.9c-0.2,0-0.4-0.1-0.5-0.3c-0.1-0.4-0.2-0.9-0.3-1.3c0-0.2,0.1-0.4,0.3-0.5c0,0,0,0,0,0
					c0.2,0,0.4,0.1,0.5,0.3c0.1,0.4,0.2,0.9,0.3,1.3C141.8,58.6,141.7,58.8,141.5,58.9C141.5,58.9,141.5,58.9,141.5,58.9z
					 M140.8,55.4C140.8,55.4,140.8,55.4,140.8,55.4c-0.3,0-0.5-0.1-0.5-0.4c0-0.5,0-0.9,0-1.4c0-0.2,0.2-0.4,0.4-0.4
					c0.2,0,0.4,0.2,0.4,0.4c0,0.4,0,0.9,0,1.3C141.2,55.2,141,55.4,140.8,55.4z M141,51.9c0,0-0.1,0-0.1,0c-0.2,0-0.4-0.2-0.3-0.5
					c0.1-0.5,0.2-0.9,0.3-1.4c0.1-0.2,0.3-0.3,0.5-0.3c0.2,0.1,0.3,0.3,0.3,0.5c-0.1,0.4-0.2,0.9-0.3,1.3
					C141.3,51.7,141.2,51.9,141,51.9z M141.9,48.5c-0.1,0-0.2,0-0.2,0c-0.2-0.1-0.3-0.3-0.2-0.5c0.2-0.4,0.4-0.9,0.6-1.3
					c0.1-0.2,0.3-0.3,0.5-0.2c0.2,0.1,0.3,0.3,0.2,0.5c-0.2,0.4-0.4,0.8-0.5,1.2C142.2,48.4,142.1,48.5,141.9,48.5z M143.6,45.4
					c-0.1,0-0.2,0-0.3-0.1c-0.2-0.1-0.2-0.4-0.1-0.6c0.3-0.4,0.5-0.7,0.8-1.1c0.1-0.2,0.4-0.2,0.6-0.1c0.2,0.1,0.2,0.4,0.1,0.6
					c-0.3,0.3-0.5,0.7-0.8,1C143.8,45.3,143.7,45.4,143.6,45.4z M145.9,42.7c-0.1,0-0.3,0-0.4-0.1c-0.2-0.2-0.1-0.4,0-0.6
					c0.3-0.3,0.7-0.6,1.1-0.9c0.2-0.1,0.4-0.1,0.6,0.1c0.1,0.2,0.1,0.4-0.1,0.6c-0.3,0.3-0.7,0.6-1,0.8
					C146.1,42.7,146,42.7,145.9,42.7z M160.4,39c-0.1,0-0.1,0-0.2,0c-0.4-0.1-0.9-0.2-1.3-0.3c-0.2,0-0.4-0.2-0.3-0.5
					c0-0.2,0.2-0.4,0.5-0.3c0.5,0.1,0.9,0.2,1.4,0.3c0.2,0.1,0.4,0.3,0.3,0.5C160.7,38.9,160.5,39,160.4,39z M148.8,40.6
					c-0.2,0-0.3,0-0.4-0.2c-0.1-0.2,0-0.4,0.2-0.6c0.4-0.2,0.8-0.4,1.2-0.6c0.2-0.1,0.4,0,0.5,0.2c0.1,0.2,0,0.4-0.2,0.5
					c-0.4,0.2-0.8,0.4-1.2,0.6C148.9,40.6,148.8,40.6,148.8,40.6z M156.9,38.6C156.8,38.6,156.8,38.6,156.9,38.6c-0.5,0-1,0-1.4,0
					c-0.2,0-0.4-0.2-0.4-0.4c0-0.2,0.2-0.4,0.4-0.4c0.5,0,0.9,0,1.4,0c0.2,0,0.4,0.2,0.4,0.4C157.2,38.4,157.1,38.5,156.9,38.6z
					 M152,39.3c-0.2,0-0.4-0.1-0.5-0.3c-0.1-0.2,0.1-0.4,0.3-0.5c0.4-0.1,0.9-0.2,1.3-0.3c0,0,0,0,0,0c0.2,0,0.4,0.1,0.5,0.3
					c0,0.2-0.1,0.4-0.3,0.5C152.9,39,152.5,39.1,152,39.3C152.1,39.2,152.1,39.2,152,39.3z"/>
				<path class="st3" d="M163.1,40c-0.1,0-0.2,0-0.2,0c-0.2-0.1-0.4-0.2-0.6-0.2c-0.2-0.1-0.3-0.3-0.2-0.5c0.1-0.2,0.3-0.3,0.5-0.2
					c0.2,0.1,0.4,0.2,0.6,0.3c0.2,0.1,0.3,0.3,0.2,0.5C163.3,39.9,163.2,39.9,163.1,40z"/>
			</g>
			<g class="st7">
				<path class="st3" d="M171.5,49c-0.2,0-0.4-0.1-0.5-0.3c-0.1-0.2-0.1-0.4-0.2-0.6c-0.1-0.2,0-0.4,0.2-0.5c0.2-0.1,0.4,0,0.5,0.2
					c0.1,0.2,0.2,0.4,0.2,0.6C171.9,48.7,171.7,49,171.5,49C171.5,49,171.5,49,171.5,49z"/>
				<path class="st3" d="M159.5,69.9c-0.2,0-0.4,0.1-0.6,0.1c-0.2,0-0.4-0.1-0.5-0.3s0.1-0.4,0.3-0.5c0.4-0.1,0.9-0.1,1.3-0.2
					c0.2-0.1,0.4,0.1,0.5,0.3c0.1,0.2-0.1,0.4-0.3,0.5C160,69.8,159.8,69.9,159.5,69.9z M156.8,70.2
					C156.8,70.2,156.8,70.2,156.8,70.2c-0.5,0-1,0-1.4,0c-0.2,0-0.4-0.2-0.4-0.4c0-0.2,0.2-0.4,0.4-0.4c0.4,0,0.9,0,1.3,0
					c0.2,0,0.4,0.2,0.4,0.4C157.2,70,157,70.1,156.8,70.2z M162.3,69.1c-0.2,0-0.4-0.1-0.5-0.3c-0.1-0.2,0-0.4,0.2-0.5
					c0.4-0.2,0.8-0.3,1.2-0.5c0.2-0.1,0.4,0,0.5,0.2c0.1,0.2,0,0.4-0.2,0.5C163.2,68.7,162.8,68.9,162.3,69.1
					C162.4,69.1,162.4,69.1,162.3,69.1z M153.4,69.8c-0.1,0-0.1,0-0.2,0c-0.4-0.1-0.9-0.2-1.3-0.3c-0.2-0.1-0.3-0.3-0.3-0.5
					c0.1-0.2,0.3-0.3,0.5-0.3c0.4,0.1,0.8,0.2,1.3,0.3c0.2,0,0.4,0.3,0.3,0.5C153.7,69.7,153.5,69.8,153.4,69.8z M165.4,67.5
					c-0.2,0-0.3,0-0.4-0.2c-0.1-0.2-0.1-0.4,0.1-0.6c0.4-0.2,0.7-0.5,1-0.8c0.2-0.1,0.4-0.1,0.6,0.1c0.1,0.2,0.1,0.4-0.1,0.6
					c-0.4,0.3-0.7,0.6-1.1,0.8C165.5,67.5,165.5,67.5,165.4,67.5z M168.1,65.2c-0.1,0-0.3,0-0.4-0.1c-0.2-0.2-0.2-0.4,0-0.6
					c0.3-0.3,0.6-0.6,0.8-1c0.1-0.2,0.4-0.2,0.6-0.1c0.2,0.1,0.2,0.4,0.1,0.6c-0.3,0.4-0.6,0.7-0.9,1
					C168.2,65.2,168.1,65.2,168.1,65.2z M170.2,62.5c-0.1,0-0.2,0-0.3-0.1c-0.2-0.1-0.3-0.4-0.1-0.6c0.2-0.4,0.4-0.8,0.6-1.1
					c0.1-0.2,0.3-0.3,0.5-0.2c0.2,0.1,0.3,0.3,0.2,0.5c-0.2,0.4-0.4,0.8-0.6,1.2C170.4,62.4,170.3,62.5,170.2,62.5z M171.6,59.3
					c-0.1,0-0.1,0-0.2,0c-0.2-0.1-0.3-0.3-0.3-0.5c0.1-0.4,0.3-0.8,0.4-1.2c0.1-0.2,0.3-0.4,0.5-0.3c0.2,0.1,0.4,0.3,0.3,0.5
					c-0.1,0.4-0.2,0.9-0.4,1.3C171.9,59.2,171.8,59.3,171.6,59.3z M172.3,55.9c0,0-0.1,0-0.1,0c-0.2,0-0.4-0.2-0.4-0.4
					c0-0.4,0.1-0.9,0.1-1.3c0-0.2,0.2-0.4,0.4-0.4c0.2,0,0.4,0.2,0.4,0.4c0,0.5,0,0.9-0.1,1.4C172.6,55.7,172.5,55.9,172.3,55.9z
					 M172.3,52.4C172.3,52.4,172.3,52.4,172.3,52.4c-0.2,0-0.4-0.1-0.5-0.3c0-0.3-0.1-0.6-0.1-0.9c0-0.1,0-0.2-0.1-0.3
					c0-0.2,0.1-0.4,0.3-0.5c0.2-0.1,0.4,0.1,0.5,0.3c0,0.1,0,0.2,0.1,0.4c0.1,0.3,0.1,0.7,0.2,1C172.6,52.2,172.5,52.4,172.3,52.4z"
					/>
				<path class="st3" d="M150,68.8c-0.1,0-0.2,0-0.2,0c-0.2-0.1-0.4-0.2-0.6-0.3c-0.2-0.1-0.3-0.3-0.2-0.5c0.1-0.2,0.3-0.3,0.5-0.2
					c0.2,0.1,0.4,0.2,0.6,0.3c0.2,0.1,0.3,0.3,0.2,0.5C150.3,68.7,150.2,68.7,150,68.8z"/>
			</g>
			<g>
				<path class="st3" d="M149.7,64c0.1,0.1,0.1,0.1,0.2,0l2-1.2c1,0.5,2,0.8,3.1,1L156,66c0,0.1,0.1,0.1,0.2,0.1l2.8-0.2
					c0.1,0,0.1-0.1,0.2-0.1l0.6-2.2c1.1-0.3,2-0.9,2.9-1.5l2.2,0.8c0.1,0,0.2,0,0.2-0.1l1.8-2.1c0.1-0.1,0.1-0.1,0-0.2l-1.2-2
					c0.5-1,0.8-2,1-3.1l2.1-0.9c0.1,0,0.1-0.1,0.1-0.2l-0.2-2.8c0-0.1-0.1-0.1-0.1-0.2l-2.2-0.6c-0.3-1.1-0.9-2-1.5-2.9l0.8-2.2
					c0-0.1,0-0.2-0.1-0.2l-2.1-1.8c-0.1-0.1-0.1-0.1-0.2,0l-2,1.2c-1-0.5-2-0.8-3.1-1l-0.9-2.1c0-0.1-0.1-0.1-0.2-0.1l-2.8,0.2
					c-0.1,0-0.1,0.1-0.2,0.1l-0.6,2.2c-1.1,0.3-2,0.9-2.9,1.5l-2.2-0.8c-0.1,0-0.2,0-0.2,0.1l-1.8,2.1c-0.1,0.1-0.1,0.1,0,0.2l1.2,2
					c-0.5,1-0.8,2-1,3.1l-2.1,0.9c-0.1,0-0.1,0.1-0.1,0.2l0.2,2.8c0,0.1,0.1,0.1,0.1,0.2l2.2,0.6c0.3,1.1,0.9,2,1.5,2.9l-0.8,2.2
					c0,0.1,0,0.2,0.1,0.2L149.7,64z"/>
				<g>
					<path class="st1" d="M157,56.6c-1.3,0.2-2.7-0.5-3.1-1.8c-0.5-1.5,0.3-3,1.7-3.5c0.7-0.2,1.5-0.2,2.1,0.1
						c0.7,0.3,1.2,0.9,1.4,1.6c0.5,1.5-0.3,3-1.7,3.5C157.3,56.5,157.2,56.6,157,56.6z M156.1,51.8c-0.1,0-0.2,0-0.3,0.1
						c-1.1,0.4-1.7,1.6-1.3,2.7c0.4,1.1,1.6,1.7,2.7,1.3c1.1-0.4,1.7-1.6,1.3-2.7c-0.2-0.5-0.6-1-1.1-1.2
						C157,51.7,156.6,51.7,156.1,51.8z"/>
				</g>
				<path class="st1" d="M157.8,60.5c-0.2,0-0.5,0.1-0.7,0.1l0,0c-0.1,0-0.1,0-0.2,0c-0.4,0-0.7,0-1.1,0c0,0,0,0,0,0c0,0,0,0,0,0
					c0,0-0.1,0-0.1,0c-0.1,0-0.1-0.1-0.1-0.1c0,0,0,0,0-0.1c0-0.1,0.1-0.2,0.2-0.1c0.5,0.1,0.9,0.1,1.4,0c2.3-0.2,4.2-1.6,5.2-3.5
					c0.6-1.1,0.8-2.3,0.7-3.6c0-0.2,0-0.4-0.1-0.7c-0.3-1.5-1-2.8-2.2-3.8c-1.3-1.1-3-1.7-4.8-1.5c-3.6,0.3-6.2,3.5-5.9,7
					c0,0.2,0,0.4,0.1,0.7c0.2,0.9,0.6,1.8,1.1,2.6c0,0,0,0,0,0.1c0,0.1,0,0.1-0.1,0.2c-0.1,0.1-0.2,0-0.2,0c-0.6-0.8-1-1.7-1.2-2.7
					c0-0.2-0.1-0.5-0.1-0.7c-0.3-3.8,2.5-7.1,6.2-7.4c1.8-0.2,3.6,0.4,5,1.6c1.2,1,2,2.4,2.3,4c0,0.2,0.1,0.5,0.1,0.7
					c0.2,1.8-0.4,3.6-1.6,5C160.7,59.4,159.4,60.2,157.8,60.5z"/>
			</g>
		</g>
		<g>
			<g class="st7">
				<path class="st3" d="M129.8,72c-0.1,0-0.2,0-0.3-0.1c-0.1-0.2-0.2-0.4-0.3-0.6c-0.1-0.1,0-0.3,0.1-0.3c0.1-0.1,0.3,0,0.3,0.1
					c0.1,0.2,0.2,0.4,0.3,0.6C130.1,71.7,130,71.9,129.8,72C129.9,71.9,129.8,72,129.8,72z"/>
				<path class="st3" d="M129.1,70.2c-0.1,0-0.2-0.1-0.3-0.2c-0.1-0.4-0.2-0.7-0.3-1.1c0-0.1,0-0.2,0-0.2c0-0.1,0.1-0.3,0.2-0.3
					c0.1,0,0.3,0.1,0.3,0.2c0,0.1,0,0.1,0,0.2c0.1,0.3,0.1,0.7,0.2,1C129.3,70,129.3,70.1,129.1,70.2
					C129.1,70.2,129.1,70.2,129.1,70.2z M128.7,67.6C128.7,67.6,128.7,67.6,128.7,67.6c-0.2,0-0.3-0.1-0.3-0.2c0-0.4,0-0.9,0-1.3
					c0-0.1,0.1-0.2,0.3-0.2c0.1,0,0.2,0.1,0.2,0.3c0,0.4,0,0.8,0,1.3C128.9,67.5,128.8,67.6,128.7,67.6z M128.9,65
					C128.9,65,128.8,65,128.9,65c-0.2,0-0.3-0.2-0.3-0.3c0.1-0.4,0.2-0.9,0.4-1.3c0-0.1,0.2-0.2,0.3-0.2c0.1,0,0.2,0.2,0.2,0.3
					c-0.1,0.4-0.3,0.8-0.3,1.2C129.1,64.9,129,65,128.9,65z M129.7,62.5c-0.1,0-0.1,0-0.2,0c-0.1-0.1-0.2-0.2-0.1-0.3
					c0.2-0.4,0.4-0.8,0.7-1.2c0.1-0.1,0.2-0.1,0.3-0.1c0.1,0.1,0.1,0.2,0.1,0.3c-0.2,0.4-0.4,0.7-0.6,1.1
					C129.9,62.5,129.8,62.5,129.7,62.5z M131.1,60.4c-0.1,0-0.1,0-0.2-0.1c-0.1-0.1-0.1-0.2,0-0.4c0.3-0.3,0.6-0.7,0.9-1
					c0.1-0.1,0.3-0.1,0.4,0c0.1,0.1,0.1,0.3,0,0.4c-0.3,0.3-0.6,0.6-0.9,0.9C131.3,60.3,131.2,60.4,131.1,60.4z M133.1,58.6
					c-0.1,0-0.2,0-0.2-0.1c-0.1-0.1-0.1-0.3,0.1-0.3c0.4-0.3,0.7-0.5,1.1-0.7c0.1-0.1,0.3,0,0.3,0.1c0.1,0.1,0,0.3-0.1,0.3
					c-0.4,0.2-0.7,0.4-1.1,0.7C133.1,58.6,133.1,58.6,133.1,58.6z M135.3,57.3c-0.1,0-0.2,0-0.3-0.2c-0.1-0.1,0-0.3,0.1-0.3
					c0.4-0.2,0.8-0.3,1.3-0.4c0.1,0,0.3,0,0.3,0.2c0,0.1,0,0.3-0.2,0.3C136.2,57,135.8,57.2,135.3,57.3
					C135.4,57.3,135.3,57.3,135.3,57.3z M139.2,56.6C139.1,56.6,139.1,56.6,139.2,56.6c-0.4,0-0.8,0-1.1,0.1c-0.1,0-0.1,0-0.2,0
					c-0.1,0-0.3-0.1-0.3-0.2c0-0.1,0.1-0.3,0.2-0.3c0.1,0,0.1,0,0.2,0c0.4,0,0.8-0.1,1.2-0.1c0.1,0,0.3,0.1,0.3,0.2
					C139.4,56.5,139.3,56.6,139.2,56.6z"/>
			</g>
			<g class="st7">
				<path class="st3" d="M141.3,77.5c-0.1,0-0.3-0.1-0.3-0.2c0-0.1,0.1-0.3,0.2-0.3c0.4-0.1,0.8-0.2,1.2-0.3c0.1,0,0.3,0,0.3,0.2
					c0,0.1,0,0.3-0.2,0.3C142.2,77.3,141.8,77.4,141.3,77.5C141.3,77.5,141.3,77.5,141.3,77.5z M140.1,77.7
					C140,77.7,140,77.7,140.1,77.7c-0.5,0-0.9,0-1.3,0c-0.1,0-0.2-0.1-0.2-0.3c0-0.1,0.1-0.2,0.3-0.2c0.4,0,0.8,0,1.3,0
					c0.1,0,0.3,0.1,0.3,0.2C140.3,77.6,140.2,77.7,140.1,77.7z M143.8,76.7c-0.1,0-0.2,0-0.3-0.1c-0.1-0.1,0-0.3,0.1-0.3
					c0.4-0.2,0.7-0.4,1.1-0.6c0.1-0.1,0.3,0,0.3,0.1c0.1,0.1,0,0.3-0.1,0.3C144.6,76.3,144.2,76.5,143.8,76.7
					C143.8,76.7,143.8,76.7,143.8,76.7z M137.5,77.6C137.5,77.6,137.4,77.6,137.5,77.6c-0.5-0.1-0.9-0.2-1.4-0.3
					c-0.1,0-0.2-0.2-0.2-0.3c0-0.1,0.2-0.2,0.3-0.2c0.4,0.1,0.8,0.2,1.2,0.3c0.1,0,0.2,0.2,0.2,0.3
					C137.7,77.5,137.6,77.6,137.5,77.6z M145.9,75.4c-0.1,0-0.2,0-0.2-0.1c-0.1-0.1-0.1-0.3,0-0.4c0.3-0.3,0.6-0.5,0.9-0.8
					c0.1-0.1,0.3-0.1,0.4,0c0.1,0.1,0.1,0.3,0,0.4c-0.3,0.3-0.6,0.6-1,0.9C146,75.3,146,75.4,145.9,75.4z M147.7,73.5
					c-0.1,0-0.1,0-0.2,0c-0.1-0.1-0.1-0.2,0-0.4c0.3-0.3,0.5-0.7,0.7-1c0.1-0.1,0.2-0.2,0.3-0.1c0.1,0.1,0.2,0.2,0.1,0.3
					c-0.2,0.4-0.5,0.7-0.7,1.1C147.8,73.5,147.8,73.5,147.7,73.5z M149,71.3c0,0-0.1,0-0.1,0c-0.1-0.1-0.2-0.2-0.1-0.3
					c0.2-0.4,0.3-0.8,0.4-1.2c0-0.1,0.2-0.2,0.3-0.2c0.1,0,0.2,0.2,0.2,0.3c-0.1,0.4-0.3,0.8-0.4,1.2
					C149.1,71.2,149.1,71.3,149,71.3z"/>
				<path class="st3" d="M135,76.9c0,0-0.1,0-0.1,0c-0.2-0.1-0.4-0.2-0.6-0.3c-0.1-0.1-0.2-0.2-0.1-0.3c0.1-0.1,0.2-0.2,0.3-0.1
					c0.2,0.1,0.4,0.2,0.6,0.3c0.1,0.1,0.2,0.2,0.1,0.3C135.2,76.8,135.1,76.9,135,76.9z"/>
			</g>
			<g>
				<path class="st3" d="M134.6,73.6c0,0,0.1,0,0.1,0l1.3-0.8c0.6,0.3,1.3,0.6,2.1,0.7l0.6,1.4c0,0,0.1,0.1,0.1,0.1l1.8-0.2
					c0.1,0,0.1,0,0.1-0.1l0.4-1.5c0.7-0.2,1.4-0.6,1.9-1l1.4,0.6c0.1,0,0.1,0,0.1,0l1.2-1.4c0,0,0-0.1,0-0.1l-0.8-1.3
					c0.3-0.6,0.6-1.3,0.7-2.1l1.4-0.6c0,0,0.1-0.1,0.1-0.1l-0.2-1.8c0-0.1,0-0.1-0.1-0.1l-1.5-0.4c-0.2-0.7-0.6-1.4-1-1.9l0.6-1.4
					c0-0.1,0-0.1,0-0.1l-1.4-1.2c0,0-0.1,0-0.1,0l-1.3,0.8c-0.6-0.3-1.3-0.6-2.1-0.7l-0.6-1.4c0,0-0.1-0.1-0.1-0.1l-1.8,0.2
					c-0.1,0-0.1,0-0.1,0.1l-0.4,1.5c-0.7,0.2-1.4,0.6-1.9,1l-1.4-0.6c-0.1,0-0.1,0-0.1,0l-1.2,1.4c0,0,0,0.1,0,0.1l0.8,1.3
					c-0.3,0.6-0.6,1.3-0.7,2.1l-1.4,0.6c0,0-0.1,0.1-0.1,0.1l0.2,1.8c0,0.1,0,0.1,0.1,0.1l1.5,0.4c0.2,0.7,0.6,1.4,1,1.9l-0.6,1.4
					c0,0.1,0,0.1,0,0.1L134.6,73.6z"/>
				<g>
					<path class="st1" d="M139.5,68.7c-0.4,0.1-0.8,0-1.2-0.2c-0.5-0.2-0.8-0.6-1-1.1c-0.3-1,0.2-2.1,1.2-2.4c1-0.3,2.1,0.2,2.4,1.2
						c0.2,0.5,0.1,1-0.1,1.4c-0.2,0.5-0.6,0.8-1.1,1C139.7,68.7,139.6,68.7,139.5,68.7z M138.9,65.5c-0.1,0-0.1,0-0.2,0.1
						c-0.7,0.3-1.1,1-0.9,1.8c0.1,0.4,0.4,0.6,0.7,0.8c0.3,0.2,0.7,0.2,1.1,0.1l0,0c0.4-0.1,0.6-0.4,0.8-0.7
						c0.2-0.3,0.2-0.7,0.1-1.1C140.3,65.7,139.6,65.3,138.9,65.5z"/>
				</g>
				<path class="st1" d="M140.1,71.4c-0.2,0-0.3,0.1-0.5,0.1c-0.3,0-0.6,0-1,0c0,0,0,0,0,0c-0.1,0-0.2-0.1-0.2-0.2c0,0,0-0.1,0-0.1
					c0-0.1,0.1-0.2,0.3-0.2c0.3,0,0.6,0,0.9,0l0,0c0,0,0,0,0,0c0.7-0.1,1.4-0.3,1.9-0.7c0.3-0.2,0.6-0.5,0.8-0.8c0,0,0,0,0,0
					c0,0,0,0,0,0c0.7-0.9,1.1-2,1-3.1c0-0.1,0-0.3-0.1-0.4c-0.2-1-0.7-1.8-1.4-2.4c-0.9-0.7-2-1.1-3.1-1c-1.1,0.1-2.1,0.6-2.9,1.5
					c-0.7,0.9-1.1,2-1,3.1c0,0.1,0,0.3,0.1,0.4c0.1,0.6,0.4,1.2,0.7,1.7c0,0,0,0.1,0,0.1c0,0.1,0,0.2-0.1,0.2
					c-0.1,0.1-0.3,0.1-0.3-0.1c-0.4-0.6-0.7-1.2-0.8-1.9c0-0.2-0.1-0.3-0.1-0.5c-0.1-1.3,0.3-2.5,1.1-3.4c0.8-1,2-1.6,3.2-1.7
					c1.3-0.1,2.5,0.3,3.4,1.1c0.8,0.7,1.4,1.7,1.6,2.7c0,0.2,0.1,0.3,0.1,0.5C144.1,68.8,142.4,71,140.1,71.4z"/>
			</g>
		</g>
	</g>
	<g>
		<g>
			<g>
				<linearGradient id="SVGID_4_" gradientUnits="userSpaceOnUse" x1="93.9964" y1="107.7566" x2="95.5646" y2="107.213">
					<stop  offset="0" style="stop-color:#FEBBBA"/>
					<stop  offset="1" style="stop-color:#FF928E"/>
				</linearGradient>
				<path class="st8" d="M98.5,105c0,0-0.8-2-1.6-1.8c-0.9,0.2-1.8,0.9-1.8,0.9l-1.4,1.9c0,0,4,1.6,5.4,0.7c0,0,4.1,0.7,9.2-0.1
					c-0.7-1.6-1.2-3.1-1.4-4.4C104.2,103.6,101.4,104.7,98.5,105z"/>
				<linearGradient id="SVGID_5_" gradientUnits="userSpaceOnUse" x1="105.1586" y1="110.678" x2="127.9947" y2="85.7856">
					<stop  offset="0" style="stop-color:#09005D"/>
					<stop  offset="1" style="stop-color:#1A0F91"/>
				</linearGradient>
				<path class="st9" d="M120,90.6c0,0-5.8,7.3-13.3,11.5c0.3,1.2,0.7,2.8,1.4,4.4c3.9-0.6,8.4-2.2,12.2-5.5L120,90.6z"/>
			</g>
			<linearGradient id="SVGID_6_" gradientUnits="userSpaceOnUse" x1="115.5831" y1="120.2413" x2="138.4192" y2="95.3489">
				<stop  offset="0" style="stop-color:#09005D"/>
				<stop  offset="1" style="stop-color:#1A0F91"/>
			</linearGradient>
			<path class="st10" d="M127.3,123c-1.1-5.4-2.3-8.5-6.1-18.8c-1.2-3.2-2.3-6.5-1.8-9.9l0.6-3.8c0,0,7.4-2.5,15.6-0.1
				c0,0,11.2,4.9,3.6,28.8C135.8,123.1,131.8,124.2,127.3,123z"/>
			
				<linearGradient id="SVGID_7_" gradientUnits="userSpaceOnUse" x1="-1162.7612" y1="93.3052" x2="-1165.0951" y2="86.3038" gradientTransform="matrix(1 0 0 1 1290.1023 0)">
				<stop  offset="0" style="stop-color:#FEBBBA"/>
				<stop  offset="1" style="stop-color:#FF928E"/>
			</linearGradient>
			<path class="st11" d="M121.3,85.7l1.9,4.6c0.1,0.3,0.4,0.5,0.7,0.6c1.1,0.2,3.8,0.5,5.5-0.7c0.2-0.1,0.3-0.4,0.1-0.6l-3.5-5.1
				L121.3,85.7z"/>
			<g>
				<linearGradient id="SVGID_8_" gradientUnits="userSpaceOnUse" x1="120.7641" y1="81.3365" x2="129.1522" y2="84.9835">
					<stop  offset="0" style="stop-color:#FEBBBA"/>
					<stop  offset="1" style="stop-color:#FF928E"/>
				</linearGradient>
				<path class="st12" d="M123.3,78.6c-0.1,0.1-3.4,6.6-3.4,6.6l3.8,1.8l4.1-5.7C127.7,81.3,124.6,77.4,123.3,78.6z"/>
				
					<linearGradient id="SVGID_9_" gradientUnits="userSpaceOnUse" x1="3301.1995" y1="4367.4585" x2="3311.2197" y2="4367.4585" gradientTransform="matrix(-0.6854 -0.7281 -0.7281 0.6854 5569.418 -503.4903)">
					<stop  offset="0" style="stop-color:#09005D"/>
					<stop  offset="1" style="stop-color:#1A0F91"/>
				</linearGradient>
				<path class="st13" d="M126,82l-1.9,3.1c0,0-0.1,0.1-0.1,0.1c-0.2,0.2-1,0.8-1.6,0c-0.5-0.7-1-1.3-1.5-1.6
					c-0.3-0.2-0.7,0-0.8,0.3c-0.3,0.6-0.9,1.9-1.3,3c-0.1,0.3,0.1,0.6,0.3,0.7c0.8,0.3,2.3,0.9,3.6,1.1c0.2,0,0.4-0.1,0.6-0.2
					c0.6-0.8,2.2-3,2.7-3.5c0.5-0.5,1.5-0.3,1.9-0.2c0.2,0,0.3,0,0.5-0.1c0.4-0.3,1.2-0.9,0.5-2c-0.2-0.3-0.1-0.6,0.2-0.8
					c0.5-0.3,1-0.9,0.5-1.9c-0.5-1-1.4-1.1-2-1c-0.3,0-0.5-0.1-0.7-0.4c0-0.1-0.1-0.2-0.3-0.2c-0.3-0.1-0.5-0.4-0.5-0.7
					c0.1-0.6,0-1.3-0.9-1.8c-1.6-0.9-3,0.6-3.4,1.8c-0.4,1.2,1.5,2.1,2.6,2.2c0.8,0.1,1.3,1,1.5,1.5C126.1,81.7,126.1,81.9,126,82z"
					/>
				<linearGradient id="SVGID_10_" gradientUnits="userSpaceOnUse" x1="120.2414" y1="82.5387" x2="128.6295" y2="86.1858">
					<stop  offset="0" style="stop-color:#FEBBBA"/>
					<stop  offset="1" style="stop-color:#FF928E"/>
				</linearGradient>
				<path class="st14" d="M125.3,85.9c0,0,0.8-1.9,1.7-1.8c0.9,0.1,1.7,1,0.5,2C126.2,87.4,125.3,85.9,125.3,85.9z"/>
			</g>
			<g>
				
					<linearGradient id="SVGID_11_" gradientUnits="userSpaceOnUse" x1="1122.0656" y1="171.0631" x2="1132.4902" y2="171.0631" gradientTransform="matrix(-1 0 0 1 1258.7585 0)">
					<stop  offset="0" style="stop-color:#4F52FF"/>
					<stop  offset="1" style="stop-color:#4042E2"/>
				</linearGradient>
				<path class="st15" d="M126.6,170.6c1.8,0.2,4.9,0.4,7.3,0.5c1.5,0.1,2.3-0.1,2.8-0.3c0,0.1,0,0.1,0,0.2c0,0.3-0.2,0.5-0.5,0.5
					c-4.6,0.3-8.3,0.1-9.6,0c-0.3,0-0.4-0.3-0.3-0.5C126.4,170.8,126.5,170.7,126.6,170.6z"/>
				<linearGradient id="SVGID_12_" gradientUnits="userSpaceOnUse" x1="161.8549" y1="161.3099" x2="124.1083" y2="172.0686">
					<stop  offset="0" style="stop-color:#09005D"/>
					<stop  offset="1" style="stop-color:#1A0F91"/>
				</linearGradient>
				<path class="st16" d="M133.9,171.1c-2.4-0.1-5.5-0.4-7.3-0.5c1.8-2.2,7.3-3.6,7.3-3.6h1.6c1.1,1.6,1.2,3,1.2,3.8
					C136.2,171,135.4,171.1,133.9,171.1z"/>
				
					<linearGradient id="SVGID_13_" gradientUnits="userSpaceOnUse" x1="1123.028" y1="166.1676" x2="1125.9645" y2="166.1676" gradientTransform="matrix(-1 0 0 1 1258.7585 0)">
					<stop  offset="0" style="stop-color:#FEBBBA"/>
					<stop  offset="1" style="stop-color:#FF928E"/>
				</linearGradient>
				<path class="st17" d="M135.7,164.4l-0.1,2.9c0,0.3-0.3,0.6-0.6,0.6c-0.3,0-0.7,0.1-1.2-0.1c-0.3-0.1-0.5-0.3-0.5-0.6l-0.5-2.8
					H135.7z"/>
			</g>
			<g>
				<g>
					
						<linearGradient id="SVGID_14_" gradientUnits="userSpaceOnUse" x1="1101.2832" y1="170.8383" x2="1105.2781" y2="170.8383" gradientTransform="matrix(-1 0 0 1 1258.7585 0)">
						<stop  offset="0" style="stop-color:#4F52FF"/>
						<stop  offset="1" style="stop-color:#4042E2"/>
					</linearGradient>
					<path class="st18" d="M156.2,171c0.8-0.1,1.1-0.5,1.3-0.9c0,0,0,0,0,0c0.1,0.5-0.2,0.9-0.7,1.1c-0.6,0.3-1.3,0.3-1.9,0.3
						c-0.6,0-1.1-0.3-1.4-0.6l0,0C154.1,171.2,154.9,171.2,156.2,171z"/>
					<linearGradient id="SVGID_15_" gradientUnits="userSpaceOnUse" x1="140.8118" y1="159.1232" x2="164.3351" y2="174.4407">
						<stop  offset="0" style="stop-color:#09005D"/>
						<stop  offset="1" style="stop-color:#1A0F91"/>
					</linearGradient>
					<path class="st19" d="M152.5,164.4h1.3c2,0,3.2,4.1,3.6,5.7c-0.1,0.4-0.5,0.8-1.3,0.9c-1.3,0.2-2.1,0.1-2.7-0.1
						c-1.1-1.4-1.6-3.5-1.9-4.7C151.3,164.9,152.5,164.4,152.5,164.4z"/>
				</g>
				
					<linearGradient id="SVGID_16_" gradientUnits="userSpaceOnUse" x1="1104.3601" y1="163.7197" x2="1107.8694" y2="163.7197" gradientTransform="matrix(-1 0 0 1 1258.7585 0)">
					<stop  offset="0" style="stop-color:#FEBBBA"/>
					<stop  offset="1" style="stop-color:#FF928E"/>
				</linearGradient>
				<path class="st20" d="M153.7,161.7l0.7,2.9c0.1,0.4-0.1,0.7-0.4,0.9c-0.4,0.2-1,0.4-1.5,0.4c-0.2,0-0.4-0.2-0.5-0.4l-1.1-3
					L153.7,161.7z"/>
			</g>
			
				<linearGradient id="SVGID_17_" gradientUnits="userSpaceOnUse" x1="-1229.1348" y1="168.8724" x2="-1175.5861" y2="94.8387" gradientTransform="matrix(-1 0 0 1 -1074.2415 0)">
				<stop  offset="0" style="stop-color:#09005D"/>
				<stop  offset="1" style="stop-color:#1A0F91"/>
			</linearGradient>
			<path class="st21" d="M154.5,162.5c-0.9,0.8-3.8,0.9-3.8,0.9c-10.5-25.2-14.9-32.2-14.9-32.2c1.5,9.5,0.3,34,0.3,34
				c-1.7,0.8-4,0-4,0c-0.1-15.6-2.3-32.3-5.2-43c7.1-0.2,11-1.7,12.2-2.7C145.1,129,154.5,162.5,154.5,162.5z"/>
			<g>
				<linearGradient id="SVGID_18_" gradientUnits="userSpaceOnUse" x1="136.5513" y1="119.937" x2="137.85" y2="129.3528">
					<stop  offset="0" style="stop-color:#E1473D"/>
					<stop  offset="1" style="stop-color:#E9605A"/>
				</linearGradient>
				<path class="st22" d="M125.2,129.2l1.3,8.1c0.2,1.4,1.5,2.4,3,2.2l19.6-2.4c1-0.1,1.7-0.9,1.7-1.9c0-2.1,0-5.8-0.9-9.2
					L125.2,129.2z"/>
				<path class="st2" d="M130,139C130,139,130,139,130,139c-0.1-0.1,0-0.1,0-0.1l0.4-0.1c0,0,0.1,0,0.1,0c0,0,0,0.1,0,0.1L130,139
					C130,139,130,139,130,139z M129,139C129,139,129,139,129,139c-0.2,0-0.3-0.1-0.4-0.1c0,0,0,0,0-0.1c0,0,0,0,0.1,0
					c0.1,0.1,0.3,0.1,0.4,0.1C129.1,138.9,129.1,138.9,129,139C129.1,139,129,139,129,139z M131.5,138.8
					C131.5,138.8,131.5,138.8,131.5,138.8c-0.1-0.1,0-0.1,0-0.1l0.4-0.1c0,0,0.1,0,0.1,0c0,0,0,0.1,0,0.1L131.5,138.8
					C131.5,138.8,131.5,138.8,131.5,138.8z M133,138.6C133,138.6,132.9,138.6,133,138.6c-0.1-0.1,0-0.1,0-0.1l0.4-0.1
					c0,0,0.1,0,0.1,0c0,0,0,0.1,0,0.1L133,138.6C133,138.6,133,138.6,133,138.6z M134.5,138.5C134.4,138.5,134.4,138.4,134.5,138.5
					c-0.1-0.1,0-0.1,0-0.1l0.4-0.1c0,0,0.1,0,0.1,0c0,0,0,0.1,0,0.1L134.5,138.5C134.5,138.5,134.5,138.5,134.5,138.5z M135.9,138.3
					C135.9,138.3,135.9,138.3,135.9,138.3c-0.1-0.1,0-0.1,0-0.1l0.4-0.1c0,0,0.1,0,0.1,0c0,0,0,0.1,0,0.1L135.9,138.3
					C136,138.3,135.9,138.3,135.9,138.3z M127.7,138.3C127.7,138.3,127.7,138.2,127.7,138.3c-0.1-0.1-0.2-0.2-0.3-0.4
					c0,0,0-0.1,0-0.1c0,0,0.1,0,0.1,0C127.6,137.9,127.7,138.1,127.7,138.3C127.8,138.2,127.8,138.2,127.7,138.3
					C127.8,138.2,127.7,138.3,127.7,138.3z M137.4,138.1C137.4,138.1,137.4,138.1,137.4,138.1c-0.1-0.1,0-0.1,0-0.1l0.4-0.1
					c0,0,0.1,0,0.1,0c0,0,0,0.1,0,0.1L137.4,138.1C137.4,138.1,137.4,138.1,137.4,138.1z M138.9,137.9
					C138.9,137.9,138.8,137.9,138.9,137.9c-0.1-0.1,0-0.1,0-0.1l0.4-0.1c0,0,0.1,0,0.1,0c0,0,0,0.1,0,0.1L138.9,137.9
					C138.9,137.9,138.9,137.9,138.9,137.9z M140.4,137.7C140.3,137.7,140.3,137.7,140.4,137.7c-0.1-0.1,0-0.1,0-0.1l0.4-0.1
					c0,0,0.1,0,0.1,0c0,0,0,0.1,0,0.1L140.4,137.7C140.4,137.7,140.4,137.7,140.4,137.7z M141.9,137.6
					C141.8,137.6,141.8,137.5,141.9,137.6c-0.1-0.1,0-0.1,0-0.1l0.4-0.1c0,0,0.1,0,0.1,0c0,0,0,0.1,0,0.1L141.9,137.6
					C141.9,137.6,141.9,137.6,141.9,137.6z M143.3,137.4C143.3,137.4,143.3,137.4,143.3,137.4c-0.1-0.1,0-0.1,0-0.1l0.4-0.1
					c0,0,0.1,0,0.1,0c0,0,0,0.1,0,0.1L143.3,137.4C143.3,137.4,143.3,137.4,143.3,137.4z M144.8,137.2
					C144.8,137.2,144.8,137.2,144.8,137.2c-0.1-0.1,0-0.1,0-0.1l0.4-0.1c0,0,0.1,0,0.1,0c0,0,0,0.1,0,0.1L144.8,137.2
					C144.8,137.2,144.8,137.2,144.8,137.2z M146.3,137C146.3,137,146.2,137,146.3,137c-0.1-0.1,0-0.1,0-0.1l0.4-0.1c0,0,0.1,0,0.1,0
					c0,0,0,0.1,0,0.1L146.3,137C146.3,137,146.3,137,146.3,137z M127.1,136.9C127,136.9,127,136.9,127.1,136.9l-0.1-0.5
					c0,0,0-0.1,0-0.1c0,0,0.1,0,0.1,0L127.1,136.9C127.1,136.9,127.1,136.9,127.1,136.9C127.1,136.9,127.1,136.9,127.1,136.9z
					 M147.8,136.8C147.7,136.8,147.7,136.8,147.8,136.8c-0.1-0.1,0-0.1,0-0.1l0.4-0.1c0,0,0.1,0,0.1,0c0,0,0,0.1,0,0.1L147.8,136.8
					C147.8,136.8,147.8,136.8,147.8,136.8z M149.2,136.5C149.2,136.5,149.2,136.5,149.2,136.5c-0.1-0.1-0.1-0.1,0-0.1
					c0.1-0.1,0.2-0.2,0.3-0.3c0,0,0.1,0,0.1,0c0,0,0,0.1,0,0.1C149.5,136.3,149.4,136.4,149.2,136.5
					C149.2,136.5,149.2,136.5,149.2,136.5z M126.8,135.5C126.8,135.5,126.8,135.5,126.8,135.5l-0.1-0.5c0,0,0-0.1,0-0.1
					c0,0,0.1,0,0.1,0L126.8,135.5C126.9,135.4,126.9,135.5,126.8,135.5C126.8,135.5,126.8,135.5,126.8,135.5z M150.1,135.4
					C150.1,135.4,150.1,135.4,150.1,135.4C150,135.4,150,135.3,150.1,135.4c0-0.2,0-0.3,0-0.5l0,0c0,0,0-0.1,0.1-0.1c0,0,0,0,0,0
					c0,0,0.1,0,0.1,0.1l0,0C150.2,135,150.2,135.2,150.1,135.4C150.1,135.3,150.1,135.4,150.1,135.4z M126.6,134
					C126.6,134,126.5,134,126.6,134l-0.1-0.5c0,0,0-0.1,0-0.1c0,0,0.1,0,0.1,0L126.6,134C126.7,134,126.6,134,126.6,134
					C126.6,134,126.6,134,126.6,134z M150.1,133.9C150.1,133.9,150.1,133.9,150.1,133.9c-0.1-0.2-0.1-0.3-0.1-0.5c0,0,0-0.1,0.1-0.1
					c0,0,0.1,0,0.1,0.1C150.2,133.5,150.2,133.7,150.1,133.9C150.2,133.9,150.2,133.9,150.1,133.9
					C150.1,133.9,150.1,133.9,150.1,133.9z M126.4,132.5C126.3,132.5,126.3,132.5,126.4,132.5l-0.1-0.5c0,0,0-0.1,0-0.1
					c0,0,0.1,0,0.1,0L126.4,132.5C126.4,132.5,126.4,132.5,126.4,132.5C126.4,132.5,126.4,132.5,126.4,132.5z M150.1,132.4
					C150.1,132.4,150,132.4,150.1,132.4c-0.1-0.2-0.1-0.3-0.1-0.5c0,0,0-0.1,0.1-0.1c0,0,0.1,0,0.1,0.1
					C150.1,132,150.1,132.2,150.1,132.4C150.1,132.4,150.1,132.4,150.1,132.4C150.1,132.4,150.1,132.4,150.1,132.4z M126.1,131.1
					C126.1,131.1,126.1,131.1,126.1,131.1l-0.1-0.5c0,0,0-0.1,0-0.1c0,0,0.1,0,0.1,0L126.1,131.1C126.2,131,126.2,131.1,126.1,131.1
					C126.1,131.1,126.1,131.1,126.1,131.1z M150,130.9C150,130.9,149.9,130.9,150,130.9c-0.1-0.2-0.1-0.3-0.1-0.5c0,0,0-0.1,0.1-0.1
					c0,0,0.1,0,0.1,0.1C150,130.6,150,130.7,150,130.9C150.1,130.9,150,130.9,150,130.9C150,130.9,150,130.9,150,130.9z
					 M125.9,129.6C125.9,129.6,125.8,129.6,125.9,129.6l-0.1-0.5l0.2,0c0,0,0.1,0,0.1,0c0,0,0,0.1,0,0.1l-0.1,0L125.9,129.6
					C125.9,129.6,125.9,129.6,125.9,129.6C125.9,129.6,125.9,129.6,125.9,129.6z M149.9,129.4C149.8,129.4,149.8,129.4,149.9,129.4
					c-0.1-0.2-0.1-0.3-0.1-0.5c0,0,0-0.1,0-0.1c0,0,0.1,0,0.1,0C149.9,129.1,149.9,129.2,149.9,129.4
					C149.9,129.4,149.9,129.4,149.9,129.4C149.9,129.4,149.9,129.4,149.9,129.4z M127,129C127,129,127,129,127,129
					c-0.1-0.1,0-0.1,0-0.1l0.4-0.1c0,0,0.1,0,0.1,0c0,0,0,0.1,0,0.1L127,129C127,129,127,129,127,129z M128.5,128.8
					C128.5,128.8,128.4,128.8,128.5,128.8c-0.1-0.1,0-0.1,0-0.1l0.4-0.1c0,0,0.1,0,0.1,0c0,0,0,0.1,0,0.1L128.5,128.8
					C128.5,128.8,128.5,128.8,128.5,128.8z M130,128.6C129.9,128.6,129.9,128.6,130,128.6c-0.1-0.1,0-0.1,0-0.1l0.4-0.1
					c0,0,0.1,0,0.1,0c0,0,0,0.1,0,0.1L130,128.6C130,128.6,130,128.6,130,128.6z M131.4,128.4C131.4,128.4,131.4,128.4,131.4,128.4
					c-0.1-0.1,0-0.1,0-0.1l0.4-0.1c0,0,0.1,0,0.1,0c0,0,0,0.1,0,0.1L131.4,128.4C131.5,128.4,131.4,128.4,131.4,128.4z M132.9,128.3
					C132.9,128.3,132.9,128.2,132.9,128.3c-0.1-0.1,0-0.1,0-0.1l0.4-0.1c0,0,0.1,0,0.1,0c0,0,0,0.1,0,0.1L132.9,128.3
					C132.9,128.3,132.9,128.3,132.9,128.3z M134.4,128.1C134.4,128.1,134.3,128,134.4,128.1c-0.1-0.1,0-0.1,0-0.1l0.4-0.1
					c0,0,0.1,0,0.1,0c0,0,0,0.1,0,0.1L134.4,128.1C134.4,128.1,134.4,128.1,134.4,128.1z M149.6,128
					C149.6,128,149.6,127.9,149.6,128c-0.1-0.2-0.1-0.3-0.1-0.5c0,0,0-0.1,0-0.1c0,0,0.1,0,0.1,0C149.6,127.6,149.7,127.7,149.6,128
					C149.7,127.9,149.7,128,149.6,128C149.6,128,149.6,128,149.6,128z M135.9,127.9C135.8,127.9,135.8,127.9,135.9,127.9
					c-0.1-0.1,0-0.1,0-0.1l0.4-0.1c0,0,0.1,0,0.1,0c0,0,0,0.1,0,0.1L135.9,127.9C135.9,127.9,135.9,127.9,135.9,127.9z M137.3,127.7
					C137.3,127.7,137.3,127.7,137.3,127.7c-0.1-0.1,0-0.1,0-0.1l0.4-0.1c0,0,0.1,0,0.1,0c0,0,0,0.1,0,0.1L137.3,127.7
					C137.4,127.7,137.3,127.7,137.3,127.7z M138.8,127.5C138.8,127.5,138.8,127.5,138.8,127.5c-0.1-0.1,0-0.1,0-0.1l0.4-0.1
					c0,0,0.1,0,0.1,0c0,0,0,0.1,0,0.1L138.8,127.5C138.8,127.5,138.8,127.5,138.8,127.5z M140.3,127.3
					C140.3,127.3,140.2,127.3,140.3,127.3c-0.1-0.1,0-0.1,0-0.1l0.4-0.1c0,0,0.1,0,0.1,0c0,0,0,0.1,0,0.1L140.3,127.3
					C140.3,127.3,140.3,127.3,140.3,127.3z M141.8,127.1C141.7,127.1,141.7,127.1,141.8,127.1c-0.1-0.1,0-0.1,0-0.1l0.4-0.1
					c0,0,0.1,0,0.1,0c0,0,0,0.1,0,0.1L141.8,127.1C141.8,127.1,141.8,127.1,141.8,127.1z M143.2,126.9
					C143.2,126.9,143.2,126.9,143.2,126.9c-0.1-0.1,0-0.1,0-0.1l0.4-0.1c0,0,0.1,0,0.1,0c0,0,0,0.1,0,0.1L143.2,126.9
					C143.3,126.9,143.2,126.9,143.2,126.9z M144.7,126.7C144.7,126.7,144.7,126.7,144.7,126.7c-0.1-0.1,0-0.1,0-0.1l0.4-0.1
					c0,0,0.1,0,0.1,0c0,0,0,0.1,0,0.1L144.7,126.7C144.7,126.7,144.7,126.7,144.7,126.7z M146.2,126.6
					C146.2,126.6,146.1,126.5,146.2,126.6c-0.1-0.1,0-0.1,0-0.1l0.4-0.1c0,0,0.1,0,0.1,0c0,0,0,0.1,0,0.1L146.2,126.6
					C146.2,126.6,146.2,126.6,146.2,126.6z M149.3,126.5C149.3,126.5,149.3,126.5,149.3,126.5c-0.1-0.1-0.1-0.2-0.1-0.3l0,0
					c0,0-0.1,0-0.1,0c0,0,0-0.1,0-0.1l0.1,0l0,0C149.3,126.2,149.4,126.3,149.3,126.5C149.4,126.5,149.4,126.5,149.3,126.5
					C149.3,126.5,149.3,126.5,149.3,126.5z M147.7,126.4C147.6,126.4,147.6,126.3,147.7,126.4c-0.1-0.1,0-0.1,0-0.1l0.4-0.1
					c0,0,0.1,0,0.1,0c0,0,0,0.1,0,0.1L147.7,126.4C147.7,126.4,147.7,126.4,147.7,126.4z"/>
				
					<linearGradient id="SVGID_19_" gradientUnits="userSpaceOnUse" x1="-2172.1086" y1="699.4311" x2="-2172.2534" y2="695.9213" gradientTransform="matrix(0.9919 -0.127 0.127 0.9919 2197.8381 -845.6882)">
					<stop  offset="0" style="stop-color:#E1473D"/>
					<stop  offset="1" style="stop-color:#E9605A"/>
				</linearGradient>
				<path class="st23" d="M130.2,122.5l0-0.6c0-0.2,0.2-0.3,0.3-0.3c0.6-0.2,2.1-0.5,2.9-0.1l0.2,0.7L130.2,122.5z"/>
				
					<linearGradient id="SVGID_20_" gradientUnits="userSpaceOnUse" x1="-2172.2917" y1="694.1619" x2="-2171.5681" y2="704.2197" gradientTransform="matrix(0.9919 -0.127 0.127 0.9919 2197.8381 -845.6882)">
					<stop  offset="0" style="stop-color:#E1473D"/>
					<stop  offset="1" style="stop-color:#E9605A"/>
				</linearGradient>
				<path class="st24" d="M132,121.7c-0.1,0.1-0.3,0.1-0.4,0.1c-0.2,0-0.3-0.2-0.3-0.3l-0.3-2l1-0.1l0.3,2
					C132.3,121.4,132.2,121.6,132,121.7z"/>
				
					<linearGradient id="SVGID_21_" gradientUnits="userSpaceOnUse" x1="-2162.3315" y1="699.0286" x2="-2162.4763" y2="695.5189" gradientTransform="matrix(0.9919 -0.127 0.127 0.9919 2197.8381 -845.6882)">
					<stop  offset="0" style="stop-color:#E1473D"/>
					<stop  offset="1" style="stop-color:#E9605A"/>
				</linearGradient>
				<path class="st25" d="M139.9,121.3l0-0.6c0-0.2,0.2-0.3,0.3-0.3c0.6-0.2,2.1-0.5,2.9-0.1l0.2,0.7L139.9,121.3z"/>
				
					<linearGradient id="SVGID_22_" gradientUnits="userSpaceOnUse" x1="-2162.541" y1="693.4612" x2="-2161.8174" y2="703.5189" gradientTransform="matrix(0.9919 -0.127 0.127 0.9919 2197.8381 -845.6882)">
					<stop  offset="0" style="stop-color:#E1473D"/>
					<stop  offset="1" style="stop-color:#E9605A"/>
				</linearGradient>
				<path class="st26" d="M141.7,120.4c-0.1,0.1-0.3,0.1-0.4,0.1c-0.2,0-0.3-0.2-0.3-0.3l-0.3-2.2l1-0.1l0.3,2.2
					C142,120.2,141.9,120.4,141.7,120.4z"/>
				
					<linearGradient id="SVGID_23_" gradientUnits="userSpaceOnUse" x1="-2166.5571" y1="688.5639" x2="-2167.5339" y2="695.7261" gradientTransform="matrix(0.9919 -0.127 0.127 0.9919 2197.8381 -845.6882)">
					<stop  offset="0" style="stop-color:#FF928E"/>
					<stop  offset="1" style="stop-color:#FE7062"/>
				</linearGradient>
				<path class="st27" d="M131,119.9l10.7-1.7c0.2,0,0.4-0.2,0.4-0.5c0-0.3,0-0.9-0.1-1.4c-0.2-0.6-0.7-1-1.3-0.9
					c-2,0.2-7.1,0.9-9.8,2.3c-0.3,0.2-0.5,0.4-0.5,0.8c0,0.3,0,0.7,0.1,1.1C130.5,119.8,130.7,120,131,119.9z"/>
				<path class="st28" d="M130.7,119.5c-0.1,0-0.1,0-0.1-0.1c0,0-0.1-0.4,0-0.9c0-0.3,0.3-0.6,0.6-0.8c0.6-0.3,1.7-0.7,2.6-0.9
					c0.1,0,0.2,0,0.2,0.1c0,0.1,0,0.2-0.1,0.2c-0.9,0.1-2.1,0.6-2.6,0.8c-0.2,0.1-0.4,0.3-0.4,0.5c-0.1,0.4,0,0.7,0,0.8
					C130.9,119.4,130.8,119.5,130.7,119.5C130.7,119.5,130.7,119.5,130.7,119.5z"/>
				<linearGradient id="SVGID_24_" gradientUnits="userSpaceOnUse" x1="137.5538" y1="138.5942" x2="137.4456" y2="126.148">
					<stop  offset="0" style="stop-color:#FF928E"/>
					<stop  offset="1" style="stop-color:#FE7062"/>
				</linearGradient>
				<path class="st29" d="M125.2,122.9c3.5-0.5,18.5-2.6,23-2.6c0.4,0,0.7,0.2,0.9,0.6c0.4,1.1,1.3,3.8,1.6,6.5
					c0,0.4-0.2,0.7-0.5,0.8l-9.8,3.2l-3.6,0.5l-10.9-0.8c-0.4,0-0.7-0.3-0.8-0.7c-0.2-1.3-0.8-4.5-0.7-6.6
					C124.4,123.4,124.7,123,125.2,122.9z"/>
				<path class="st2" d="M136.7,131C136.7,131,136.7,131,136.7,131l-0.4,0c0,0-0.1,0-0.1-0.1c0,0,0,0,0.1-0.1l0.4,0
					C136.7,130.9,136.7,130.9,136.7,131C136.7,131,136.7,131,136.7,131z M137.1,131C137.1,131,137,131,137.1,131
					c-0.1-0.1,0-0.1,0-0.1l0.4-0.1c0,0,0.1,0,0.1,0c0,0,0,0.1,0,0.1L137.1,131C137.1,131,137.1,131,137.1,131z M135.2,130.9
					C135.2,130.9,135.2,130.9,135.2,130.9l-0.4,0c0,0-0.1,0-0.1-0.1c0,0,0,0,0.1-0.1l0.4,0C135.2,130.8,135.2,130.8,135.2,130.9
					C135.2,130.9,135.2,130.9,135.2,130.9z M133.7,130.8C133.7,130.8,133.7,130.8,133.7,130.8l-0.4,0c0,0-0.1,0-0.1-0.1
					c0,0,0,0,0.1-0.1l0.4,0C133.7,130.7,133.8,130.7,133.7,130.8C133.8,130.8,133.7,130.8,133.7,130.8z M138.6,130.8
					C138.5,130.8,138.5,130.8,138.6,130.8c-0.1-0.1,0-0.1,0-0.1l0.4-0.1c0,0,0.1,0,0.1,0c0,0,0,0.1,0,0.1L138.6,130.8
					C138.6,130.8,138.6,130.8,138.6,130.8z M132.2,130.7C132.2,130.7,132.2,130.7,132.2,130.7l-0.4,0c0,0-0.1,0-0.1-0.1
					c0,0,0,0,0.1-0.1l0.4,0C132.3,130.6,132.3,130.6,132.2,130.7C132.3,130.7,132.3,130.7,132.2,130.7z M130.7,130.6
					C130.7,130.6,130.7,130.6,130.7,130.6l-0.4,0c0,0-0.1,0-0.1-0.1c0,0,0-0.1,0.1-0.1l0.4,0C130.8,130.5,130.8,130.5,130.7,130.6
					C130.8,130.6,130.8,130.6,130.7,130.6z M140,130.6C140,130.6,140,130.6,140,130.6c-0.1-0.1,0-0.1,0-0.1l0,0l0.4-0.1
					c0,0,0.1,0,0.1,0c0,0,0,0.1,0,0.1L140,130.6C140,130.6,140,130.6,140,130.6z M129.3,130.5C129.3,130.5,129.3,130.5,129.3,130.5
					l-0.4,0c0,0-0.1,0-0.1-0.1c0,0,0-0.1,0.1-0.1l0.4,0C129.3,130.4,129.3,130.4,129.3,130.5C129.3,130.5,129.3,130.5,129.3,130.5z
					 M127.8,130.4C127.8,130.4,127.8,130.4,127.8,130.4l-0.4,0c0,0-0.1,0-0.1-0.1c0,0,0-0.1,0.1-0.1l0.4,0
					C127.8,130.3,127.8,130.3,127.8,130.4C127.8,130.4,127.8,130.4,127.8,130.4z M126.3,130.3C126.3,130.3,126.3,130.3,126.3,130.3
					l-0.5,0l0,0c0,0,0-0.1,0-0.1c0,0,0,0,0,0l0.4,0C126.3,130.2,126.3,130.2,126.3,130.3C126.3,130.3,126.3,130.3,126.3,130.3z
					 M141.4,130.1C141.4,130.1,141.4,130.1,141.4,130.1c-0.1-0.1,0-0.1,0-0.1l0.4-0.1c0,0,0.1,0,0.1,0c0,0,0,0.1,0,0.1L141.4,130.1
					C141.5,130.1,141.4,130.1,141.4,130.1z M142.9,129.7C142.8,129.7,142.8,129.7,142.9,129.7c-0.1-0.1,0-0.1,0-0.1l0.4-0.1
					c0,0,0.1,0,0.1,0c0,0,0,0.1,0,0.1L142.9,129.7C142.9,129.7,142.9,129.7,142.9,129.7z M125.7,129.2
					C125.7,129.2,125.6,129.2,125.7,129.2c-0.1-0.2-0.1-0.3-0.1-0.5c0,0,0-0.1,0-0.1c0,0,0.1,0,0.1,0
					C125.7,128.9,125.7,129,125.7,129.2C125.7,129.2,125.7,129.2,125.7,129.2C125.7,129.2,125.7,129.2,125.7,129.2z M144.3,129.2
					C144.2,129.2,144.2,129.2,144.3,129.2c-0.1-0.1,0-0.1,0-0.1l0.4-0.1c0,0,0.1,0,0.1,0c0,0,0,0.1,0,0.1L144.3,129.2
					C144.3,129.2,144.3,129.2,144.3,129.2z M145.7,128.8C145.7,128.8,145.6,128.8,145.7,128.8c-0.1-0.1,0-0.1,0-0.1l0.4-0.1
					c0,0,0.1,0,0.1,0c0,0,0,0.1,0,0.1L145.7,128.8C145.7,128.8,145.7,128.8,145.7,128.8z M147.1,128.3
					C147.1,128.3,147.1,128.3,147.1,128.3c-0.1-0.1,0-0.1,0-0.1l0.4-0.1c0,0,0.1,0,0.1,0c0,0,0,0.1,0,0.1L147.1,128.3
					C147.1,128.3,147.1,128.3,147.1,128.3z M148.5,127.8C148.5,127.8,148.5,127.8,148.5,127.8c-0.1-0.1,0-0.1,0-0.1l0.4-0.1
					c0,0,0.1,0,0.1,0c0,0,0,0.1,0,0.1L148.5,127.8C148.5,127.8,148.5,127.8,148.5,127.8z M125.5,127.8
					C125.4,127.8,125.4,127.7,125.5,127.8c-0.1-0.2-0.1-0.3-0.1-0.5c0,0,0-0.1,0-0.1c0,0,0.1,0,0.1,0
					C125.5,127.4,125.5,127.6,125.5,127.8C125.5,127.7,125.5,127.8,125.5,127.8C125.5,127.8,125.5,127.8,125.5,127.8z M149.6,127.2
					C149.6,127.2,149.6,127.2,149.6,127.2c-0.1-0.2-0.1-0.3-0.1-0.5c0,0,0-0.1,0-0.1c0,0,0.1,0,0.1,0
					C149.7,126.8,149.7,127,149.6,127.2C149.7,127.2,149.7,127.2,149.6,127.2C149.6,127.2,149.6,127.2,149.6,127.2z M125.3,126.3
					C125.3,126.3,125.2,126.3,125.3,126.3c-0.1-0.2-0.1-0.3-0.1-0.5c0,0,0-0.1,0.1-0.1c0,0,0.1,0,0.1,0.1
					C125.3,125.9,125.3,126.1,125.3,126.3C125.4,126.3,125.3,126.3,125.3,126.3C125.3,126.3,125.3,126.3,125.3,126.3z M149.4,125.7
					C149.4,125.7,149.4,125.7,149.4,125.7c-0.1-0.2-0.1-0.3-0.1-0.5c0,0,0-0.1,0-0.1c0,0,0.1,0,0.1,0
					C149.4,125.4,149.4,125.5,149.4,125.7C149.5,125.7,149.4,125.7,149.4,125.7C149.4,125.7,149.4,125.7,149.4,125.7z M125.2,124.8
					C125.2,124.8,125.2,124.8,125.2,124.8c-0.1-0.2-0.1-0.3-0.1-0.4l0-0.1c0,0,0-0.1,0.1-0.1c0,0,0,0,0,0c0,0,0.1,0,0.1,0.1l0,0.1
					C125.3,124.5,125.3,124.6,125.2,124.8C125.3,124.8,125.2,124.8,125.2,124.8C125.2,124.8,125.2,124.8,125.2,124.8z M149.1,124.3
					C149.1,124.3,149,124.3,149.1,124.3c-0.1-0.2-0.1-0.3-0.2-0.5c0,0,0-0.1,0-0.1c0,0,0.1,0,0.1,0
					C149.1,123.9,149.1,124.1,149.1,124.3C149.1,124.2,149.1,124.3,149.1,124.3C149.1,124.3,149.1,124.3,149.1,124.3z M125.8,123.8
					C125.7,123.8,125.7,123.7,125.8,123.8c-0.1-0.1,0-0.1,0-0.1l0.4-0.1c0,0,0.1,0,0.1,0c0,0,0,0.1,0,0.1L125.8,123.8
					C125.8,123.8,125.8,123.8,125.8,123.8z M127.2,123.6C127.2,123.6,127.2,123.5,127.2,123.6c-0.1-0.1,0-0.1,0-0.1l0.4-0.1
					c0,0,0.1,0,0.1,0c0,0,0,0.1,0,0.1L127.2,123.6C127.2,123.6,127.2,123.6,127.2,123.6z M128.7,123.4
					C128.7,123.4,128.7,123.3,128.7,123.4c-0.1-0.1,0-0.1,0-0.1l0.4-0.1c0,0,0.1,0,0.1,0c0,0,0,0.1,0,0.1L128.7,123.4
					C128.7,123.4,128.7,123.4,128.7,123.4z M130.2,123.2C130.2,123.2,130.1,123.1,130.2,123.2c-0.1-0.1,0-0.1,0-0.1l0.4-0.1
					c0,0,0.1,0,0.1,0c0,0,0,0.1,0,0.1L130.2,123.2C130.2,123.2,130.2,123.2,130.2,123.2z M131.7,123
					C131.6,123,131.6,122.9,131.7,123c-0.1-0.1,0-0.1,0-0.1l0.4-0.1c0,0,0.1,0,0.1,0c0,0,0,0.1,0,0.1L131.7,123
					C131.7,123,131.7,123,131.7,123z M148.7,122.8C148.7,122.8,148.6,122.8,148.7,122.8c-0.1-0.2-0.1-0.3-0.2-0.5c0,0,0-0.1,0-0.1
					c0,0,0.1,0,0.1,0C148.7,122.5,148.7,122.6,148.7,122.8C148.8,122.8,148.7,122.8,148.7,122.8
					C148.7,122.8,148.7,122.8,148.7,122.8z M133.1,122.8C133.1,122.8,133.1,122.8,133.1,122.8c-0.1-0.1,0-0.1,0-0.1l0.4-0.1
					c0,0,0.1,0,0.1,0c0,0,0,0.1,0,0.1L133.1,122.8C133.1,122.8,133.1,122.8,133.1,122.8z M134.6,122.6
					C134.6,122.6,134.6,122.6,134.6,122.6c-0.1-0.1,0-0.1,0-0.1l0.4-0.1c0,0,0.1,0,0.1,0c0,0,0,0.1,0,0.1L134.6,122.6
					C134.6,122.6,134.6,122.6,134.6,122.6z M136.1,122.4C136.1,122.4,136,122.4,136.1,122.4c-0.1-0.1,0-0.1,0-0.1l0.4-0.1
					c0,0,0.1,0,0.1,0c0,0,0,0.1,0,0.1L136.1,122.4C136.1,122.4,136.1,122.4,136.1,122.4z M137.6,122.2
					C137.5,122.2,137.5,122.2,137.6,122.2c-0.1-0.1,0-0.1,0-0.1l0.4-0.1c0,0,0.1,0,0.1,0c0,0,0,0.1,0,0.1L137.6,122.2
					C137.6,122.2,137.6,122.2,137.6,122.2z M139,122C139,122,139,122,139,122c-0.1-0.1,0-0.1,0-0.1l0.4-0.1c0,0,0.1,0,0.1,0
					c0,0,0,0.1,0,0.1L139,122C139,122,139,122,139,122z M140.5,121.9C140.5,121.9,140.5,121.9,140.5,121.9c-0.1-0.1,0-0.1,0-0.1
					l0.4,0c0,0,0.1,0,0.1,0c0,0,0,0.1,0,0.1L140.5,121.9C140.5,121.9,140.5,121.9,140.5,121.9z M142,121.7
					C142,121.7,141.9,121.7,142,121.7c-0.1-0.1,0-0.1,0-0.1l0.4,0c0,0,0.1,0,0.1,0c0,0,0,0.1,0,0.1L142,121.7
					C142,121.7,142,121.7,142,121.7z M143.5,121.6C143.4,121.6,143.4,121.5,143.5,121.6c-0.1-0.1,0-0.1,0-0.1l0.4,0
					c0,0,0.1,0,0.1,0.1c0,0,0,0.1-0.1,0.1L143.5,121.6C143.5,121.6,143.5,121.6,143.5,121.6z M148.2,121.4
					C148.2,121.4,148.2,121.4,148.2,121.4l-0.1-0.2c-0.1,0-0.1,0-0.2,0c0,0,0,0,0,0c0,0-0.1,0-0.1-0.1c0,0,0-0.1,0.1-0.1
					c0.1,0,0.1,0,0.2,0c0,0,0.1,0,0.1,0.1L148.2,121.4C148.3,121.4,148.3,121.4,148.2,121.4C148.2,121.4,148.2,121.4,148.2,121.4z
					 M145,121.4C144.9,121.4,144.9,121.4,145,121.4c-0.1-0.1,0-0.1,0-0.1c0.2,0,0.3,0,0.4,0c0,0,0.1,0,0.1,0.1c0,0,0,0.1-0.1,0.1
					C145.3,121.4,145.1,121.4,145,121.4C145,121.4,145,121.4,145,121.4z M146.4,121.3C146.4,121.3,146.4,121.3,146.4,121.3
					c-0.1-0.1,0-0.1,0-0.1c0.2,0,0.3,0,0.4,0c0,0,0.1,0,0.1,0.1c0,0,0,0.1-0.1,0.1C146.7,121.3,146.6,121.3,146.4,121.3
					C146.4,121.3,146.4,121.3,146.4,121.3z"/>
				<linearGradient id="SVGID_25_" gradientUnits="userSpaceOnUse" x1="137.3394" y1="134.2592" x2="138.5299" y2="128.7397">
					<stop  offset="0" style="stop-color:#E1473D"/>
					<stop  offset="1" style="stop-color:#E9605A"/>
				</linearGradient>
				<path class="st30" d="M140.1,132.9l-3.1,0.4c-0.4,0.1-0.8-0.2-0.9-0.6l-0.7-2.9c-0.1-0.5,0.2-0.9,0.7-1l3.7-0.5
					c0.5-0.1,0.9,0.3,0.9,0.8l0.1,3C140.8,132.5,140.5,132.9,140.1,132.9z"/>
				
					<linearGradient id="SVGID_26_" gradientUnits="userSpaceOnUse" x1="-2169.0273" y1="707.0385" x2="-2164.9246" y2="707.0385" gradientTransform="matrix(0.9919 -0.127 0.127 0.9919 2197.8381 -845.6882)">
					<stop  offset="0" style="stop-color:#FF928E"/>
					<stop  offset="1" style="stop-color:#FE7062"/>
				</linearGradient>
				<path class="st31" d="M139.7,132.4l-2.4,0.3c-0.3,0-0.6-0.2-0.7-0.5L136,130c-0.1-0.4,0.2-0.7,0.5-0.8l2.8-0.4
					c0.4,0,0.7,0.2,0.7,0.6l0.1,2.3C140.2,132.1,140,132.4,139.7,132.4z"/>
			</g>
			<linearGradient id="SVGID_27_" gradientUnits="userSpaceOnUse" x1="140.6004" y1="110.2645" x2="132.6537" y2="125.5465">
				<stop  offset="0" style="stop-color:#FEBBBA"/>
				<stop  offset="1" style="stop-color:#FF928E"/>
			</linearGradient>
			<path class="st32" d="M137.8,108.6c0.7,3,0.8,6,0.6,7.1c0,0.4-0.4,0.7-0.8,0.8c-0.5,0-1.1,0.1-1.7,0.1c-0.6,0-1.3-0.4-1.8-0.7
				c-0.2-0.2-0.5,0.1-0.4,0.3c0.2,0.4,0.6,0.8,1,1.1c0.2,0.2,1,0.5,1,0.8c0,0.1-0.1,0.2-0.2,0.3c-0.4,0.5-1.1,0.8-1.7,1
				c-0.1,0-0.2,0.1-0.2,0.1c0,0.4,1.3,0.9,1.6,1c0.5,0.2,1,0.2,1.5,0.2c1.3-0.1,2.5-1,3.2-2.1c1.9-2.9,2.8-6.4,3.2-9
				C141.5,107.8,138.8,108.3,137.8,108.6z"/>
			<g>
				<linearGradient id="SVGID_28_" gradientUnits="userSpaceOnUse" x1="118.9816" y1="123.3591" x2="141.8177" y2="98.4668">
					<stop  offset="0" style="stop-color:#09005D"/>
					<stop  offset="1" style="stop-color:#1A0F91"/>
				</linearGradient>
				<path class="st33" d="M143.2,109.8c1.4-10.4-6.7-18.5-6.7-18.5l-4.8,5.6c3.6,4.5,5.4,8.7,6.2,11.9
					C138.9,108.6,141.5,108.1,143.2,109.8z"/>
				<linearGradient id="SVGID_29_" gradientUnits="userSpaceOnUse" x1="135.5773" y1="99.1354" x2="140.8804" y2="78.2474">
					<stop  offset="0" style="stop-color:#09005D"/>
					<stop  offset="1" style="stop-color:#1A0F91"/>
				</linearGradient>
				<path class="st34" d="M137.8,108.8c-0.1,0-0.3-0.1-0.3-0.2c-1-4-3-8-6.1-11.8c-0.1-0.1-0.1-0.3,0-0.4c0.1-0.1,0.3-0.1,0.4,0
					c3.1,3.9,5.2,8,6.2,12.1C138.1,108.6,138,108.8,137.8,108.8C137.8,108.8,137.8,108.8,137.8,108.8z"/>
			</g>
		</g>
		<g>
			<g>
				
					<linearGradient id="SVGID_30_" gradientUnits="userSpaceOnUse" x1="-1224.0188" y1="168.321" x2="-1217.1802" y2="168.321" gradientTransform="matrix(1 0 0 1 1290.1023 0)">
					<stop  offset="0" style="stop-color:#09005D"/>
					<stop  offset="1" style="stop-color:#1A0F91"/>
				</linearGradient>
				<path class="st35" d="M72.9,170.8c0-0.1,0-0.1,0-0.2c-0.8-3.1-4.6-5-4.6-5l-1.5,0.1c-0.9,2.7-0.8,4.3-0.6,5.1c0,0,0,0,0,0.1
					C67.4,171,70,171.1,72.9,170.8z"/>
				
					<linearGradient id="SVGID_31_" gradientUnits="userSpaceOnUse" x1="-1206.8986" y1="160.2533" x2="-1231.7778" y2="179.7886" gradientTransform="matrix(1 0 0 1 1290.1023 0)">
					<stop  offset="0" style="stop-color:#4F52FF"/>
					<stop  offset="1" style="stop-color:#4042E2"/>
				</linearGradient>
				<path class="st36" d="M66.2,170.9c0.1,0.2,0.2,0.4,0.5,0.5c1.8,0.4,4.6,0.1,5.8-0.1c0.3,0,0.5-0.3,0.5-0.5
					C70,171.1,67.4,171,66.2,170.9z"/>
				
					<linearGradient id="SVGID_32_" gradientUnits="userSpaceOnUse" x1="-1222.1171" y1="160.5355" x2="-1223.4233" y2="171.936" gradientTransform="matrix(1 0 0 1 1290.1023 0)">
					<stop  offset="0" style="stop-color:#FEBBBA"/>
					<stop  offset="1" style="stop-color:#FF928E"/>
				</linearGradient>
				<path class="st37" d="M66.2,163.5l0.6,3.1c0,0.2,0.2,0.4,0.4,0.4c0.3,0,0.6,0,1,0c0.3,0,0.6-0.4,0.5-0.7l-0.4-2.7H66.2z"/>
				
					<linearGradient id="SVGID_33_" gradientUnits="userSpaceOnUse" x1="-1202.4789" y1="165.8739" x2="-1227.3583" y2="185.4092" gradientTransform="matrix(1 0 0 1 1290.1023 0)">
					<stop  offset="0" style="stop-color:#4F52FF"/>
					<stop  offset="1" style="stop-color:#4042E2"/>
				</linearGradient>
				<path class="st38" d="M79.5,170.9c-1.7,0-2.5-0.2-3-0.4c0,0.2,0,0.3,0,0.5c0,0.2,0.1,0.3,0.3,0.3l9.2-0.1c0.3,0,0.5-0.3,0.3-0.6
					C85.1,170.7,82.1,170.9,79.5,170.9z"/>
				
					<linearGradient id="SVGID_34_" gradientUnits="userSpaceOnUse" x1="-1213.6053" y1="168.4948" x2="-1203.7612" y2="168.4948" gradientTransform="matrix(1 0 0 1 1290.1023 0)">
					<stop  offset="0" style="stop-color:#09005D"/>
					<stop  offset="1" style="stop-color:#1A0F91"/>
				</linearGradient>
				<path class="st39" d="M86.3,170.6C86.3,170.6,86.3,170.6,86.3,170.6c-0.8-1.2-2.9-3.5-7-4.4l-2-0.1c0,0-0.9,1.5-0.9,4.3
					c0.4,0.2,1.3,0.4,3,0.4C82.1,170.9,85.1,170.7,86.3,170.6z"/>
				
					<linearGradient id="SVGID_35_" gradientUnits="userSpaceOnUse" x1="-1032.3842" y1="144.7402" x2="-1033.6904" y2="156.1409" gradientTransform="matrix(0.998 -6.290000e-02 6.290000e-02 0.998 1099.663 -47.6481)">
					<stop  offset="0" style="stop-color:#FEBBBA"/>
					<stop  offset="1" style="stop-color:#FF928E"/>
				</linearGradient>
				<path class="st40" d="M76.9,163.2c0,0.1,0.4,2.3,0.6,3.2c0,0.2,0.2,0.4,0.4,0.4c0.3,0,0.9,0,1.3-0.1c0.3-0.1,0.4-0.3,0.4-0.6
					l-0.2-3.5L76.9,163.2z"/>
				<linearGradient id="SVGID_36_" gradientUnits="userSpaceOnUse" x1="79.1563" y1="118.8824" x2="57.3442" y2="187.9165">
					<stop  offset="0" style="stop-color:#09005D"/>
					<stop  offset="1" style="stop-color:#1A0F91"/>
				</linearGradient>
				<path class="st41" d="M75.5,122.7c0,0,2.7,18.5,4.6,40.5c0,0.4-0.3,0.8-0.7,0.9c-0.6,0.1-1.5,0.3-2.2,0.3
					c-0.4,0-0.7-0.3-0.8-0.7c-0.7-3.9-5.4-24.7-6.6-29.3c0,0-1.4,19.5-1,29.6c0,0.3-0.2,0.5-0.4,0.5c-0.4,0-1,0.1-1.8,0
					c-0.3,0-0.5-0.3-0.6-0.5c-0.5-3.3-3.2-22.9-3.1-37c0-0.8,0.9-7.3,0.9-7.3L75.5,122.7z"/>
			</g>
			<linearGradient id="SVGID_37_" gradientUnits="userSpaceOnUse" x1="58.9694" y1="124.2568" x2="83.7535" y2="93.8448">
				<stop  offset="0" style="stop-color:#FF928E"/>
				<stop  offset="1" style="stop-color:#FE7062"/>
			</linearGradient>
			<path class="st42" d="M63.5,123.7c-0.3-0.1-0.5-0.3-0.5-0.6c-0.4-3.5-2.1-25,8.9-33.9c0,0,0.6-1.6,5.8,2.4
				c5.2,4,2.4,8.3,1.2,14.1c-1.5,7.1-4.1,12.8-3,17.2c0.1,0.3-0.1,0.6-0.4,0.7C71.5,125.1,67.5,125.1,63.5,123.7z"/>
			<linearGradient id="SVGID_38_" gradientUnits="userSpaceOnUse" x1="70.4693" y1="90.8253" x2="79.5604" y2="85.414">
				<stop  offset="0" style="stop-color:#FEBBBA"/>
				<stop  offset="1" style="stop-color:#FF928E"/>
			</linearGradient>
			<path class="st43" d="M76.2,82.7c0,0.3-4.4,6.5-4.4,6.5s0.8,1.5,4.5,2.8l3.2-6.7L76.2,82.7z"/>
			<g>
				<linearGradient id="SVGID_39_" gradientUnits="userSpaceOnUse" x1="80.3865" y1="87.1776" x2="75.0805" y2="79.3811">
					<stop  offset="0" style="stop-color:#FEBBBA"/>
					<stop  offset="1" style="stop-color:#FF928E"/>
				</linearGradient>
				<path class="st44" d="M79.6,79.2c0,0,1.6,3.6,1.7,5.5c0.1,1.9,0.5,3.1-1.7,3.5c-2.2,0.4-4-0.7-5-2.6c0,0-1.6-2.9-1.2-4.1
					C73.8,80.3,79.6,79.2,79.6,79.2z"/>
				<linearGradient id="SVGID_40_" gradientUnits="userSpaceOnUse" x1="70.5542" y1="73.5946" x2="78.0554" y2="82.3802">
					<stop  offset="0" style="stop-color:#09005D"/>
					<stop  offset="1" style="stop-color:#1A0F91"/>
				</linearGradient>
				<path class="st45" d="M75.4,84.2l0.1-0.1c0.2-0.1,0.2-0.3,0.1-0.4c-0.3-0.6-0.9-1.9-0.1-2.3c1-0.4,4.9-1.2,5.8-2.6
					c0.8-1.3,0.1-3.1-1-3.6c-0.1,0-0.2,0-0.2,0.1L80,75.5c-0.1,0.1-0.2,0.1-0.3,0l0,0c0-0.1-0.2-0.1-0.3,0c-0.3,0.4-1,1.1-2.8,1.4
					c-2.7,0.5-4.4,1.6-4.5,3.4c0,0.1-0.1,0.2-0.2,0.1c-0.2-0.1-0.5-0.2-0.9,0.2c-0.7,0.6-0.4,2.2,1.2,3.5c0.1,0.1,0.1,0.2,0,0.2
					c-0.3,0.2-0.7,0.6,0.4,1.2c1.2,0.6,2,0.6,2.4,0.5c0.1,0,0.1-0.1,0.1-0.2l-0.4-1.6c0-0.1,0-0.2,0.1-0.2H75.4z"/>
				<linearGradient id="SVGID_41_" gradientUnits="userSpaceOnUse" x1="77.8121" y1="88.9297" x2="72.5089" y2="81.1373">
					<stop  offset="0" style="stop-color:#FEBBBA"/>
					<stop  offset="1" style="stop-color:#FF928E"/>
				</linearGradient>
				<path class="st46" d="M75.4,84.5c0,0-0.6-2.3-1.6-1.6c-1,0.6,0.5,2.6,1.4,2.6L75.4,84.5z"/>
			</g>
			<g>
				<linearGradient id="SVGID_42_" gradientUnits="userSpaceOnUse" x1="71.1047" y1="111.0088" x2="82.5768" y2="95.3158">
					<stop  offset="0" style="stop-color:#FF928E"/>
					<stop  offset="1" style="stop-color:#FE7062"/>
				</linearGradient>
				<path class="st47" d="M79.3,93.5l0.3,8.1c0.9,0.3,1.7,0.5,2.4,0.7c0.5-1.6,1.6-3.5,2.4-4.9C81.3,96.2,79.3,93.5,79.3,93.5z"/>
				<linearGradient id="SVGID_43_" gradientUnits="userSpaceOnUse" x1="101.2377" y1="92.6375" x2="82.1525" y2="102.1314">
					<stop  offset="0" style="stop-color:#FEBBBA"/>
					<stop  offset="1" style="stop-color:#FF928E"/>
				</linearGradient>
				<path class="st48" d="M95.4,93.3c-4.4,4.8-8,5-10.9,4c-0.9,1.4-1.9,3.3-2.4,4.9c11.8,2.6,14.6-8.2,14.6-8.2L95.4,93.3z"/>
				<linearGradient id="SVGID_44_" gradientUnits="userSpaceOnUse" x1="100.9583" y1="90.2564" x2="94.4301" y2="97.0747">
					<stop  offset="0" style="stop-color:#FEBBBA"/>
					<stop  offset="1" style="stop-color:#FF928E"/>
				</linearGradient>
				<path class="st49" d="M96.3,92.8c0,0,0.5-0.5,1.4-0.4c0.9,0.2,1.8,0.5,2.4,0c0.6-0.5,0.8,0.2,0.8,0.2l-1.8,1.3L96.3,92.8z"/>
				<linearGradient id="SVGID_45_" gradientUnits="userSpaceOnUse" x1="101.3284" y1="92.525" x2="82.2432" y2="102.0188">
					<stop  offset="0" style="stop-color:#FEBBBA"/>
					<stop  offset="1" style="stop-color:#FF928E"/>
				</linearGradient>
				<path class="st50" d="M95.3,93.7c0,0,0.3-1.5,1.4-1.3c1,0.2,3.4,1.5,4,1.3s1.4-0.8,1.8-0.6l-0.7,0.9c0,0,1.8-1.1,2.1-0.4l-3,1.7
					C100.9,95.3,96.5,94.9,95.3,93.7z"/>
			</g>
			<linearGradient id="SVGID_46_" gradientUnits="userSpaceOnUse" x1="109.3038" y1="108.6334" x2="53.917" y2="98.618">
				<stop  offset="0" style="stop-color:#FEBBBA"/>
				<stop  offset="1" style="stop-color:#FF928E"/>
			</linearGradient>
			<path class="st51" d="M74.4,104.1c0,0,8.3,6.9,17.3,3.9c0.6-0.2,1.2-0.1,1.7,0.1l2.6,1.4c1.1,0.6,2.4,0.2,3-0.9
				c0.4-0.6,0.7-1.3,0.7-1.9l-5-2l0.4-0.6c0,0-2.5-0.2-3.1,1.6c0,0-4.7,1.9-12.6-6.7C79.4,98.8,75.8,101.9,74.4,104.1z"/>
			<linearGradient id="SVGID_47_" gradientUnits="userSpaceOnUse" x1="82.1665" y1="84.3424" x2="57.9457" y2="121.4669">
				<stop  offset="0" style="stop-color:#E1473D"/>
				<stop  offset="1" style="stop-color:#E9605A"/>
			</linearGradient>
			<path class="st52" d="M74,104C74,104,73.9,104,74,104c-3.6-2.4-5.2-6.2-5.2-6.2c0-0.1,0-0.2,0.1-0.2c0.1,0,0.2,0,0.2,0.1
				c0,0,1.6,3.8,5.1,6.1c0.1,0,0.1,0.1,0,0.2C74.1,104,74,104,74,104z"/>
			<linearGradient id="SVGID_48_" gradientUnits="userSpaceOnUse" x1="81.8306" y1="84.1232" x2="57.6097" y2="121.2478">
				<stop  offset="0" style="stop-color:#E1473D"/>
				<stop  offset="1" style="stop-color:#E9605A"/>
			</linearGradient>
			<path class="st53" d="M79.2,98.7c0,0-0.1,0-0.1-0.1c0,0-1.1-1.7-3.1-5.3c-0.6-1.1-1.4-1.8-2.4-2.1c-1.6-0.5-3.2,0.4-3.3,0.4
				c-0.1,0-0.2,0-0.2-0.1c0-0.1,0-0.2,0.1-0.2c0.1,0,1.7-1,3.5-0.5c1.1,0.3,2,1.1,2.6,2.2c2,3.6,3.1,5.3,3.1,5.3
				C79.4,98.5,79.3,98.6,79.2,98.7C79.3,98.7,79.2,98.7,79.2,98.7z"/>
		</g>
	</g>
</g>
</svg>
