<svg xmlns="http://www.w3.org/2000/svg" width="399" height="399" viewBox="0 0 399 399"><g transform="translate(-51 -87)"><circle cx="199.5" cy="199.5" r="199.5" transform="translate(51 87)" fill="#fff"/><path d="M2.94,264.409H81.764L94.357,161.331h34.981c49.44,0,86.753-12.593,108.208-35.914C258.535,102.563,261.8,74.578,261.8,52.19c0-20.522-2.8-48.507-26.119-71.361S180.644-46.69,145.2-46.69H41.186ZM134,18.608c11.194,0,27.985-.466,38.246,10.261,4.664,4.664,8.862,13.06,8.862,26.586,0,7-.933,18.657-9.795,27.519-12.127,12.127-32.649,13.06-43.843,13.06h-24.72l9.328-77.425Z" transform="translate(132.935 169.724)" fill="#010483"/></g></svg>