<?xml version="1.0" encoding="utf-8"?>
<!-- Generator: Adobe Illustrator 24.1.0, SVG Export Plug-In . SVG Version: 6.00 Build 0)  -->
<svg version="1.1" id="Layer_1" xmlns="http://www.w3.org/2000/svg" xmlns:xlink="http://www.w3.org/1999/xlink" x="0px" y="0px"
	 viewBox="0 0 216 216" style="enable-background:new 0 0 216 216;" xml:space="preserve">
<style type="text/css">
	.st0{fill:url(#SVGID_1_);}
	.st1{fill:#91B3FA;}
	.st2{fill:#DCE5FE;}
	.st3{fill:#BDD0FB;}
	.st4{fill:url(#SVGID_2_);}
	.st5{fill:url(#SVGID_3_);}
	.st6{opacity:0.2;fill:url(#SVGID_4_);enable-background:new    ;}
	.st7{fill:url(#SVGID_5_);}
	.st8{fill:url(#SVGID_6_);}
	.st9{fill:url(#SVGID_7_);}
	.st10{opacity:0.64;}
	.st11{fill:#FFFFFF;}
	.st12{fill:url(#SVGID_8_);}
	.st13{fill:url(#SVGID_9_);}
	.st14{opacity:0.56;fill:#FFFFFF;enable-background:new    ;}
	.st15{fill:url(#SVGID_10_);}
	.st16{fill:url(#SVGID_11_);}
	.st17{fill:url(#SVGID_12_);}
	.st18{fill:url(#SVGID_13_);}
	.st19{fill:url(#SVGID_14_);}
	.st20{fill:url(#SVGID_15_);}
	.st21{fill:url(#SVGID_16_);}
	.st22{fill:url(#SVGID_17_);}
	.st23{fill:url(#SVGID_18_);}
	.st24{fill:url(#SVGID_19_);}
	.st25{fill:#7D97F4;}
	.st26{fill:url(#SVGID_20_);}
	.st27{fill:url(#SVGID_21_);}
	.st28{fill:url(#SVGID_22_);}
	.st29{fill:url(#SVGID_23_);}
	.st30{fill:url(#SVGID_24_);}
	.st31{fill:url(#SVGID_25_);}
	.st32{fill:url(#SVGID_26_);}
	.st33{fill:url(#SVGID_27_);}
	.st34{fill:url(#SVGID_28_);}
</style>
<linearGradient id="SVGID_1_" gradientUnits="userSpaceOnUse" x1="0" y1="110" x2="216" y2="110" gradientTransform="matrix(1 0 0 -1 0 218)">
	<stop  offset="0" style="stop-color:#DAE3FE"/>
	<stop  offset="1" style="stop-color:#E9EFFD"/>
</linearGradient>
<rect class="st0" width="216" height="216"/>
<g id="Background">
</g>
<g id="Illustration">
	<g>
		<g>
			<path class="st1" d="M164.4,129.3c0,0,4.6-23.3,12-32.2c6.6-8,16.5-18.7,18.6-20.9c0.1-0.1,0.4-0.1,0.4,0.2
				c0,3.4-0.6,21.4-15.9,36.1C162.5,128.7,164.4,129.3,164.4,129.3z"/>
			<path class="st2" d="M192.5,83.1c-0.8,1.5-1.6,2.9-2.5,4.4c-0.9,1.4-1.7,2.9-2.6,4.3c-1.8,2.8-3.7,5.6-5.7,8.3
				c-1,1.3-2,2.7-3.1,4s-2.2,2.6-3.3,3.8c-1.1,1.2-2.3,2.4-3.5,3.6s-2.5,2.3-3.8,3.3c-0.1,0.1-0.2,0-0.3,0c-0.1-0.1,0-0.2,0-0.3l0,0
				l0,0c1.3-1,2.6-2.1,3.8-3.3c1.2-1.2,2.4-2.4,3.5-3.6s2.2-2.5,3.3-3.8s2.1-2.6,3.1-3.9c2-2.7,3.9-5.4,5.7-8.3
				c0.9-1.4,1.8-2.8,2.6-4.3s1.7-2.9,2.5-4.4l0,0c0,0,0.1-0.1,0.1,0C192.5,83,192.5,83.1,192.5,83.1z"/>
		</g>
		<g>
			<path class="st3" d="M211,97.4c-1.4,6.4-11.1,43.1-44.3,39.3c0,0,0.6-26,43.7-39.9C210.7,96.6,211.1,97,211,97.4z"/>
			<path class="st2" d="M206.5,101.7c-1.1,1.8-2.2,3.5-3.4,5.2s-2.4,3.4-3.7,5s-2.5,3.3-3.9,4.8c-1.3,1.6-2.7,3.1-4.1,4.6
				c-1.4,1.5-2.9,3-4.4,4.4s-3,2.8-4.7,4.1c-3.2,2.6-6.7,4.9-10.5,6.6c-0.2,0.1-0.5,0-0.6-0.2s0-0.5,0.2-0.6l0,0l0,0
				c3.7-1.6,7.2-3.8,10.4-6.4c1.6-1.3,3.2-2.6,4.7-4s3-2.8,4.4-4.3s2.8-3,4.1-4.6s2.6-3.2,3.9-4.8c1.3-1.6,2.5-3.3,3.7-4.9
				s2.4-3.4,3.5-5.1l0,0c0.1-0.1,0.2-0.1,0.3-0.1C206.5,101.5,206.5,101.6,206.5,101.7z"/>
		</g>
		<g>
			<path class="st1" d="M39.7,34.7c-4.7,7.4-30,51.3,7,82.5c0,0,24.1-24.6-5.7-82.4C40.7,34.3,40,34.2,39.7,34.7z"/>
			<path class="st2" d="M40.6,43.5c-0.4,2.7-0.8,5.5-1.2,8.3s-0.7,5.5-1,8.3c-0.6,5.5-1,11.1-1.3,16.6s-0.4,11.1-0.2,16.7
				c0.1,2.8,0.3,5.5,0.6,8.3s0.7,5.5,1.3,8.2l0,0c0,0.2-0.1,0.4-0.3,0.4s-0.4-0.1-0.4-0.3l0,0c-0.6-2.7-1-5.5-1.3-8.3
				s-0.4-5.6-0.5-8.3c-0.1-5.6,0-11.1,0.3-16.7C37,71,37.5,65.5,38.1,60c0.3-2.8,0.6-5.5,1-8.3s0.8-5.5,1.2-8.3
				c0-0.1,0.1-0.1,0.2-0.1C40.6,43.3,40.6,43.4,40.6,43.5L40.6,43.5z"/>
		</g>
		<g>
			<path class="st3" d="M14.4,68.3c-2.3,9.2-13.4,63.6,35.8,83.1c0,0,16.5-33.9-34.4-83.5C15.3,67.5,14.6,67.7,14.4,68.3z"/>
			<path class="st2" d="M18.4,77.1c0.4,3.2,0.9,6.3,1.4,9.5c0.6,3.2,1.2,6.3,1.9,9.4c1.4,6.2,3.1,12.4,5.3,18.4
				c2.1,6,4.6,11.9,7.8,17.5c0.8,1.4,1.6,2.8,2.5,4.1s1.8,2.6,2.7,3.9c1.9,2.5,4,4.9,6.4,7.1l0,0c0.1,0.1,0.1,0.3,0,0.4
				s-0.3,0.1-0.4,0l0,0c-2.4-2.2-4.5-4.6-6.4-7.2c-1-1.3-1.9-2.6-2.7-4c-0.9-1.4-1.7-2.7-2.5-4.1c-3.1-5.6-5.6-11.6-7.7-17.6
				c-2.1-6.1-3.8-12.3-5.2-18.5c-0.7-3.1-1.3-6.3-1.9-9.4c-0.5-3.2-1-6.3-1.4-9.5c0-0.1,0-0.1,0.1-0.1C18.3,76.9,18.4,77,18.4,77.1
				L18.4,77.1z"/>
		</g>
		<g>
			
				<linearGradient id="SVGID_2_" gradientUnits="userSpaceOnUse" x1="104.371" y1="128.1722" x2="109.3883" y2="281.476" gradientTransform="matrix(1 0 0 1 0 -108)">
				<stop  offset="0" style="stop-color:#09005D"/>
				<stop  offset="1" style="stop-color:#1A0F91"/>
			</linearGradient>
			<path class="st4" d="M173.3,144.5c0,1.4-1.1,2.6-2.4,2.6H41.5c-1.3,0-2.4-1.2-2.4-2.6l-1.1-81c0-1.4,1.6-4.2,4.4-4L168.9,56
				c1.7,0,3.2,0.6,4.4,1.9s1.8,3,1.8,4.8L173.3,144.5z"/>
			
				<linearGradient id="SVGID_3_" gradientUnits="userSpaceOnUse" x1="164.5671" y1="145.8219" x2="-10.0747" y2="345.2926" gradientTransform="matrix(1 0 0 1 0 -108)">
				<stop  offset="0" style="stop-color:#4042E2"/>
				<stop  offset="1" style="stop-color:#4F52FF"/>
			</linearGradient>
			<path class="st5" d="M170.9,142c0,1.4-1,2.5-2.3,2.5h-124c-1.2,0-2.3-1.1-2.3-2.5l-1-73.5c0.1-4.4,3.7-6,5.8-5.9
				c0,0,98.8-2.9,121.2-3.5c1.2,0,2.3,0.5,3.1,1.3c0.8,0.9,1.3,2.1,1.2,3.4L170.9,142z"/>
			<g>
				<path class="st3" d="M43.7,106.9c-0.1,0-0.2-0.1-0.2-0.2l-0.1-6c0-0.1,0.1-0.2,0.2-0.2c0.1,0,0.2,0.1,0.2,0.2l0.1,6
					C43.9,106.8,43.8,106.9,43.7,106.9L43.7,106.9z"/>
				<path class="st3" d="M43.5,92.3c-0.1,0-0.2-0.1-0.2-0.2L43,69.3c0-1.6,0.5-2.8,1.4-3.7c1.5-1.5,3.8-1.4,3.9-1.4L87,63.1
					c0.1,0,0.2,0.1,0.2,0.2s-0.1,0.2-0.2,0.2l-38.7,1.1c-0.1,0-2.2-0.1-3.7,1.3c-0.9,0.8-1.3,2-1.3,3.5l0.3,22.8
					C43.7,92.2,43.6,92.3,43.5,92.3L43.5,92.3z"/>
			</g>
			
				<linearGradient id="SVGID_4_" gradientUnits="userSpaceOnUse" x1="47.5902" y1="210.6988" x2="168.2153" y2="210.6988" gradientTransform="matrix(1 0 0 1 0 -108)">
				<stop  offset="0" style="stop-color:#DAE3FE"/>
				<stop  offset="1" style="stop-color:#E9EFFD"/>
			</linearGradient>
			<path class="st6" d="M47.8,137.9c0.1-6.1,0.1-59.9-0.2-64.5s6.3-5.5,16.5-6s96.3-2.6,98.5-2.8c5-0.4,6,7.7,5.5,25.3
				c-0.4,13.2-1,35-1.3,45c-0.1,3-2.3,5.4-5.1,5.4c-20.7,0.1-100.1,0.3-105.4,0.5C50.3,140.9,47.8,140.4,47.8,137.9z"/>
			
				<linearGradient id="SVGID_5_" gradientUnits="userSpaceOnUse" x1="100.8176" y1="160.7539" x2="106.3923" y2="242.7018" gradientTransform="matrix(1 0 0 1 0 -108)">
				<stop  offset="0" style="stop-color:#09005D"/>
				<stop  offset="1" style="stop-color:#1A0F91"/>
			</linearGradient>
			<path class="st7" d="M183.1,153.8H31.9c-0.4,0-0.7-0.3-0.7-0.7v-5.7c0-0.4,0.3-0.7,0.7-0.7H183c0.4,0,0.7,0.3,0.7,0.7v5.7
				C183.8,153.5,183.5,153.8,183.1,153.8z"/>
		</g>
		<g>
			
				<linearGradient id="SVGID_6_" gradientUnits="userSpaceOnUse" x1="114.6936" y1="196.6045" x2="96.7052" y2="237.5628" gradientTransform="matrix(1 0 0 1 0 -108)">
				<stop  offset="0" style="stop-color:#DAE3FE"/>
				<stop  offset="1" style="stop-color:#E9EFFD"/>
			</linearGradient>
			<path class="st8" d="M101.3,127.1v-26.7h4.7v26.7L101.3,127.1L101.3,127.1z"/>
			
				<linearGradient id="SVGID_7_" gradientUnits="userSpaceOnUse" x1="124.3942" y1="200.7017" x2="106.4057" y2="241.6599" gradientTransform="matrix(1 0 0 1 0 -108)">
				<stop  offset="0" style="stop-color:#DAE3FE"/>
				<stop  offset="1" style="stop-color:#E9EFFD"/>
			</linearGradient>
			<path class="st9" d="M120.2,127.1h-5v-22.3h-5.1v-4.4h15.2v4.4h-5.1V127.1L120.2,127.1z"/>
		</g>
		<g>
			<g class="st10">
				<path class="st11" d="M52.8,113.9c-0.2,0-0.3-0.1-0.4-0.3c-0.1-0.2-0.1-0.4-0.2-0.6c-0.1-0.2,0.1-0.4,0.3-0.5s0.4,0.1,0.5,0.3
					c0.1,0.2,0.1,0.4,0.2,0.6C53.3,113.6,53.1,113.8,52.8,113.9C52.9,113.9,52.9,113.9,52.8,113.9z"/>
				<path class="st11" d="M52.2,111.1c-0.2,0-0.4-0.1-0.4-0.3c-0.1-0.4-0.1-0.9-0.2-1.3c0-0.2,0.1-0.4,0.4-0.4
					c0.2,0,0.4,0.1,0.4,0.4c0,0.4,0.1,0.9,0.2,1.3C52.6,110.8,52.5,111.1,52.2,111.1L52.2,111.1z M51.9,107.6
					c-0.2,0-0.4-0.2-0.4-0.4V107c0-0.4,0-0.8,0-1.2c0-0.2,0.2-0.4,0.4-0.4s0.4,0.2,0.4,0.4c0,0.4,0,0.8,0,1.2v0.1
					C52.3,107.4,52.1,107.6,51.9,107.6L51.9,107.6z M52.2,104.1C52.1,104.1,52.1,104.1,52.2,104.1c-0.3,0-0.4-0.2-0.4-0.5
					c0.1-0.4,0.1-0.9,0.2-1.3c0-0.2,0.3-0.4,0.5-0.3c0.2,0,0.4,0.3,0.3,0.5c-0.1,0.4-0.2,0.9-0.2,1.3
					C52.5,104,52.4,104.1,52.2,104.1z M52.9,100.7L52.9,100.7c-0.3-0.1-0.4-0.3-0.4-0.5c0.1-0.4,0.3-0.9,0.4-1.3
					c0.1-0.2,0.3-0.3,0.5-0.2c0.2,0.1,0.3,0.3,0.2,0.5c-0.1,0.4-0.3,0.8-0.4,1.2C53.3,100.6,53.1,100.7,52.9,100.7z M54.2,97.4
					c-0.1,0-0.1,0-0.2,0c-0.2-0.1-0.3-0.3-0.2-0.5c0.2-0.4,0.4-0.8,0.6-1.2c0.1-0.2,0.4-0.3,0.6-0.2c0.2,0.1,0.3,0.4,0.2,0.6
					c-0.2,0.4-0.4,0.8-0.6,1.2C54.5,97.3,54.4,97.4,54.2,97.4z M56,94.4c-0.1,0-0.2,0-0.2-0.1c-0.2-0.1-0.2-0.4-0.1-0.6
					c0.3-0.4,0.5-0.7,0.8-1.1c0.1-0.2,0.4-0.2,0.6-0.1c0.2,0.1,0.2,0.4,0.1,0.6c-0.3,0.3-0.5,0.7-0.8,1.1
					C56.3,94.3,56.1,94.4,56,94.4z M58.2,91.7c-0.1,0-0.2,0-0.3-0.1c-0.2-0.2-0.2-0.4,0-0.6c0.3-0.3,0.6-0.7,1-1
					c0.2-0.2,0.4-0.1,0.6,0c0.2,0.2,0.1,0.4,0,0.6c-0.3,0.3-0.6,0.6-0.9,0.9C58.4,91.6,58.3,91.7,58.2,91.7z M60.8,89.3
					c-0.1,0-0.2-0.1-0.3-0.2c-0.1-0.2-0.1-0.4,0.1-0.6c0.4-0.3,0.7-0.5,1.1-0.8c0.2-0.1,0.4-0.1,0.6,0.1c0.1,0.2,0.1,0.4-0.1,0.6
					c-0.4,0.2-0.7,0.5-1.1,0.8C61,89.3,60.9,89.3,60.8,89.3z M63.8,87.4c-0.1,0-0.3-0.1-0.4-0.2c-0.1-0.2,0-0.4,0.2-0.6
					c0.4-0.2,0.8-0.4,1.2-0.6c0.2-0.1,0.4,0,0.5,0.2s0,0.4-0.2,0.5C64.7,86.9,64.3,87.1,63.8,87.4C63.9,87.4,63.8,87.4,63.8,87.4z
					 M85.3,87.2c-0.1,0-0.1,0-0.2,0c-0.4-0.2-0.8-0.4-1.2-0.6c-0.2-0.1-0.3-0.3-0.2-0.5c0.1-0.2,0.3-0.3,0.5-0.2
					c0.4,0.2,0.8,0.4,1.2,0.6c0.2,0.1,0.3,0.4,0.2,0.6C85.6,87.1,85.4,87.2,85.3,87.2z M67,86c-0.2,0-0.3-0.1-0.4-0.3
					c-0.1-0.2,0-0.4,0.2-0.5c0.4-0.2,0.9-0.3,1.3-0.4c0.2-0.1,0.4,0.1,0.5,0.3c0.1,0.2-0.1,0.4-0.3,0.5C67.9,85.7,67.5,85.9,67,86
					L67,86z M82.1,85.8L82.1,85.8c-0.5-0.1-0.9-0.3-1.4-0.4c-0.2-0.1-0.3-0.3-0.3-0.5c0.1-0.2,0.3-0.3,0.5-0.3
					c0.4,0.1,0.9,0.3,1.3,0.4c0.2,0.1,0.3,0.3,0.3,0.5C82.4,85.7,82.2,85.8,82.1,85.8z M70.3,85c-0.2,0-0.4-0.1-0.4-0.3
					c0-0.2,0.1-0.4,0.3-0.5c0.4-0.1,0.9-0.2,1.3-0.2c0.2,0,0.4,0.1,0.5,0.4c0,0.2-0.1,0.4-0.4,0.5C71.3,84.9,70.9,84.9,70.3,85
					C70.4,85,70.4,85,70.3,85z M78.7,85C78.6,85,78.6,85,78.7,85c-0.5-0.1-0.9-0.1-1.4-0.2c-0.2,0-0.4-0.2-0.4-0.5
					c0-0.2,0.2-0.4,0.5-0.4c0.4,0.1,0.9,0.1,1.3,0.2c0.2,0,0.4,0.3,0.3,0.5C79,84.8,78.9,85,78.7,85z M73.8,84.6
					c-0.2,0-0.4-0.2-0.4-0.4c0-0.2,0.2-0.4,0.4-0.4c0.4,0,0.9,0,1.4,0c0.2,0,0.4,0.2,0.4,0.4c0,0.2-0.2,0.4-0.4,0.4
					C74.7,84.6,74.3,84.6,73.8,84.6L73.8,84.6z"/>
				<path class="st11" d="M87.7,88.7c-0.1,0-0.2,0-0.2-0.1c-0.2-0.1-0.4-0.2-0.5-0.4c-0.2-0.1-0.2-0.4-0.1-0.6s0.4-0.2,0.6-0.1
					s0.4,0.2,0.6,0.4s0.2,0.4,0.1,0.6C88,88.6,87.8,88.7,87.7,88.7z"/>
			</g>
			<g class="st10">
				<path class="st11" d="M97.2,103.5c-0.2,0-0.4-0.1-0.4-0.3c0-0.2-0.1-0.4-0.1-0.6s0.1-0.4,0.3-0.5c0.2,0,0.4,0.1,0.5,0.3
					c0,0.2,0.1,0.4,0.1,0.7C97.6,103.3,97.5,103.5,97.2,103.5L97.2,103.5z"/>
				<path class="st11" d="M74.3,130.2L74.3,130.2c-0.4,0-0.8,0-1.2-0.1H73c-0.2,0-0.4-0.2-0.4-0.4s0.2-0.4,0.4-0.4h0.1
					c0.4,0,0.8,0,1.2,0c0.2,0,0.4,0.2,0.4,0.4C74.7,130.1,74.5,130.2,74.3,130.2z M76.5,130.2c-0.2,0-0.4-0.2-0.4-0.4
					s0.1-0.4,0.4-0.4c0.4,0,0.9-0.1,1.3-0.1c0.2,0,0.4,0.1,0.5,0.4c0,0.2-0.1,0.4-0.4,0.5C77.4,130.1,76.9,130.2,76.5,130.2
					L76.5,130.2z M70.9,129.9C70.9,129.9,70.8,129.9,70.9,129.9c-0.5-0.1-0.9-0.2-1.4-0.3c-0.2,0-0.4-0.3-0.3-0.5
					c0-0.2,0.3-0.4,0.5-0.3c0.4,0.1,0.8,0.2,1.3,0.3c0.2,0,0.4,0.3,0.3,0.5C71.2,129.8,71.1,129.9,70.9,129.9z M79.9,129.7
					c-0.2,0-0.4-0.1-0.4-0.3s0.1-0.4,0.3-0.5c0.4-0.1,0.8-0.2,1.3-0.3c0.2-0.1,0.4,0.1,0.5,0.3s-0.1,0.4-0.3,0.5
					C80.9,129.5,80.4,129.6,79.9,129.7C79.9,129.7,79.9,129.7,79.9,129.7z M67.5,129.1L67.5,129.1c-0.5-0.1-0.9-0.3-1.4-0.5
					c-0.2-0.1-0.3-0.3-0.2-0.5c0.1-0.2,0.3-0.3,0.5-0.2c0.4,0.2,0.8,0.3,1.2,0.4c0.2,0.1,0.3,0.3,0.3,0.5S67.7,129.1,67.5,129.1z
					 M83.2,128.6c-0.2,0-0.3-0.1-0.4-0.3s0-0.4,0.2-0.5c0.4-0.2,0.8-0.3,1.2-0.5c0.2-0.1,0.4,0,0.5,0.2s0,0.4-0.2,0.5
					c-0.4,0.2-0.8,0.4-1.2,0.5C83.3,128.6,83.2,128.6,83.2,128.6z M64.3,127.8c-0.1,0-0.1,0-0.2,0c-0.4-0.2-0.8-0.4-1.2-0.6
					c-0.2-0.1-0.3-0.4-0.1-0.6c0.1-0.2,0.4-0.3,0.6-0.1c0.4,0.2,0.8,0.4,1.1,0.6c0.2,0.1,0.3,0.4,0.2,0.5
					C64.6,127.7,64.5,127.8,64.3,127.8z M86.3,127.1c-0.1,0-0.3-0.1-0.4-0.2c-0.1-0.2,0-0.4,0.1-0.6c0.4-0.2,0.7-0.4,1.1-0.7
					c0.2-0.1,0.4-0.1,0.6,0.1c0.1,0.2,0.1,0.4-0.1,0.6c-0.4,0.3-0.8,0.5-1.1,0.7C86.4,127.1,86.3,127.1,86.3,127.1z M89.1,125.1
					c-0.1,0-0.2-0.1-0.3-0.1c-0.1-0.2-0.1-0.4,0.1-0.6c0.3-0.3,0.7-0.6,1-0.8c0.2-0.1,0.4-0.1,0.6,0c0.1,0.2,0.1,0.4,0,0.6
					c-0.3,0.3-0.7,0.6-1,0.9C89.3,125.1,89.2,125.1,89.1,125.1z M91.6,122.8c-0.1,0-0.2,0-0.3-0.1c-0.2-0.1-0.2-0.4,0-0.6
					c0.3-0.3,0.6-0.7,0.8-1c0.1-0.2,0.4-0.2,0.6-0.1s0.2,0.4,0.1,0.6c-0.3,0.3-0.6,0.7-0.9,1C91.8,122.7,91.7,122.8,91.6,122.8z
					 M93.7,120c-0.1,0-0.2,0-0.2-0.1c-0.2-0.1-0.2-0.4-0.1-0.6c0.2-0.4,0.5-0.7,0.7-1.1c0.1-0.2,0.4-0.3,0.6-0.1
					c0.2,0.1,0.3,0.4,0.1,0.6c-0.2,0.4-0.5,0.8-0.7,1.1C94,120,93.9,120,93.7,120z M95.4,117c-0.1,0-0.1,0-0.2,0
					c-0.2-0.1-0.3-0.3-0.2-0.5c0.2-0.4,0.4-0.8,0.5-1.2c0.1-0.2,0.3-0.3,0.5-0.2c0.2,0.1,0.3,0.3,0.2,0.5c-0.2,0.4-0.3,0.8-0.5,1.2
					C95.7,116.9,95.6,117,95.4,117z M96.6,113.8L96.6,113.8c-0.3-0.1-0.4-0.3-0.4-0.5c0.1-0.4,0.2-0.8,0.3-1.3
					c0-0.2,0.3-0.4,0.5-0.3c0.2,0,0.4,0.3,0.3,0.5c-0.1,0.4-0.2,0.9-0.3,1.3C97,113.7,96.8,113.8,96.6,113.8z M97.3,110.4
					L97.3,110.4c-0.3,0-0.4-0.2-0.4-0.5c0.1-0.4,0.1-0.9,0.1-1.3c0-0.2,0.2-0.4,0.4-0.4c0.2,0,0.4,0.2,0.4,0.4
					c0,0.4-0.1,0.9-0.1,1.3C97.7,110.3,97.5,110.4,97.3,110.4z M97.5,107c-0.2,0-0.4-0.2-0.4-0.4c0-0.4,0-0.9-0.1-1.3
					c0-0.2,0.1-0.4,0.4-0.4c0.2,0,0.4,0.1,0.4,0.4c0,0.4,0.1,0.9,0.1,1.3C97.9,106.8,97.8,107,97.5,107L97.5,107z"/>
				<path class="st11" d="M61.4,125.9c-0.1,0-0.2,0-0.2-0.1c-0.2-0.1-0.4-0.3-0.5-0.4c-0.2-0.1-0.2-0.4-0.1-0.6
					c0.1-0.2,0.4-0.2,0.6-0.1c0.2,0.1,0.3,0.3,0.5,0.4s0.2,0.4,0.1,0.6C61.6,125.9,61.5,125.9,61.4,125.9z"/>
			</g>
			<g>
				
					<linearGradient id="SVGID_8_" gradientUnits="userSpaceOnUse" x1="93.0029" y1="127.8611" x2="68.4743" y2="244.3719" gradientTransform="matrix(1 0 0 1 0 -108)">
					<stop  offset="0" style="stop-color:#FE7062"/>
					<stop  offset="1" style="stop-color:#FF928E"/>
				</linearGradient>
				<path class="st12" d="M62.4,119.5c0.1,0.1,0.2,0.1,0.3,0.1l3.1-1.2c1.2,0.9,2.6,1.7,4.1,2.2l0.8,3.2c0,0.1,0.1,0.2,0.2,0.2
					l4,0.4c0.1,0,0.2-0.1,0.3-0.2l1.4-3c1.6-0.2,3.1-0.7,4.5-1.4l2.8,1.8c0.1,0.1,0.2,0.1,0.3,0l3.1-2.5c0.1-0.1,0.1-0.2,0.1-0.3
					l-1.2-3.1c0.9-1.2,1.7-2.6,2.2-4.1l3.2-0.8c0.1,0,0.2-0.1,0.2-0.2l0.4-4c0-0.1-0.1-0.2-0.2-0.3l-3-1.4c-0.2-1.6-0.7-3.1-1.4-4.5
					l1.8-2.8c0.1-0.1,0.1-0.2,0-0.3l-2.5-3.1c-0.1-0.1-0.2-0.1-0.3-0.1l-3.1,1.2c-1.2-0.9-2.6-1.7-4.1-2.2l-0.8-3.2
					c0-0.1-0.1-0.2-0.2-0.2l-4-0.4c-0.1,0-0.2,0.1-0.3,0.2l-1.4,3c-1.6,0.2-3.1,0.7-4.5,1.4L65.5,92c-0.1-0.1-0.2-0.1-0.3,0
					l-3.1,2.5C62,94.6,62,94.7,62,94.8l1.2,3.1c-0.9,1.2-1.7,2.6-2.2,4.1l-3.2,0.8c-0.1,0-0.2,0.1-0.2,0.2l-0.4,4
					c0,0.1,0.1,0.2,0.2,0.3l3,1.4c0.2,1.6,0.7,3.1,1.4,4.5l-1.7,2.8c-0.1,0.1-0.1,0.2,0,0.3L62.4,119.5z"/>
				<path class="st11" d="M74.7,110.7c-0.8,0-1.6-0.3-2.3-0.8c-0.8-0.6-1.4-1.5-1.5-2.5s0.1-2,0.7-2.9c0.6-0.8,1.5-1.4,2.5-1.5
					c2.1-0.3,4.1,1.2,4.4,3.3c0.3,2.1-1.2,4.1-3.3,4.4C75.1,110.7,74.9,110.7,74.7,110.7z M74.7,103.6c-0.2,0-0.3,0-0.5,0
					c-0.9,0.1-1.6,0.6-2.1,1.3c-0.5,0.7-0.7,1.5-0.6,2.4s0.6,1.6,1.3,2.1c0.7,0.5,1.5,0.7,2.4,0.6c1.8-0.3,3-1.9,2.7-3.7
					C77.7,104.8,76.3,103.6,74.7,103.6z"/>
				<path class="st11" d="M74.8,116.6c-0.3,0-0.7,0-1,0c-0.5,0-1-0.1-1.5-0.3l0,0c0,0,0,0-0.1,0l0,0l0,0l0,0l0,0l0,0l0,0l0,0h-0.1
					l0,0c-0.1,0-0.1,0-0.2-0.1h-0.1c-0.1,0-0.1-0.1-0.1-0.2l0,0c0-0.1,0.1-0.1,0.2-0.1c0.6,0.2,1.3,0.3,2,0.4c2.5,0.3,5-0.5,7-2.1
					s3.2-3.9,3.4-6.4c0-0.3,0-0.6,0-1c0-4.8-3.7-8.9-8.5-9.4c-2.5-0.3-5,0.5-7,2.1s-3.2,3.9-3.4,6.4c0,0.3,0,0.6,0,1
					c0,1.4,0.3,2.8,0.9,4c0,0,0,0,0,0.1s0,0.1-0.1,0.1s-0.2,0-0.2-0.1c-0.6-1.3-0.9-2.7-0.9-4.2c0-0.3,0-0.7,0-1
					c0.3-2.6,1.5-5,3.6-6.6c2-1.7,4.6-2.4,7.2-2.2c5,0.5,8.8,4.8,8.8,9.7c0,0.3,0,0.7,0,1C84,112.8,79.8,116.6,74.8,116.6z"/>
			</g>
		</g>
		<g>
			
				<linearGradient id="SVGID_9_" gradientUnits="userSpaceOnUse" x1="115.9768" y1="132.6979" x2="91.4481" y2="249.2086" gradientTransform="matrix(1 0 0 1 0 -108)">
				<stop  offset="0" style="stop-color:#FE7062"/>
				<stop  offset="1" style="stop-color:#FF928E"/>
			</linearGradient>
			<path class="st13" d="M98.3,87.1l1.7-0.8c0.7,0.5,1.5,0.8,2.4,1.1l0.6,1.8c0,0.1,0.1,0.1,0.1,0.1h2.2c0.1,0,0.1,0,0.1-0.1
				l0.7-1.7c0.9-0.2,1.7-0.5,2.5-1l1.7,0.9c0.1,0,0.1,0,0.2,0l1.6-1.6c0,0,0.1-0.1,0-0.2l-0.8-1.7c0.5-0.7,0.8-1.5,1.1-2.4l1.8-0.6
				c0.1,0,0.1-0.1,0.1-0.1v-2.2c0-0.1,0-0.1-0.1-0.1l-1.7-0.7c-0.2-0.9-0.5-1.7-1-2.5l0.9-1.7c0-0.1,0-0.1,0-0.2l-1.6-1.6
				c0,0-0.1-0.1-0.2,0l-1.7,0.8c-0.7-0.5-1.5-0.8-2.4-1.1l-0.6-1.8c0-0.1-0.1-0.1-0.1-0.1h-2.2c-0.1,0-0.1,0-0.1,0.1l-0.7,1.7
				c-0.9,0.2-1.7,0.5-2.5,1l-1.7-0.9c-0.1,0-0.1,0-0.2,0l-1.6,1.6c0,0-0.1,0.1,0,0.2l0.8,1.7c-0.5,0.7-0.8,1.5-1.1,2.4L94.7,78
				c-0.1,0-0.1,0.1-0.1,0.1v2.2c0,0.1,0,0.1,0.1,0.1l1.7,0.7c0.2,0.9,0.5,1.7,1,2.5l-0.9,1.7c0,0.1,0,0.1,0,0.2l1.6,1.6
				C98.2,87.1,98.3,87.1,98.3,87.1z"/>
			<path class="st14" d="M104.5,81.6c-0.4,0-0.8-0.1-1.1-0.3c-0.5-0.3-0.8-0.8-1-1.3c-0.1-0.6,0-1.1,0.3-1.6s0.8-0.8,1.3-1
				c1.2-0.3,2.3,0.5,2.6,1.6c0.3,1.2-0.5,2.3-1.6,2.6C104.8,81.5,104.6,81.6,104.5,81.6z M104.5,77.6c-0.1,0-0.3,0-0.4,0
				c-0.5,0.1-0.9,0.4-1.1,0.8c-0.3,0.4-0.3,0.9-0.2,1.4c0.1,0.5,0.4,0.9,0.8,1.1c0.4,0.3,0.9,0.3,1.4,0.2c1-0.2,1.6-1.2,1.4-2.2
				C106.1,78.2,105.3,77.6,104.5,77.6z"/>
			<g>
				<g class="st10">
					<path class="st11" d="M94.4,86.4c-0.1,0-0.3-0.1-0.3-0.2c-0.1-0.2-0.2-0.4-0.4-0.6c-0.1-0.2,0-0.4,0.1-0.6
						c0.2-0.1,0.4,0,0.6,0.1c0.1,0.2,0.2,0.4,0.3,0.5c0.1,0.2,0.1,0.4-0.1,0.6C94.6,86.4,94.5,86.4,94.4,86.4z"/>
					<path class="st11" d="M93.2,84c-0.2,0-0.3-0.1-0.4-0.3c-0.1-0.4-0.3-0.8-0.4-1.2c-0.1-0.2,0.1-0.4,0.3-0.5
						c0.2-0.1,0.4,0.1,0.5,0.3c0.1,0.4,0.2,0.8,0.4,1.2c0.1,0.2,0,0.4-0.2,0.5C93.3,84,93.3,84,93.2,84z M92.5,80.8
						c-0.2,0-0.4-0.2-0.4-0.4c0-0.3,0-0.7,0-1.1c0-0.1,0-0.2,0-0.2c0-0.2,0.2-0.4,0.4-0.4c0.2,0,0.4,0.2,0.4,0.4c0,0.1,0,0.1,0,0.2
						c0,0.3,0,0.7,0,1C92.9,80.6,92.8,80.8,92.5,80.8L92.5,80.8z M92.7,77.6C92.7,77.6,92.6,77.6,92.7,77.6
						c-0.3-0.1-0.4-0.3-0.4-0.5c0.1-0.4,0.2-0.8,0.3-1.3c0.1-0.2,0.3-0.3,0.5-0.3c0.2,0.1,0.3,0.3,0.3,0.5c-0.1,0.4-0.2,0.8-0.3,1.2
						C93.1,77.4,92.9,77.6,92.7,77.6z M93.7,74.5c-0.1,0-0.1,0-0.2,0c-0.2-0.1-0.3-0.3-0.2-0.5c0.2-0.4,0.4-0.8,0.6-1.1
						c0.1-0.2,0.4-0.3,0.6-0.1c0.2,0.1,0.3,0.4,0.1,0.6c-0.2,0.3-0.4,0.7-0.6,1.1C94,74.4,93.9,74.5,93.7,74.5z M95.6,71.8
						c-0.1,0-0.2,0-0.3-0.1c-0.2-0.1-0.2-0.4,0-0.6c0.3-0.3,0.6-0.6,0.9-0.9c0.2-0.1,0.4-0.1,0.6,0s0.1,0.4,0,0.6
						c-0.3,0.3-0.6,0.6-0.9,0.9C95.8,71.7,95.7,71.8,95.6,71.8z M98.1,69.7c-0.1,0-0.3-0.1-0.3-0.2c-0.1-0.2-0.1-0.4,0.1-0.6
						c0.4-0.2,0.7-0.4,1.1-0.6c0.2-0.1,0.4,0,0.5,0.2s0,0.4-0.2,0.5C98.9,69.2,98.6,69.4,98.1,69.7C98.2,69.6,98.2,69.7,98.1,69.7z
						 M101.1,68.3c-0.2,0-0.3-0.1-0.4-0.3c-0.1-0.2,0.1-0.4,0.3-0.5c0.3-0.1,0.5-0.1,0.8-0.2c0.2,0,0.3-0.1,0.5-0.1s0.4,0.1,0.5,0.3
						c0,0.2-0.1,0.4-0.3,0.5c-0.1,0-0.3,0.1-0.5,0.1c-0.2,0.1-0.5,0.1-0.7,0.2C101.1,68.3,101.1,68.3,101.1,68.3z M105.5,67.9
						L105.5,67.9c-0.4,0-0.8,0-1.2,0c-0.2,0-0.4-0.2-0.4-0.4c0-0.2,0.2-0.4,0.4-0.4c0.4,0,0.9,0,1.3,0c0.2,0,0.4,0.2,0.4,0.4
						C105.9,67.7,105.7,67.9,105.5,67.9z"/>
					<path class="st11" d="M108.2,68.4L108.2,68.4c-0.3-0.1-0.5-0.1-0.7-0.2s-0.4-0.3-0.3-0.5s0.3-0.4,0.5-0.3s0.4,0.1,0.7,0.2
						c0.2,0.1,0.3,0.3,0.3,0.5C108.5,68.3,108.3,68.4,108.2,68.4z"/>
				</g>
				<g class="st10">
					<path class="st11" d="M115.3,74.7c-0.2,0-0.3-0.1-0.4-0.2c-0.1-0.2-0.2-0.4-0.3-0.6c-0.1-0.2,0-0.4,0.2-0.6
						c0.2-0.1,0.4,0,0.6,0.2c0.1,0.2,0.2,0.4,0.3,0.6c0.1,0.2,0,0.4-0.2,0.5C115.4,74.7,115.4,74.7,115.3,74.7z"/>
					<path class="st11" d="M104.5,91.8c-0.5,0-0.9,0-1.4-0.1c-0.2,0-0.4-0.2-0.4-0.5c0-0.2,0.2-0.4,0.5-0.4c0.4,0,0.9,0.1,1.3,0.1
						l0,0c0.2,0,0.4,0.2,0.4,0.4C104.9,91.6,104.7,91.8,104.5,91.8L104.5,91.8L104.5,91.8z M106.7,91.6c-0.2,0-0.4-0.1-0.4-0.3
						c0-0.2,0.1-0.4,0.3-0.5c0.1,0,0.3-0.1,0.4-0.1c0.3-0.1,0.6-0.1,0.9-0.2c0.2-0.1,0.4,0.1,0.5,0.3c0.1,0.2-0.1,0.4-0.3,0.5
						c-0.3,0.1-0.6,0.2-0.9,0.3C107.1,91.5,107,91.6,106.7,91.6C106.8,91.6,106.7,91.6,106.7,91.6z M110.1,90.4
						c-0.1,0-0.3-0.1-0.4-0.2c-0.1-0.2,0-0.4,0.2-0.6c0.4-0.2,0.8-0.4,1.1-0.7c0.2-0.1,0.4-0.1,0.6,0.1s0.1,0.4-0.1,0.6
						c-0.4,0.3-0.8,0.5-1.2,0.8C110.3,90.4,110.2,90.4,110.1,90.4z M113.1,88.2c-0.1,0-0.2,0-0.3-0.1c-0.2-0.2-0.2-0.4,0-0.6
						c0.3-0.3,0.6-0.7,0.9-1c0.1-0.2,0.4-0.2,0.6-0.1s0.2,0.4,0.1,0.6c-0.3,0.4-0.6,0.7-0.9,1.1C113.3,88.2,113.2,88.2,113.1,88.2z
						 M115.2,85.3c-0.1,0-0.1,0-0.2,0c-0.2-0.1-0.3-0.4-0.2-0.5c0.2-0.4,0.4-0.8,0.5-1.2c0.1-0.2,0.3-0.3,0.5-0.2s0.3,0.3,0.2,0.5
						c-0.2,0.4-0.4,0.9-0.6,1.3C115.5,85.2,115.3,85.3,115.2,85.3z M116.3,81.8L116.3,81.8c-0.3,0-0.4-0.3-0.4-0.5
						c0.1-0.4,0.1-0.9,0.1-1.3c0-0.2,0.2-0.4,0.4-0.4c0.2,0,0.4,0.2,0.4,0.4c0,0.5-0.1,1-0.2,1.4C116.7,81.7,116.5,81.8,116.3,81.8z
						 M116.4,78.2c-0.2,0-0.4-0.1-0.4-0.4s-0.1-0.7-0.2-1c0-0.1,0-0.2-0.1-0.3c-0.1-0.2,0.1-0.4,0.3-0.5c0.2-0.1,0.4,0.1,0.5,0.3
						c0,0.1,0.1,0.2,0.1,0.3c0.1,0.4,0.1,0.7,0.2,1.1C116.8,77.9,116.7,78.1,116.4,78.2L116.4,78.2z"/>
					<path class="st11" d="M100.9,91.3L100.9,91.3c-0.3-0.1-0.5-0.1-0.7-0.2s-0.3-0.3-0.2-0.5c0.1-0.2,0.3-0.3,0.5-0.2
						c0.2,0.1,0.4,0.1,0.6,0.2s0.3,0.3,0.3,0.5C101.2,91.2,101.1,91.3,100.9,91.3z"/>
				</g>
			</g>
			<path class="st14" d="M104.5,85L104.5,85L104.5,85c-0.5,0-0.9-0.1-1.3-0.1c-0.1,0-0.1-0.1-0.1-0.2l0,0c0-0.1,0.1-0.1,0.2-0.1
				c0.4,0.1,0.7,0.1,1.1,0.1c1.4,0,2.7-0.5,3.7-1.4c1-1,1.6-2.3,1.6-3.7v-0.1c0-2.8-2.3-5.2-5.1-5.2c-2.9-0.1-5.3,2.2-5.4,5.1v0.1
				c0,0.9,0.2,1.8,0.7,2.6v0.1c0,0.1,0,0.1-0.1,0.1s-0.2,0-0.2-0.1c-0.5-0.8-0.7-1.8-0.7-2.8v-0.1c0.1-3.1,2.6-5.5,5.7-5.4
				c3,0.1,5.4,2.5,5.4,5.6v0.1c0,1.5-0.6,2.9-1.7,3.9C107.3,84.4,105.9,85,104.5,85z"/>
		</g>
		<g>
			<g class="st10">
				<path class="st11" d="M119.9,89.4c-0.2,0-0.3-0.1-0.4-0.3c-0.1-0.2-0.1-0.4-0.2-0.7c-0.1-0.2,0.1-0.4,0.3-0.5
					c0.2-0.1,0.4,0.1,0.5,0.3c0,0.2,0.1,0.4,0.2,0.6S120.2,89.2,119.9,89.4C120,89.4,119.9,89.4,119.9,89.4z"/>
				<path class="st11" d="M119.4,86.7c-0.2,0-0.4-0.2-0.4-0.4c0-0.4-0.1-0.9-0.1-1.3c0-0.2,0.2-0.4,0.4-0.4c0.2,0,0.4,0.2,0.4,0.4
					c0,0.4,0,0.8,0.1,1.3C119.8,86.4,119.6,86.6,119.4,86.7L119.4,86.7z M119.4,83.2C119.4,83.2,119.3,83.2,119.4,83.2
					c-0.3,0-0.4-0.2-0.4-0.5c0.1-0.4,0.1-0.9,0.2-1.3c0-0.2,0.3-0.4,0.5-0.3c0.2,0,0.4,0.3,0.3,0.5c-0.1,0.4-0.1,0.8-0.2,1.2
					C119.8,83.1,119.6,83.2,119.4,83.2z M120.2,79.9L120.2,79.9c-0.3-0.1-0.4-0.3-0.4-0.5c0.1-0.4,0.3-0.8,0.5-1.2
					c0.1-0.2,0.3-0.3,0.5-0.2c0.2,0.1,0.3,0.3,0.2,0.5c-0.2,0.4-0.3,0.8-0.5,1.2C120.5,79.8,120.3,79.9,120.2,79.9z M121.7,76.9
					c-0.1,0-0.1,0-0.2-0.1c-0.2-0.1-0.3-0.4-0.1-0.6c0.2-0.4,0.5-0.7,0.8-1.1c0.1-0.2,0.4-0.2,0.6-0.1s0.2,0.4,0.1,0.6
					c-0.3,0.3-0.5,0.7-0.7,1C121.9,76.8,121.8,76.9,121.7,76.9z M123.8,74.2c-0.1,0-0.2,0-0.3-0.1c-0.2-0.2-0.2-0.4,0-0.6
					c0.3-0.3,0.7-0.6,1-0.9c0.2-0.1,0.4-0.1,0.6,0.1c0.1,0.2,0.1,0.4-0.1,0.6c-0.3,0.3-0.6,0.6-0.9,0.9
					C124,74.2,123.9,74.2,123.8,74.2z M126.5,72.1c-0.1,0-0.3-0.1-0.3-0.2c-0.1-0.2-0.1-0.4,0.1-0.6c0.4-0.2,0.8-0.5,1.2-0.7
					c0.2-0.1,0.4,0,0.5,0.2s0,0.4-0.2,0.5c-0.4,0.2-0.7,0.4-1.1,0.6C126.6,72.1,126.6,72.1,126.5,72.1z M140.8,71.2
					c-0.1,0-0.1,0-0.2,0c-0.4-0.2-0.8-0.3-1.2-0.5c-0.2-0.1-0.3-0.3-0.3-0.5c0.1-0.2,0.3-0.3,0.5-0.3c0.4,0.1,0.8,0.3,1.2,0.5
					c0.2,0.1,0.3,0.3,0.2,0.5C141.1,71.1,141,71.2,140.8,71.2z M129.6,70.6c-0.2,0-0.3-0.1-0.4-0.3c-0.1-0.2,0-0.4,0.3-0.5
					c0.4-0.1,0.9-0.3,1.3-0.4c0.2-0.1,0.4,0.1,0.5,0.3c0.1,0.2-0.1,0.4-0.3,0.5c-0.4,0.1-0.8,0.2-1.2,0.4
					C129.7,70.6,129.6,70.6,129.6,70.6z M137.6,70.1C137.6,70.1,137.5,70.1,137.6,70.1c-0.5-0.1-0.9-0.2-1.3-0.2
					c-0.2,0-0.4-0.2-0.4-0.5s0.2-0.4,0.5-0.4c0.4,0,0.9,0.1,1.3,0.2c0.2,0,0.4,0.3,0.3,0.5C137.9,70,137.8,70.1,137.6,70.1z
					 M132.9,69.9c-0.2,0-0.4-0.2-0.4-0.4c0-0.2,0.1-0.4,0.4-0.5c0.4,0,0.9-0.1,1.3-0.1l0,0c0.2,0,0.4,0.2,0.4,0.4
					c0,0.2-0.2,0.4-0.4,0.4C133.8,69.8,133.3,69.8,132.9,69.9L132.9,69.9z"/>
				<path class="st11" d="M143.3,72.5c-0.1,0-0.2,0-0.2-0.1c-0.2-0.1-0.4-0.2-0.5-0.4c-0.2-0.1-0.3-0.4-0.1-0.6s0.4-0.3,0.6-0.1
					c0.2,0.1,0.4,0.2,0.6,0.4c0.2,0.1,0.2,0.4,0.1,0.6C143.5,72.5,143.4,72.5,143.3,72.5z"/>
			</g>
			<g class="st10">
				<path class="st11" d="M149.6,82.7c-0.2,0-0.4-0.1-0.4-0.3c0-0.2-0.1-0.4-0.1-0.6s0.1-0.4,0.3-0.5c0.2,0,0.4,0.1,0.5,0.3
					c0,0.2,0.1,0.4,0.1,0.7C150.1,82.4,149.9,82.6,149.6,82.7C149.7,82.7,149.6,82.7,149.6,82.7z"/>
				<path class="st11" d="M134.6,100.3c-0.2,0-0.4,0-0.5,0c-0.2,0-0.4-0.2-0.4-0.4c0-0.2,0.2-0.4,0.4-0.4l0,0c0.2,0,0.3,0,0.5,0l0,0
					c0.2,0,0.5,0,0.7,0s0.4,0.2,0.4,0.4c0,0.2-0.2,0.4-0.4,0.4S134.8,100.3,134.6,100.3z M132,100.1
					C132,100.1,131.9,100.1,132,100.1c-0.5-0.1-0.9-0.2-1.3-0.3c-0.2-0.1-0.4-0.3-0.3-0.5c0.1-0.2,0.3-0.4,0.5-0.3
					c0.4,0.1,0.8,0.2,1.2,0.3c0.2,0,0.4,0.3,0.3,0.5C132.3,100,132.2,100.1,132,100.1z M137.4,100.1c-0.2,0-0.4-0.1-0.4-0.3
					c0-0.2,0.1-0.4,0.3-0.5c0.4-0.1,0.8-0.2,1.2-0.3c0.2-0.1,0.4,0.1,0.5,0.3c0.1,0.2-0.1,0.4-0.3,0.5
					C138.3,99.9,137.9,100,137.4,100.1L137.4,100.1z M128.7,99.2c-0.1,0-0.1,0-0.2,0c-0.4-0.2-0.8-0.4-1.2-0.5
					c-0.2-0.1-0.3-0.4-0.2-0.5c0.1-0.2,0.4-0.3,0.5-0.2c0.4,0.2,0.8,0.4,1.1,0.5c0.2,0.1,0.3,0.3,0.2,0.5
					C129.1,99.1,128.9,99.2,128.7,99.2z M140.6,99.1c-0.2,0-0.3-0.1-0.4-0.3c-0.1-0.2,0-0.4,0.2-0.5c0.4-0.2,0.8-0.3,1.1-0.5
					c0.2-0.1,0.4,0,0.6,0.2s0,0.4-0.2,0.6c-0.4,0.2-0.8,0.4-1.2,0.6C140.7,99.1,140.6,99.1,140.6,99.1z M143.5,97.4
					c-0.1,0-0.3-0.1-0.3-0.2c-0.1-0.2-0.1-0.4,0.1-0.6c0.3-0.2,0.7-0.5,1-0.8c0.2-0.1,0.4-0.1,0.6,0c0.1,0.2,0.1,0.4,0,0.6
					c-0.3,0.3-0.7,0.6-1,0.8C143.7,97.4,143.6,97.4,143.5,97.4z M146,95.2c-0.1,0-0.2,0-0.3-0.1c-0.2-0.1-0.2-0.4,0-0.6
					c0.3-0.3,0.5-0.6,0.8-1c0.1-0.2,0.4-0.2,0.6-0.1c0.2,0.1,0.2,0.4,0.1,0.6c-0.3,0.4-0.5,0.7-0.8,1
					C146.2,95.1,146.1,95.2,146,95.2z M147.9,92.4c-0.1,0-0.1,0-0.2,0c-0.2-0.1-0.3-0.4-0.2-0.6c0.2-0.4,0.4-0.7,0.6-1.1
					c0.1-0.2,0.3-0.3,0.5-0.2c0.2,0.1,0.3,0.3,0.2,0.5c-0.2,0.4-0.4,0.8-0.6,1.2C148.2,92.4,148.1,92.4,147.9,92.4z M149.2,89.3
					h-0.1c-0.2-0.1-0.3-0.3-0.3-0.5c0.1-0.4,0.2-0.8,0.3-1.2c0-0.2,0.3-0.4,0.5-0.3c0.2,0,0.4,0.3,0.3,0.5c-0.1,0.4-0.2,0.9-0.3,1.3
					C149.5,89.2,149.4,89.3,149.2,89.3z M149.8,86L149.8,86c-0.3,0-0.4-0.2-0.4-0.4c0-0.3,0-0.6,0-0.9c0-0.1,0-0.2,0-0.3
					c0-0.2,0.2-0.4,0.4-0.4l0,0c0.2,0,0.4,0.2,0.4,0.4c0,0.1,0,0.2,0,0.3c0,0.3,0,0.7,0,1C150.2,85.9,150,86,149.8,86z"/>
				<path class="st11" d="M125.8,97.6c-0.1,0-0.2,0-0.2-0.1c-0.2-0.1-0.4-0.3-0.5-0.4c-0.2-0.1-0.2-0.4-0.1-0.6s0.4-0.2,0.6-0.1
					s0.3,0.3,0.5,0.4s0.2,0.4,0.1,0.6C126,97.5,125.9,97.6,125.8,97.6z"/>
			</g>
			<g>
				
					<linearGradient id="SVGID_10_" gradientUnits="userSpaceOnUse" x1="145.9232" y1="139.0024" x2="121.3945" y2="255.5131" gradientTransform="matrix(1 0 0 1 0 -108)">
					<stop  offset="0" style="stop-color:#FE7062"/>
					<stop  offset="1" style="stop-color:#FF928E"/>
				</linearGradient>
				<path class="st15" d="M126.3,93c0,0.1,0.1,0.1,0.2,0.1l2.1-0.8c0.8,0.6,1.8,1.1,2.8,1.5l0.5,2.2c0,0.1,0.1,0.1,0.2,0.1l2.7,0.3
					c0.1,0,0.1,0,0.2-0.1l0.9-2c1.1-0.1,2.1-0.4,3-0.9l1.9,1.2c0.1,0,0.1,0,0.2,0l2.1-1.7c0.1,0,0.1-0.1,0.1-0.2l-0.8-2.1
					c0.6-0.8,1.1-1.8,1.5-2.8l2.2-0.5c0.1,0,0.1-0.1,0.1-0.2l0.3-2.7c0-0.1,0-0.1-0.1-0.2l-2-0.9c-0.1-1.1-0.4-2.1-0.9-3l1.2-1.9
					c0-0.1,0-0.1,0-0.2l-1.7-2.1c0-0.1-0.1-0.1-0.2-0.1l-2.1,0.8c-0.8-0.6-1.8-1.1-2.8-1.5l-0.5-2.2c0-0.1-0.1-0.1-0.2-0.1l-2.7-0.3
					c-0.1,0-0.1,0-0.2,0.1l-0.9,2c-1.1,0.1-2.1,0.4-3,0.9l-1.9-1.2c-0.1,0-0.1,0-0.2,0l-2.1,1.7c-0.1,0-0.1,0.1-0.1,0.2l0.8,2.1
					c-0.6,0.8-1.1,1.8-1.5,2.8l-2.2,0.5c-0.1,0-0.1,0.1-0.1,0.2l-0.3,2.7c0,0.1,0,0.1,0.1,0.2l2,0.9c0.1,1.1,0.4,2.1,0.9,3l-1.2,1.9
					c0,0.1,0,0.1,0,0.2L126.3,93z"/>
				<path class="st14" d="M134.5,87.4c-0.6,0-1.2-0.2-1.7-0.6c-0.6-0.5-1-1.1-1.1-1.9s0.1-1.5,0.5-2.1c0.5-0.6,1.1-1,1.9-1.1
					s1.5,0.1,2.1,0.5c0.6,0.5,1,1.1,1.1,1.9s-0.1,1.5-0.5,2.1c-0.5,0.6-1.1,1-1.9,1.1C134.8,87.4,134.7,87.4,134.5,87.4z
					 M134.6,82.7c-0.1,0-0.2,0-0.3,0c-0.5,0.1-0.9,0.3-1.2,0.7c-0.3,0.4-0.4,0.9-0.4,1.4c0.1,0.5,0.3,0.9,0.7,1.2
					c0.4,0.3,0.9,0.4,1.4,0.4l0,0c0.5-0.1,0.9-0.3,1.2-0.7c0.3-0.4,0.4-0.9,0.4-1.4c-0.1-0.5-0.3-0.9-0.7-1.2S135,82.7,134.6,82.7z"
					/>
				<path class="st14" d="M134.6,91.1c-0.2,0-0.4,0-0.7,0l0,0c-0.5,0-0.9-0.1-1.4-0.3c-0.1,0-0.1-0.1-0.1-0.2l0,0
					c0-0.1,0.1-0.1,0.2-0.1c0.4,0.1,0.9,0.2,1.3,0.3c3.4,0.4,6.5-2.2,6.9-5.6c0-0.2,0-0.4,0-0.6c0-3.2-2.4-5.9-5.7-6.3
					c-3.4-0.4-6.5,2.2-6.9,5.6c0,0.2,0,0.4,0,0.6c0,0.9,0.2,1.8,0.6,2.7c0,0,0,0,0,0.1s0,0.1-0.1,0.1s-0.2,0-0.2-0.1
					c-0.4-0.9-0.6-1.8-0.6-2.8c0-0.2,0-0.4,0-0.7c0.4-3.6,3.6-6.3,7.2-5.9c3.4,0.3,5.9,3.2,5.9,6.6c0,0.2,0,0.4,0,0.7
					C140.8,88.6,138,91.1,134.6,91.1z"/>
			</g>
		</g>
		<g>
			<g class="st10">
				<path class="st11" d="M78.6,87.4c-0.1,0-0.1,0-0.2-0.1c0-0.1-0.1-0.3-0.1-0.4s0-0.2,0.1-0.2s0.2,0,0.2,0.1s0.1,0.3,0.1,0.4
					C78.8,87.2,78.7,87.3,78.6,87.4L78.6,87.4z"/>
				<path class="st11" d="M78.3,86.2c-0.1,0-0.1-0.1-0.2-0.1c0-0.3,0-0.5,0-0.8c0-0.1,0.1-0.2,0.2-0.2l0,0c0.1,0,0.2,0.1,0.2,0.2
					c0,0.3,0,0.5,0,0.8C78.5,86.1,78.5,86.2,78.3,86.2L78.3,86.2z M78.3,84.6L78.3,84.6c-0.1,0-0.2-0.1-0.2-0.2
					c0-0.3,0.1-0.5,0.1-0.8c0-0.1,0.1-0.1,0.2-0.1s0.1,0.1,0.1,0.2C78.4,84,78.4,84.2,78.3,84.6C78.5,84.5,78.4,84.6,78.3,84.6z
					 M78.7,83C78.6,83,78.6,83,78.7,83c-0.1,0-0.2-0.1-0.2-0.2c0.1-0.3,0.2-0.5,0.3-0.8c0-0.1,0.1-0.1,0.2-0.1s0.1,0.1,0.1,0.2
					c-0.1,0.2-0.2,0.5-0.3,0.7C78.8,83,78.7,83,78.7,83z M79.4,81.5C79.3,81.5,79.3,81.5,79.4,81.5c-0.2-0.1-0.2-0.2-0.1-0.3
					c0.1-0.2,0.3-0.5,0.5-0.7c0.1-0.1,0.2-0.1,0.2,0c0.1,0.1,0.1,0.2,0,0.2c-0.2,0.2-0.3,0.4-0.5,0.6C79.5,81.5,79.4,81.5,79.4,81.5
					z M80.3,80.3L80.3,80.3c-0.2-0.1-0.2-0.2-0.1-0.2c0.2-0.2,0.4-0.4,0.6-0.5c0.1-0.1,0.2,0,0.2,0c0.1,0.1,0,0.2,0,0.2
					C80.8,80,80.6,80.1,80.3,80.3C80.4,80.3,80.4,80.3,80.3,80.3z M81.6,79.3C81.5,79.3,81.5,79.3,81.6,79.3
					c-0.1-0.2-0.1-0.3-0.1-0.3c0.2-0.1,0.5-0.3,0.7-0.4c0.1,0,0.2,0,0.2,0.1s0,0.2-0.1,0.2C82.1,79,81.9,79.1,81.6,79.3
					C81.7,79.3,81.6,79.3,81.6,79.3z M88.5,78.8L88.5,78.8c-0.3-0.1-0.5-0.2-0.8-0.3c-0.1,0-0.1-0.1-0.1-0.2s0.1-0.1,0.2-0.1
					c0.3,0.1,0.5,0.2,0.8,0.3c0.1,0,0.1,0.1,0.1,0.2C88.6,78.8,88.6,78.8,88.5,78.8z M83,78.6c-0.1,0-0.1,0-0.2-0.1
					c0-0.1,0-0.2,0.1-0.2c0.3-0.1,0.5-0.2,0.8-0.2c0.1,0,0.2,0,0.2,0.1s0,0.2-0.1,0.2C83.6,78.4,83.3,78.5,83,78.6
					C83.1,78.6,83.1,78.6,83,78.6z M87,78.3L87,78.3c-0.3-0.1-0.6-0.1-0.8-0.1c-0.1,0-0.2-0.1-0.1-0.2c0-0.1,0.1-0.2,0.2-0.1
					c0.3,0,0.5,0.1,0.8,0.1c0.1,0,0.1,0.1,0.1,0.2C87.1,78.2,87.1,78.3,87,78.3z M84.6,78.2c-0.1,0-0.1-0.1-0.2-0.1
					c0-0.1,0.1-0.2,0.1-0.2c0.3,0,0.5,0,0.8-0.1l0,0c0.1,0,0.2,0.1,0.2,0.2s-0.1,0.2-0.2,0.2C85.2,78.1,84.9,78.1,84.6,78.2
					L84.6,78.2z"/>
				<path class="st11" d="M89.6,79.4C89.6,79.4,89.5,79.4,89.6,79.4c-0.2-0.1-0.3-0.2-0.4-0.3c-0.1,0-0.1-0.1-0.1-0.2
					s0.1-0.1,0.2-0.1c0.1,0.1,0.2,0.1,0.4,0.2c0.1,0.1,0.1,0.2,0,0.2C89.7,79.4,89.6,79.4,89.6,79.4z"/>
			</g>
			<g class="st10">
				<path class="st11" d="M92.6,84.3c-0.1,0-0.1-0.1-0.2-0.1c0-0.1,0-0.3-0.1-0.4c0-0.1,0-0.2,0.1-0.2s0.2,0,0.2,0.1
					s0.1,0.3,0.1,0.4C92.8,84.2,92.7,84.3,92.6,84.3L92.6,84.3z"/>
				<path class="st11" d="M85.5,92.5c-0.1,0-0.2,0-0.3,0c-0.1,0-0.2-0.1-0.2-0.2s0.1-0.2,0.2-0.2c0.3,0,0.5,0,0.8,0
					c0.1,0,0.2,0.1,0.2,0.1c0,0.1-0.1,0.2-0.1,0.2C85.8,92.5,85.6,92.5,85.5,92.5z M84.4,92.5L84.4,92.5c-0.3,0-0.6-0.1-0.8-0.2
					c-0.1,0-0.1-0.1-0.1-0.2s0.1-0.1,0.2-0.1c0.3,0.1,0.5,0.1,0.8,0.2c0.1,0,0.1,0.1,0.1,0.2C84.5,92.4,84.4,92.5,84.4,92.5z
					 M86.7,92.4c-0.1,0-0.1-0.1-0.2-0.1c0-0.1,0-0.2,0.1-0.2c0.3,0,0.5-0.1,0.8-0.2c0.1,0,0.2,0,0.2,0.1s0,0.2-0.1,0.2
					C87.3,92.3,87,92.4,86.7,92.4L86.7,92.4z M82.8,92L82.8,92c-0.3-0.1-0.6-0.2-0.8-0.3c-0.1,0-0.1-0.1-0.1-0.2s0.1-0.1,0.2-0.1
					c0.2,0.1,0.5,0.2,0.7,0.3C82.9,91.7,82.9,91.8,82.8,92C83,92,82.9,92,82.8,92z M88.2,92C88.1,92,88.1,92,88.2,92
					c-0.1-0.2-0.1-0.3,0-0.3c0.2-0.1,0.5-0.2,0.7-0.3c0.1,0,0.2,0,0.2,0.1s0,0.2-0.1,0.2C88.8,91.8,88.6,91.9,88.2,92
					C88.3,92,88.3,92,88.2,92z M89.6,91.2C89.5,91.2,89.5,91.2,89.6,91.2c-0.2-0.2-0.1-0.3-0.1-0.3c0.2-0.1,0.4-0.3,0.6-0.5
					c0.1-0.1,0.2-0.1,0.2,0c0.1,0.1,0.1,0.2,0,0.2C90.2,90.9,89.9,91,89.6,91.2C89.7,91.2,89.7,91.2,89.6,91.2z M90.8,90.2
					L90.8,90.2c-0.2-0.1-0.2-0.2-0.1-0.2c0.2-0.2,0.3-0.4,0.5-0.6c0.1-0.1,0.2-0.1,0.2,0s0.1,0.2,0,0.2C91.2,89.8,91.1,90,90.8,90.2
					C90.9,90.2,90.9,90.2,90.8,90.2z M91.7,88.9L91.7,88.9c-0.2-0.1-0.2-0.2-0.1-0.2c0.1-0.2,0.2-0.5,0.3-0.7c0-0.1,0.1-0.1,0.2-0.1
					s0.1,0.1,0.1,0.2C92.1,88.4,92,88.6,91.7,88.9C91.9,88.9,91.8,88.9,91.7,88.9z M92.4,87.4C92.3,87.4,92.3,87.4,92.4,87.4
					c-0.1,0-0.2-0.1-0.2-0.2c0.1-0.2,0.1-0.5,0.2-0.8c0-0.1,0.1-0.1,0.2-0.1s0.1,0.1,0.1,0.2C92.7,86.8,92.6,87,92.4,87.4
					C92.5,87.4,92.4,87.4,92.4,87.4z M92.7,85.9L92.7,85.9c-0.1,0-0.2-0.1-0.2-0.2l0,0c0-0.2,0-0.3,0-0.5c0-0.1,0-0.2,0-0.2
					c0-0.1,0.1-0.2,0.2-0.2s0.2,0.1,0.2,0.2s0,0.2,0,0.2c0,0.2,0,0.3,0,0.5v0.1C92.8,85.8,92.7,85.9,92.7,85.9z"/>
				<path class="st11" d="M81.4,91.3L81.4,91.3c-0.2-0.1-0.3-0.2-0.4-0.3c-0.1-0.1-0.1-0.2,0-0.2c0.1-0.1,0.2-0.1,0.2,0
					c0.1,0.1,0.2,0.2,0.3,0.2c0.1,0,0.1,0.1,0,0.2C81.5,91.3,81.5,91.3,81.4,91.3z"/>
			</g>
			<g>
				
					<linearGradient id="SVGID_11_" gradientUnits="userSpaceOnUse" x1="98.9902" y1="129.1216" x2="74.4615" y2="245.6323" gradientTransform="matrix(1 0 0 1 0 -108)">
					<stop  offset="0" style="stop-color:#FE7062"/>
					<stop  offset="1" style="stop-color:#FF928E"/>
				</linearGradient>
				<path class="st16" d="M81.6,89.1C81.6,89.1,81.7,89.2,81.6,89.1l1.1-0.3c0.4,0.3,0.8,0.5,1.3,0.7l0.2,1c0,0,0,0.1,0.1,0.1
					l1.3,0.1h0.1l0.4-1c0.5-0.1,1-0.2,1.4-0.4l0.9,0.6h0.1l1-0.8V89l-0.4-1c0.3-0.4,0.5-0.8,0.7-1.3l1-0.2c0,0,0.1,0,0.1-0.1
					l0.1-1.3V85l-1-0.4c-0.1-0.5-0.2-1-0.4-1.4l0.6-0.9v-0.1l-0.8-1h-0.1l-1,0.4c-0.4-0.3-0.8-0.5-1.3-0.7l-0.2-1c0,0,0-0.1-0.1-0.1
					l-1.3-0.1h-0.1l-0.4,1c-0.5,0.1-1,0.2-1.4,0.4l-0.9-0.6h-0.1l-1,0.8v0.1l0.4,1c-0.3,0.4-0.5,0.8-0.7,1.3l-1,0.2
					c0,0-0.1,0-0.1,0.1L80,85.3v0.1l1,0.4c0.1,0.5,0.2,1,0.4,1.4L80.8,88v0.1L81.6,89.1z"/>
				<path class="st14" d="M85.5,86.4c-0.6,0-1.2-0.5-1.3-1.1c-0.1-0.7,0.4-1.4,1.1-1.5s1.4,0.4,1.5,1.1s-0.4,1.4-1.1,1.5
					C85.6,86.4,85.5,86.4,85.5,86.4z M85.5,84.2L85.5,84.2c-0.6,0.1-1,0.6-0.9,1.1s0.6,0.9,1.1,0.8l0,0c0.5-0.1,0.9-0.6,0.8-1.1
					S86,84.2,85.5,84.2z"/>
				<path class="st14" d="M85.5,88.3c-0.1,0-0.2,0-0.3,0l0,0c-0.2,0-0.5-0.1-0.7-0.1c-0.1,0-0.1-0.1-0.1-0.2l0,0
					c0-0.1,0.1-0.1,0.2-0.1C84.8,88,85,88,85.2,88l0,0c1.1,0.1,2.1-0.4,2.7-1.2c0.3-0.4,0.4-0.8,0.5-1.3c0,0,0,0,0-0.1s0-0.2,0-0.3
					c0-0.7-0.2-1.3-0.7-1.8c-0.5-0.6-1.2-1-1.9-1c-0.8-0.1-1.5,0.1-2.1,0.6s-1,1.2-1,1.9c0,0.1,0,0.2,0,0.3c0,0.4,0.1,0.8,0.3,1.2
					c0,0,0,0,0,0.1s0,0.1-0.1,0.1s-0.2,0-0.2-0.1c-0.2-0.4-0.3-0.9-0.3-1.4c0-0.1,0-0.2,0-0.3c0.1-0.9,0.5-1.6,1.2-2.2
					c0.7-0.5,1.5-0.8,2.4-0.7c0.9,0.1,1.6,0.5,2.2,1.2c0.5,0.6,0.7,1.3,0.7,2c0,0.1,0,0.2,0,0.3C88.5,87.1,87.1,88.3,85.5,88.3z"/>
			</g>
		</g>
		<g>
			
				<linearGradient id="SVGID_12_" gradientUnits="userSpaceOnUse" x1="2805.3735" y1="195.7377" x2="2747.0974" y2="277.9591" gradientTransform="matrix(-0.9849 -0.1731 -0.1731 0.9849 2910.3354 376.5806)">
				<stop  offset="0" style="stop-color:#09005D"/>
				<stop  offset="1" style="stop-color:#1A0F91"/>
			</linearGradient>
			<path class="st17" d="M135.1,108.7c0.3-0.3,0.3-0.7,0-1l-35-31.1c-0.2,0-0.2-0.2-0.3,0l0,0c-0.2,0.2-0.2,0.3,0,0.5l34.6,31.7
				C134.4,109,134.8,109,135.1,108.7L135.1,108.7z"/>
			
				<linearGradient id="SVGID_13_" gradientUnits="userSpaceOnUse" x1="2519.1797" y1="291.157" x2="2525.8269" y2="291.157" gradientTransform="matrix(-1 0 0 1 2681.4968 -108)">
				<stop  offset="0" style="stop-color:#09005D"/>
				<stop  offset="1" style="stop-color:#1A0F91"/>
			</linearGradient>
			<path class="st18" d="M155.7,185.5L155.7,185.5c0.7-3.1,4.5-5,4.5-5l1.6,0.2c0.9,2.6,0.7,4.2,0.5,5l0,0
				C160.9,185.9,158.5,185.9,155.7,185.5z"/>
			
				<linearGradient id="SVGID_14_" gradientUnits="userSpaceOnUse" x1="2535.8894" y1="283.4568" x2="2511.7068" y2="302.4451" gradientTransform="matrix(-1 0 0 1 2681.4968 -108)">
				<stop  offset="0" style="stop-color:#4042E2"/>
				<stop  offset="1" style="stop-color:#4F52FF"/>
			</linearGradient>
			<path class="st19" d="M162.1,185.7c0,0.2-0.2,0.3-0.5,0.5c-1.7,0.3-4.5,0-5.7,0c-0.2,0-0.5-0.3-0.5-0.5
				C158.5,185.9,160.9,185.9,162.1,185.7z"/>
			
				<linearGradient id="SVGID_15_" gradientUnits="userSpaceOnUse" x1="2513.7397" y1="193.6673" x2="2514.3831" y2="225.8309" gradientTransform="matrix(-1 0 0 1 2681.4968 -108)">
				<stop  offset="0" style="stop-color:#FF928E"/>
				<stop  offset="1" style="stop-color:#FEB3B1"/>
			</linearGradient>
			<path class="st20" d="M168,133.1c0.9,1,2.2,1.9,3.1,2.2c-1.4,1.7-3.3,3.5-5.9,5.2l-0.7,1.6l-2.2-2.8
				C162.3,139.3,166.5,137.4,168,133.1z"/>
			
				<linearGradient id="SVGID_16_" gradientUnits="userSpaceOnUse" x1="2521.1465" y1="283.657" x2="2519.8765" y2="294.7383" gradientTransform="matrix(-1 0 0 1 2681.4968 -108)">
				<stop  offset="0" style="stop-color:#FF928E"/>
				<stop  offset="1" style="stop-color:#FEB3B1"/>
			</linearGradient>
			<path class="st21" d="M162.1,178.6l-0.7,2.9c0,0.2-0.2,0.3-0.3,0.3c-0.2,0-0.7,0-1,0c-0.3,0-0.5-0.3-0.5-0.7l0.5-2.6H162.1z"/>
			
				<linearGradient id="SVGID_17_" gradientUnits="userSpaceOnUse" x1="2540.175" y1="288.9145" x2="2515.9924" y2="307.9028" gradientTransform="matrix(-1 0 0 1 2681.4968 -108)">
				<stop  offset="0" style="stop-color:#4042E2"/>
				<stop  offset="1" style="stop-color:#4F52FF"/>
			</linearGradient>
			<path class="st22" d="M149.3,185.7c1.6,0,2.4-0.2,2.9-0.3c0,0.2,0,0.3,0,0.5s-0.2,0.3-0.3,0.3h-9c-0.3,0-0.5-0.3-0.3-0.5
				C143.8,185.5,146.7,185.7,149.3,185.7z"/>
			
				<linearGradient id="SVGID_18_" gradientUnits="userSpaceOnUse" x1="2529.2964" y1="291.4463" x2="2538.865" y2="291.4463" gradientTransform="matrix(-1 0 0 1 2681.4968 -108)">
				<stop  offset="0" style="stop-color:#09005D"/>
				<stop  offset="1" style="stop-color:#1A0F91"/>
			</linearGradient>
			<path class="st23" d="M142.6,185.5C142.6,185.3,142.6,185.3,142.6,185.5c0.9-1.2,2.8-3.3,6.7-4.3h1.9c0,0,0.9,1.6,0.9,4.2
				c-0.5,0.2-1.2,0.3-2.9,0.3C146.7,185.7,143.8,185.5,142.6,185.5z"/>
			
				<linearGradient id="SVGID_19_" gradientUnits="userSpaceOnUse" x1="154.0111" y1="271.7886" x2="150.7947" y2="285.4047" gradientTransform="matrix(1 0 0 1 0 -108)">
				<stop  offset="0" style="stop-color:#FF928E"/>
				<stop  offset="1" style="stop-color:#FEB3B1"/>
			</linearGradient>
			<path class="st24" d="M151.8,178.3c0,0.2-0.3,2.2-0.3,3.1c0,0.2-0.2,0.3-0.3,0.3c-0.3,0-0.9,0-1.4,0c-0.2,0-0.5-0.3-0.5-0.5v-3.5
				L151.8,178.3z"/>
			<path class="st25" d="M153.1,138.8c0,0-4.7,17.5-4.5,39.5c0,0.3,0.3,0.7,0.7,0.9c0.5,0.2,1.4,0.3,2.1,0.2c0.3,0,0.7-0.3,0.7-0.7
				c0.7-3.8,4.3-25.1,6.4-28.6c0,0,1.4,18.9,0.9,28.7c0,0.2,0.2,0.5,0.3,0.5c0.3,0,1,0,1.7,0c0.3,0,0.5-0.2,0.5-0.5
				c0.5-3.1,3.1-22.2,2.9-36c0-0.7-2.1-4.2-2.1-4.2h-9.7V138.8z"/>
			
				<linearGradient id="SVGID_20_" gradientUnits="userSpaceOnUse" x1="148.8741" y1="211.3082" x2="168.1742" y2="248.4611" gradientTransform="matrix(1 0 0 1 0 -108)">
				<stop  offset="0" style="stop-color:#FE7062"/>
				<stop  offset="1" style="stop-color:#FF928E"/>
			</linearGradient>
			<path class="st26" d="M146.2,115.3c0.9-2.1,2.1-3.5,3.5-5c5.2,0.9,13.5,1.7,17,2.2c1,0.2,2.1,0.7,2.8,1.6
				c2.8,3.3,9.2,12.3,1.7,21.5c-0.9-0.5-2.2-1.4-3.1-2.2c0.9-2.2,0.9-5.2-0.9-8.8c0,0.3-0.2,0.5-0.2,0.9c-2.4,7.4-2.4,13.7-2.4,15.1
				c0,0.2-0.2,0.3-0.3,0.5c-3.1,1.2-9,0.5-11.1,0.2c-0.3,0-0.7-0.3-0.5-0.7c1-7.1-4-18.9-5.4-21.8c-0.2-0.5-0.5-0.7-1-1
				c-0.2-0.2-0.5-0.2-0.7-0.3C145.7,116.5,146,116,146.2,115.3z"/>
			
				<linearGradient id="SVGID_21_" gradientUnits="userSpaceOnUse" x1="160.9002" y1="210.2976" x2="158.0055" y2="222.8415" gradientTransform="matrix(1 0 0 1 0 -108)">
				<stop  offset="0" style="stop-color:#FF928E"/>
				<stop  offset="1" style="stop-color:#FEB3B1"/>
			</linearGradient>
			<path class="st27" d="M161.3,105.6l0.3,6.4c0,0.2-0.2,0.3-0.3,0.3c-0.9,0.2-3.1,0.7-5-0.5c-0.2-0.2-0.3-0.5-0.3-0.7l1.6-5.7
				L161.3,105.6z"/>
			<g>
				
					<linearGradient id="SVGID_22_" gradientUnits="userSpaceOnUse" x1="150.7204" y1="207.8283" x2="159.2438" y2="211.3664" gradientTransform="matrix(1 0 0 1 0 -108)">
					<stop  offset="0" style="stop-color:#FF928E"/>
					<stop  offset="1" style="stop-color:#FEB3B1"/>
				</linearGradient>
				<path class="st28" d="M157.3,98.7l-3.5,6.7l3.8,1.9l4.2-5.9C162,101.4,158.7,97.3,157.3,98.7z"/>
				
					<linearGradient id="SVGID_23_" gradientUnits="userSpaceOnUse" x1="549.313" y1="482.3053" x2="559.5922" y2="482.3053" gradientTransform="matrix(-0.6854 -0.7281 -0.7281 0.6854 888.4899 176.0723)">
					<stop  offset="0" style="stop-color:#09005D"/>
					<stop  offset="1" style="stop-color:#1A0F91"/>
				</linearGradient>
				<path class="st29" d="M160.2,101.6c0,0.2,0,0.3,0,0.5l-1.9,3.1c0,0,0,0.2-0.2,0.2c-0.2,0.2-1,0.9-1.6,0c-0.5-0.7-1-1.4-1.6-1.6
					c-0.3-0.2-0.7,0-0.9,0.3c-0.3,0.7-0.9,1.9-1.4,3.1c-0.2,0.3,0,0.7,0.3,0.7c0.9,0.3,2.2,0.9,3.6,1c0.2,0,0.5,0,0.5-0.2
					c0.5-0.9,2.2-3.1,2.8-3.6c0.5-0.5,1.6-0.3,1.9-0.2c0.2,0,0.3,0,0.5,0c0.5-0.3,1.2-0.9,0.5-2.1c-0.2-0.3,0-0.7,0.2-0.9
					c0.5-0.3,1-0.9,0.5-1.9c-0.5-1-1.4-1-2.1-1c-0.3,0-0.5-0.2-0.7-0.3c0-0.2-0.2-0.2-0.3-0.2c-0.3,0-0.5-0.3-0.5-0.7
					c0.2-0.5,0-1.4-0.9-1.7c-1.7-0.9-3.1,0.5-3.5,1.9c-0.3,1.2,1.6,2.1,2.6,2.2C159.5,100.2,160.1,101.1,160.2,101.6z"/>
				
					<linearGradient id="SVGID_24_" gradientUnits="userSpaceOnUse" x1="543.2682" y1="488.3628" x2="550.167" y2="481.2847" gradientTransform="matrix(-0.6854 -0.7281 -0.7281 0.6854 888.4899 176.0723)">
					<stop  offset="0" style="stop-color:#FF928E"/>
					<stop  offset="1" style="stop-color:#FEB3B1"/>
				</linearGradient>
				<path class="st30" d="M159.5,106.3c0,0,0.7-2.2,1.7-2.1c0.9,0,1.7,1,0.5,2.1C160.2,107.6,159.5,106.3,159.5,106.3z"/>
			</g>
			
				<linearGradient id="SVGID_25_" gradientUnits="userSpaceOnUse" x1="159.3574" y1="236.103" x2="160.4832" y2="255.0795" gradientTransform="matrix(1 0 0 1 0 -108)">
				<stop  offset="0" style="stop-color:#4042E2"/>
				<stop  offset="1" style="stop-color:#4F52FF"/>
			</linearGradient>
			<path class="st31" d="M158.8,149.7C159,149.7,159,149.7,158.8,149.7c0.5-1.6,3.5-3.3,3.5-3.3s0.2-0.2,0-0.2c0,0-0.2-0.2-0.2,0
				c-0.2,0-2.9,1.7-3.5,3.3C158.7,149.5,158.7,149.7,158.8,149.7L158.8,149.7z"/>
			<g>
				
					<linearGradient id="SVGID_26_" gradientUnits="userSpaceOnUse" x1="138.5327" y1="216.6804" x2="157.8328" y2="253.8331" gradientTransform="matrix(1 0 0 1 0 -108)">
					<stop  offset="0" style="stop-color:#FE7062"/>
					<stop  offset="1" style="stop-color:#FF928E"/>
				</linearGradient>
				<path class="st32" d="M134.4,112.1c4.8,1.7,15.2-1.9,15.2-1.9l0.7,8.5c-8.3,2.6-13.7,1.9-17.1-0.3
					C133.1,115.8,133.8,113.7,134.4,112.1z"/>
				
					<linearGradient id="SVGID_27_" gradientUnits="userSpaceOnUse" x1="2487.5024" y1="435.9791" x2="2495.5435" y2="408.3184" gradientTransform="matrix(-1 0 0 1 2681.4968 -108)">
					<stop  offset="0" style="stop-color:#FF928E"/>
					<stop  offset="1" style="stop-color:#FEB3B1"/>
				</linearGradient>
				<path class="st33" d="M126.7,103.5l2.1-0.3c0,0,0.5,6.4,5,8.8c0.2,0.2,0.3,0.2,0.7,0.3c-0.7,1.4-1.6,3.6-1.2,6.1
					C126.1,113.9,126.7,103.5,126.7,103.5z"/>
			</g>
			
				<linearGradient id="SVGID_28_" gradientUnits="userSpaceOnUse" x1="2489.5408" y1="436.5709" x2="2497.5815" y2="408.9102" gradientTransform="matrix(-1 0 0 1 2681.4968 -108)">
				<stop  offset="0" style="stop-color:#FF928E"/>
				<stop  offset="1" style="stop-color:#FEB3B1"/>
			</linearGradient>
			<path class="st34" d="M128.7,103.7l0.2-0.5c0,0,0.3-1.4-0.7-2.8c-1.6-1.9-2.8-1.2-2.8-1.2s0,0.3,0,0.9c0,0.3-0.3,0.5-0.5,0.2
				l-2.6-2.4c0,0-0.7,3.8,5,6.6L128.7,103.7z"/>
		</g>
	</g>
</g>
</svg>
