<?xml version="1.0" encoding="utf-8"?>
<!-- Generator: Adobe Illustrator 24.1.0, SVG Export Plug-In . SVG Version: 6.00 Build 0)  -->
<svg version="1.1" id="Layer_1" xmlns="http://www.w3.org/2000/svg" xmlns:xlink="http://www.w3.org/1999/xlink" x="0px" y="0px"
	 viewBox="0 0 216 216" style="enable-background:new 0 0 216 216;" xml:space="preserve">
<style type="text/css">
	.st0{fill:url(#SVGID_1_);}
	.st1{fill:#BDD0FB;}
	.st2{fill:url(#SVGID_2_);}
	.st3{fill:#91B3FA;}
	.st4{fill:url(#SVGID_3_);}
	.st5{fill:url(#SVGID_4_);}
	.st6{fill:url(#SVGID_5_);}
	.st7{fill:url(#SVGID_6_);}
	.st8{fill:url(#SVGID_7_);}
	.st9{fill:url(#SVGID_8_);}
	.st10{fill:url(#SVGID_9_);}
	.st11{fill:url(#SVGID_10_);}
	.st12{fill:url(#SVGID_11_);}
	.st13{fill:url(#SVGID_12_);}
	.st14{fill:url(#SVGID_13_);}
	.st15{fill:url(#SVGID_14_);}
	.st16{fill:url(#SVGID_15_);}
	.st17{fill:url(#SVGID_16_);}
	.st18{fill:url(#SVGID_17_);}
	.st19{fill:url(#SVGID_18_);}
	.st20{fill:url(#SVGID_19_);}
	.st21{fill:url(#SVGID_20_);}
	.st22{fill:url(#SVGID_21_);}
	.st23{opacity:0.97;fill:#FFFFFF;}
	.st24{fill:url(#SVGID_22_);}
	.st25{fill:url(#SVGID_23_);}
	.st26{fill:url(#SVGID_24_);}
	.st27{fill:url(#SVGID_25_);}
	.st28{fill:url(#SVGID_26_);}
	.st29{fill:url(#SVGID_27_);}
	.st30{fill:url(#SVGID_28_);}
	.st31{fill:url(#SVGID_29_);}
	.st32{fill:url(#SVGID_30_);}
	.st33{fill:url(#SVGID_31_);}
	.st34{fill:url(#SVGID_32_);}
	.st35{fill:url(#SVGID_33_);}
	.st36{fill:url(#SVGID_34_);}
	.st37{fill:url(#SVGID_35_);}
	.st38{fill:url(#SVGID_36_);}
	.st39{fill:url(#SVGID_37_);}
	.st40{fill:url(#SVGID_38_);}
	.st41{fill:url(#SVGID_39_);}
	.st42{fill:url(#SVGID_40_);}
	.st43{fill:url(#SVGID_41_);}
</style>
<linearGradient id="SVGID_1_" gradientUnits="userSpaceOnUse" x1="0" y1="110" x2="216" y2="110" gradientTransform="matrix(1 0 0 -1 0 218)">
	<stop  offset="0" style="stop-color:#DAE3FE"/>
	<stop  offset="1" style="stop-color:#E9EFFD"/>
</linearGradient>
<rect class="st0" width="216" height="216"/>
<g>
	<g>
		<path class="st1" d="M133.1,112.1c0,0,2.8-17.5-4.7-23.3c-7.4-5.8-22.4-10.8-19.6-36.1c1.7-14.8,2.2-21.3,2.3-24.1
			c0.1-1.1,1.1-1.9,2.2-1.5c7.5,2.5,31.5,11.8,34.4,29.5C151.3,77.5,133.1,112.1,133.1,112.1z"/>
		<linearGradient id="SVGID_2_" gradientUnits="userSpaceOnUse" x1="117.8653" y1="70.861" x2="138.2886" y2="70.861">
			<stop  offset="0" style="stop-color:#DAE3FE"/>
			<stop  offset="1" style="stop-color:#E9EFFD"/>
		</linearGradient>
		<path class="st2" d="M118.3,35c4.1,4.9,7.4,10.4,10.4,16c0.7,1.4,1.5,2.8,2.1,4.3l0.5,1.1l0.3,0.5l0.2,0.5l0.9,2.2l0.2,0.6
			l0.2,0.6l0.4,1.1L134,63l0.2,0.6l0.2,0.6c0.5,1.5,1.1,3,1.5,4.5c0.1,0.4,0.2,0.8,0.3,1.2c0.1,0.4,0.2,0.8,0.3,1.2l0.3,1.2l0.1,0.6
			l0.1,0.6l0.2,1.2l0.2,1.2c0.1,0.4,0.1,0.8,0.2,1.2l0.2,1.2c0.4,3.2,0.5,6.4,0.4,9.6c-0.1,3.2-0.4,6.4-0.9,9.5
			c-0.3,1.6-0.6,3.1-0.9,4.7c-0.3,1.6-0.7,3.1-1.2,4.6c-0.1,0.2-0.3,0.3-0.5,0.3c-0.2-0.1-0.3-0.3-0.3-0.5l0,0
			c0.2-0.7,0.4-1.5,0.6-2.3c0.2-0.8,0.3-1.5,0.5-2.3c0.3-1.5,0.6-3.1,0.8-4.7c0.4-3.1,0.7-6.3,0.7-9.4c0-3.1-0.1-6.3-0.5-9.4
			c-0.4-3.1-1-6.2-1.9-9.2c-0.4-1.5-1-3-1.5-4.5L133,64l-0.2-0.6l-0.4-1.1l-0.4-1.1l-0.2-0.6l-0.2-0.5c-1.2-2.9-2.5-5.8-3.8-8.6
			c-1.4-2.8-2.9-5.6-4.5-8.3c-1.6-2.7-3.3-5.4-5.2-7.9l0,0c-0.1-0.1-0.1-0.3,0.1-0.3C118.1,34.9,118.2,34.9,118.3,35z"/>
	</g>
	<g>
		<path class="st3" d="M128.7,148.9c1.2,0.9-9-19.2-7.8-47.2c0.6-13.2,3.8-29.2-2.2-36.9c-5-6.4-26.3-7.3-33.3-7.5
			c-0.9,0-1.4,1-0.8,1.7c2.7,3.4,8.3,11.2,8.8,18c0.6,9,7.6,16.1,14.6,19c7,2.9,10.7,5.2,11.9,17.5
			C121,125.9,125.4,146.3,128.7,148.9z"/>
		<path class="st1" d="M94.1,62.9c4.3,1.1,8.4,3.1,11.9,5.8c1.8,1.3,3.4,2.9,4.8,4.7c1.4,1.8,2.5,3.7,3.3,5.8l0.3,0.8
			c0.1,0.3,0.2,0.5,0.3,0.8c0.1,0.3,0.2,0.5,0.2,0.8l0.2,0.8c0.3,1.1,0.6,2.1,0.8,3.2c0.5,2.1,1.1,4.3,1.5,6.4c1,4.3,1.8,8.6,2.3,13
			c0,0.1-0.1,0.2-0.2,0.2c-0.1,0-0.2-0.1-0.2-0.1l0,0c-0.4-2.2-0.8-4.3-1.3-6.5c-0.5-2.2-1-4.3-1.5-6.4L116,89l-0.8-3.2
			c-0.3-1.1-0.6-2.1-0.8-3.2l-0.2-0.8c-0.1-0.3-0.2-0.5-0.2-0.8c-0.1-0.3-0.1-0.5-0.2-0.8l-0.3-0.8c-0.8-2-1.9-3.9-3.2-5.6
			c-0.7-0.9-1.4-1.7-2.1-2.4l-0.3-0.3l-0.3-0.3c-0.2-0.2-0.4-0.4-0.6-0.6c-0.4-0.4-0.8-0.7-1.2-1.1c-1.7-1.4-3.6-2.5-5.5-3.5
			c-1.9-1-4-1.9-6.1-2.5l0,0c-0.1,0-0.1-0.1-0.1-0.2C94,63,94.1,62.9,94.1,62.9z"/>
	</g>
	<linearGradient id="SVGID_3_" gradientUnits="userSpaceOnUse" x1="129.9528" y1="123.0538" x2="190.2583" y2="123.0538">
		<stop  offset="0" style="stop-color:#FF928E"/>
		<stop  offset="1" style="stop-color:#FE7062"/>
	</linearGradient>
	<path class="st4" d="M190.3,167.6H130v-59.5c0-16.4,13.3-29.7,29.7-29.7h0.8c16.4,0,29.7,13.3,29.7,29.7V167.6z"/>
	<linearGradient id="SVGID_4_" gradientUnits="userSpaceOnUse" x1="157.1782" y1="99.5795" x2="64.0012" y2="241.8767">
		<stop  offset="0" style="stop-color:#FEBBBA"/>
		<stop  offset="1" style="stop-color:#FF928E"/>
	</linearGradient>
	<path class="st5" d="M153.1,167.6h-52.6V132c0-14.3,11.6-25.9,25.9-25.9h0.7c14.3,0,25.9,11.6,25.9,25.9V167.6z"/>
	<linearGradient id="SVGID_5_" gradientUnits="userSpaceOnUse" x1="70.8396" y1="145.8366" x2="116.1283" y2="145.8366">
		<stop  offset="0" style="stop-color:#FF928E"/>
		<stop  offset="1" style="stop-color:#FE7062"/>
	</linearGradient>
	<path class="st6" d="M116.1,167.6H70.8v-21.1c0-12.3,10-22.3,22.3-22.3h0.6c12.3,0,22.3,10,22.3,22.3V167.6z"/>
	<g>
		
			<linearGradient id="SVGID_6_" gradientUnits="userSpaceOnUse" x1="16309.0088" y1="77.7056" x2="16287.8105" y2="89.8053" gradientTransform="matrix(-1 0 0 1 16453.5723 0)">
			<stop  offset="0" style="stop-color:#FEBBBA"/>
			<stop  offset="1" style="stop-color:#FF928E"/>
		</linearGradient>
		<path class="st7" d="M142.9,94.6c0,0,13.5-23.6,15.3-25.8c0.3-0.4,0.8-0.6,1.3-0.5l3.8,0.4l4.4,9.5l-7.3-4.3
			c0.7,5-8.7,12.5-11.9,15.2c-0.3,0.3-0.4,0.8-0.1,1.1l1.3,1.4c-2.1,2.1-4.6,3.5-7.3,4.2L142.9,94.6z"/>
		
			<linearGradient id="SVGID_7_" gradientUnits="userSpaceOnUse" x1="-9466.5898" y1="-5906.8364" x2="-9468.2178" y2="-5881.8843" gradientTransform="matrix(0.8974 -0.4412 0.4412 0.8974 11243.8281 1211.1296)">
			<stop  offset="0" style="stop-color:#09005D"/>
			<stop  offset="1" style="stop-color:#1A0F91"/>
		</linearGradient>
		<path class="st8" d="M148.8,91c0,0,0.8,0.3,1.1,1c0.1,0.4,0,0.7-0.3,1c-1.4,1-5.8,4.1-7.9,4.7c-0.2,0.1-0.3-0.1-0.3-0.3
			c0.1-0.5,0.4-1.4,1.6-2.8l-0.1,0.2c-0.1,0.3,0.2,0.5,0.4,0.4C144.6,94.4,147.4,92.6,148.8,91z"/>
		
			<linearGradient id="SVGID_8_" gradientUnits="userSpaceOnUse" x1="16311.8799" y1="77.9137" x2="16384.4102" y2="32.5086" gradientTransform="matrix(-1 0 0 1 16453.5723 0)">
			<stop  offset="0" style="stop-color:#FEBBBA"/>
			<stop  offset="1" style="stop-color:#FF928E"/>
		</linearGradient>
		<path class="st9" d="M148.1,100.4c0,0,2-4.9,2.1-4.9c1.8-11.3,6.4-20.9,7.7-23.4c0.2-0.4,0.6-0.7,1.1-0.7l3.8-0.3l6.2,8.4
			l-8.1-2.7c1.7,4.8-6,14-8.6,17.3c-0.3,0.3-0.2,0.8,0.2,1.1l1.5,1.1c-1.6,2.5-3.8,4.4-6.3,5.6L148.1,100.4z"/>
		
			<linearGradient id="SVGID_9_" gradientUnits="userSpaceOnUse" x1="-7847.4785" y1="-8200.3779" x2="-7849.106" y2="-8175.4272" gradientTransform="matrix(0.7895 -0.6137 0.6137 0.7895 11374.2725 1751.2244)">
			<stop  offset="0" style="stop-color:#09005D"/>
			<stop  offset="1" style="stop-color:#1A0F91"/>
		</linearGradient>
		<path class="st10" d="M153.1,95.6c0,0,0.9,0.1,1.3,0.8c0.2,0.3,0.1,0.7-0.1,1c-1.1,1.2-4.9,5.2-6.8,6.2c-0.2,0.1-0.3,0-0.3-0.2
			c0-0.5,0.1-1.5,0.9-3.1l-0.1,0.2c-0.1,0.3,0.3,0.5,0.5,0.3C149.7,99.8,152.2,97.5,153.1,95.6z"/>
		<g>
			
				<linearGradient id="SVGID_10_" gradientUnits="userSpaceOnUse" x1="8462.374" y1="59.7037" x2="8444.9395" y2="78.8104" gradientTransform="matrix(-1 0 0 1 8621.873 0)">
				<stop  offset="0" style="stop-color:#09005D"/>
				<stop  offset="1" style="stop-color:#1A0F91"/>
			</linearGradient>
			<path class="st11" d="M180.4,69.2c0,0,3.4,5.1,3.7,7.4c0.3,2.3-0.9,3.1-4.5,3.4c-10.6,0.9-15.8-2.3-15.8-2.3
				c-0.7-4.6-1.2-5.8-7.3-8.3c0,0,7.7,0.6,9.2,0C167.2,68.8,180.4,69.2,180.4,69.2z"/>
		</g>
		<g>
			
				<linearGradient id="SVGID_11_" gradientUnits="userSpaceOnUse" x1="-13186.8057" y1="-2038.9043" x2="-13181.5938" y2="-2025.8284" gradientTransform="matrix(0.9446 -0.3283 0.3283 0.9446 13288.792 -2369.4961)">
				<stop  offset="0" style="stop-color:#09005D"/>
				<stop  offset="1" style="stop-color:#1A0F91"/>
			</linearGradient>
			<path class="st12" d="M166.8,40.8c0,0,2.4-2.8,4.9,0.6c0.5,0.6,2.2,0.1,2.9,1.4c0.3,0.7,1,1.1,1.8,0.9c1.8-0.3,4.8-0.4,6.3,2.5
				c1.1,2.2,0.3,3.5-0.9,4.2c-0.8,0.5-1.1,1.6-0.6,2.5c0.5,0.8,0.6,1.9-0.7,3.3c-2.8,3-8.3-1.9-8.3-1.9L167.8,44L166.8,40.8z"/>
			
				<linearGradient id="SVGID_12_" gradientUnits="userSpaceOnUse" x1="16289.709" y1="51.7895" x2="16239.7363" y2="99.9934" gradientTransform="matrix(-1 0 0 1 16453.5723 0)">
				<stop  offset="0" style="stop-color:#4F52FF"/>
				<stop  offset="1" style="stop-color:#4042E2"/>
			</linearGradient>
			<path class="st13" d="M171.2,68.5c0,0-4-3.8-5.9-6.3c-1.1-1.4-1.4-3.1-0.9-4.8c0.9-3,2.5-6.1,2.6-6.6c0.2-0.7,4.7-0.7,4.7-0.7
				s8.8,5.7,12.2,15.3l-3.9,1.2c0,0-2.3-3.8-4.5-6.3c0,0,3.9,5.2,4,7.3L171.2,68.5z"/>
			
				<linearGradient id="SVGID_13_" gradientUnits="userSpaceOnUse" x1="-11374.3389" y1="67.9218" x2="-11353.2227" y2="67.9218" gradientTransform="matrix(1 0 0 1 11551.1094 0)">
				<stop  offset="0" style="stop-color:#FEBBBA"/>
				<stop  offset="1" style="stop-color:#FF928E"/>
			</linearGradient>
			<path class="st14" d="M163.6,70l3-3.2l3.4,0.9c0,0,4,0.6,6.3,0c2.3-0.6,2.3-0.6,2.3-0.6l5.2-1.6l0.8,2.3c0.2,0.6,0,1.2-0.5,1.6
				c-0.4,0.3-1,0.7-1.3,0.8c-0.7,0.3-15.7,0.1-15.7,0.1L163.6,70z"/>
			<linearGradient id="SVGID_14_" gradientUnits="userSpaceOnUse" x1="175.5807" y1="57.3401" x2="165.9952" y2="44.8914">
				<stop  offset="0" style="stop-color:#FEBBBA"/>
				<stop  offset="1" style="stop-color:#FF928E"/>
			</linearGradient>
			<path class="st15" d="M168.6,44.8l3,5.6c-0.2,1.2-3.3,1.2-3.7,0.5c0-0.1-0.1-0.2-0.1-0.2L166,47c-0.1-0.4,0.9-1.6,1.2-1.8
				l1.2-0.6C168.9,44.3,166.9,44.3,168.6,44.8z"/>
			<g>
				
					<linearGradient id="SVGID_15_" gradientUnits="userSpaceOnUse" x1="-11722.3564" y1="-5849.5801" x2="-11712.6367" y2="-5866.8774" gradientTransform="matrix(0.5458 -0.8379 0.8379 0.5458 11468.3193 -6578.0679)">
					<stop  offset="0" style="stop-color:#FEBBBA"/>
					<stop  offset="1" style="stop-color:#FF928E"/>
				</linearGradient>
				<path class="st16" d="M162.5,43.5c0,0-0.3,1.9,1.1,4.3c1.5,2.4,2.9,2.3,3.7,1.4c0.7-0.9,1.6-2.3,1.2-4.7
					C168.2,42.2,163,41.1,162.5,43.5z"/>
				
					<linearGradient id="SVGID_16_" gradientUnits="userSpaceOnUse" x1="-11720.2656" y1="-5864.6436" x2="-11715.4062" y2="-5852.4531" gradientTransform="matrix(0.5458 -0.8379 0.8379 0.5458 11468.3193 -6578.0679)">
					<stop  offset="0" style="stop-color:#09005D"/>
					<stop  offset="1" style="stop-color:#1A0F91"/>
				</linearGradient>
				<path class="st17" d="M166.8,44.8c0,0-2.4-3.1-4.2-0.4l0,0.9c0,0-2.4-0.1-2.1-2.3c0.3-2.2,2.2-3.7,4.9-3
					c2.7,0.8,4.3,1.6,4.6,3.5c0.3,1.9-1.2,1.6-1.2,1.6s-0.6-1.3-1.3-1.4c-0.7-0.1-0.5,0.9-0.5,0.9L166.8,44.8z"/>
				
					<linearGradient id="SVGID_17_" gradientUnits="userSpaceOnUse" x1="-11720.2871" y1="-5848.418" x2="-11710.5674" y2="-5865.7148" gradientTransform="matrix(0.5458 -0.8379 0.8379 0.5458 11468.3193 -6578.0679)">
					<stop  offset="0" style="stop-color:#FEBBBA"/>
					<stop  offset="1" style="stop-color:#FF928E"/>
				</linearGradient>
				<path class="st18" d="M167.4,44.7c0,0-1.2-1.6-0.1-1.9c1.1-0.3,1.1,1.6,1,2.3L167.4,44.7z"/>
			</g>
		</g>
		<g>
			
				<linearGradient id="SVGID_18_" gradientUnits="userSpaceOnUse" x1="-11413.7598" y1="-487.3575" x2="-11415.2529" y2="-466.6926" gradientTransform="matrix(0.9988 -4.940000e-02 4.940000e-02 0.9988 11593.8457 -143.431)">
				<stop  offset="0" style="stop-color:#FF928E"/>
				<stop  offset="1" style="stop-color:#FE7062"/>
			</linearGradient>
			<path class="st19" d="M173.5,71.3C173.5,71.3,173.5,71.3,173.5,71.3l-13.7,0c-0.3,0-0.6-0.3-0.6-0.6c0-0.3,0.3-0.6,0.6-0.6
				l13.7,0c0.3,0,0.6,0.3,0.6,0.6C174.1,71,173.8,71.3,173.5,71.3z"/>
			<linearGradient id="SVGID_19_" gradientUnits="userSpaceOnUse" x1="157.8453" y1="43.9421" x2="156.3515" y2="64.607">
				<stop  offset="0" style="stop-color:#FF928E"/>
				<stop  offset="1" style="stop-color:#FE7062"/>
			</linearGradient>
			<path class="st20" d="M147.4,58.9h11.4c0.8,0,1.6,0.5,2,1.2l5.3,11.2h-14.2c-0.5,0-1-0.3-1.2-0.8l-4.1-10.4
				C146.3,59.5,146.8,58.9,147.4,58.9z"/>
			<linearGradient id="SVGID_20_" gradientUnits="userSpaceOnUse" x1="156.4026" y1="47.5681" x2="154.2863" y2="67.8595">
				<stop  offset="0" style="stop-color:#FEBBBA"/>
				<stop  offset="1" style="stop-color:#FF928E"/>
			</linearGradient>
			<path class="st21" d="M155.5,64.6c0.2,0.8,0.1,1.5-0.4,1.7c-0.5,0.2-1.1-0.3-1.3-1.1c-0.2-0.8-0.1-1.5,0.4-1.7
				C154.6,63.3,155.2,63.8,155.5,64.6z"/>
		</g>
	</g>
</g>
<g>
	<g>
		<path class="st3" d="M91.8,185.2c0.1,0,0.1,0,0.2,0c0.9-0.1,1.5-0.9,1.4-1.8L83.3,95.3c-0.1-0.9-0.9-1.5-1.8-1.4
			c-0.9,0.1-1.5,0.9-1.4,1.8l10.1,88.1C90.3,184.6,91,185.2,91.8,185.2z"/>
		<path class="st3" d="M36.2,185.2c0.7,0,1.4-0.5,1.6-1.3l19.8-88.1c0.2-0.9-0.4-1.7-1.2-1.9c-0.9-0.2-1.7,0.4-1.9,1.2l-19.8,88.1
			c-0.2,0.9,0.4,1.7,1.2,1.9C35.9,185.2,36.1,185.2,36.2,185.2z"/>
		<path class="st3" d="M69.5,185.2c0.9,0,1.6-0.7,1.6-1.6v-43.5c0-0.9-0.7-1.6-1.6-1.6c-0.9,0-1.6,0.7-1.6,1.6v43.5
			C67.9,184.5,68.6,185.2,69.5,185.2z"/>
		
			<linearGradient id="SVGID_21_" gradientUnits="userSpaceOnUse" x1="-6726.5278" y1="65.5922" x2="-6830.9414" y2="209.1108" gradientTransform="matrix(-1 0 0 1 -6699.9062 0)">
			<stop  offset="0" style="stop-color:#4F52FF"/>
			<stop  offset="1" style="stop-color:#4042E2"/>
		</linearGradient>
		<path class="st22" d="M101.8,85.7l-5.7,71.4c-0.1,1.5-1.4,2.7-2.9,2.6L34,158.3c-1.7,0-3-1.6-2.7-3.3l11.3-71.2
			c0.2-1.4,1.5-2.4,2.9-2.4L99,82.6C100.7,82.6,101.9,84,101.8,85.7z"/>
		<path class="st23" d="M96.9,84.6l-49.7-1.1c-1.4,0-2.7,1-2.9,2.4L33.6,153c-0.3,1.7,1,3.3,2.7,3.3l55,1.3c1.5,0,2.8-1.1,2.9-2.6
			l5.3-67.4C99.8,86,98.5,84.6,96.9,84.6z"/>
		<path class="st3" d="M70.1,91.4l25,1.4c0.3,0,0.5,0.2,0.4,0.5l0,0.4c0,0.2-0.2,0.4-0.5,0.4l-25-1.8c-0.3,0-0.4-0.2-0.4-0.5
			C69.6,91.6,69.8,91.4,70.1,91.4z"/>
		<path class="st3" d="M69.4,93.9l0,0.2c0,0.3,0.2,0.5,0.4,0.5l25,2.1c0.3,0,0.5-0.2,0.5-0.4l0-0.2c0-0.3-0.2-0.5-0.4-0.5l-25-2.1
			C69.6,93.5,69.4,93.7,69.4,93.9z"/>
		<path class="st3" d="M76.8,96.8L76.8,96.8c0,0.3,0.2,0.5,0.4,0.6l17.4,1.5c0.3,0,0.5-0.2,0.5-0.4l0-0.4c0-0.3-0.2-0.5-0.4-0.5
			l-17.4-1.2C77,96.4,76.8,96.6,76.8,96.8z"/>
		<g>
			<path class="st3" d="M88.4,112.8c-0.1,0-0.2,0-0.3-0.1l-7.6-7.4l-8.6,5.2c-0.2,0.1-0.5,0.1-0.6-0.1L61.2,95.8
				c-1.9,1.4-10.3,7.6-11.5,8.4c-0.2,0.1-0.5,0.1-0.6-0.1c-0.1-0.2-0.1-0.5,0.1-0.6c1.3-1,11.9-8.7,11.9-8.7
				c0.1-0.1,0.2-0.1,0.3-0.1c0.1,0,0.2,0.1,0.3,0.2l10.1,14.6l8.5-5.2c0.2-0.1,0.4-0.1,0.5,0.1l7.6,7.4l4.6-3.4
				c0.2-0.1,0.5-0.1,0.6,0.1c0.1,0.2,0.1,0.5-0.1,0.6l-5,3.6C88.6,112.7,88.5,112.8,88.4,112.8z"/>
			<path class="st3" d="M59.6,116.8C59.6,116.8,59.5,116.8,59.6,116.8c-0.2,0-0.3-0.2-0.3-0.3l0.1-0.9c0-0.2,0.2-0.3,0.3-0.3
				c0.2,0,0.3,0.2,0.3,0.3l-0.1,0.9C59.8,116.7,59.7,116.8,59.6,116.8z M59.8,113.9C59.8,113.9,59.8,113.9,59.8,113.9
				c-0.2,0-0.3-0.2-0.3-0.3l0.1-0.9c0-0.2,0.2-0.3,0.3-0.3c0.2,0,0.3,0.2,0.3,0.3l-0.1,0.9C60.1,113.7,60,113.9,59.8,113.9z
				 M60.1,110.9C60.1,110.9,60.1,110.9,60.1,110.9c-0.2,0-0.3-0.2-0.3-0.3l0.1-0.9c0-0.2,0.2-0.3,0.3-0.3c0.2,0,0.3,0.2,0.3,0.3
				l-0.1,0.9C60.4,110.8,60.2,110.9,60.1,110.9z M60.3,108C60.3,108,60.3,108,60.3,108c-0.2,0-0.3-0.2-0.3-0.3l0.1-0.9
				c0-0.2,0.2-0.3,0.3-0.3c0.2,0,0.3,0.2,0.3,0.3l-0.1,0.9C60.6,107.8,60.5,108,60.3,108z M60.6,105C60.6,105,60.6,105,60.6,105
				c-0.2,0-0.3-0.2-0.3-0.3l0.1-0.9c0-0.2,0.2-0.3,0.3-0.3c0.2,0,0.3,0.2,0.3,0.3l-0.1,0.9C60.9,104.9,60.8,105,60.6,105z
				 M60.9,102.1C60.9,102.1,60.9,102.1,60.9,102.1c-0.2,0-0.3-0.2-0.3-0.3l0.1-0.9c0-0.2,0.2-0.3,0.3-0.3c0.2,0,0.3,0.2,0.3,0.3
				l-0.1,0.9C61.1,101.9,61,102.1,60.9,102.1z M61.1,99.1C61.1,99.1,61.1,99.1,61.1,99.1c-0.2,0-0.3-0.2-0.3-0.3l0.1-0.9
				c0-0.2,0.2-0.3,0.3-0.3c0.2,0,0.3,0.2,0.3,0.3l-0.1,0.9C61.4,99,61.3,99.1,61.1,99.1z"/>
			<path class="st3" d="M71,117.9C71,117.9,70.9,117.9,71,117.9c-0.2,0-0.3-0.2-0.3-0.3l0.1-0.9c0-0.2,0.2-0.3,0.3-0.3
				c0.2,0,0.3,0.2,0.3,0.3l-0.1,0.9C71.2,117.8,71.1,117.9,71,117.9z M71.2,115C71.2,115,71.2,115,71.2,115c-0.2,0-0.3-0.2-0.3-0.3
				l0.1-0.9c0-0.2,0.2-0.3,0.3-0.3c0.2,0,0.3,0.2,0.3,0.3l-0.1,0.9C71.5,114.9,71.4,115,71.2,115z M71.5,112
				C71.5,112,71.5,112,71.5,112c-0.2,0-0.3-0.2-0.3-0.3l0.1-0.9c0-0.2,0.2-0.3,0.3-0.3c0.2,0,0.3,0.2,0.3,0.3l-0.1,0.9
				C71.8,111.9,71.6,112,71.5,112z"/>
			<path class="st3" d="M79.6,119C79.6,119,79.6,119,79.6,119c-0.2,0-0.3-0.1-0.3-0.3l0.1-0.9c0-0.2,0.1-0.3,0.3-0.3
				c0.2,0,0.3,0.1,0.3,0.3l-0.1,0.9C79.9,118.9,79.7,119,79.6,119z M79.7,116.1C79.7,116.1,79.7,116.1,79.7,116.1
				c-0.2,0-0.3-0.1-0.3-0.3l0.1-0.9c0-0.2,0.1-0.3,0.3-0.3c0.2,0,0.3,0.1,0.3,0.3l-0.1,0.9C80,116,79.9,116.1,79.7,116.1z
				 M79.9,113.1C79.9,113.1,79.9,113.1,79.9,113.1c-0.2,0-0.3-0.1-0.3-0.3l0.1-0.9c0-0.2,0.1-0.3,0.3-0.3c0.2,0,0.3,0.1,0.3,0.3
				l-0.1,0.9C80.2,113,80.1,113.1,79.9,113.1z M80.1,110.2C80.1,110.2,80.1,110.2,80.1,110.2c-0.2,0-0.3-0.1-0.3-0.3l0.1-0.9
				c0-0.2,0.1-0.3,0.3-0.3c0.2,0,0.3,0.1,0.3,0.3l-0.1,0.9C80.4,110.1,80.2,110.2,80.1,110.2z M80.2,107.2
				C80.2,107.2,80.2,107.2,80.2,107.2c-0.2,0-0.3-0.1-0.3-0.3L80,106c0-0.2,0.1-0.3,0.3-0.3c0.2,0,0.3,0.1,0.3,0.3l-0.1,0.9
				C80.5,107.1,80.4,107.2,80.2,107.2z"/>
			<path class="st3" d="M87.9,120C87.8,120,87.8,120,87.9,120c-0.2,0-0.3-0.2-0.3-0.3l0.1-0.9c0-0.2,0.2-0.3,0.3-0.3
				c0.2,0,0.3,0.2,0.3,0.3l-0.1,0.9C88.1,119.8,88,120,87.9,120z M88.1,117C88.1,117,88.1,117,88.1,117c-0.2,0-0.3-0.2-0.3-0.3
				l0.1-0.9c0-0.2,0.2-0.3,0.3-0.3c0.2,0,0.3,0.2,0.3,0.3l-0.1,0.9C88.4,116.9,88.3,117,88.1,117z M88.4,114.1
				C88.4,114.1,88.4,114.1,88.4,114.1c-0.2,0-0.3-0.2-0.3-0.3l0.1-0.9c0-0.2,0.2-0.3,0.3-0.3c0.2,0,0.3,0.2,0.3,0.3l-0.1,0.9
				C88.7,113.9,88.5,114.1,88.4,114.1z"/>
			<g>
				<path class="st3" d="M47.1,119C47.1,119,47.1,119,47.1,119c-0.3,0-0.5-0.2-0.4-0.5l2.7-26.7c0-0.2,0.2-0.4,0.5-0.4
					c0.2,0,0.4,0.2,0.4,0.5l-2.7,26.7C47.5,118.8,47.4,119,47.1,119z"/>
				<g>
					<polygon class="st3" points="48.1,93.4 49.8,92.1 51.1,93.7 51.3,92.4 49.9,90.8 48.3,92.1 					"/>
				</g>
			</g>
			<g>
				<path class="st3" d="M93.1,121.7C93,121.7,93,121.7,93.1,121.7l-47.6-4.2c-0.2,0-0.4-0.2-0.4-0.5c0-0.2,0.2-0.4,0.5-0.4
					l47.6,4.2c0.2,0,0.4,0.2,0.4,0.5C93.5,121.5,93.3,121.7,93.1,121.7z"/>
				<g>
					<polygon class="st3" points="91.2,122.6 92.8,121.2 91.4,119.6 92.7,119.7 94.1,121.4 92.4,122.7 					"/>
				</g>
			</g>
		</g>
	</g>
	<g>
		
			<linearGradient id="SVGID_22_" gradientUnits="userSpaceOnUse" x1="6158.8862" y1="182.742" x2="6164.8193" y2="182.742" gradientTransform="matrix(1 0 0 1 -6108.8896 0)">
			<stop  offset="0" style="stop-color:#09005D"/>
			<stop  offset="1" style="stop-color:#1A0F91"/>
		</linearGradient>
		<path class="st24" d="M55.9,184.9c0,0,0-0.1,0-0.1c-0.7-2.6-4-4.3-4-4.3l-1.3,0.1c-0.8,2.3-0.7,3.8-0.5,4.4c0,0,0,0,0,0.1
			C51.2,185.1,53.4,185.1,55.9,184.9z"/>
		
			<linearGradient id="SVGID_23_" gradientUnits="userSpaceOnUse" x1="6173.7397" y1="175.7426" x2="6152.1548" y2="192.6912" gradientTransform="matrix(1 0 0 1 -6108.8896 0)">
			<stop  offset="0" style="stop-color:#4F52FF"/>
			<stop  offset="1" style="stop-color:#4042E2"/>
		</linearGradient>
		<path class="st25" d="M50.1,185c0.1,0.2,0.2,0.4,0.4,0.4c1.5,0.3,4,0.1,5-0.1c0.2,0,0.4-0.2,0.4-0.5
			C53.4,185.1,51.2,185.1,50.1,185z"/>
		<g>
			
				<linearGradient id="SVGID_24_" gradientUnits="userSpaceOnUse" x1="6203.0449" y1="77.6211" x2="6180.1719" y2="101.3183" gradientTransform="matrix(1 0 0 1 -6108.8896 0)">
				<stop  offset="0" style="stop-color:#E1473D"/>
				<stop  offset="1" style="stop-color:#E9605A"/>
			</linearGradient>
			<path class="st26" d="M69.2,99.5l8.7-3.1l0.7,1.4l-8.3,3.1C70.3,100.9,69.1,100.8,69.2,99.5z"/>
			
				<linearGradient id="SVGID_25_" gradientUnits="userSpaceOnUse" x1="6191.4844" y1="92.3788" x2="6180.1509" y2="105.3607" gradientTransform="matrix(1 0 0 1 -6108.8896 0)">
				<stop  offset="0" style="stop-color:#FEBBBA"/>
				<stop  offset="1" style="stop-color:#FF928E"/>
			</linearGradient>
			<path class="st27" d="M77.9,96.3c-0.3,0.8,0.7,1.4,0.7,1.4l1.6-1.1C80.1,96.4,80,96.2,80,96L77.9,96.3z"/>
			
				<linearGradient id="SVGID_26_" gradientUnits="userSpaceOnUse" x1="6194.9541" y1="88.8811" x2="6188.978" y2="96.6084" gradientTransform="matrix(1 0 0 1 -6108.8896 0)">
				<stop  offset="0" style="stop-color:#09005D"/>
				<stop  offset="1" style="stop-color:#1A0F91"/>
			</linearGradient>
			<path class="st28" d="M80,96c0,0.2,0.1,0.4,0.2,0.6l1.2-0.8L80,96z"/>
		</g>
		
			<linearGradient id="SVGID_27_" gradientUnits="userSpaceOnUse" x1="6150.9302" y1="142.0338" x2="6158.8428" y2="142.0338" gradientTransform="matrix(1 0 0 1 -6108.8896 0)">
			<stop  offset="0" style="stop-color:#FEBBBA"/>
			<stop  offset="1" style="stop-color:#FF928E"/>
		</linearGradient>
		<path class="st29" d="M44.9,138c-0.8,0.9-2,1.6-2.8,2.1c1.3,1.6,3,3.1,5.2,4.6l0.6,1.4l2.1-2.5C50,143.6,46.3,141.8,44.9,138z"/>
		
			<linearGradient id="SVGID_28_" gradientUnits="userSpaceOnUse" x1="6160.5361" y1="175.9874" x2="6159.4028" y2="185.8784" gradientTransform="matrix(1 0 0 1 -6108.8896 0)">
			<stop  offset="0" style="stop-color:#FEBBBA"/>
			<stop  offset="1" style="stop-color:#FF928E"/>
		</linearGradient>
		<path class="st30" d="M50.1,178.6l0.6,2.7c0,0.2,0.2,0.3,0.4,0.4c0.2,0,0.5,0,0.9,0c0.3,0,0.5-0.3,0.4-0.6l-0.4-2.4H50.1z"/>
		
			<linearGradient id="SVGID_29_" gradientUnits="userSpaceOnUse" x1="6177.5742" y1="180.626" x2="6155.9893" y2="197.5746" gradientTransform="matrix(1 0 0 1 -6108.8896 0)">
			<stop  offset="0" style="stop-color:#4F52FF"/>
			<stop  offset="1" style="stop-color:#4042E2"/>
		</linearGradient>
		<path class="st31" d="M61.6,185c-1.5,0-2.2-0.2-2.6-0.4c0,0.1,0,0.3,0,0.4c0,0.2,0.1,0.3,0.3,0.3l8-0.1c0.3,0,0.4-0.3,0.3-0.5
			C66.5,184.8,63.9,185,61.6,185z"/>
		
			<linearGradient id="SVGID_30_" gradientUnits="userSpaceOnUse" x1="6167.9209" y1="182.8998" x2="6176.4614" y2="182.8998" gradientTransform="matrix(1 0 0 1 -6108.8896 0)">
			<stop  offset="0" style="stop-color:#09005D"/>
			<stop  offset="1" style="stop-color:#1A0F91"/>
		</linearGradient>
		<path class="st32" d="M67.6,184.7C67.6,184.7,67.6,184.7,67.6,184.7c-0.7-1-2.5-3-6.1-3.9l-1.7-0.1c0,0-0.8,1.3-0.8,3.8
			c0.4,0.2,1.1,0.3,2.6,0.4C63.9,185,66.5,184.8,67.6,184.7z"/>
		
			<linearGradient id="SVGID_31_" gradientUnits="userSpaceOnUse" x1="6169.7681" y1="177.0452" x2="6168.6348" y2="186.9362" gradientTransform="matrix(1 0 0 1 -6108.8896 0)">
			<stop  offset="0" style="stop-color:#FEBBBA"/>
			<stop  offset="1" style="stop-color:#FF928E"/>
		</linearGradient>
		<path class="st33" d="M59.5,178.3c0,0.1,0.3,2.1,0.3,2.8c0,0.2,0.1,0.3,0.3,0.3c0.3,0,0.8,0.1,1.2,0c0.2,0,0.4-0.3,0.4-0.5v-3
			L59.5,178.3z"/>
		
			<linearGradient id="SVGID_32_" gradientUnits="userSpaceOnUse" x1="6183.2339" y1="131.8156" x2="6146.9858" y2="188.0629" gradientTransform="matrix(1 0 0 1 -6108.8896 0)">
			<stop  offset="0" style="stop-color:#09005D"/>
			<stop  offset="1" style="stop-color:#1A0F91"/>
		</linearGradient>
		<path class="st34" d="M58.1,143.1c0,0,4.1,15.6,4,35.2c0,0.4-0.3,0.7-0.6,0.7c-0.5,0.1-1.3,0.2-1.9,0.2c-0.3,0-0.6-0.3-0.7-0.6
			c-0.6-3.4-3.9-22.4-5.8-25.4c0,0-1.2,16.9-0.8,25.7c0,0.2-0.1,0.4-0.4,0.4c-0.3,0-0.9,0.1-1.5,0c-0.3,0-0.5-0.2-0.5-0.5
			c-0.4-2.9-2.8-19.8-2.7-32.1c0-0.7,1.8-3.7,1.8-3.7H58.1z"/>
		<linearGradient id="SVGID_33_" gradientUnits="userSpaceOnUse" x1="64.5662" y1="98.3405" x2="52.7734" y2="133.9838">
			<stop  offset="0" style="stop-color:#4F52FF"/>
			<stop  offset="1" style="stop-color:#4042E2"/>
		</linearGradient>
		<path class="st35" d="M71.5,109.6c-1.8,3.3-4.8,6.8-9.6,7.7c-4.5,0.8-12.5,1.9-15.8,2.3c-1,0.1-1.9,0.6-2.5,1.3
			c-2.5,2.9-8.1,11-1.6,19.1c0.8-0.5,2-1.2,2.8-2.1c-0.7-2-0.8-4.7,0.7-7.9c0.1,0.3,0.1,0.5,0.2,0.8c2.1,6.7,2.2,12.2,2.2,13.5
			c0,0.2,0.1,0.3,0.3,0.4c2.8,1.1,8.1,0.4,9.9,0.2c0.3,0,0.5-0.4,0.5-0.7c-0.9-6.4,3.6-16.8,4.8-19.4c0.2-0.4,0.5-0.7,0.9-0.9
			c6.8-3.1,9.7-7.8,10.9-12.1C74.3,110.5,72.6,109.8,71.5,109.6z"/>
		
			<linearGradient id="SVGID_34_" gradientUnits="userSpaceOnUse" x1="6031.1118" y1="504.1072" x2="6025.4146" y2="518.9476" gradientTransform="matrix(1 0 0 1 -6108.8896 0)">
			<stop  offset="0" style="stop-color:#FEBBBA"/>
			<stop  offset="1" style="stop-color:#FF928E"/>
		</linearGradient>
		<path class="st36" d="M75.3,111.8c1.5-5.2,0.3-9.6,0.3-9.6h-1.5c0,0-0.5,3.6-2.5,7.4C72.6,109.8,74.3,110.5,75.3,111.8z"/>
		
			<linearGradient id="SVGID_35_" gradientUnits="userSpaceOnUse" x1="6028.5391" y1="503.1196" x2="6022.8418" y2="517.9599" gradientTransform="matrix(1 0 0 1 -6108.8896 0)">
			<stop  offset="0" style="stop-color:#FEBBBA"/>
			<stop  offset="1" style="stop-color:#FF928E"/>
		</linearGradient>
		<path class="st37" d="M74.6,103c0,0-2.4-3.1-1.6-4.6c0.8-1.6,3.4-1.4,3.4-1.4l0.4,1.2c0.1,0.3,0.1,0.7,0,1l-1.5,3.8H74.6z"/>
		
			<linearGradient id="SVGID_36_" gradientUnits="userSpaceOnUse" x1="6163.04" y1="111.9947" x2="6158.7129" y2="130.6948" gradientTransform="matrix(1 0 0 1 -6108.8896 0)">
			<stop  offset="0" style="stop-color:#FEBBBA"/>
			<stop  offset="1" style="stop-color:#FF928E"/>
		</linearGradient>
		<path class="st38" d="M50.9,113.5l-0.5,5.4c0,0,3.1,0.9,5.3-0.6l-1.6-4.9L50.9,113.5z"/>
		<g>
			
				<linearGradient id="SVGID_37_" gradientUnits="userSpaceOnUse" x1="2357.7837" y1="3396.394" x2="2350.1064" y2="3406.5503" gradientTransform="matrix(0.6854 -0.7281 0.7281 0.6854 -4035.5063 -502.8116)">
				<stop  offset="0" style="stop-color:#FEBBBA"/>
				<stop  offset="1" style="stop-color:#FF928E"/>
			</linearGradient>
			<path class="st39" d="M54.4,107.2c0.1,0.1,3.1,6,3.1,6l-3.4,1.7l-3.7-5.2C50.4,109.7,53.2,106.1,54.4,107.2z"/>
			
				<linearGradient id="SVGID_38_" gradientUnits="userSpaceOnUse" x1="2351.9207" y1="3398.833" x2="2361.0911" y2="3398.833" gradientTransform="matrix(0.6854 -0.7281 0.7281 0.6854 -4035.5063 -502.8116)">
				<stop  offset="0" style="stop-color:#09005D"/>
				<stop  offset="1" style="stop-color:#1A0F91"/>
			</linearGradient>
			<path class="st40" d="M51.9,109.9c-0.1,0.2,0,0.3,0,0.5l1.7,2.9c0,0,0.1,0.1,0.1,0.1c0.2,0.2,0.9,0.7,1.4,0
				c0.5-0.6,0.9-1.2,1.4-1.5c0.3-0.1,0.6,0,0.7,0.2c0.3,0.6,0.8,1.7,1.2,2.8c0.1,0.3-0.1,0.6-0.3,0.7c-0.7,0.3-2.1,0.8-3.3,1
				c-0.2,0-0.4-0.1-0.5-0.2c-0.5-0.7-2-2.7-2.5-3.2c-0.5-0.5-1.3-0.3-1.7-0.2c-0.1,0-0.3,0-0.4-0.1c-0.4-0.2-1.1-0.8-0.5-1.8
				c0.2-0.3,0.1-0.6-0.2-0.7c-0.4-0.3-0.9-0.8-0.5-1.7c0.5-0.9,1.3-1,1.9-0.9c0.2,0,0.5-0.1,0.6-0.3c0-0.1,0.1-0.2,0.3-0.2
				c0.3-0.1,0.5-0.3,0.4-0.6c-0.1-0.5,0-1.2,0.8-1.6c1.5-0.8,2.8,0.5,3.1,1.6c0.3,1.1-1.3,1.9-2.4,2
				C52.5,108.6,52.1,109.4,51.9,109.9z"/>
			
				<linearGradient id="SVGID_39_" gradientUnits="userSpaceOnUse" x1="2346.5396" y1="3404.437" x2="2352.6975" y2="3398.1194" gradientTransform="matrix(0.6854 -0.7281 0.7281 0.6854 -4035.5063 -502.8116)">
				<stop  offset="0" style="stop-color:#FEBBBA"/>
				<stop  offset="1" style="stop-color:#FF928E"/>
			</linearGradient>
			<path class="st41" d="M52.5,114.1c0,0-0.7-1.9-1.5-1.9c-0.8,0.1-1.5,0.9-0.5,1.9C51.8,115.3,52.5,114.1,52.5,114.1z"/>
		</g>
		<linearGradient id="SVGID_40_" gradientUnits="userSpaceOnUse" x1="47.6497" y1="124.6133" x2="91.7708" y2="97.7829">
			<stop  offset="0" style="stop-color:#4F52FF"/>
			<stop  offset="1" style="stop-color:#4042E2"/>
		</linearGradient>
		<path class="st42" d="M45.3,129.6c-1.1-3-0.7-6.7-0.7-6.8l0.3,0c0,0-0.4,3.6,0.7,6.6L45.3,129.6z"/>
		
			<linearGradient id="SVGID_41_" gradientUnits="userSpaceOnUse" x1="6162.9053" y1="146.9187" x2="6159.8657" y2="152.3278" gradientTransform="matrix(1 0 0 1 -6108.8896 0)">
			<stop  offset="0" style="stop-color:#09005D"/>
			<stop  offset="1" style="stop-color:#1A0F91"/>
		</linearGradient>
		<path class="st43" d="M53.1,152.8c-0.1,0-0.1,0-0.1-0.1c-0.3-1.3-2.9-2.8-2.9-2.8c-0.1,0-0.1-0.1-0.1-0.2c0-0.1,0.1-0.1,0.2-0.1
			c0.1,0.1,2.7,1.5,3.1,3C53.2,152.7,53.2,152.8,53.1,152.8C53.1,152.8,53.1,152.8,53.1,152.8z"/>
	</g>
</g>
</svg>
