<?xml version="1.0" encoding="utf-8"?>
<!-- Generator: Adobe Illustrator 24.1.0, SVG Export Plug-In . SVG Version: 6.00 Build 0)  -->
<svg version="1.1" id="Layer_1" xmlns="http://www.w3.org/2000/svg" xmlns:xlink="http://www.w3.org/1999/xlink" x="0px" y="0px"
	 viewBox="0 0 344.2 309.9" style="enable-background:new 0 0 344.2 309.9;" xml:space="preserve">
<style type="text/css">
	.st0{fill:#72B5E8;}
	.st1{fill:#A8CFF0;}
	.st2{fill:#D1EBFF;}
	.st3{fill:#FFFFFF;}
	.st4{fill:#EB4680;}
	.st5{fill:#D62D69;}
	.st6{opacity:0.7;fill:#FFFFFF;}
	.st7{fill:#3F92D1;}
	.st8{fill:#4F9FDB;}
	.st9{fill:#03336E;}
	.st10{fill:#001A46;}
	.st11{fill:#FFCC00;}
	.st12{fill:#0FBAB8;}
	.st13{fill:#2672AB;}
	.st14{fill:#084C94;}
	.st15{fill:#0BA19F;}
	.st16{fill:#FFDE17;}
	.st17{fill:#3ECFCD;}
	.st18{fill:#FFD70F;}
	.st19{fill:#F76195;}
	.st20{opacity:0.2;fill:#92B4D1;}
</style>
<g>
	<g>
		<g>
			<path class="st0" d="M289.6,177.7c-7.7-4.4-13.9-15.2-13.9-24c0-3.3,0.9-5.8,2.3-7.5c-4.2,0.3-7.1,3.8-7.1,9.8
				c0,8.8,6.2,19.5,13.9,24c4.8,2.8,9,2.4,11.5-0.4C294.4,179.7,292.1,179.2,289.6,177.7z"/>
			<path class="st1" d="M303.1,174.8c0-1.1-0.1-2.2-0.2-3.4l5.6-0.7c-0.6-2.8-1.4-5.7-2.5-8.5l-6.4-1.9c-1.1-2.4-2.5-4.7-4-6.9
				l1.5-6.5c-1.9-2.4-4-4.5-6.1-6.5l-3.4,4.5c-0.9-0.7-1.9-1.3-2.8-1.9c-1-0.6-1.9-1-2.8-1.4l-3.4-8.4c-2.2-0.6-4.2-0.8-6.1-0.6
				l1.5,8.2c-1.5,0.4-2.9,1.2-4,2.3l-6.4-5.5c-1.1,1.5-2,3.4-2.5,5.6l5.6,7.2c-0.1,1-0.2,2-0.2,3.1c0,1.1,0.1,2.2,0.2,3.4l-5.6,0.7
				c0.6,2.8,1.4,5.7,2.5,8.5l6.4,1.9c1.1,2.4,2.5,4.7,4,6.9l-1.5,6.5c1.9,2.4,4,4.5,6.1,6.5l3.4-4.5c0.9,0.7,1.9,1.3,2.8,1.9
				c1,0.6,1.9,1,2.8,1.4l3.4,8.4c2.2,0.6,4.2,0.8,6.1,0.6l-1.5-8.2c1.5-0.4,2.9-1.2,4-2.3l6.4,5.5c1.1-1.5,2-3.4,2.5-5.6l-5.6-7.2
				C303,176.9,303.1,175.9,303.1,174.8z M284.9,180c-7.7-4.4-13.9-15.2-13.9-24c0-8.8,6.2-12.3,13.9-7.9c7.7,4.4,13.9,15.2,13.9,24
				C298.8,180.9,292.6,184.5,284.9,180z"/>
			<polygon class="st0" points="287.3,138.7 283.9,130.2 278.5,133.3 281.9,141.7 			"/>
			<path class="st2" d="M281.9,141.7c0.9,0.4,1.9,0.8,2.8,1.4c1,0.6,1.9,1.2,2.8,1.9l3.4-4.5l0,0c0,0-0.6-0.4-0.9-0.5
				c-1-0.6-1.9-1-2.8-1.4L281.9,141.7z"/>
			<path class="st2" d="M283.9,130.2c-2.2-0.6-4.2-0.8-6.1-0.6l-5.4,3.1c1.9-0.2,4,0,6.1,0.6L283.9,130.2z"/>
			<path class="st2" d="M302.5,143.9c-1.9-2.4-4-4.5-6.1-6.5l-5.4,3.1c2.2,1.9,4.2,4.1,6.1,6.5L302.5,143.9z"/>
			<polygon class="st0" points="297.1,147 295.6,153.5 301,150.4 302.5,143.9 			"/>
			<path class="st0" d="M295.6,153.5c1.5,2.2,2.9,4.5,4,6.9l5.4-3.1c-1.1-2.4-2.5-4.7-4-6.9L295.6,153.5z"/>
			<polygon class="st2" points="299.6,160.3 306,162.3 311.3,159.2 304.9,157.2 			"/>
			<path class="st0" d="M306,162.3c1.1,2.8,2,5.7,2.5,8.5l5.4-3.1c-0.6-2.8-1.4-5.7-2.5-8.5L306,162.3z"/>
			<path class="st0" d="M273.9,140.9l-0.4-2.4l-4.6-3.9l-5.4,3.1l6.4,5.5C271,142.1,272.4,141.3,273.9,140.9z"/>
			<path class="st0" d="M308.5,185.1c-0.6,2.2-1.4,4-2.5,5.6l5.4-3.1c1.1-1.5,2-3.4,2.5-5.6L308.5,185.1z"/>
			<path class="st0" d="M308.3,174.8c0.1-1,0.2-2,0.2-3.1c0-0.3,0-0.7,0-1l-5.6,0.7c0.1,1.1,0.2,2.3,0.2,3.4c0,1.1-0.1,2.1-0.2,3.1
				L308.3,174.8z"/>
			<polygon class="st2" points="302.9,177.9 308.5,185.1 313.9,182 308.3,174.8 			"/>
			<path class="st0" d="M299.6,185.2c-1.1,1.1-2.5,1.9-4,2.3l1.5,8.2l5.4-3.1l-1.1-5.8L299.6,185.2z"/>
			<path class="st2" d="M266.4,154.5l-5.4,3.2l5.6-0.7C266.5,156.1,266.4,155.3,266.4,154.5z"/>
			<path class="st0" d="M281.9,183.4l-3.4,4.5l5.4-3.1C283.2,184.4,282.6,183.9,281.9,183.4z"/>
			<g>
				<path class="st3" d="M273.2,141.3L273.2,141.3c-0.3,0-0.5,0.1-0.8,0.3C272.7,141.5,273,141.4,273.2,141.3z"/>
				<path class="st3" d="M265.9,157l-4.7,0.6c0,0.1,0,0.2,0.1,0.3l4.6-0.6C265.9,157.2,265.9,157.1,265.9,157z"/>
				<path class="st3" d="M296.8,147.3l-1.5,6.5c1.5,2.2,2.9,4.5,4,6.9l6.4,1.9c1.1,2.7,1.9,5.5,2.5,8.2l0.6-0.1
					c-0.6-2.8-1.4-5.7-2.5-8.5l-6.4-1.9c-1.1-2.4-2.5-4.7-4-6.9l1.5-6.5c-1.9-2.4-4-4.5-6.1-6.5l-0.2,0.7
					C293.1,143.1,295,145.1,296.8,147.3z"/>
				<path class="st3" d="M285,179.9c-7.7-4.4-13.9-15.2-13.9-24c0-3.9,1.2-6.7,3.2-8.3c-2.3,1.5-3.8,4.5-3.8,8.7
					c0,8.8,6.2,19.5,13.9,24c3.9,2.2,7.4,2.4,9.9,1c-0.2,0.1-0.4,0.1-0.6,0.1C291.3,182.3,288.3,181.9,285,179.9z"/>
				<path class="st3" d="M296.6,187.2c0.9-0.3,1.8-0.8,2.5-1.4l-0.2-0.2C298.2,186.3,297.5,186.8,296.6,187.2z"/>
				<path class="st3" d="M269.7,143.3c-0.2,0,0-0.2,0.2-0.4l-6.2-5.2c-0.2,0.2-0.3,0.5,0,0.5L269.7,143.3z"/>
				<path class="st3" d="M295.4,187.9l1.5,7.9c-0.2,0,0.2,0,0.5,0l-1.5-8.1C295.6,187.7,295.3,187.8,295.4,187.9z"/>
				<path class="st3" d="M303.4,174.8c0-1-0.1-2-0.2-3.1l-0.6,0c0.1,1.1,0.2,2.3,0.2,3.4c0,1.1-0.1,2.1-0.2,3.1l5.6,7.2
					c-0.5,1.8-1.2,3.4-2,4.8l0,0.4c1.1-1.5,2-3.4,2.5-5.6l-5.6-7.2C303.3,176.9,303.4,175.9,303.4,174.8z"/>
				<path class="st3" d="M278.2,133.5l3.4,8.4c0.9,0.4,1.9,0.8,2.8,1.4c1,0.6,1.9,1.2,2.8,1.9l0.1-0.5c-0.8-0.6-1.6-1.1-2.4-1.6
					c-1-0.6-1.9-1-2.8-1.4l-3.4-8.4c-2.2-0.6-4.2-0.8-6.1-0.6l0.1,0.4C274.3,133,276.4,133,278.2,133.5z"/>
				<path class="st3" d="M281.3,183.8l-2.9,3.7c0.1,0.1,0.2,0.2,0.4,0.3l2.9-3.8C281.5,184,281.4,183.9,281.3,183.8z"/>
			</g>
		</g>
		<g>
			<path class="st0" d="M287.6,111.7c-11.5-6.7-20.9-22.8-20.9-36c0-4.9,1.3-8.7,3.5-11.2c-6.3,0.5-10.6,5.8-10.6,14.7
				c0,13.2,9.4,29.4,20.9,36c7.2,4.2,13.6,3.6,17.4-0.7C294.9,114.7,291.4,113.8,287.6,111.7z"/>
			<path class="st1" d="M307.9,107.3c0-1.7-0.1-3.4-0.4-5.1l8.4-1.1c-0.9-4.3-2.2-8.5-3.8-12.8l-9.6-2.9c-1.7-3.6-3.7-7.1-6-10.3
				l2.3-9.7c-2.9-3.6-5.9-6.8-9.2-9.7l-5.2,6.7c-1.4-1-2.8-2-4.2-2.9c-1.4-0.8-2.8-1.5-4.2-2l-5.2-12.7c-3.3-0.9-6.4-1.2-9.2-0.9
				l2.3,12.4c-2.3,0.6-4.3,1.8-6,3.4l-9.6-8.2c-1.7,2.3-3,5.1-3.8,8.4l8.4,10.8c-0.2,1.5-0.4,3-0.4,4.7c0,1.7,0.1,3.4,0.4,5.1
				l-8.4,1.1c0.9,4.3,2.2,8.5,3.8,12.8l9.6,2.9c1.7,3.6,3.7,7.1,6,10.3l-2.3,9.7c2.9,3.6,5.9,6.8,9.2,9.7l5.2-6.7
				c1.4,1,2.8,2,4.2,2.9c1.4,0.8,2.8,1.5,4.2,2l5.2,12.7c3.3,0.9,6.4,1.2,9.2,0.9l-2.3-12.4c2.3-0.6,4.3-1.8,6-3.4l9.6,8.2
				c1.7-2.3,3-5.1,3.8-8.4l-8.4-10.8C307.8,110.5,307.9,109,307.9,107.3z M280.5,115.2c-11.5-6.7-20.9-22.8-20.9-36
				s9.4-18.6,20.9-11.9c11.5,6.7,20.9,22.8,20.9,36S292.1,121.8,280.5,115.2z"/>
			<polygon class="st0" points="284.1,52.9 278.9,40.2 270.9,44.9 276,57.6 			"/>
			<path class="st2" d="M276,57.6c1.4,0.6,2.8,1.2,4.2,2s2.8,1.8,4.2,2.9l5.2-6.7l0,0c0,0-0.9-0.5-1.3-0.8c-1.4-0.8-2.8-1.5-4.2-2
				L276,57.6z"/>
			<path class="st2" d="M278.9,40.2c-3.3-0.9-6.4-1.2-9.2-0.9l-8.1,4.6c2.9-0.3,5.9,0,9.2,0.9L278.9,40.2z"/>
			<path class="st2" d="M307,60.8c-2.9-3.6-5.9-6.8-9.2-9.7l-8.1,4.6c3.3,2.9,6.4,6.2,9.2,9.7L307,60.8z"/>
			<polygon class="st0" points="298.9,65.5 296.6,75.2 304.7,70.5 307,60.8 			"/>
			<path class="st0" d="M296.6,75.2c2.3,3.2,4.3,6.7,6,10.3l8.1-4.6c-1.7-3.6-3.7-7.1-6-10.3L296.6,75.2z"/>
			<polygon class="st2" points="302.6,85.5 312.2,88.4 320.3,83.8 310.7,80.8 			"/>
			<path class="st0" d="M312.2,88.4c1.7,4.2,3,8.5,3.8,12.8l8.1-4.6c-0.9-4.3-2.2-8.5-3.8-12.8L312.2,88.4z"/>
			<path class="st0" d="M263.9,56.3l-0.7-3.6l-6.8-5.8l-8.1,4.6l9.6,8.2C259.6,58.1,261.7,56.9,263.9,56.3z"/>
			<path class="st0" d="M316,122.8c-0.9,3.3-2.2,6.1-3.8,8.4l8.1-4.6c1.7-2.3,3-5.1,3.8-8.4L316,122.8z"/>
			<path class="st0" d="M315.7,107.3c0.2-1.5,0.4-3,0.4-4.7c0-0.5,0-1-0.1-1.5l-8.4,1.1c0.2,1.7,0.4,3.4,0.4,5.1
				c0,1.7-0.1,3.2-0.4,4.7L315.7,107.3z"/>
			<polygon class="st2" points="307.6,112 316,122.8 324.1,118.1 315.7,107.3 			"/>
			<path class="st0" d="M302.6,123c-1.7,1.7-3.7,2.8-6,3.4l2.3,12.4l8.1-4.6l-1.6-8.8L302.6,123z"/>
			<path class="st2" d="M252.6,76.7l-8.1,4.8l8.4-1.1C252.8,79.2,252.7,77.9,252.6,76.7z"/>
			<path class="st0" d="M276,120.2l-5.2,6.7l8.2-4.6C278,121.7,277,121,276,120.2z"/>
			<g>
				<path class="st3" d="M263,56.9l0-0.1c-0.4,0.1-0.8,0.3-1.1,0.5C262.2,57.1,262.6,57,263,56.9z"/>
				<path class="st3" d="M251.9,80.6l-7,0.9c0,0.1,0.1,0.3,0.1,0.4l7-0.9C252,80.9,251.9,80.7,251.9,80.6z"/>
				<path class="st3" d="M298.4,66l-2.3,9.7c2.3,3.2,4.3,6.7,6,10.3l9.6,2.9c1.6,4.1,2.9,8.3,3.7,12.4l1-0.2
					c-0.9-4.3-2.2-8.5-3.8-12.8l-9.6-2.9c-1.7-3.6-3.7-7.1-6-10.3l2.3-9.7c-2.9-3.6-5.9-6.8-9.2-9.7l-0.3,1.1
					C292.8,59.5,295.7,62.6,298.4,66z"/>
				<path class="st3" d="M280.6,115c-11.5-6.7-20.9-22.8-20.9-36c0-5.8,1.8-10.1,4.9-12.5c-3.5,2.3-5.7,6.8-5.7,13.1
					c0,13.2,9.4,29.4,20.9,36c5.8,3.4,11.1,3.7,14.9,1.4c-0.3,0.1-0.6,0.1-0.9,0.2C290.2,118.5,285.6,117.9,280.6,115z"/>
				<path class="st3" d="M298.1,125.9c1.4-0.5,2.7-1.2,3.8-2.1l-0.4-0.3C300.6,124.5,299.4,125.3,298.1,125.9z"/>
				<path class="st3" d="M257.7,60c-0.4,0,0-0.3,0.4-0.6l-9.3-7.9c-0.3,0.4-0.5,0.8-0.1,0.8L257.7,60z"/>
				<path class="st3" d="M296.4,126.9l2.2,11.8c-0.3,0,0.2,0,0.7-0.1l-2.3-12.2C296.6,126.6,296.1,126.8,296.4,126.9z"/>
				<path class="st3" d="M308.3,107.3c0-1.5-0.1-3.1-0.3-4.6l-0.8,0.1c0.2,1.7,0.4,3.4,0.4,5.1c0,1.7-0.1,3.2-0.4,4.7l8.4,10.8
					c-0.7,2.7-1.8,5.1-3.1,7.2l0.1,0.7c1.7-2.3,3-5.1,3.8-8.4l-8.4-10.8C308.2,110.5,308.3,108.9,308.3,107.3z"/>
				<path class="st3" d="M270.5,45.2l5.2,12.7c1.4,0.6,2.8,1.2,4.2,2c1.4,0.8,2.8,1.8,4.2,2.9l0.2-0.8c-1.2-0.9-2.4-1.7-3.6-2.4
					c-1.4-0.8-2.8-1.5-4.2-2l-5.2-12.7c-3.3-0.9-6.4-1.2-9.2-0.9l0.1,0.5C264.6,44.4,267.8,44.5,270.5,45.2z"/>
				<path class="st3" d="M275,120.8l-4.3,5.6c0.2,0.2,0.4,0.3,0.5,0.5l4.4-5.7C275.4,121.1,275.2,121,275,120.8z"/>
			</g>
		</g>
		<path class="st4" d="M290.7,39.3c0.1-1.3,1-1.9,2.1-1.3c1.1,0.6,1.9,2.2,1.8,3.5c-0.1,1.3-1,1.9-2.1,1.3
			C291.5,42.2,290.7,40.6,290.7,39.3z"/>
		<path class="st4" d="M284.7,199.3c0-0.9,0.7-1.3,1.4-0.9c0.7,0.4,1.3,1.5,1.2,2.4c0,0.9-0.7,1.3-1.4,0.9
			C285.2,201.3,284.7,200.2,284.7,199.3z"/>
		<g>
			<path class="st4" d="M323.8,134.6c-0.2,0-0.3-0.1-0.4-0.2c-0.1-0.2-0.1-0.4,0-0.6l2.4-4.1c0.1-0.2,0.4-0.3,0.7-0.2
				c0.2,0.1,0.3,0.4,0.2,0.7l-1.8,3l3.5-1.1c0.3-0.1,0.5,0.1,0.6,0.3c0.1,0.3-0.1,0.5-0.3,0.6l-4.8,1.5
				C323.9,134.6,323.9,134.6,323.8,134.6z"/>
		</g>
		<g>
			<path class="st5" d="M282.3,152.8c1.9,1.1,3.5,3.2,4.5,5.4c0,0,1.1-0.3,1.5-0.5c0.9-0.4,2.1-0.2,3.4,0.5c2.9,1.7,5.3,5.8,5.3,9.1
				c0,6.1-10.5,8.2-10.5,8.2s-10-13.3-10-19.5c0-1.7-0.7-2.2,0.2-2.7c0.1,0,2-1.1,2.1-1.1C279.8,151.8,281,152,282.3,152.8z"/>
			<path class="st4" d="M280.6,153.7c2,1.2,3.8,3.5,4.7,6c0.9-1.4,2.6-1.7,4.7-0.6c2.9,1.7,5.3,5.8,5.3,9.1c0,6.1-10,7.9-10,7.9
				s-10-13.3-10-19.5C275.3,153.4,277.6,152,280.6,153.7z"/>
			<g>
				<path class="st6" d="M280.3,153.8c2,1.2,4,3.5,4.9,6c0.2-0.3-0.1-0.2,0.2-0.4c-0.9-2.3-2.6-4.5-4.6-5.6
					c-1.6-0.9-2.8-1.1-3.8-0.6C277.9,153,279.1,153.1,280.3,153.8z"/>
				<path class="st6" d="M290.1,159.1c-1.6-0.9-2.8-0.9-3.6-0.4c0.9-0.3,2-0.1,3.2,0.6c2.9,1.7,5.3,5.8,5.3,9.1c0,2.8-2.2,4.8-4.5,6
					c2.6-1.2,4.9-3,4.9-6.1C295.4,164.9,293,160.8,290.1,159.1z"/>
			</g>
		</g>
		<g>
			<path class="st4" d="M325.4,133.9l-0.7-0.7c5.4-4.9,8.2-12.9,8.2-23c0-25.3-18-56.3-40.1-69.1l0.5-0.9
				c22.4,12.9,40.6,44.3,40.6,69.9C333.9,120.6,331,128.9,325.4,133.9z"/>
		</g>
		<g>
			<g>
				<path class="st1" d="M341.2,116.9C341.2,116.9,341.2,116.9,341.2,116.9c-0.3,0-0.5-0.2-0.5-0.5c0-0.3,0-0.7,0-1
					c0-0.3,0.2-0.5,0.5-0.5c0.3,0,0.5,0.2,0.5,0.5c0,0.3,0,0.7,0,1C341.7,116.7,341.5,116.9,341.2,116.9z"/>
			</g>
			<g>
				<path class="st1" d="M313.7,151.5c-0.3,0-0.5-0.2-0.5-0.5c0-0.3,0.2-0.5,0.5-0.5c0.7,0,1.3,0,2-0.1c0.3,0,0.5,0.2,0.5,0.5
					c0,0.3-0.2,0.5-0.5,0.5C315.1,151.5,314.4,151.5,313.7,151.5C313.7,151.5,313.7,151.5,313.7,151.5z M310.7,151.4
					C310.7,151.4,310.7,151.4,310.7,151.4c-0.7-0.1-1.4-0.1-2-0.2c-0.3,0-0.5-0.3-0.4-0.6c0-0.3,0.3-0.5,0.6-0.4
					c0.7,0.1,1.3,0.2,1.9,0.2c0.3,0,0.5,0.3,0.5,0.5C311.2,151.2,311,151.4,310.7,151.4z M318.6,151.1c-0.2,0-0.4-0.2-0.5-0.4
					c0-0.3,0.1-0.5,0.4-0.6c0.6-0.1,1.3-0.3,1.9-0.4c0.3-0.1,0.5,0.1,0.6,0.4c0.1,0.3-0.1,0.5-0.4,0.6
					C320.1,150.8,319.4,150.9,318.6,151.1C318.7,151.1,318.7,151.1,318.6,151.1z M323.4,149.7c-0.2,0-0.4-0.1-0.5-0.3
					c-0.1-0.3,0-0.5,0.3-0.6c0.6-0.2,1.2-0.5,1.8-0.8c0.2-0.1,0.5,0,0.7,0.2c0.1,0.2,0,0.5-0.2,0.7c-0.6,0.3-1.2,0.6-1.8,0.8
					C323.5,149.7,323.5,149.7,323.4,149.7z M327.8,147.4c-0.2,0-0.3-0.1-0.4-0.2c-0.2-0.2-0.1-0.5,0.1-0.7c0.5-0.4,1.1-0.7,1.6-1.1
					c0.2-0.2,0.5-0.1,0.7,0.1c0.2,0.2,0.1,0.5-0.1,0.7c-0.5,0.4-1.1,0.8-1.6,1.2C328,147.4,327.9,147.4,327.8,147.4z M331.6,144.3
					c-0.1,0-0.3,0-0.4-0.1c-0.2-0.2-0.2-0.5,0-0.7c0.5-0.5,0.9-0.9,1.3-1.4c0.2-0.2,0.5-0.2,0.7-0.1c0.2,0.2,0.2,0.5,0.1,0.7
					c-0.4,0.5-0.9,1-1.4,1.5C331.9,144.3,331.8,144.3,331.6,144.3z M334.8,140.5c-0.1,0-0.2,0-0.3-0.1c-0.2-0.2-0.3-0.5-0.1-0.7
					c0.4-0.5,0.7-1.1,1-1.6c0.1-0.2,0.4-0.3,0.7-0.2c0.2,0.1,0.3,0.4,0.2,0.7c-0.3,0.6-0.7,1.2-1.1,1.7
					C335.1,140.4,335,140.5,334.8,140.5z M337.2,136.2c-0.1,0-0.1,0-0.2,0c-0.2-0.1-0.4-0.4-0.2-0.7c0.3-0.6,0.5-1.2,0.8-1.8
					c0.1-0.3,0.4-0.4,0.7-0.3c0.3,0.1,0.4,0.4,0.3,0.7c-0.3,0.6-0.5,1.2-0.8,1.8C337.6,136.1,337.4,136.2,337.2,136.2z M339,131.6
					c0,0-0.1,0-0.2,0c-0.3-0.1-0.4-0.4-0.3-0.6c0.2-0.6,0.4-1.2,0.5-1.9c0.1-0.3,0.3-0.4,0.6-0.4c0.3,0.1,0.4,0.3,0.4,0.6
					c-0.2,0.7-0.4,1.3-0.6,1.9C339.5,131.4,339.3,131.6,339,131.6z M340.3,126.7C340.2,126.7,340.2,126.7,340.3,126.7
					c-0.4-0.1-0.5-0.3-0.5-0.6c0.1-0.6,0.2-1.3,0.3-1.9c0-0.3,0.3-0.5,0.6-0.4c0.3,0,0.5,0.3,0.4,0.6c-0.1,0.7-0.2,1.3-0.3,2
					C340.7,126.6,340.5,126.7,340.3,126.7z M341,121.8C340.9,121.8,340.9,121.8,341,121.8c-0.3,0-0.5-0.3-0.5-0.5
					c0.1-0.6,0.1-1.3,0.2-2c0-0.3,0.2-0.5,0.5-0.5c0.3,0,0.5,0.3,0.5,0.5c0,0.7-0.1,1.3-0.2,2C341.4,121.6,341.2,121.8,341,121.8z"
					/>
			</g>
			<g>
				<path class="st1" d="M305.8,150.7c0,0-0.1,0-0.1,0c-0.3-0.1-0.7-0.1-1-0.2c-0.3-0.1-0.4-0.3-0.4-0.6c0.1-0.3,0.3-0.4,0.6-0.4
					c0.3,0.1,0.6,0.2,1,0.2c0.3,0.1,0.4,0.3,0.4,0.6C306.2,150.5,306,150.7,305.8,150.7z"/>
			</g>
		</g>
		<g>
			<g>
				<path class="st1" d="M241.8,71.5c-0.2,0-0.4-0.2-0.5-0.4c-0.1-0.3-0.1-0.7-0.2-1c0-0.3,0.1-0.5,0.4-0.6c0.3,0,0.5,0.1,0.6,0.4
					c0.1,0.3,0.1,0.7,0.2,1C242.3,71.2,242.1,71.4,241.8,71.5C241.8,71.5,241.8,71.5,241.8,71.5z"/>
			</g>
			<g>
				<path class="st1" d="M333.9,81.7c-0.2,0-0.4-0.1-0.5-0.3c-0.3-0.6-0.5-1.2-0.8-1.9c-0.1-0.3,0-0.5,0.3-0.7
					c0.3-0.1,0.5,0,0.7,0.3c0.3,0.6,0.5,1.3,0.8,1.9c0.1,0.3,0,0.5-0.3,0.7C334.1,81.6,334,81.7,333.9,81.7z M331.9,77
					c-0.2,0-0.4-0.1-0.5-0.3c-0.3-0.6-0.6-1.2-0.9-1.8c-0.1-0.2,0-0.5,0.2-0.7c0.2-0.1,0.5,0,0.7,0.2c0.3,0.6,0.6,1.2,0.9,1.8
					c0.1,0.3,0,0.5-0.2,0.7C332.1,77,332,77,331.9,77z M329.7,72.4c-0.2,0-0.4-0.1-0.4-0.3c-0.3-0.6-0.6-1.2-0.9-1.8
					c-0.1-0.2,0-0.5,0.2-0.7c0.2-0.1,0.5,0,0.7,0.2c0.3,0.6,0.6,1.2,0.9,1.8c0.1,0.2,0,0.5-0.2,0.7
					C329.9,72.4,329.8,72.4,329.7,72.4z M327.3,68c-0.2,0-0.3-0.1-0.4-0.3c-0.3-0.6-0.7-1.2-1-1.8c-0.1-0.2-0.1-0.5,0.2-0.7
					c0.2-0.1,0.5-0.1,0.7,0.2c0.3,0.6,0.7,1.2,1,1.8c0.1,0.2,0,0.5-0.2,0.7C327.5,68,327.4,68,327.3,68z M241.1,67.5
					c-0.2,0-0.5-0.2-0.5-0.4c-0.1-0.7-0.2-1.4-0.2-2c0-0.3,0.2-0.5,0.4-0.6c0.3,0,0.5,0.2,0.6,0.4c0.1,0.7,0.2,1.3,0.2,2
					C241.7,67.2,241.5,67.5,241.1,67.5C241.2,67.5,241.1,67.5,241.1,67.5z M324.8,63.6c-0.2,0-0.3-0.1-0.4-0.2
					c-0.4-0.6-0.7-1.1-1.1-1.7c-0.1-0.2-0.1-0.5,0.2-0.7c0.2-0.1,0.5-0.1,0.7,0.2c0.4,0.6,0.7,1.1,1.1,1.7c0.1,0.2,0.1,0.5-0.2,0.7
					C325,63.6,324.9,63.6,324.8,63.6z M240.6,62.5c-0.3,0-0.5-0.2-0.5-0.5c0-0.7-0.1-1.4-0.1-2c0-0.3,0.2-0.5,0.5-0.5c0,0,0,0,0,0
					c0.3,0,0.5,0.2,0.5,0.5c0,0.7,0.1,1.3,0.1,2C241.1,62.2,240.9,62.5,240.6,62.5C240.6,62.5,240.6,62.5,240.6,62.5z M322,59.4
					c-0.2,0-0.3-0.1-0.4-0.2c-0.4-0.6-0.8-1.1-1.1-1.7c-0.2-0.2-0.1-0.5,0.1-0.7c0.2-0.2,0.5-0.1,0.7,0.1c0.4,0.6,0.8,1.1,1.1,1.7
					c0.2,0.2,0.1,0.5-0.1,0.7C322.2,59.3,322.1,59.4,322,59.4z M240.5,57.4C240.5,57.4,240.5,57.4,240.5,57.4
					c-0.3,0-0.5-0.2-0.5-0.5c0-0.7,0-1.4,0-2c0-0.3,0.2-0.5,0.5-0.5c0,0,0,0,0,0c0.3,0,0.5,0.2,0.5,0.5c0,0.7,0,1.3,0,2
					C241,57.2,240.7,57.4,240.5,57.4z M319.1,55.2c-0.2,0-0.3-0.1-0.4-0.2c-0.4-0.5-0.8-1.1-1.2-1.6c-0.2-0.2-0.1-0.5,0.1-0.7
					c0.2-0.2,0.5-0.1,0.7,0.1c0.4,0.5,0.8,1.1,1.2,1.6c0.2,0.2,0.1,0.5-0.1,0.7C319.3,55.2,319.2,55.2,319.1,55.2z M240.7,52.4
					C240.7,52.4,240.7,52.4,240.7,52.4c-0.3,0-0.5-0.3-0.5-0.5c0.1-0.7,0.1-1.4,0.2-2c0-0.3,0.3-0.5,0.6-0.4c0.3,0,0.5,0.3,0.4,0.6
					c-0.1,0.7-0.1,1.3-0.2,2C241.2,52.2,240.9,52.4,240.7,52.4z M316,51.2c-0.1,0-0.3-0.1-0.4-0.2c-0.4-0.5-0.8-1-1.3-1.6
					c-0.2-0.2-0.1-0.5,0.1-0.7c0.2-0.2,0.5-0.1,0.7,0.1c0.4,0.5,0.9,1,1.3,1.6c0.2,0.2,0.1,0.5-0.1,0.7
					C316.2,51.2,316.1,51.2,316,51.2z M312.8,47.4c-0.1,0-0.3-0.1-0.4-0.2c-0.4-0.5-0.9-1-1.3-1.5c-0.2-0.2-0.2-0.5,0-0.7
					c0.2-0.2,0.5-0.2,0.7,0c0.5,0.5,0.9,1,1.4,1.5c0.2,0.2,0.2,0.5,0,0.7C313,47.3,312.9,47.4,312.8,47.4z M241.3,47.3
					C241.3,47.3,241.3,47.3,241.3,47.3c-0.4-0.1-0.5-0.3-0.5-0.6c0.1-0.7,0.3-1.3,0.4-2c0.1-0.3,0.3-0.4,0.6-0.4
					c0.3,0.1,0.4,0.3,0.4,0.6c-0.1,0.6-0.3,1.3-0.4,2C241.8,47.2,241.6,47.3,241.3,47.3z M309.3,43.6c-0.1,0-0.3-0.1-0.4-0.2
					c-0.5-0.5-0.9-1-1.4-1.4c-0.2-0.2-0.2-0.5,0-0.7c0.2-0.2,0.5-0.2,0.7,0c0.5,0.5,1,1,1.4,1.4c0.2,0.2,0.2,0.5,0,0.7
					C309.6,43.6,309.5,43.6,309.3,43.6z M242.5,42.4c0,0-0.1,0-0.1,0c-0.3-0.1-0.4-0.4-0.3-0.6c0.2-0.7,0.4-1.3,0.6-1.9
					c0.1-0.3,0.4-0.4,0.6-0.3c0.3,0.1,0.4,0.4,0.3,0.6c-0.2,0.6-0.4,1.3-0.6,1.9C242.9,42.3,242.7,42.4,242.5,42.4z M305.7,40.1
					c-0.1,0-0.2,0-0.3-0.1c-0.5-0.5-1-0.9-1.5-1.4c-0.2-0.2-0.2-0.5,0-0.7c0.2-0.2,0.5-0.2,0.7,0c0.5,0.5,1,0.9,1.5,1.4
					c0.2,0.2,0.2,0.5,0,0.7C306,40,305.8,40.1,305.7,40.1z M244.3,37.7c-0.1,0-0.1,0-0.2,0c-0.3-0.1-0.4-0.4-0.2-0.7
					c0.3-0.6,0.6-1.2,0.9-1.8c0.1-0.2,0.4-0.3,0.7-0.2c0.2,0.1,0.3,0.4,0.2,0.7c-0.3,0.6-0.6,1.2-0.9,1.8
					C244.7,37.6,244.5,37.7,244.3,37.7z M301.9,36.8c-0.1,0-0.2,0-0.3-0.1c-0.5-0.4-1-0.9-1.6-1.3c-0.2-0.2-0.3-0.5-0.1-0.7
					c0.2-0.2,0.5-0.3,0.7-0.1c0.5,0.4,1.1,0.9,1.6,1.3c0.2,0.2,0.2,0.5,0.1,0.7C302.2,36.7,302.1,36.8,301.9,36.8z M297.9,33.6
					c-0.1,0-0.2,0-0.3-0.1c-0.5-0.4-1.1-0.8-1.6-1.2c-0.2-0.2-0.3-0.5-0.1-0.7c0.2-0.2,0.5-0.3,0.7-0.1c0.6,0.4,1.1,0.8,1.7,1.2
					c0.2,0.2,0.3,0.5,0.1,0.7C298.2,33.6,298.1,33.6,297.9,33.6z M246.8,33.3c-0.1,0-0.2,0-0.3-0.1c-0.2-0.2-0.3-0.5-0.1-0.7
					c0.4-0.6,0.8-1.1,1.2-1.7c0.2-0.2,0.5-0.3,0.7-0.1c0.2,0.2,0.3,0.5,0.1,0.7c-0.4,0.5-0.8,1.1-1.2,1.6
					C247.1,33.2,246.9,33.3,246.8,33.3z M293.8,30.7c-0.1,0-0.2,0-0.3-0.1c-0.6-0.4-1.1-0.7-1.7-1.1c-0.2-0.1-0.3-0.5-0.2-0.7
					c0.1-0.2,0.5-0.3,0.7-0.2c0.6,0.3,1.2,0.7,1.7,1.1c0.2,0.1,0.3,0.5,0.2,0.7C294.1,30.7,293.9,30.7,293.8,30.7z M250,29.4
					c-0.1,0-0.3,0-0.4-0.1c-0.2-0.2-0.2-0.5,0-0.7c0.5-0.5,1-1,1.5-1.4c0.2-0.2,0.5-0.2,0.7,0.1c0.2,0.2,0.2,0.5-0.1,0.7
					c-0.5,0.4-1,0.9-1.4,1.4C250.2,29.3,250.1,29.4,250,29.4z M289.4,28.2c-0.1,0-0.2,0-0.2-0.1c-0.6-0.3-1.2-0.6-1.8-0.9
					c-0.2-0.1-0.3-0.4-0.2-0.7c0.1-0.2,0.4-0.3,0.7-0.2c0.6,0.3,1.2,0.6,1.8,0.9c0.2,0.1,0.3,0.4,0.2,0.7
					C289.8,28.1,289.6,28.2,289.4,28.2z M253.9,26.2c-0.2,0-0.3-0.1-0.4-0.2c-0.2-0.2-0.1-0.5,0.1-0.7c0.6-0.4,1.2-0.7,1.8-1.1
					c0.2-0.1,0.5,0,0.7,0.2c0.1,0.2,0,0.5-0.2,0.7c-0.6,0.3-1.1,0.7-1.7,1C254.1,26.1,254,26.2,253.9,26.2z M284.9,25.9
					c-0.1,0-0.1,0-0.2,0c-0.6-0.3-1.2-0.5-1.8-0.8c-0.3-0.1-0.4-0.4-0.3-0.6c0.1-0.3,0.4-0.4,0.7-0.3c0.6,0.2,1.3,0.5,1.9,0.8
					c0.3,0.1,0.4,0.4,0.3,0.7C285.3,25.8,285.1,25.9,284.9,25.9z M280.2,24.1c-0.1,0-0.1,0-0.2,0c-0.6-0.2-1.3-0.4-1.9-0.6
					c-0.3-0.1-0.4-0.4-0.3-0.6c0.1-0.3,0.3-0.4,0.6-0.3c0.6,0.2,1.3,0.4,2,0.6c0.3,0.1,0.4,0.4,0.3,0.6
					C280.6,24,280.4,24.1,280.2,24.1z M258.3,23.8c-0.2,0-0.4-0.1-0.5-0.3c-0.1-0.3,0-0.5,0.3-0.6c0.6-0.2,1.3-0.5,2-0.7
					c0.3-0.1,0.5,0.1,0.6,0.3c0.1,0.3-0.1,0.5-0.3,0.6c-0.6,0.2-1.3,0.4-1.9,0.6C258.5,23.8,258.4,23.8,258.3,23.8z M275.3,22.8
					c0,0-0.1,0-0.1,0c-0.7-0.1-1.3-0.3-2-0.3c-0.3,0-0.5-0.3-0.4-0.6c0-0.3,0.3-0.5,0.6-0.4c0.7,0.1,1.3,0.2,2,0.4
					c0.3,0.1,0.4,0.3,0.4,0.6C275.7,22.6,275.5,22.8,275.3,22.8z M263.2,22.5c-0.2,0-0.4-0.2-0.5-0.4c0-0.3,0.1-0.5,0.4-0.6
					c0.7-0.1,1.4-0.2,2-0.3c0.3,0,0.5,0.2,0.5,0.4c0,0.3-0.2,0.5-0.4,0.5C264.6,22.3,263.9,22.3,263.2,22.5
					C263.3,22.5,263.2,22.5,263.2,22.5z M270.3,22.1C270.3,22.1,270.2,22.1,270.3,22.1c-0.7,0-1.4-0.1-2-0.1c-0.3,0-0.5-0.2-0.5-0.5
					c0-0.3,0.2-0.5,0.5-0.5c0.7,0,1.4,0,2.1,0.1c0.3,0,0.5,0.3,0.5,0.5C270.7,21.9,270.5,22.1,270.3,22.1z"/>
			</g>
			<g>
				<path class="st1" d="M335.4,85.5c-0.2,0-0.4-0.1-0.5-0.3l-0.3-0.9c-0.1-0.3,0-0.5,0.3-0.6c0.3-0.1,0.5,0,0.6,0.3l0.3,0.9
					c0.1,0.3,0,0.5-0.3,0.6C335.5,85.5,335.5,85.5,335.4,85.5z"/>
			</g>
		</g>
		<g>
			<g>
				<path class="st4" d="M317.3,160.1c-0.2,0-0.4-0.1-0.5-0.3c-0.1-0.3-0.2-0.6-0.4-0.9c-0.1-0.3,0-0.5,0.3-0.7
					c0.3-0.1,0.5,0,0.7,0.3c0.1,0.3,0.3,0.6,0.4,0.9c0.1,0.3,0,0.5-0.3,0.7C317.4,160.1,317.3,160.1,317.3,160.1z"/>
			</g>
			<g>
				<path class="st4" d="M303.5,206.6C303.5,206.6,303.5,206.6,303.5,206.6c-0.7,0-1.3,0-2-0.1c-0.3,0-0.5-0.3-0.5-0.5
					c0-0.3,0.3-0.5,0.5-0.5c0.6,0.1,1.3,0.1,1.9,0.1c0.3,0,0.5,0.2,0.5,0.5C304,206.4,303.8,206.6,303.5,206.6z M306.4,206.4
					c-0.2,0-0.5-0.2-0.5-0.4c0-0.3,0.1-0.5,0.4-0.6c0.6-0.1,1.3-0.2,1.9-0.4c0.3-0.1,0.5,0.1,0.6,0.4c0.1,0.3-0.1,0.5-0.4,0.6
					C307.9,206.2,307.2,206.3,306.4,206.4C306.5,206.4,306.5,206.4,306.4,206.4z M298.6,206.1c0,0-0.1,0-0.1,0
					c-0.6-0.1-1.3-0.3-2-0.5c-0.3-0.1-0.4-0.4-0.3-0.6c0.1-0.3,0.4-0.4,0.6-0.3c0.6,0.2,1.3,0.3,1.9,0.5c0.3,0.1,0.4,0.3,0.4,0.6
					C299,205.9,298.8,206.1,298.6,206.1z M311.2,205c-0.2,0-0.4-0.1-0.5-0.3c-0.1-0.2,0-0.5,0.2-0.7c0.6-0.3,1.1-0.6,1.7-0.9
					c0.2-0.1,0.5-0.1,0.7,0.2c0.1,0.2,0.1,0.5-0.2,0.7c-0.6,0.4-1.2,0.7-1.8,1C311.3,205,311.2,205,311.2,205z M293.8,204.6
					c-0.1,0-0.1,0-0.2,0c-0.6-0.2-1.2-0.5-1.8-0.8c-0.3-0.1-0.4-0.4-0.2-0.7c0.1-0.3,0.4-0.4,0.7-0.2c0.6,0.3,1.2,0.5,1.8,0.8
					c0.3,0.1,0.4,0.4,0.3,0.6C294.2,204.5,294,204.6,293.8,204.6z M315.2,202.2c-0.1,0-0.3-0.1-0.4-0.2c-0.2-0.2-0.2-0.5,0-0.7
					c0.5-0.4,0.9-0.9,1.3-1.4c0.2-0.2,0.5-0.2,0.7-0.1c0.2,0.2,0.2,0.5,0.1,0.7c-0.4,0.5-0.9,1-1.4,1.5
					C315.5,202.2,315.4,202.2,315.2,202.2z M318.4,198.4c-0.1,0-0.2,0-0.3-0.1c-0.2-0.1-0.3-0.5-0.2-0.7c0.3-0.5,0.6-1.1,0.9-1.7
					c0.1-0.2,0.4-0.3,0.7-0.2c0.2,0.1,0.4,0.4,0.2,0.7c-0.3,0.6-0.6,1.2-1,1.8C318.7,198.3,318.5,198.4,318.4,198.4z M320.4,193.9
					c-0.1,0-0.1,0-0.2,0c-0.3-0.1-0.4-0.4-0.3-0.6c0.2-0.6,0.4-1.2,0.6-1.9c0.1-0.3,0.3-0.4,0.6-0.4c0.3,0.1,0.4,0.3,0.4,0.6
					c-0.2,0.7-0.4,1.3-0.6,1.9C320.8,193.8,320.6,193.9,320.4,193.9z M321.6,189.1C321.6,189.1,321.6,189.1,321.6,189.1
					c-0.4-0.1-0.5-0.3-0.5-0.6c0.1-0.6,0.2-1.3,0.3-1.9c0-0.3,0.3-0.5,0.5-0.4c0.3,0,0.5,0.3,0.4,0.5c-0.1,0.7-0.2,1.3-0.3,2
					C322.1,189,321.9,189.1,321.6,189.1z M322.1,184.2C322.1,184.2,322.1,184.2,322.1,184.2c-0.3,0-0.5-0.2-0.5-0.5
					c0-0.4,0-0.9,0-1.4l0-0.6c0-0.3,0.2-0.5,0.5-0.5c0.3,0,0.5,0.2,0.5,0.5l0,0.6c0,0.5,0,0.9,0,1.4
					C322.6,184,322.4,184.2,322.1,184.2z M322,179.3c-0.3,0-0.5-0.2-0.5-0.5c0-0.6-0.1-1.3-0.2-2c0-0.3,0.2-0.5,0.4-0.6
					c0.3,0,0.5,0.2,0.6,0.4c0.1,0.7,0.1,1.3,0.2,2C322.5,179,322.3,179.2,322,179.3C322,179.3,322,179.3,322,179.3z M321.4,174.3
					c-0.2,0-0.5-0.2-0.5-0.4c-0.1-0.6-0.2-1.3-0.4-1.9c-0.1-0.3,0.1-0.5,0.4-0.6c0.3-0.1,0.5,0.1,0.6,0.4c0.1,0.7,0.3,1.3,0.4,2
					C321.9,174,321.7,174.3,321.4,174.3C321.4,174.3,321.4,174.3,321.4,174.3z M320.4,169.5c-0.2,0-0.4-0.2-0.5-0.4
					c-0.2-0.6-0.3-1.3-0.5-1.9c-0.1-0.3,0.1-0.5,0.3-0.6c0.3-0.1,0.5,0.1,0.6,0.3c0.2,0.6,0.4,1.3,0.5,1.9c0.1,0.3-0.1,0.5-0.4,0.6
					C320.4,169.5,320.4,169.5,320.4,169.5z M319,164.7c-0.2,0-0.4-0.1-0.5-0.3c-0.2-0.6-0.4-1.2-0.6-1.9c-0.1-0.3,0-0.5,0.3-0.6
					c0.3-0.1,0.5,0,0.6,0.3c0.2,0.6,0.4,1.3,0.6,1.9c0.1,0.3-0.1,0.5-0.3,0.6C319.1,164.7,319,164.7,319,164.7z"/>
			</g>
			<g>
				<path class="st4" d="M289.3,202.5c-0.1,0-0.2,0-0.2-0.1c-0.3-0.2-0.6-0.3-0.9-0.5c-0.2-0.1-0.3-0.4-0.2-0.7
					c0.1-0.2,0.4-0.3,0.7-0.2c0.3,0.2,0.6,0.3,0.9,0.5c0.2,0.1,0.3,0.4,0.2,0.7C289.7,202.4,289.5,202.5,289.3,202.5z"/>
			</g>
		</g>
		<g>
			<path class="st4" d="M316.1,160.6C316.1,160.6,316.1,160.6,316.1,160.6c-0.3,0-0.5-0.3-0.5-0.5l0.2-2.7c0-0.2,0.1-0.3,0.3-0.4
				c0.2-0.1,0.4-0.1,0.5,0.1l2.2,1.7c0.2,0.2,0.3,0.5,0.1,0.7c-0.2,0.2-0.5,0.3-0.7,0.1l-1.5-1.1l-0.1,1.7
				C316.6,160.4,316.4,160.6,316.1,160.6z"/>
		</g>
	</g>
	<path class="st3" d="M134.6,72c0-3.3-4.6-6-10.3-6c-5.7,0-10.3,2.6-10.3,5.9c0,3,3.9,5.5,8.9,5.9l0,1.7c-1,0.1-1.7,0.6-1.6,1.2
		l0,5.7c0,0.7,1,1.3,2.2,1.3l1.7,0c1.2,0,2.2-0.6,2.2-1.3l0-5.7c0-0.6-0.7-1.1-1.7-1.2l0-1.7C130.8,77.4,134.6,75,134.6,72z"/>
	<g>
		<path class="st2" d="M259.3,304.4L80.5,201.1c-6.9-4-12.5-14.7-12.5-23.9V14.5c0-9.2,5.6-13.5,12.5-9.5l178.8,103.3
			c6.9,4,12.5,14.7,12.5,23.9v162.6C271.8,304.1,266.2,308.4,259.3,304.4z"/>
		<path class="st7" d="M264.2,105.8L85.4,2.5c-2.7-1.6-5.3-1.9-7.3-1.1c-0.3,0.1-5.2,2.6-5.4,2.8c0,0,0,0,0,0c2.1-1,4.8-0.8,7.8,0.9
			l178.8,103.3c6.9,4,12.5,14.7,12.5,23.9v162.6c0,5.8-2.2,9.6-5.5,10.7c0.3,0,0.6-0.1,1.1-0.4c0.2-0.1,5.4-2.9,5.5-3
			c2.4-1.7,3.9-5.1,3.9-9.8V129.7C276.7,120.5,271.1,109.8,264.2,105.8z"/>
		<path class="st8" d="M262.8,106.4L84,3.2c-2.7-1.6-5.3-1.9-7.3-1.1c-0.3,0.1-3.8,2-4,2.1c0,0,0,0,0,0c2.1-1,4.8-0.8,7.8,0.9
			l178.8,103.3L262.8,106.4z"/>
		<path class="st3" d="M259.9,108L81.1,4.8c-2.8-1.6-5.4-1.9-7.5-1c1.8-0.3,3.9,0.1,6,1.4l178.8,103.3c6.9,4,12.5,14.7,12.5,23.9
			V295c0,5.4-2,9.1-5,10.4c3.9-0.6,6.5-4.6,6.5-10.9V132C272.4,122.7,266.8,112,259.9,108z"/>
		<path class="st9" d="M75,29v148.2c0,7.2,3.4,14.3,9,17.9l176.9,102.2c0.1,0,0.2,0.1,0.3,0.2c1.6,0.9,3.6-0.2,3.6-2.1V138.6L75,29z
			"/>
		<path class="st10" d="M264.5,296c-0.1-0.1-0.2-0.1-0.3-0.2L87.3,193.7c-5.6-3.5-9-10.6-9-17.9V30.9L75,29v148.2
			c0,7.2,3.4,14.3,9,17.9l176.9,102.2c0.1,0,0.2,0.1,0.3,0.2c1.4,0.8,3,0.1,3.4-1.3C264.6,296,264.5,296,264.5,296z"/>
		<g>
			<path class="st11" d="M254.8,120.8c0,2.2,1.5,4.8,3.4,5.9c1.9,1.1,3.4,0.2,3.4-2c0-2.2-1.5-4.8-3.4-5.9
				C256.3,117.7,254.8,118.6,254.8,120.8z"/>
			<path class="st4" d="M245.9,115.6c0,2.2,1.5,4.8,3.4,5.9c1.9,1.1,3.4,0.2,3.4-2c0-2.2-1.5-4.8-3.4-5.9
				C247.4,112.6,245.9,113.5,245.9,115.6z"/>
			<path class="st12" d="M237,110.5c0,2.2,1.5,4.8,3.4,5.9c1.9,1.1,3.4,0.2,3.4-2c0-2.2-1.5-4.8-3.4-5.9
				C238.5,107.4,237,108.3,237,110.5z"/>
		</g>
	</g>
	<path class="st0" d="M191.6,105.5l-13-7.5c-1.3-0.8-2.4-0.2-2.4,1.4c0,1.5,1.1,3.3,2.4,4.1l13,7.5c1.3,0.8,2.4,0.2,2.4-1.4
		C194,108.1,193,106.3,191.6,105.5z M213,117.9l-13-7.5c-1.3-0.8-2.4-0.2-2.4,1.4c0,1.5,1.1,3.3,2.4,4.1l13,7.5
		c1.3,0.8,2.4,0.2,2.4-1.4C215.4,120.5,214.3,118.6,213,117.9z M234.4,130.2l-13-7.5c-1.3-0.8-2.4-0.2-2.4,1.4
		c0,1.5,1.1,3.3,2.4,4.1l13,7.5c1.3,0.8,2.4,0.2,2.4-1.4C236.7,132.8,235.7,131,234.4,130.2z M255.7,142.5l-13-7.5
		c-1.3-0.8-2.4-0.2-2.4,1.4c0,1.5,1.1,3.3,2.4,4.1l13,7.5c1.3,0.8,2.4,0.2,2.4-1.4C258.1,145.1,257,143.3,255.7,142.5z"/>
	<g>
		<g>
			<polygon class="st13" points="140.2,116.2 140.2,172.1 146.3,168.5 146.3,112.5 			"/>
			<polygon class="st7" points="140.2,116.2 140.2,172.1 18.4,102.2 18.4,46.2 			"/>
			<polygon class="st0" points="18.4,46.2 140.2,116.2 146.3,112.5 24.4,42.6 			"/>
			<polygon class="st6" points="18.4,46.2 140.2,116.2 146.3,112.5 140.2,115.4 			"/>
		</g>
		<g>
			<polygon class="st3" points="122.4,151.8 122.4,149.5 83.9,127.6 83.9,130 			"/>
			<polygon class="st3" points="67.3,83.5 67.3,85.9 131.9,122.8 131.9,120.5 			"/>
			<polygon class="st3" points="90,116.3 67.3,103.2 67.3,105.6 90,118.7 			"/>
			<polygon class="st3" points="105.4,135.1 105.4,137.5 114.8,142.5 114.8,140.2 			"/>
			<polygon class="st3" points="104,114.5 67.3,93.4 67.3,95.7 104,116.9 			"/>
			<polygon class="st3" points="80.7,106 67.3,98.3 67.3,100.7 80.7,108.4 			"/>
			<polygon class="st3" points="77.3,121.2 103.1,136.1 103.1,133.7 77.3,118.9 			"/>
			<polygon class="st3" points="83,107.4 83,109.8 119.3,130.3 119.3,128 			"/>
			<polygon class="st3" points="92.4,117.7 92.4,120.1 110.5,130.5 110.5,128.1 			"/>
			<polygon class="st3" points="75,117.5 67.3,113.1 67.3,115.4 75,119.9 			"/>
			<polygon class="st3" points="106.3,118.3 131.9,132.7 131.9,130.3 106.3,115.9 			"/>
			<polygon class="st3" points="121.6,131.7 131.9,137.6 131.9,135.3 121.6,129.3 			"/>
			<polygon class="st3" points="67.3,90.8 131.9,127.8 131.9,125.4 67.3,88.4 			"/>
			<polygon class="st3" points="112.8,131.9 131.9,142.5 131.9,140.2 112.8,129.5 			"/>
			<polygon class="st3" points="81.6,126.3 67.3,118 67.3,120.4 81.6,128.6 			"/>
			<polygon class="st3" points="124.7,153.2 131.9,157.3 131.9,155 124.7,150.8 			"/>
			<polygon class="st3" points="117.1,143.9 131.9,152.4 131.9,150 117.1,141.5 			"/>
			<polygon class="st3" points="67.3,110.5 131.9,147.5 131.9,145.1 67.3,108.1 			"/>
		</g>
		<path class="st13" d="M53.8,74.1L32.5,61.9c-3.7-2.1-6.7,0.1-6.7,5.1v24.6c0,5,3,10.7,6.7,12.8l21.2,12.3c3.7,2.1,6.7-0.1,6.7-5.1
			V87C60.5,82,57.5,76.3,53.8,74.1z"/>
		<path class="st14" d="M56.4,114.7l-21.2-12.3c-3.7-2.1-6.7-7.9-6.7-12.8V64.9c0-1.6,0.3-2.9,0.8-3.8c-2.1,0.3-3.5,2.5-3.5,5.8
			v24.6c0,5,3,10.7,6.7,12.8l21.2,12.3c2.5,1.5,4.7,0.9,5.9-1.2C58.7,115.6,57.6,115.3,56.4,114.7z"/>
		<g>
			<path class="st12" d="M37.3,81L16,68.7c-3.7-2.1-6.7,0.1-6.7,5.1v24.6c0,5,3,10.7,6.7,12.8l21.2,12.3c3.7,2.1,6.7-0.1,6.7-5.1
				V93.9C44,88.9,41,83.2,37.3,81z"/>
			<path class="st15" d="M40.7,79L19.5,66.7c-1.6-0.9-3-1-4.2-0.5l0,0l-3.7,2.2l0,0c1.2-0.7,2.7-0.7,4.4,0.3L37.3,81
				C41,83.2,44,88.9,44,93.9v24.6c0,2.4-0.7,4.2-1.9,5.1l2-1.3c1.7-1,3.3-2.5,3.3-5.8V91.8C47.5,86.9,44.4,81.1,40.7,79z"/>
			<path class="st6" d="M37.6,80.7L16.4,68.4c-1.8-1.1-3.5-1-4.7-0.1c1.1-0.4,2.5-0.3,3.9,0.6l21.2,12.3c3.7,2.1,6.7,7.9,6.7,12.8
				v24.6c0,2.5-0.8,4.3-2,5.2c1.7-0.6,2.8-2.7,2.8-5.7V93.5C44.4,88.6,41.4,82.8,37.6,80.7z"/>
			<path class="st3" d="M14.9,75.5v28.1L38,117V88.8L14.9,75.5z M36.5,114.4l-20.1-11.6V78.1l20.1,11.6V114.4z"/>
			<path class="st3" d="M32.9,93.8c0,1.8-1.3,2.6-2.9,1.7c-1.6-0.9-2.9-3.2-2.9-5s1.3-2.6,2.9-1.7C31.6,89.7,32.9,92,32.9,93.8z"/>
			<polygon class="st3" points="15.7,96.2 21.7,88.4 27.8,103.8 32.2,100.2 37.1,113.5 37,114.9 15.8,103.5 			"/>
		</g>
	</g>
	<g>
		<g>
			<polygon class="st13" points="290.7,220 290.7,288.2 296.8,284.6 296.8,216.3 			"/>
			<polygon class="st7" points="290.7,220 290.7,288.2 157.4,211.8 157.4,143.4 			"/>
			<polygon class="st0" points="157.4,143.4 290.7,220 296.8,216.3 163.5,139.8 			"/>
			<polygon class="st6" points="157.4,143.4 290.7,220 296.8,216.3 290.7,219.2 			"/>
		</g>
		
			<ellipse transform="matrix(0.8633 -0.5047 0.5047 0.8633 -84.2495 164.5865)" class="st13" cx="261.7" cy="237.8" rx="17" ry="29.5"/>
		<path class="st14" d="M263.7,260.1c-11.6-6.7-20.9-22.8-20.9-36.1c0-4.9,1.3-8.8,3.5-11.3c-3.4,2.3-5.5,6.8-5.5,13.1
			c0,13.3,9.4,29.4,20.9,36.1c7.2,4.2,13.6,3.6,17.4-0.6C275.3,263.8,269.8,263.6,263.7,260.1z"/>
		<g>
			<path class="st13" d="M203,180.9l-4.5-2.6V229l4.5,2.6V180.9z M209.5,178.3l-4.5-2.6v56.9l4.5,2.6V178.3z M216.1,189.8l-4.5-2.6
				v49.3l4.5,2.6V189.8z M185.2,193.4v27.8l4.5,2.6V196L185.2,193.4z M196.3,185.6l-4.5-2.6v41.9l4.5,2.6V185.6z M222.7,203.9
				l-4.5-2.6v39l4.5,2.6V203.9z M229.1,219.9l-4.5-2.6V244l4.5,2.6V219.9z M183,188.5l-4.5-2.6v31.2l4.5,2.6V188.5z M165.2,190.4
				v18.9l4.5,2.6V193L165.2,190.4z M176.3,183l-4.5-2.6v32.7l4.5,2.6V183z"/>
			<path class="st1" d="M203,200.8l-4.5-2.6V229l4.5,2.6V200.8z M209.5,186.8l-4.5-2.6v48.5l4.5,2.6V186.8z M216.1,198.8l-4.5-2.6
				v40.3l4.5,2.6V198.8z M185.2,200.1v21l4.5,2.6v-21L185.2,200.1z M196.3,199.3l-4.5-2.6v28.3l4.5,2.6V199.3z M183,191.1l-4.5-2.6
				v28.6l4.5,2.6V191.1z M165.2,203.8v5.5l4.5,2.6v-5.5L165.2,203.8z M176.3,203.8l-4.5-2.6v11.9l4.5,2.6V203.8z M222.7,211.1
				l-4.5-2.6v31.7l4.5,2.6V211.1z M229.1,223.9l-4.5-2.6V244l4.5,2.6V223.9z"/>
			<g>
				<polygon class="st3" points="216.1,199.3 211.6,196.8 211.6,196.2 216.1,198.8 				"/>
				<polygon class="st3" points="209.5,187.3 205,184.7 205,184.2 209.5,186.8 				"/>
				<polygon class="st3" points="229.1,224.5 224.6,221.9 224.6,221.3 229.1,223.9 				"/>
				<polygon class="st3" points="203,201.3 198.5,198.7 198.5,198.2 203,200.8 				"/>
				<polygon class="st3" points="222.7,211.7 218.2,209.1 218.2,208.5 222.7,211.1 				"/>
				<polygon class="st3" points="176.3,204.4 171.8,201.8 171.8,201.2 176.3,203.8 				"/>
				<polygon class="st3" points="183,191.7 178.5,189.1 178.5,188.5 183,191.1 				"/>
				<polygon class="st3" points="169.7,206.4 169.7,207 165.2,204.4 165.2,203.8 				"/>
				<polygon class="st3" points="196.3,199.8 191.8,197.2 191.8,196.7 196.3,199.3 				"/>
				<polygon class="st3" points="189.7,203.3 185.2,200.7 185.2,200.1 189.7,202.7 				"/>
			</g>
		</g>
		<g>
			<g>
				<path class="st11" d="M241.1,229c0.3-10,7.6-14,16.5-8.8c4.6,2.7,8.8,7.2,11.8,12.5l3.3-0.8c-3.8-6.8-9.1-12.8-15.1-16.2
					c-11.2-6.5-20.4-1.4-20.5,11.4l2.6,2.4L241.1,229z"/>
				<path class="st11" d="M265.9,260.2c-2.4,0.2-5.3-0.5-8.3-2.2c-8.5-4.9-15.5-16.3-16.4-26.2l-4-2c0,0.1-1.3,0.3-1.3,0.4
					c1.2,12.4,11.2,26.4,21.8,32.5c3.8,2.2,6.4,3.4,9.5,3c0.1,0,1.3-0.3,1.4-0.4L265.9,260.2z"/>
				<path class="st11" d="M270.9,235.6c2,4.3,3.2,8.8,3.2,13c0,6-2.4,9.9-6.2,11.2l2.6,5.1c4.7-1.6,7.7-6.5,7.7-13.9
					c0-5.2-1.5-10.8-4-16.2L270.9,235.6z"/>
			</g>
			<path class="st11" d="M263.3,243.9c-1.1-0.9-2.1-2.1-2.9-3.5c-0.5-0.8-0.5-1.7,0-1.9c0.6-0.4,1.1-0.9,1.5-1.6
				c0.5,0.1,1.1,0,1.1-0.7c0-0.7-0.3-1.5-0.7-1.9c-0.1-3-1.2-6.2-4.7-8.2c-1.2-0.7-2.1-0.9-2.8-0.8c-0.2,0-1.5,0.4-1.7,0.5
				c-0.9,0.5-0.1,1.5-0.1,3.1c-0.4-0.1-0.7,0.3-0.7,1c0,0.7,0.6,1.6,1.1,2.1c0.3,1.1,0.9,2.3,1.5,3.4c0.5,0.8,0.5,1.7,0,1.9
				c-0.8,0.4-1.8,0.5-2.9,0.1c-0.4-0.1-0.9-0.1-1.2,0c-0.1,0-1.3,0.4-1.4,0.4c-0.7,0.3,0.1,0.8,0.1,1.9v3.1c0,0.6,0.4,1.3,1,1.7
				l13.4,8.9c0.2,0.1,1.6-0.3,1.7-0.4c0.2-0.1,0.3-0.3,0.3-0.6v-3.1C265.8,247.3,264.8,245.2,263.3,243.9z"/>
			<g>
				<path class="st3" d="M240.2,229.2c0.3-10,7.6-14,16.5-8.8c4.6,2.7,8.8,7.2,11.8,12.5l3.3-0.8c-3.8-6.8-9.1-12.8-15.1-16.2
					c-11.2-6.5-20.4-1.4-20.5,11.4L240.2,229.2z"/>
				<path class="st3" d="M265,260.5c-2.4,0.2-5.3-0.5-8.3-2.2c-8.5-4.9-15.5-16.3-16.4-26.2l-4-2c1.1,12.5,9.8,26.8,20.4,32.9
					c4,2.3,7.7,3.1,10.9,2.7L265,260.5z"/>
				<path class="st3" d="M270,235.9c2,4.3,3.2,8.8,3.2,13c0,6-2.4,9.9-6.2,11.2l2.6,5.1c4.7-1.6,7.7-6.5,7.7-13.9
					c0-5.2-1.5-10.8-4-16.2L270,235.9z"/>
			</g>
			<path class="st3" d="M262.4,244.2c-1.1-0.9-2.1-2.1-2.9-3.5c-0.5-0.8-0.5-1.7,0-1.9c0.6-0.4,1.1-0.9,1.5-1.6
				c0.5,0.1,1.1,0,1.1-0.7c0-0.7-0.3-1.5-0.7-1.9c-0.1-3-1.2-6.2-4.7-8.2c-3.5-2-4.5-0.1-4.7,2.8c-0.4-0.1-0.7,0.3-0.7,1
				c0,0.7,0.6,1.6,1.1,2.1c0.3,1.1,0.9,2.3,1.5,3.4c0.5,0.8,0.5,1.7,0,1.9c-0.8,0.4-1.8,0.5-2.9,0.1c-1.5-0.4-2.6,0.4-2.6,2.2v3.1
				c0,0.6,0.4,1.3,1,1.7L264,253c0.5,0.3,1,0.1,1-0.5v-3.1C264.9,247.6,263.9,245.4,262.4,244.2z"/>
			<g>
				<path class="st16" d="M239.7,229.3c0.3-10,7.6-14,16.5-8.8c4.6,2.7,8.8,7.2,11.8,12.5l3.3-0.8c-3.8-6.8-9.1-12.8-15.1-16.2
					c-11.2-6.5-20.4-1.4-20.5,11.4L239.7,229.3z"/>
				<path class="st16" d="M264.5,260.6c-2.4,0.2-5.3-0.5-8.3-2.2c-8.5-4.9-15.5-16.3-16.4-26.2l-4-2c1.1,12.5,9.8,26.8,20.4,32.9
					c4,2.3,7.7,3.1,10.9,2.7L264.5,260.6z"/>
				<path class="st16" d="M269.5,236c2,4.3,3.2,8.8,3.2,13c0,6-2.4,9.9-6.2,11.2l2.6,5.1c4.7-1.6,7.7-6.5,7.7-13.9
					c0-5.2-1.5-10.8-4-16.2L269.5,236z"/>
			</g>
			<path class="st16" d="M261.9,244.3c-1.1-0.9-2.1-2.1-2.9-3.5c-0.5-0.8-0.5-1.7,0-1.9c0.6-0.4,1.1-0.9,1.5-1.6
				c0.5,0.1,1.1,0,1.1-0.7c0-0.7-0.3-1.5-0.7-1.9c-0.1-3-1.2-6.2-4.7-8.2c-3.5-2-4.5-0.1-4.7,2.8c-0.4-0.1-0.7,0.3-0.7,1
				c0,0.7,0.6,1.6,1.1,2.1c0.3,1.1,0.9,2.3,1.5,3.4c0.5,0.8,0.5,1.7,0,1.9c-0.8,0.4-1.8,0.5-2.9,0.1c-1.5-0.4-2.6,0.4-2.6,2.2v3.1
				c0,0.6,0.4,1.3,1,1.7l14.5,8.4c0.5,0.3,1,0.1,1-0.5v-3.1C264.4,247.7,263.3,245.5,261.9,244.3z"/>
		</g>
	</g>
	<g>
		<g>
			<polygon class="st15" points="158.2,202.9 158.2,231.5 162.9,228.8 162.9,200.1 			"/>
			<polygon class="st12" points="158.2,202.9 158.2,231.5 52.5,170.5 52.5,141.8 			"/>
			<polygon class="st17" points="52.5,141.8 158.2,202.9 162.9,200.1 57.3,139 			"/>
			<polygon class="st6" points="52.5,141.8 158.2,202.9 162.9,200.1 158.3,202.2 			"/>
		</g>
		<polygon class="st3" points="152.8,222.8 57.7,167.3 57.7,150.5 152.8,206 		"/>
		<g>
			<path class="st14" d="M61.7,155.3l1.9,1.1l0.9,9.2l0,0l0.9-8.1l2.2,1.3l0.9,9.2l0,0l0.9-8.2l1.7,1L70,172.1l-2.5-1.4l-0.9-7.8
				l0,0l-0.9,6.8l-2.6-1.5L61.7,155.3z"/>
			<path class="st14" d="M73.1,161.9L75,163l0.9,9.2l0,0l0.9-8.1l2.2,1.3l0.9,9.2l0,0l0.9-8.2l1.7,1l-1.3,11.3l-2.5-1.4l-0.9-7.8
				l0,0l-0.9,6.8l-2.6-1.5L73.1,161.9z"/>
			<path class="st14" d="M84.6,168.4l1.9,1.1l0.9,9.2l0,0l0.9-8.1l2.2,1.3l0.9,9.2l0,0l0.9-8.2l1.7,1l-1.3,11.3l-2.5-1.4l-0.9-7.8
				l0,0l-0.9,6.8l-2.6-1.5L84.6,168.4z"/>
		</g>
	</g>
	<g>
		<g>
			<polygon class="st11" points="100.5,56 100.5,75.9 103.5,74.2 103.5,54.2 			"/>
			<polygon class="st18" points="100.5,56 100.5,75.9 82.8,65.7 82.8,45.6 			"/>
			<polygon class="st16" points="82.8,45.6 100.5,56 103.5,54.2 85.7,43.8 			"/>
			<polygon class="st3" points="82.8,45.6 100.5,56 103.5,54.2 100.4,55 			"/>
		</g>
		<g>
			<polygon class="st5" points="116.1,49.4 116.1,81.6 120.9,78.9 120.9,46.4 			"/>
			<polygon class="st19" points="87.4,32.5 116.1,49.4 120.9,46.4 92.2,29.7 			"/>
			<polygon class="st6" points="87.4,32.5 116.1,49.4 120.9,46.4 116.2,48.7 			"/>
		</g>
		<polygon class="st4" points="87.4,32.5 87.4,45.9 102.6,54.8 102.6,73.8 116.1,81.6 116.1,49.4 		"/>
	</g>
	<g>
		<g>
			<polygon class="st15" points="177.4,127.2 177.4,149.4 180.8,147.6 180.8,125.2 			"/>
			<polygon class="st12" points="177.4,127.2 177.4,149.4 157.6,138 157.6,115.6 			"/>
			<polygon class="st17" points="157.6,115.6 177.4,127.2 180.8,125.2 160.9,113.6 			"/>
			<polygon class="st6" points="157.6,115.6 177.4,127.2 180.8,125.2 177.3,126.1 			"/>
		</g>
		<g>
			<polygon class="st15" points="203.4,142.2 203.4,164.4 206.8,162.6 206.8,140.2 			"/>
			<polygon class="st12" points="203.4,142.2 203.4,164.4 183.6,153 183.6,130.6 			"/>
			<polygon class="st17" points="183.6,130.6 203.4,142.2 206.8,140.2 186.9,128.6 			"/>
			<polygon class="st6" points="183.6,130.6 203.4,142.2 206.8,140.2 203.3,141.1 			"/>
		</g>
		<g>
			<polygon class="st15" points="229.3,157 229.3,179.3 232.6,177.4 232.6,155 			"/>
			<polygon class="st12" points="229.3,157 229.3,179.3 209.5,167.8 209.5,145.4 			"/>
			<polygon class="st17" points="209.5,145.4 229.3,157 232.6,155 212.8,143.4 			"/>
			<polygon class="st6" points="209.5,145.4 229.3,157 232.6,155 229.1,156 			"/>
		</g>
		<g>
			<polygon class="st15" points="254.8,171.5 254.8,193.8 258.1,191.9 258.1,169.5 			"/>
			<polygon class="st12" points="254.8,171.5 254.8,193.8 235,182.3 235,159.9 			"/>
			<polygon class="st17" points="235,159.9 254.8,171.5 258.1,169.5 238.3,157.9 			"/>
			<polygon class="st6" points="235,159.9 254.8,171.5 258.1,169.5 254.6,170.5 			"/>
		</g>
		<path class="st3" d="M223.3,166.5c-0.7-0.6-1.3-1.4-1.8-2.2c-0.3-0.5-0.3-1.1,0-1.2c0.4-0.2,0.7-0.6,0.9-1c0.3,0.1,0.7,0,0.7-0.5
			c0-0.4-0.2-0.9-0.5-1.2c-0.1-1.9-0.7-3.9-2.9-5.2c-2.2-1.3-2.9-0.1-2.9,1.8c-0.3-0.1-0.5,0.2-0.5,0.7c0,0.4,0.4,1,0.7,1.3
			c0.2,0.7,0.6,1.5,0.9,2.1c0.3,0.5,0.3,1.1,0,1.2c-0.5,0.3-1.1,0.3-1.8,0.1c-0.9-0.3-1.6,0.3-1.6,1.4v2c0,0.4,0.3,0.9,0.6,1
			l9.2,5.3c0.3,0.2,0.6,0,0.6-0.3v-2C224.9,168.6,224.3,167.2,223.3,166.5z"/>
		<path class="st3" d="M238.5,180.8l3.2,1.9v-5.8l-3.2-1.9V180.8z M243.6,183.7l3.2,1.9V175l-3.2-1.9V183.7z M248.7,171.3v15.4
			l3.2,1.9v-15.4L248.7,171.3z"/>
		<path class="st3" d="M198.7,150.8c0-0.3,0-0.6-0.1-0.9l1.5-0.2c-0.2-0.8-0.4-1.5-0.7-2.3l-1.7-0.5c-0.3-0.6-0.7-1.3-1.1-1.9
			l0.4-1.7c-0.5-0.6-1.1-1.2-1.7-1.7l-0.9,1.2c-0.2-0.2-0.5-0.4-0.8-0.5s-0.5-0.3-0.8-0.4l-0.9-2.3c-0.6-0.2-1.1-0.2-1.7-0.2
			l0.4,2.2c-0.4,0.1-0.8,0.3-1.1,0.6l-1.7-1.5c-0.3,0.4-0.5,0.9-0.7,1.5l1.5,1.9c0,0.3-0.1,0.5-0.1,0.8c0,0.3,0,0.6,0.1,0.9
			l-1.5,0.2c0.2,0.8,0.4,1.5,0.7,2.3l1.7,0.5c0.3,0.6,0.7,1.3,1.1,1.9l-0.4,1.7c0.5,0.6,1.1,1.2,1.7,1.7l0.9-1.2
			c0.2,0.2,0.5,0.4,0.8,0.5c0.3,0.1,0.5,0.3,0.8,0.4l0.9,2.3c0.6,0.2,1.1,0.2,1.7,0.2l-0.4-2.2c0.4-0.1,0.8-0.3,1.1-0.6l1.7,1.5
			c0.3-0.4,0.5-0.9,0.7-1.5l-1.5-1.9C198.7,151.3,198.7,151.1,198.7,150.8z M193.7,150.2c-1.1-0.6-2-2.2-2-3.4c0-1.3,0.9-1.8,2-1.1
			c1.1,0.6,2,2.2,2,3.4C195.7,150.3,194.8,150.8,193.7,150.2z"/>
		<g>
			<path class="st3" d="M161.3,124.4l6.4,10l6.4-2.6c0,0,0,0,0,0c-0.2-0.3-0.5-0.6-0.8-0.7l-11.3-6.5
				C161.8,124.4,161.5,124.4,161.3,124.4C161.3,124.4,161.3,124.4,161.3,124.4z"/>
			<path class="st3" d="M174.1,131.8l-6.4,3.6l-1.8-3.1l-4.6,1.9c0,0,0,0,0,0l4.2-2.4l-4.2-7.3c-0.3,0.1-0.5,0.4-0.5,0.8v7.6
				c0,0.8,0.6,1.8,1.2,2.2l11.3,6.5c0.7,0.4,1.3,0.1,1.3-0.7v-7.6C174.6,132.8,174.4,132.2,174.1,131.8z M174.1,141.6l-4.6-7.1
				l0.3-0.2L174.1,141.6C174.1,141.6,174.1,141.6,174.1,141.6z"/>
		</g>
	</g>
	<g>
		<g>
			<polygon class="st13" points="77.6,192.3 77.6,220.8 82.2,218.3 82.2,189.5 			"/>
			<polygon class="st7" points="77.7,192.3 77.7,220.8 1,176.6 1,147.9 			"/>
			<polygon class="st0" points="1,147.9 77.7,192.3 82.2,189.5 5.4,145.2 			"/>
			<polygon class="st6" points="1,147.9 77.7,192.3 82.2,189.5 77.5,191.4 			"/>
		</g>
		<path class="st3" d="M30.6,169.7l-14-8.1c-0.9-0.5-1.6-0.1-1.6,0.9v9.5c0,1,0.7,2.2,1.6,2.7l8.8,5.1l4.4,7.6v-5l0.9,0.5
			c0.9,0.5,1.6,0.1,1.6-0.9v-9.5C32.2,171.4,31.5,170.2,30.6,169.7z M20.7,171.5c-0.5,0.3-1.2-0.2-1.7-1c-0.5-0.8-0.5-1.6,0-1.9
			c0.5-0.3,1.2,0.2,1.7,1C21.2,170.3,21.2,171.2,20.7,171.5z M24.5,173.6c-0.5,0.3-1.2-0.2-1.7-1c-0.5-0.8-0.5-1.6,0-1.9
			c0.5-0.3,1.2,0.2,1.7,1C25,172.5,25,173.4,24.5,173.6z M28.3,175.8c-0.5,0.3-1.2-0.2-1.7-1c-0.5-0.8-0.5-1.6,0-1.9
			c0.5-0.3,1.2,0.2,1.7,1C28.8,174.7,28.8,175.6,28.3,175.8z M13.9,171.3v-7.7l-5.4-3.1C7.7,160,7,160.4,7,161.4v9.5
			c0,1,0.7,2.2,1.6,2.7l0.9,0.5v5l4.4-2.5l8.8,5.1c0.9,0.5,1.6,0.1,1.6-0.9v-0.4l-7.5-4.3C15.1,175.1,13.9,173,13.9,171.3z"/>
		<polygon class="st3" points="35.4,174.5 35.4,176.8 72,198 72,195.6 		"/>
		<polygon class="st3" points="60.4,198.8 35.4,184.3 35.4,186.7 60.4,201.1 		"/>
		<polygon class="st3" points="35.4,181.8 72,202.9 72,200.5 35.4,179.4 		"/>
	</g>
	<g>
		<path class="st20" d="M128.7,251.9l-23.8-13.4c2.1-1.5,3.3-3.3,3.3-5.2c0-5.3-9.1-9.6-20.3-9.6s-20.3,4.3-20.3,9.6
			c0,5.3,9.1,9.6,20.3,9.6c2.3,0,4.6-0.2,6.7-0.5l25.6,14.4c1.7,1,4.5,0.8,6.5-0.3C128.8,255.5,131.3,253.4,128.7,251.9z"/>
		<g>
			<g>
				<path class="st10" d="M128.7,249.3c1.4,2.6,0.4,6-2.2,7.4c-2.6,1.4-6,0.4-7.4-2.2c-1.4-2.6-0.4-6,2.2-7.4
					C123.9,245.7,127.2,246.7,128.7,249.3z"/>
				<path class="st14" d="M111.4,215.1l-11.8,6.4l17.6,32.5l0,0c0,0,0,0,0,0c1,1.9,4.5,2,7.7,0.3c3.3-1.8,5.1-4.7,4-6.6c0,0,0,0,0,0
					l0,0L111.4,215.1z"/>
				<path class="st13" d="M111.4,215.1c1,1.9-0.8,4.9-4,6.6c-3.3,1.8-6.7,1.6-7.7-0.3c-1-1.9,0.8-4.9,4-6.6
					C106.9,213.1,110.4,213.2,111.4,215.1z"/>
				<path class="st10" d="M103.7,206.4l-7,3.8l5,9.3l0,0c0,0,0,0,0,0c0.6,1.1,2.7,1.2,4.6,0.2c1.9-1,3-2.8,2.4-3.9c0,0,0,0,0,0l0,0
					L103.7,206.4z"/>
			</g>
			<g>
				<path class="st0" d="M83.9,132c-8.7-5-16.7-5.6-22.5-2.5c-0.2,0.1-8.5,4.7-8.7,5.1c5.9-4.5,14.6-4.4,24.4,1.2
					c17.8,10.3,32.2,35.1,32.2,55.5c0,10.4-3.8,17.6-9.8,20.9c0.4-0.1,0.9-0.3,1.6-0.7c0.2-0.1,5.8-3.5,6-3.6c5.6-3.4,9-10.5,9-20.4
					C116,167.1,101.6,142.3,83.9,132z"/>
			</g>
			<path class="st2" d="M77.1,135.9c-17.8-10.3-32.2-2-32.2,18.3c0,20.4,14.4,45.2,32.2,55.5c17.8,10.3,32.2,2,32.2-18.3
				S94.8,146.2,77.1,135.9z M76.6,204.9c-15.1-8.7-27.3-29.8-27.3-47.1s12.2-24.3,27.3-15.6c15.1,8.7,27.3,29.8,27.3,47.1
				C103.9,206.6,91.6,213.6,76.6,204.9z"/>
			<path class="st0" d="M82.2,201.7c-15.1-8.7-27.3-29.8-27.3-47.1c0-7.1,2-12.4,5.5-15.6c-6.7,1.8-11.1,8.5-11.1,18.8
				c0,17.3,12.2,38.4,27.3,47.1c8.9,5.2,16.9,4.8,21.8,0.1C93.9,206.2,88.3,205.2,82.2,201.7z"/>
			<path class="st3" d="M78.6,135.1c-8.5-4.9-16.3-5.6-22-2.7c5.4-1.5,13.3-0.7,20.5,3.5c17.8,10.3,32.2,35.1,32.2,55.5
				c0,10.6-5.1,18.2-11.4,21.4c7.9-2.2,12.9-10,12.9-22.1C110.8,170.2,96.4,145.4,78.6,135.1z"/>
		</g>
	</g>
</g>
</svg>
